<svg width="401" height="768" viewBox="0 0 401 768" fill="none" xmlns="http://www.w3.org/2000/svg">
<path d="M135.009 199.6C134.049 199.6 133.569 199.96 133.569 200.56C133.569 201.16 134.049 201.52 135.009 201.52H140.649C140.169 209.68 132.369 238.84 102.009 251.44L103.689 253.24C118.449 249.04 144.129 239.68 152.409 230.08L154.689 227.08C158.889 232.6 175.209 248.2 177.369 250.36C183.489 256.12 194.049 251.56 194.649 242.44C195.129 234.4 165.129 224.44 159.729 221.08C160.809 218.56 161.409 214.48 162.249 211.6C162.609 209.32 162.489 207.4 161.649 205.6C160.209 202.6 156.729 199.6 148.089 199.6H135.009ZM204.489 277.24V274.84L192.729 266.92L180.969 274.84H159.849V256.48C159.849 251.32 155.289 248.2 150.489 246.64C147.729 245.68 144.609 244.96 141.129 244.48V274.84H98.4091V277.24L105.489 280.36L112.569 277.24H204.489ZM207.969 349.36C204.729 349.36 201.969 351.04 200.529 353.8H197.169V314.68L172.089 312.28H171.969C171.129 312.28 170.769 312.64 170.769 313.36C170.769 313.96 171.129 314.44 171.849 314.56L178.449 315.28V366.52L177.969 366.88C175.209 369.16 170.289 369.88 156.489 370.84H147.729C147.369 369.28 146.529 367.84 145.209 366.76C143.409 365.2 141.369 363.88 139.209 363.04L137.769 362.56C140.889 362.44 143.889 362.08 146.649 361.24C156.129 358.6 162.849 352.12 162.849 344.92C162.849 334.84 150.729 327.04 136.689 327.04C122.649 327.04 110.529 334.84 110.529 344.92C110.529 352.12 117.369 358.6 126.609 361.24C127.929 361.6 129.129 361.96 130.449 362.08V370.84H105.729V373.24L112.809 376.36L119.889 373.24H151.209C162.369 373.24 170.409 372.16 176.169 370.36L178.449 369.64V377.8C181.929 377.32 185.049 376.6 187.809 375.64C192.489 374.08 197.169 370.96 197.169 365.8V357.76H216.369C216.369 353.08 212.649 349.36 207.969 349.36ZM195.489 381.16H118.929V383.44L129.009 388L139.209 383.44H174.489V414.16C174.969 414.16 195.489 412 195.489 400.72V381.16ZM136.689 360.76C128.769 360.76 125.529 352.24 125.529 344.92C125.529 337.12 128.769 328.84 136.689 328.84C144.729 328.84 147.849 337.12 147.849 344.92C147.849 352.24 144.729 360.76 136.689 360.76ZM147.129 311.56C142.329 306.4 136.329 305.44 131.529 305.8C128.769 306.04 125.889 306.76 123.129 307.96C126.249 312.64 131.289 316.6 133.209 318.16C138.369 322.72 151.929 317.08 147.129 311.56ZM171.009 324.64V322.24L161.649 317.92L152.289 322.24H106.929V324.64L112.809 327.76L118.689 324.64H171.009ZM199.449 434.68L176.769 432.28H176.649C175.809 432.28 175.449 432.64 175.449 433.36C175.449 433.96 175.809 434.44 176.529 434.56L183.129 435.28V463H175.449V438.28L152.769 435.88H152.649C151.809 435.88 151.449 436.24 151.449 436.96C151.449 437.56 151.809 438.04 152.529 438.16L159.129 438.88V491.2C157.809 491.44 156.489 491.68 155.169 492.04C144.129 495.04 134.409 502.6 134.409 513.16C134.409 525.64 148.689 534.4 166.329 534.4C183.969 534.4 198.249 525.64 198.249 513.16C198.249 507.4 195.369 502.12 190.569 498.28C188.649 496.72 186.489 495.4 184.209 494.32C186.729 493.84 189.129 493.12 191.289 492.28C195.489 490.48 199.449 487.6 199.449 482.44V434.68ZM128.409 452.2C113.649 452.2 100.689 460.96 100.689 472C100.689 482.8 113.649 491.56 128.409 491.56C143.169 491.56 156.129 482.8 156.129 472C156.129 460.96 143.169 452.2 128.409 452.2ZM166.329 530.8C156.249 530.8 152.769 522.88 152.769 513.16C152.769 503.32 156.249 494.08 166.329 494.08C176.289 494.08 179.889 503.32 179.889 513.16C179.889 522.88 176.289 530.8 166.329 530.8ZM128.409 489.64C120.009 489.64 116.529 480.4 116.529 472C116.529 463.24 120.009 454.24 128.409 454.24C136.689 454.24 140.169 463.24 140.169 472C140.169 480.4 136.689 489.64 128.409 489.64ZM136.089 437.92C131.769 432.76 126.249 431.8 121.929 432.16C119.409 432.4 116.889 433.12 114.369 434.32C117.129 439 121.569 442.96 123.489 444.52C128.289 448.96 140.289 443.44 136.089 437.92ZM170.289 490.72C171.249 490.12 172.089 489.4 172.929 488.68C174.609 487.12 175.449 484.96 175.449 482.44V466.96H183.129V493.84L182.049 493.36C178.809 492.04 175.329 491.2 171.609 490.72H170.289ZM156.609 450.64V448.24L148.089 443.92L139.689 448.24H98.6491V450.64L103.929 453.76L109.209 450.64H156.609Z" fill="black"/>
<path d="M283.217 438.368C283.613 438.368 283.925 438.368 284.153 438.368C284.393 438.356 284.579 438.344 284.711 438.332C284.843 438.32 285.005 438.302 285.197 438.278C285.401 438.254 285.569 438.218 285.701 438.17C285.821 438.134 285.923 438.092 286.007 438.044C286.103 437.996 286.181 437.948 286.241 437.9C286.409 437.912 286.571 437.924 286.727 437.936C286.895 437.936 287.057 437.948 287.213 437.972C287.405 437.984 287.585 438.008 287.753 438.044C287.921 438.068 288.071 438.092 288.203 438.116C288.371 438.152 288.509 438.212 288.617 438.296C288.725 438.38 288.779 438.506 288.779 438.674C288.779 438.806 288.743 438.914 288.671 438.998C288.611 439.094 288.509 439.142 288.365 439.142C288.305 439.142 288.167 439.13 287.951 439.106C287.747 439.094 287.567 439.082 287.411 439.07C287.183 439.046 286.871 439.028 286.475 439.016C286.091 439.004 285.749 438.998 285.449 438.998H279.113C278.681 438.998 278.261 439.004 277.853 439.016C277.457 439.04 277.175 439.064 277.007 439.088C276.851 439.1 276.683 439.124 276.503 439.16C276.323 439.196 276.173 439.232 276.053 439.268C275.957 439.292 275.849 439.328 275.729 439.376C275.609 439.436 275.501 439.49 275.405 439.538C275.381 439.538 275.327 439.52 275.243 439.484C275.159 439.46 275.087 439.436 275.027 439.412C274.943 439.376 274.847 439.334 274.739 439.286C274.643 439.238 274.529 439.184 274.397 439.124C274.289 439.064 274.169 438.998 274.037 438.926C273.905 438.866 273.791 438.806 273.695 438.746C273.611 438.686 273.521 438.62 273.425 438.548C273.341 438.476 273.299 438.41 273.299 438.35C273.299 438.29 273.323 438.248 273.371 438.224C273.419 438.188 273.479 438.176 273.551 438.188C273.695 438.2 273.875 438.218 274.091 438.242C274.307 438.266 274.511 438.284 274.703 438.296C275.015 438.308 275.381 438.326 275.801 438.35C276.221 438.362 276.659 438.368 277.115 438.368H280.589V434.372C280.589 434.252 280.565 434.15 280.517 434.066C280.469 433.982 280.397 433.898 280.301 433.814C280.241 433.754 280.163 433.7 280.067 433.652C279.983 433.592 279.905 433.544 279.833 433.508C279.749 433.46 279.653 433.412 279.545 433.364C279.437 433.316 279.347 433.28 279.275 433.256C279.215 433.232 279.143 433.202 279.059 433.166C278.987 433.13 278.951 433.088 278.951 433.04C278.951 432.956 278.993 432.896 279.077 432.86C279.173 432.824 279.263 432.806 279.347 432.806C279.407 432.806 279.533 432.818 279.725 432.842C279.929 432.866 280.121 432.896 280.301 432.932C280.433 432.956 280.607 432.998 280.823 433.058C281.039 433.106 281.207 433.154 281.327 433.202C281.423 433.238 281.513 433.28 281.597 433.328C281.681 433.376 281.723 433.442 281.723 433.526C281.723 433.574 281.699 433.676 281.651 433.832C281.615 433.976 281.597 434.168 281.597 434.408V438.368H283.217ZM280.607 428.396C280.439 428.588 280.235 428.786 279.995 428.99C279.767 429.194 279.515 429.41 279.239 429.638C278.951 429.878 278.645 430.112 278.321 430.34C277.997 430.568 277.697 430.766 277.421 430.934C277.157 431.09 276.851 431.27 276.503 431.474C276.155 431.678 275.867 431.84 275.639 431.96C275.399 432.08 275.117 432.218 274.793 432.374C274.469 432.518 274.193 432.638 273.965 432.734C273.809 432.782 273.695 432.758 273.623 432.662C273.563 432.554 273.611 432.47 273.767 432.41C274.007 432.266 274.295 432.092 274.631 431.888C274.979 431.684 275.267 431.504 275.495 431.348C275.735 431.192 275.993 431.012 276.269 430.808C276.545 430.604 276.797 430.418 277.025 430.25C277.253 430.082 277.493 429.89 277.745 429.674C278.009 429.446 278.243 429.242 278.447 429.062C278.639 428.894 278.831 428.708 279.023 428.504C279.227 428.288 279.407 428.102 279.563 427.946C279.707 427.79 279.857 427.616 280.013 427.424C280.169 427.232 280.307 427.058 280.427 426.902C280.547 426.746 280.655 426.596 280.751 426.452C280.847 426.308 280.937 426.158 281.021 426.002C281.009 425.954 280.967 425.894 280.895 425.822C280.823 425.75 280.745 425.69 280.661 425.642C280.589 425.582 280.505 425.528 280.409 425.48C280.313 425.432 280.235 425.39 280.175 425.354C280.103 425.318 280.019 425.276 279.923 425.228C279.827 425.168 279.779 425.114 279.779 425.066C279.779 425.006 279.815 424.958 279.887 424.922C279.959 424.874 280.055 424.856 280.175 424.868C280.295 424.88 280.433 424.904 280.589 424.94C280.745 424.976 280.883 425.012 281.003 425.048C281.135 425.084 281.267 425.126 281.399 425.174C281.543 425.222 281.663 425.27 281.759 425.318C281.867 425.366 281.993 425.432 282.137 425.516C282.281 425.6 282.353 425.684 282.353 425.768C282.341 425.852 282.305 425.96 282.245 426.092C282.185 426.212 282.125 426.32 282.065 426.416C281.993 426.548 281.909 426.692 281.813 426.848C281.717 426.992 281.615 427.142 281.507 427.298C281.423 427.406 281.345 427.502 281.273 427.586C281.213 427.67 281.147 427.76 281.075 427.856C281.219 427.952 281.375 428.06 281.543 428.18C281.711 428.288 281.873 428.39 282.029 428.486C282.233 428.606 282.467 428.738 282.731 428.882C282.995 429.026 283.223 429.146 283.415 429.242C283.619 429.35 283.859 429.458 284.135 429.566C284.423 429.674 284.663 429.758 284.855 429.818C285.035 429.866 285.239 429.914 285.467 429.962C285.695 429.998 285.863 430.022 285.971 430.034C286.151 430.154 286.349 430.298 286.565 430.466C286.781 430.622 286.985 430.778 287.177 430.934C287.393 431.114 287.591 431.312 287.771 431.528C287.951 431.732 287.999 431.918 287.915 432.086C287.855 432.206 287.753 432.26 287.609 432.248C287.465 432.224 287.327 432.188 287.195 432.14C287.039 432.068 286.847 431.972 286.619 431.852C286.391 431.72 286.157 431.594 285.917 431.474C285.605 431.306 285.305 431.144 285.017 430.988C284.729 430.832 284.411 430.658 284.063 430.466C283.727 430.274 283.409 430.088 283.109 429.908C282.809 429.728 282.485 429.542 282.137 429.35C281.861 429.182 281.597 429.02 281.345 428.864C281.093 428.696 280.847 428.54 280.607 428.396ZM283.217 458.368C283.613 458.368 283.925 458.368 284.153 458.368C284.393 458.356 284.579 458.344 284.711 458.332C284.843 458.32 285.005 458.302 285.197 458.278C285.401 458.254 285.569 458.218 285.701 458.17C285.821 458.134 285.923 458.092 286.007 458.044C286.103 457.996 286.181 457.948 286.241 457.9C286.409 457.912 286.571 457.924 286.727 457.936C286.895 457.936 287.057 457.948 287.213 457.972C287.405 457.984 287.585 458.008 287.753 458.044C287.921 458.068 288.071 458.092 288.203 458.116C288.371 458.152 288.509 458.212 288.617 458.296C288.725 458.38 288.779 458.506 288.779 458.674C288.779 458.806 288.743 458.914 288.671 458.998C288.611 459.094 288.509 459.142 288.365 459.142C288.305 459.142 288.167 459.13 287.951 459.106C287.747 459.094 287.567 459.082 287.411 459.07C287.183 459.046 286.871 459.028 286.475 459.016C286.091 459.004 285.749 458.998 285.449 458.998H279.113C278.681 458.998 278.261 459.004 277.853 459.016C277.457 459.04 277.175 459.064 277.007 459.088C276.851 459.1 276.683 459.124 276.503 459.16C276.323 459.196 276.173 459.232 276.053 459.268C275.957 459.292 275.849 459.328 275.729 459.376C275.609 459.436 275.501 459.49 275.405 459.538C275.381 459.538 275.327 459.52 275.243 459.484C275.159 459.46 275.087 459.436 275.027 459.412C274.943 459.376 274.847 459.334 274.739 459.286C274.643 459.238 274.529 459.184 274.397 459.124C274.289 459.064 274.169 458.998 274.037 458.926C273.905 458.866 273.791 458.806 273.695 458.746C273.611 458.686 273.521 458.62 273.425 458.548C273.341 458.476 273.299 458.41 273.299 458.35C273.299 458.29 273.323 458.248 273.371 458.224C273.419 458.188 273.479 458.176 273.551 458.188C273.695 458.2 273.875 458.218 274.091 458.242C274.307 458.266 274.511 458.284 274.703 458.296C275.015 458.308 275.381 458.326 275.801 458.35C276.221 458.362 276.659 458.368 277.115 458.368H280.589V454.372C280.589 454.252 280.565 454.15 280.517 454.066C280.469 453.982 280.397 453.898 280.301 453.814C280.241 453.754 280.163 453.7 280.067 453.652C279.983 453.592 279.905 453.544 279.833 453.508C279.749 453.46 279.653 453.412 279.545 453.364C279.437 453.316 279.347 453.28 279.275 453.256C279.215 453.232 279.143 453.202 279.059 453.166C278.987 453.13 278.951 453.088 278.951 453.04C278.951 452.956 278.993 452.896 279.077 452.86C279.173 452.824 279.263 452.806 279.347 452.806C279.407 452.806 279.533 452.818 279.725 452.842C279.929 452.866 280.121 452.896 280.301 452.932C280.433 452.956 280.607 452.998 280.823 453.058C281.039 453.106 281.207 453.154 281.327 453.202C281.423 453.238 281.513 453.28 281.597 453.328C281.681 453.376 281.723 453.442 281.723 453.526C281.723 453.574 281.699 453.676 281.651 453.832C281.615 453.976 281.597 454.168 281.597 454.408V458.368H283.217ZM280.607 448.396C280.439 448.588 280.235 448.786 279.995 448.99C279.767 449.194 279.515 449.41 279.239 449.638C278.951 449.878 278.645 450.112 278.321 450.34C277.997 450.568 277.697 450.766 277.421 450.934C277.157 451.09 276.851 451.27 276.503 451.474C276.155 451.678 275.867 451.84 275.639 451.96C275.399 452.08 275.117 452.218 274.793 452.374C274.469 452.518 274.193 452.638 273.965 452.734C273.809 452.782 273.695 452.758 273.623 452.662C273.563 452.554 273.611 452.47 273.767 452.41C274.007 452.266 274.295 452.092 274.631 451.888C274.979 451.684 275.267 451.504 275.495 451.348C275.735 451.192 275.993 451.012 276.269 450.808C276.545 450.604 276.797 450.418 277.025 450.25C277.253 450.082 277.493 449.89 277.745 449.674C278.009 449.446 278.243 449.242 278.447 449.062C278.639 448.894 278.831 448.708 279.023 448.504C279.227 448.288 279.407 448.102 279.563 447.946C279.707 447.79 279.857 447.616 280.013 447.424C280.169 447.232 280.307 447.058 280.427 446.902C280.547 446.746 280.655 446.596 280.751 446.452C280.847 446.308 280.937 446.158 281.021 446.002C281.009 445.954 280.967 445.894 280.895 445.822C280.823 445.75 280.745 445.69 280.661 445.642C280.589 445.582 280.505 445.528 280.409 445.48C280.313 445.432 280.235 445.39 280.175 445.354C280.103 445.318 280.019 445.276 279.923 445.228C279.827 445.168 279.779 445.114 279.779 445.066C279.779 445.006 279.815 444.958 279.887 444.922C279.959 444.874 280.055 444.856 280.175 444.868C280.295 444.88 280.433 444.904 280.589 444.94C280.745 444.976 280.883 445.012 281.003 445.048C281.135 445.084 281.267 445.126 281.399 445.174C281.543 445.222 281.663 445.27 281.759 445.318C281.867 445.366 281.993 445.432 282.137 445.516C282.281 445.6 282.353 445.684 282.353 445.768C282.341 445.852 282.305 445.96 282.245 446.092C282.185 446.212 282.125 446.32 282.065 446.416C281.993 446.548 281.909 446.692 281.813 446.848C281.717 446.992 281.615 447.142 281.507 447.298C281.423 447.406 281.345 447.502 281.273 447.586C281.213 447.67 281.147 447.76 281.075 447.856C281.219 447.952 281.375 448.06 281.543 448.18C281.711 448.288 281.873 448.39 282.029 448.486C282.233 448.606 282.467 448.738 282.731 448.882C282.995 449.026 283.223 449.146 283.415 449.242C283.619 449.35 283.859 449.458 284.135 449.566C284.423 449.674 284.663 449.758 284.855 449.818C285.035 449.866 285.239 449.914 285.467 449.962C285.695 449.998 285.863 450.022 285.971 450.034C286.151 450.154 286.349 450.298 286.565 450.466C286.781 450.622 286.985 450.778 287.177 450.934C287.393 451.114 287.591 451.312 287.771 451.528C287.951 451.732 287.999 451.918 287.915 452.086C287.855 452.206 287.753 452.26 287.609 452.248C287.465 452.224 287.327 452.188 287.195 452.14C287.039 452.068 286.847 451.972 286.619 451.852C286.391 451.72 286.157 451.594 285.917 451.474C285.605 451.306 285.305 451.144 285.017 450.988C284.729 450.832 284.411 450.658 284.063 450.466C283.727 450.274 283.409 450.088 283.109 449.908C282.809 449.728 282.485 449.542 282.137 449.35C281.861 449.182 281.597 449.02 281.345 448.864C281.093 448.696 280.847 448.54 280.607 448.396ZM286.331 471.96C286.463 471.96 286.589 471.948 286.709 471.924C286.829 471.888 286.943 471.834 287.051 471.762C287.135 471.702 287.207 471.642 287.267 471.582C287.327 471.522 287.369 471.468 287.393 471.42C287.525 471.432 287.675 471.444 287.843 471.456C288.023 471.468 288.173 471.486 288.293 471.51C288.497 471.534 288.671 471.594 288.815 471.69C288.971 471.774 289.049 471.912 289.049 472.104C289.049 472.26 289.007 472.374 288.923 472.446C288.851 472.506 288.743 472.536 288.599 472.536H286.097V476.73C286.097 476.97 286.091 477.27 286.079 477.63C286.067 477.978 286.055 478.254 286.043 478.458C286.031 478.818 286.013 479.118 285.989 479.358C285.965 479.61 285.941 479.79 285.917 479.898C285.893 480.054 285.863 480.186 285.827 480.294C285.803 480.402 285.779 480.486 285.755 480.546C285.731 480.606 285.695 480.66 285.647 480.708C285.611 480.768 285.563 480.798 285.503 480.798C285.455 480.798 285.413 480.768 285.377 480.708C285.341 480.66 285.311 480.612 285.287 480.564C285.275 480.504 285.257 480.432 285.233 480.348C285.221 480.276 285.209 480.198 285.197 480.114C285.185 479.946 285.173 479.802 285.161 479.682C285.161 479.562 285.155 479.394 285.143 479.178C285.131 478.914 285.125 478.566 285.125 478.134C285.125 477.702 285.125 477.414 285.125 477.27V465.786C285.125 465.666 285.113 465.558 285.089 465.462C285.065 465.366 285.029 465.282 284.981 465.21C284.933 465.15 284.879 465.09 284.819 465.03C284.759 464.958 284.687 464.898 284.603 464.85C284.519 464.79 284.429 464.736 284.333 464.688C284.249 464.64 284.159 464.592 284.063 464.544C283.979 464.508 283.883 464.472 283.775 464.436C283.679 464.388 283.595 464.352 283.523 464.328C283.451 464.304 283.373 464.274 283.289 464.238C283.217 464.202 283.181 464.154 283.181 464.094C283.181 464.022 283.229 463.968 283.325 463.932C283.421 463.896 283.529 463.878 283.649 463.878C283.721 463.878 283.865 463.896 284.081 463.932C284.309 463.956 284.525 463.998 284.729 464.058C284.873 464.094 285.041 464.142 285.233 464.202C285.425 464.25 285.605 464.304 285.773 464.364C285.893 464.412 286.001 464.466 286.097 464.526C286.205 464.586 286.259 464.664 286.259 464.76C286.259 464.808 286.247 464.868 286.223 464.94C286.199 465 286.175 465.072 286.151 465.156C286.139 465.228 286.127 465.324 286.115 465.444C286.103 465.564 286.097 465.654 286.097 465.714V471.96H286.331ZM278.573 477.918C278.225 477.918 277.895 477.894 277.583 477.846C277.283 477.786 277.031 477.72 276.827 477.648C276.647 477.588 276.461 477.504 276.269 477.396C276.077 477.288 275.909 477.174 275.765 477.054C275.561 476.886 275.393 476.718 275.261 476.55C275.129 476.37 275.015 476.196 274.919 476.028C274.787 475.764 274.691 475.5 274.631 475.236C274.583 474.96 274.559 474.696 274.559 474.444C274.559 474.192 274.583 473.934 274.631 473.67C274.691 473.394 274.787 473.124 274.919 472.86C275.015 472.692 275.129 472.518 275.261 472.338C275.393 472.158 275.561 471.99 275.765 471.834C275.909 471.714 276.077 471.6 276.269 471.492C276.461 471.384 276.647 471.3 276.827 471.24C277.031 471.168 277.283 471.108 277.583 471.06C277.895 471 278.225 470.97 278.573 470.97C278.921 470.97 279.251 471 279.563 471.06C279.875 471.108 280.127 471.168 280.319 471.24C280.499 471.3 280.685 471.384 280.877 471.492C281.069 471.6 281.237 471.714 281.381 471.834C281.585 471.99 281.753 472.158 281.885 472.338C282.029 472.518 282.143 472.692 282.227 472.86C282.359 473.124 282.449 473.394 282.497 473.67C282.557 473.934 282.587 474.192 282.587 474.444C282.587 474.696 282.557 474.96 282.497 475.236C282.449 475.5 282.359 475.764 282.227 476.028C282.143 476.196 282.029 476.37 281.885 476.55C281.753 476.718 281.585 476.886 281.381 477.054C281.237 477.174 281.069 477.288 280.877 477.396C280.685 477.504 280.499 477.588 280.319 477.648C280.127 477.72 279.875 477.786 279.563 477.846C279.251 477.894 278.921 477.918 278.573 477.918ZM278.573 477.288C278.849 477.288 279.113 477.264 279.365 477.216C279.629 477.156 279.839 477.09 279.995 477.018C280.127 476.958 280.277 476.868 280.445 476.748C280.625 476.628 280.757 476.52 280.841 476.424C280.961 476.292 281.069 476.148 281.165 475.992C281.261 475.836 281.333 475.686 281.381 475.542C281.441 475.398 281.483 475.218 281.507 475.002C281.543 474.774 281.561 474.582 281.561 474.426C281.561 474.258 281.543 474.066 281.507 473.85C281.483 473.634 281.441 473.454 281.381 473.31C281.333 473.166 281.261 473.016 281.165 472.86C281.069 472.692 280.961 472.548 280.841 472.428C280.757 472.332 280.625 472.224 280.445 472.104C280.277 471.984 280.127 471.894 279.995 471.834C279.839 471.762 279.629 471.702 279.365 471.654C279.113 471.594 278.849 471.564 278.573 471.564C278.309 471.564 278.045 471.594 277.781 471.654C277.529 471.702 277.319 471.762 277.151 471.834C277.019 471.894 276.869 471.984 276.701 472.104C276.533 472.224 276.401 472.332 276.305 472.428C276.185 472.548 276.077 472.692 275.981 472.86C275.897 473.016 275.825 473.166 275.765 473.31C275.717 473.454 275.675 473.634 275.639 473.85C275.603 474.066 275.585 474.258 275.585 474.426C275.585 474.582 275.603 474.774 275.639 475.002C275.675 475.218 275.717 475.398 275.765 475.542C275.825 475.686 275.897 475.836 275.981 475.992C276.077 476.148 276.185 476.292 276.305 476.424C276.401 476.52 276.533 476.628 276.701 476.748C276.869 476.868 277.019 476.958 277.151 477.018C277.319 477.09 277.529 477.156 277.781 477.216C278.045 477.264 278.309 477.288 278.573 477.288ZM277.187 466.362C276.947 466.362 276.719 466.332 276.503 466.272C276.299 466.2 276.119 466.122 275.963 466.038C275.843 465.966 275.711 465.87 275.567 465.75C275.435 465.63 275.369 465.522 275.369 465.426C275.369 465.366 275.399 465.324 275.459 465.3C275.519 465.276 275.573 465.276 275.621 465.3C275.705 465.324 275.801 465.354 275.909 465.39C276.029 465.414 276.131 465.438 276.215 465.462C276.335 465.486 276.521 465.516 276.773 465.552C277.025 465.576 277.337 465.588 277.709 465.588H278.843C279.107 465.588 279.317 465.57 279.473 465.534C279.629 465.498 279.749 465.438 279.833 465.354C279.989 465.366 280.151 465.378 280.319 465.39C280.487 465.402 280.631 465.42 280.751 465.444C280.895 465.468 281.039 465.516 281.183 465.588C281.327 465.648 281.399 465.774 281.399 465.966C281.399 466.086 281.357 466.182 281.273 466.254C281.189 466.326 281.075 466.362 280.931 466.362H277.187ZM277.511 469.188C277.283 469.188 277.007 469.2 276.683 469.224C276.359 469.236 276.143 469.254 276.035 469.278C275.915 469.302 275.777 469.332 275.621 469.368C275.477 469.404 275.375 469.434 275.315 469.458C275.243 469.482 275.165 469.518 275.081 469.566C275.009 469.602 274.943 469.638 274.883 469.674C274.859 469.674 274.787 469.65 274.667 469.602C274.559 469.554 274.451 469.506 274.343 469.458C274.223 469.398 274.091 469.332 273.947 469.26C273.803 469.176 273.665 469.092 273.533 469.008C273.449 468.948 273.359 468.882 273.263 468.81C273.167 468.738 273.119 468.666 273.119 468.594C273.119 468.534 273.143 468.492 273.191 468.468C273.239 468.444 273.299 468.438 273.371 468.45C273.443 468.462 273.551 468.48 273.695 468.504C273.851 468.516 273.983 468.528 274.091 468.54C274.211 468.552 274.451 468.57 274.811 468.594C275.171 468.606 275.513 468.612 275.837 468.612H279.599C279.851 468.612 280.115 468.606 280.391 468.594C280.667 468.582 280.895 468.552 281.075 468.504C281.195 468.48 281.309 468.438 281.417 468.378C281.537 468.306 281.621 468.246 281.669 468.198C281.801 468.21 281.945 468.222 282.101 468.234C282.257 468.234 282.413 468.246 282.569 468.27C282.677 468.282 282.791 468.3 282.911 468.324C283.031 468.336 283.151 468.354 283.271 468.378C283.379 468.402 283.481 468.45 283.577 468.522C283.685 468.594 283.739 468.72 283.739 468.9C283.739 469.02 283.709 469.116 283.649 469.188C283.589 469.26 283.499 469.296 283.379 469.296C283.331 469.296 283.229 469.29 283.073 469.278C282.929 469.266 282.797 469.254 282.677 469.242C282.557 469.23 282.311 469.218 281.939 469.206C281.579 469.194 281.303 469.188 281.111 469.188H277.511ZM278.465 487.172C278.525 487.232 278.591 487.298 278.663 487.37C278.735 487.43 278.807 487.49 278.879 487.55C279.011 487.658 279.143 487.766 279.275 487.874C279.419 487.982 279.509 488.066 279.545 488.126C279.545 488.174 279.509 488.33 279.437 488.594C279.365 488.846 279.305 489.044 279.257 489.188C279.197 489.38 279.119 489.608 279.023 489.872C278.927 490.136 278.843 490.358 278.771 490.538C278.735 490.622 278.699 490.712 278.663 490.808C278.627 490.892 278.579 490.988 278.519 491.096C278.663 491.3 278.825 491.522 279.005 491.762C279.185 492.002 279.335 492.194 279.455 492.338C279.587 492.506 279.743 492.686 279.923 492.878C280.103 493.07 280.253 493.232 280.373 493.364C280.529 493.52 280.691 493.676 280.859 493.832C281.039 493.976 281.195 494.096 281.327 494.192C281.447 494.276 281.585 494.366 281.741 494.462C281.909 494.546 282.041 494.6 282.137 494.624C282.269 494.804 282.395 494.996 282.515 495.2C282.647 495.404 282.773 495.614 282.893 495.83C283.025 496.058 283.163 496.346 283.307 496.694C283.463 497.03 283.469 497.276 283.325 497.432C283.241 497.516 283.145 497.54 283.037 497.504C282.929 497.468 282.833 497.408 282.749 497.324C282.629 497.204 282.485 497.048 282.317 496.856C282.149 496.664 281.981 496.472 281.813 496.28C281.657 496.088 281.459 495.848 281.219 495.56C280.991 495.272 280.757 494.996 280.517 494.732C280.325 494.492 280.097 494.222 279.833 493.922C279.581 493.61 279.353 493.334 279.149 493.094C279.017 492.926 278.861 492.734 278.681 492.518C278.501 492.302 278.327 492.08 278.159 491.852C278.147 491.888 278.135 491.924 278.123 491.96C278.111 491.996 278.093 492.032 278.069 492.068C277.937 492.332 277.775 492.626 277.583 492.95C277.403 493.262 277.235 493.538 277.079 493.778C276.935 494.006 276.755 494.276 276.539 494.588C276.323 494.9 276.137 495.152 275.981 495.344C275.801 495.56 275.597 495.8 275.369 496.064C275.153 496.328 274.967 496.544 274.811 496.712C274.631 496.916 274.433 497.126 274.217 497.342C274.013 497.558 273.809 497.75 273.605 497.918C273.497 498.014 273.389 498.026 273.281 497.954C273.185 497.87 273.197 497.768 273.317 497.648C273.461 497.48 273.629 497.276 273.821 497.036C274.025 496.784 274.199 496.556 274.343 496.352C274.499 496.136 274.655 495.914 274.811 495.686C274.979 495.458 275.129 495.242 275.261 495.038C275.393 494.834 275.531 494.612 275.675 494.372C275.831 494.12 275.969 493.898 276.089 493.706C276.221 493.49 276.365 493.232 276.521 492.932C276.689 492.632 276.815 492.386 276.899 492.194C277.007 491.966 277.121 491.714 277.241 491.438C277.373 491.15 277.487 490.886 277.583 490.646C277.667 490.442 277.757 490.208 277.853 489.944C277.949 489.68 278.027 489.452 278.087 489.26C278.147 489.068 278.207 488.87 278.267 488.666C278.327 488.45 278.375 488.258 278.411 488.09C278.399 488.018 278.345 487.892 278.249 487.712C278.165 487.532 278.057 487.352 277.925 487.172H277.421C277.265 487.172 277.049 487.178 276.773 487.19C276.509 487.202 276.323 487.22 276.215 487.244C276.119 487.256 276.017 487.28 275.909 487.316C275.801 487.34 275.705 487.37 275.621 487.406C275.561 487.43 275.489 487.466 275.405 487.514C275.333 487.562 275.267 487.604 275.207 487.64C275.171 487.64 275.099 487.616 274.991 487.568C274.883 487.508 274.775 487.454 274.667 487.406C274.511 487.322 274.361 487.238 274.217 487.154C274.073 487.07 273.953 486.998 273.857 486.938C273.785 486.89 273.701 486.83 273.605 486.758C273.521 486.686 273.479 486.62 273.479 486.56C273.479 486.5 273.503 486.458 273.551 486.434C273.599 486.41 273.659 486.404 273.731 486.416C273.803 486.428 273.911 486.446 274.055 486.47C274.211 486.482 274.343 486.494 274.451 486.506C274.571 486.518 274.811 486.536 275.171 486.56C275.531 486.572 275.873 486.578 276.197 486.578H279.185C279.449 486.578 279.713 486.572 279.977 486.56C280.253 486.548 280.481 486.518 280.661 486.47C280.781 486.446 280.901 486.398 281.021 486.326C281.141 486.254 281.219 486.2 281.255 486.164C281.399 486.176 281.537 486.188 281.669 486.2C281.813 486.2 281.963 486.212 282.119 486.236C282.275 486.248 282.401 486.266 282.497 486.29C282.605 486.302 282.719 486.32 282.839 486.344C282.959 486.368 283.067 486.422 283.163 486.506C283.259 486.578 283.307 486.692 283.307 486.848C283.307 486.968 283.277 487.07 283.217 487.154C283.157 487.238 283.073 487.28 282.965 487.28C282.917 487.28 282.815 487.274 282.659 487.262C282.503 487.25 282.365 487.238 282.245 487.226C282.125 487.214 281.879 487.202 281.507 487.19C281.147 487.178 280.871 487.172 280.679 487.172H278.465ZM286.727 496.73C286.727 496.97 286.721 497.27 286.709 497.63C286.697 497.978 286.685 498.254 286.673 498.458C286.661 498.818 286.643 499.118 286.619 499.358C286.595 499.61 286.571 499.79 286.547 499.898C286.523 500.054 286.493 500.186 286.457 500.294C286.433 500.402 286.409 500.486 286.385 500.546C286.361 500.606 286.325 500.66 286.277 500.708C286.241 500.768 286.193 500.798 286.133 500.798C286.085 500.798 286.043 500.768 286.007 500.708C285.971 500.66 285.941 500.612 285.917 500.564C285.905 500.504 285.887 500.432 285.863 500.348C285.851 500.276 285.839 500.198 285.827 500.114C285.815 499.946 285.803 499.802 285.791 499.682C285.791 499.562 285.785 499.394 285.773 499.178C285.761 498.914 285.755 498.566 285.755 498.134C285.755 497.702 285.755 497.414 285.755 497.27V485.786C285.755 485.666 285.743 485.558 285.719 485.462C285.695 485.366 285.659 485.282 285.611 485.21C285.563 485.15 285.509 485.09 285.449 485.03C285.389 484.958 285.317 484.898 285.233 484.85C285.149 484.79 285.059 484.736 284.963 484.688C284.879 484.64 284.789 484.592 284.693 484.544C284.609 484.508 284.513 484.472 284.405 484.436C284.309 484.388 284.225 484.352 284.153 484.328C284.081 484.304 284.003 484.274 283.919 484.238C283.847 484.202 283.811 484.154 283.811 484.094C283.811 484.022 283.859 483.968 283.955 483.932C284.051 483.896 284.159 483.878 284.279 483.878C284.351 483.878 284.495 483.896 284.711 483.932C284.939 483.956 285.155 483.998 285.359 484.058C285.503 484.094 285.671 484.142 285.863 484.202C286.055 484.25 286.235 484.304 286.403 484.364C286.523 484.412 286.631 484.466 286.727 484.526C286.835 484.586 286.889 484.664 286.889 484.76C286.889 484.808 286.877 484.868 286.853 484.94C286.829 485 286.805 485.072 286.781 485.156C286.769 485.228 286.757 485.324 286.745 485.444C286.733 485.564 286.727 485.654 286.727 485.714V496.73ZM286.313 510.268C286.457 510.268 286.583 510.256 286.691 510.232C286.811 510.196 286.931 510.136 287.051 510.052C287.123 509.992 287.189 509.932 287.249 509.872C287.321 509.8 287.369 509.746 287.393 509.71C287.525 509.722 287.663 509.734 287.807 509.746C287.951 509.758 288.095 509.776 288.239 509.8C288.467 509.824 288.659 509.884 288.815 509.98C288.971 510.064 289.049 510.208 289.049 510.412C289.049 510.568 289.007 510.682 288.923 510.754C288.839 510.814 288.731 510.844 288.599 510.844H286.097V512.554C286.097 512.746 286.091 512.992 286.079 513.292C286.079 513.592 286.073 513.844 286.061 514.048C286.049 514.264 286.037 514.498 286.025 514.75C286.013 515.002 286.001 515.164 285.989 515.236C285.977 515.32 285.959 515.434 285.935 515.578C285.923 515.71 285.905 515.842 285.881 515.974C285.869 516.082 285.845 516.184 285.809 516.28C285.773 516.364 285.743 516.436 285.719 516.496C285.695 516.544 285.665 516.586 285.629 516.622C285.593 516.646 285.557 516.658 285.521 516.658C285.461 516.658 285.413 516.634 285.377 516.586C285.353 516.538 285.329 516.49 285.305 516.442C285.293 516.394 285.275 516.334 285.251 516.262C285.239 516.19 285.227 516.118 285.215 516.046C285.203 515.962 285.191 515.872 285.179 515.776C285.179 515.668 285.173 515.542 285.161 515.398C285.149 515.194 285.137 514.924 285.125 514.588C285.125 514.252 285.125 513.988 285.125 513.796V505.768C285.125 505.648 285.107 505.54 285.071 505.444C285.047 505.336 285.011 505.252 284.963 505.192C284.915 505.132 284.861 505.072 284.801 505.012C284.741 504.952 284.675 504.898 284.603 504.85C284.519 504.79 284.423 504.736 284.315 504.688C284.219 504.628 284.135 504.58 284.063 504.544C283.979 504.508 283.889 504.472 283.793 504.436C283.697 504.388 283.613 504.352 283.541 504.328C283.481 504.304 283.409 504.274 283.325 504.238C283.241 504.202 283.199 504.154 283.199 504.094C283.199 504.022 283.247 503.968 283.343 503.932C283.439 503.896 283.547 503.878 283.667 503.878C283.739 503.878 283.895 503.896 284.135 503.932C284.375 503.968 284.591 504.01 284.783 504.058C284.939 504.094 285.095 504.136 285.251 504.184C285.419 504.232 285.587 504.286 285.755 504.346C285.875 504.394 285.989 504.448 286.097 504.508C286.205 504.568 286.259 504.646 286.259 504.742C286.259 504.79 286.247 504.85 286.223 504.922C286.199 504.994 286.175 505.072 286.151 505.156C286.139 505.228 286.127 505.324 286.115 505.444C286.103 505.564 286.097 505.654 286.097 505.714V510.268H286.313ZM275.603 513.328C275.591 513.448 275.579 513.55 275.567 513.634C275.567 513.706 275.561 513.772 275.549 513.832C275.537 513.904 275.519 513.988 275.495 514.084C275.483 514.168 275.465 514.234 275.441 514.282C275.429 514.33 275.399 514.378 275.351 514.426C275.315 514.474 275.273 514.498 275.225 514.498C275.177 514.498 275.135 514.48 275.099 514.444C275.063 514.408 275.033 514.366 275.009 514.318C274.997 514.282 274.979 514.222 274.955 514.138C274.931 514.042 274.907 513.946 274.883 513.85C274.871 513.742 274.859 513.634 274.847 513.526C274.835 513.406 274.823 513.286 274.811 513.166C274.799 513.034 274.787 512.902 274.775 512.77C274.775 512.626 274.769 512.44 274.757 512.212L274.559 506.83C274.547 506.734 274.523 506.656 274.487 506.596C274.451 506.536 274.403 506.482 274.343 506.434C274.307 506.41 274.247 506.38 274.163 506.344C274.091 506.308 274.025 506.284 273.965 506.272C273.917 506.248 273.845 506.23 273.749 506.218C273.665 506.194 273.599 506.176 273.551 506.164C273.503 506.152 273.437 506.14 273.353 506.128C273.269 506.104 273.227 506.05 273.227 505.966C273.227 505.906 273.257 505.852 273.317 505.804C273.389 505.756 273.449 505.726 273.497 505.714C273.557 505.69 273.641 505.672 273.749 505.66C273.857 505.648 273.953 505.642 274.037 505.642C274.133 505.642 274.259 505.648 274.415 505.66C274.571 505.66 274.727 505.672 274.883 505.696C274.979 505.708 275.093 505.726 275.225 505.75C275.369 505.774 275.477 505.798 275.549 505.822C275.585 505.834 275.615 505.852 275.639 505.876C275.663 505.888 275.681 505.912 275.693 505.948H280.571L280.949 505.696C281.045 505.696 281.153 505.702 281.273 505.714C281.405 505.714 281.555 505.726 281.723 505.75C281.891 505.762 282.011 505.792 282.083 505.84C282.155 505.888 282.191 505.942 282.191 506.002C282.191 506.05 282.179 506.11 282.155 506.182C282.131 506.254 282.107 506.32 282.083 506.38C282.071 506.428 282.053 506.494 282.029 506.578C282.005 506.662 281.987 506.734 281.975 506.794L281.543 512.59C281.639 512.638 281.753 512.704 281.885 512.788C282.017 512.872 282.083 512.968 282.083 513.076C282.083 513.16 282.059 513.226 282.011 513.274C281.963 513.31 281.873 513.328 281.741 513.328H275.603ZM275.639 512.05C275.639 512.134 275.639 512.242 275.639 512.374C275.639 512.494 275.633 512.62 275.621 512.752H280.589L280.859 512.518V506.524H275.639V512.05ZM277.529 515.848C277.613 515.872 277.697 515.914 277.781 515.974C277.865 516.022 277.907 516.082 277.907 516.154C277.907 516.238 277.889 516.328 277.853 516.424C277.829 516.52 277.817 516.682 277.817 516.91V519.052C277.817 519.268 277.895 519.406 278.051 519.466C278.207 519.538 278.435 519.574 278.735 519.574H282.317C282.737 519.574 283.073 519.562 283.325 519.538C283.589 519.514 283.793 519.478 283.937 519.43C284.081 519.382 284.201 519.328 284.297 519.268C284.405 519.208 284.489 519.148 284.549 519.088C284.789 519.1 285.047 519.112 285.323 519.124C285.611 519.148 285.887 519.172 286.151 519.196C286.559 519.244 286.841 519.31 286.997 519.394C287.165 519.478 287.249 519.616 287.249 519.808C287.249 519.928 287.213 520.018 287.141 520.078C287.081 520.138 286.991 520.168 286.871 520.168H278.573C278.117 520.168 277.709 520.108 277.349 519.988C276.989 519.868 276.809 519.55 276.809 519.034V516.946C276.809 516.838 276.779 516.748 276.719 516.676C276.671 516.592 276.617 516.526 276.557 516.478C276.509 516.43 276.431 516.382 276.323 516.334C276.227 516.274 276.137 516.226 276.053 516.19C275.933 516.13 275.813 516.082 275.693 516.046C275.573 515.998 275.471 515.962 275.387 515.938C275.327 515.914 275.255 515.89 275.171 515.866C275.087 515.842 275.045 515.806 275.045 515.758C275.045 515.674 275.093 515.608 275.189 515.56C275.285 515.512 275.411 515.488 275.567 515.488C275.651 515.488 275.801 515.506 276.017 515.542C276.233 515.566 276.413 515.59 276.557 515.614C276.713 515.638 276.887 515.674 277.079 515.722C277.271 515.77 277.421 515.812 277.529 515.848ZM292.076 517.882C292.076 518.11 292.058 518.326 292.022 518.53C291.998 518.734 291.95 518.944 291.878 519.16C291.794 519.4 291.704 519.598 291.608 519.754C291.524 519.922 291.422 520.084 291.302 520.24C291.182 520.408 291.044 520.57 290.888 520.726C290.732 520.882 290.588 521.02 290.456 521.14C290.372 521.188 290.3 521.188 290.24 521.14C290.18 521.092 290.18 521.026 290.24 520.942C290.3 520.858 290.366 520.768 290.438 520.672C290.51 520.576 290.576 520.486 290.636 520.402C290.696 520.318 290.762 520.216 290.834 520.096C290.906 519.976 290.966 519.856 291.014 519.736C291.062 519.64 291.11 519.52 291.158 519.376C291.206 519.244 291.23 519.142 291.23 519.07C291.23 519.01 291.2 518.95 291.14 518.89C291.08 518.842 291.014 518.806 290.942 518.782C290.834 518.746 290.732 518.704 290.636 518.656C290.54 518.596 290.456 518.524 290.384 518.44C290.3 518.344 290.234 518.242 290.186 518.134C290.15 518.026 290.132 517.906 290.132 517.774C290.132 517.63 290.156 517.504 290.204 517.396C290.264 517.276 290.336 517.174 290.42 517.09C290.516 516.994 290.624 516.928 290.744 516.892C290.876 516.856 290.984 516.838 291.068 516.838C291.2 516.838 291.326 516.868 291.446 516.928C291.566 516.988 291.662 517.048 291.734 517.108C291.83 517.192 291.908 517.306 291.968 517.45C292.04 517.594 292.076 517.738 292.076 517.882Z" fill="black"/>
<path d="M310.275 473.814C310.443 473.79 310.605 473.772 310.761 473.76C310.929 473.748 311.091 473.736 311.247 473.724C311.559 473.7 311.937 473.67 312.381 473.634C312.825 473.586 313.215 473.544 313.551 473.508C313.791 473.484 314.097 473.448 314.469 473.4C314.841 473.352 315.159 473.304 315.423 473.256C315.567 473.232 315.651 473.28 315.675 473.4C315.699 473.52 315.633 473.61 315.477 473.67C315.213 473.742 314.877 473.814 314.469 473.886C314.061 473.946 313.701 474.006 313.389 474.066C312.957 474.138 312.525 474.204 312.093 474.264C311.661 474.312 311.247 474.366 310.851 474.426C310.515 474.474 310.179 474.516 309.843 474.552C309.507 474.576 309.183 474.606 308.871 474.642C308.535 474.678 308.151 474.726 307.719 474.786C307.299 474.834 306.975 474.87 306.747 474.894C306.627 474.906 306.519 474.936 306.423 474.984C306.327 475.02 306.237 475.074 306.153 475.146C306.105 475.146 306.009 475.116 305.865 475.056C305.721 474.984 305.583 474.912 305.451 474.84C305.331 474.78 305.199 474.708 305.055 474.624C304.923 474.54 304.803 474.462 304.695 474.39C304.587 474.318 304.479 474.24 304.371 474.156C304.263 474.072 304.209 473.994 304.209 473.922C304.209 473.85 304.233 473.796 304.281 473.76C304.341 473.724 304.413 473.718 304.497 473.742C304.629 473.766 304.755 473.79 304.875 473.814C305.007 473.838 305.139 473.862 305.271 473.886C305.475 473.91 305.691 473.934 305.919 473.958C306.159 473.97 306.381 473.976 306.585 473.976C306.945 473.964 307.347 473.952 307.791 473.94C308.235 473.916 308.595 473.898 308.871 473.886C308.931 473.886 308.997 473.886 309.069 473.886C309.141 473.874 309.219 473.868 309.303 473.868V472.41C309.075 472.386 308.853 472.362 308.637 472.338C308.433 472.314 308.265 472.296 308.133 472.284C307.953 472.26 307.761 472.224 307.557 472.176C307.353 472.116 307.203 472.062 307.107 472.014C306.987 471.954 306.873 471.894 306.765 471.834C306.657 471.774 306.561 471.708 306.477 471.636C306.393 471.552 306.315 471.474 306.243 471.402C306.183 471.33 306.123 471.246 306.063 471.15C306.015 471.054 305.967 470.928 305.919 470.772C305.871 470.604 305.847 470.442 305.847 470.286C305.847 470.118 305.871 469.956 305.919 469.8C305.967 469.644 306.015 469.518 306.063 469.422C306.123 469.326 306.183 469.242 306.243 469.17C306.315 469.098 306.393 469.02 306.477 468.936C306.561 468.864 306.657 468.798 306.765 468.738C306.873 468.666 306.987 468.606 307.107 468.558C307.203 468.51 307.353 468.462 307.557 468.414C307.761 468.354 307.953 468.312 308.133 468.288C308.301 468.264 308.541 468.24 308.853 468.216C309.165 468.18 309.471 468.162 309.771 468.162C310.083 468.162 310.395 468.18 310.707 468.216C311.019 468.24 311.253 468.264 311.409 468.288C311.589 468.312 311.781 468.354 311.985 468.414C312.189 468.462 312.339 468.51 312.435 468.558C312.567 468.606 312.681 468.666 312.777 468.738C312.885 468.798 312.981 468.864 313.065 468.936C313.161 469.02 313.239 469.098 313.299 469.17C313.371 469.242 313.431 469.326 313.479 469.422C313.539 469.518 313.587 469.644 313.623 469.8C313.671 469.956 313.695 470.118 313.695 470.286C313.695 470.442 313.671 470.604 313.623 470.772C313.587 470.928 313.539 471.054 313.479 471.15C313.431 471.246 313.371 471.33 313.299 471.402C313.239 471.474 313.161 471.552 313.065 471.636C312.981 471.708 312.885 471.774 312.777 471.834C312.681 471.894 312.567 471.954 312.435 472.014C312.339 472.062 312.189 472.116 311.985 472.176C311.781 472.224 311.589 472.26 311.409 472.284C311.289 472.296 311.127 472.314 310.923 472.338C310.731 472.362 310.515 472.386 310.275 472.41V473.814ZM309.771 471.87C310.047 471.87 310.305 471.858 310.545 471.834C310.797 471.798 310.977 471.774 311.085 471.762C311.229 471.738 311.355 471.708 311.463 471.672C311.583 471.636 311.685 471.6 311.769 471.564C311.877 471.516 311.973 471.468 312.057 471.42C312.153 471.36 312.225 471.306 312.273 471.258C312.345 471.186 312.405 471.114 312.453 471.042C312.501 470.97 312.537 470.898 312.561 470.826C312.585 470.766 312.609 470.682 312.633 470.574C312.657 470.466 312.669 470.37 312.669 470.286C312.669 470.202 312.657 470.106 312.633 469.998C312.609 469.89 312.585 469.806 312.561 469.746C312.537 469.674 312.501 469.602 312.453 469.53C312.405 469.458 312.345 469.386 312.273 469.314C312.225 469.254 312.153 469.2 312.057 469.152C311.973 469.104 311.877 469.056 311.769 469.008C311.685 468.972 311.583 468.936 311.463 468.9C311.355 468.864 311.229 468.834 311.085 468.81C310.977 468.786 310.797 468.762 310.545 468.738C310.305 468.714 310.047 468.702 309.771 468.702C309.507 468.702 309.249 468.714 308.997 468.738C308.745 468.762 308.565 468.786 308.457 468.81C308.313 468.834 308.181 468.864 308.061 468.9C307.953 468.936 307.857 468.972 307.773 469.008C307.665 469.056 307.569 469.104 307.485 469.152C307.401 469.2 307.329 469.254 307.269 469.314C307.197 469.386 307.137 469.458 307.089 469.53C307.041 469.602 307.005 469.674 306.981 469.746C306.957 469.806 306.933 469.89 306.909 469.998C306.885 470.106 306.873 470.202 306.873 470.286C306.873 470.37 306.885 470.466 306.909 470.574C306.933 470.682 306.957 470.766 306.981 470.826C307.005 470.898 307.041 470.97 307.089 471.042C307.137 471.114 307.197 471.186 307.269 471.258C307.329 471.306 307.401 471.36 307.485 471.42C307.569 471.468 307.665 471.516 307.773 471.564C307.857 471.6 307.953 471.636 308.061 471.672C308.181 471.708 308.313 471.738 308.457 471.762C308.565 471.774 308.745 471.798 308.997 471.834C309.249 471.858 309.507 471.87 309.771 471.87ZM308.745 467.19C308.517 467.19 308.229 467.202 307.881 467.226C307.533 467.238 307.311 467.256 307.215 467.28C307.059 467.304 306.915 467.334 306.783 467.37C306.651 467.406 306.555 467.436 306.495 467.46C306.435 467.484 306.369 467.514 306.297 467.55C306.225 467.586 306.159 467.622 306.099 467.658C306.075 467.658 306.009 467.634 305.901 467.586C305.793 467.538 305.685 467.49 305.577 467.442C305.445 467.382 305.313 467.322 305.181 467.262C305.061 467.19 304.935 467.112 304.803 467.028C304.719 466.968 304.629 466.902 304.533 466.83C304.437 466.758 304.389 466.686 304.389 466.614C304.389 466.554 304.413 466.512 304.461 466.488C304.509 466.464 304.569 466.458 304.641 466.47C304.701 466.482 304.797 466.5 304.929 466.524C305.073 466.536 305.199 466.548 305.307 466.56C305.427 466.572 305.667 466.59 306.027 466.614C306.399 466.626 306.747 466.632 307.071 466.632H310.689C310.893 466.632 311.127 466.626 311.391 466.614C311.655 466.602 311.877 466.572 312.057 466.524C312.177 466.5 312.291 466.458 312.399 466.398C312.519 466.338 312.603 466.284 312.651 466.236C312.819 466.248 312.969 466.26 313.101 466.272C313.233 466.272 313.371 466.284 313.515 466.308C313.623 466.32 313.731 466.338 313.839 466.362C313.947 466.374 314.061 466.392 314.181 466.416C314.289 466.44 314.391 466.488 314.487 466.56C314.595 466.632 314.649 466.752 314.649 466.92C314.649 467.04 314.619 467.136 314.559 467.208C314.499 467.268 314.409 467.298 314.289 467.298C314.241 467.298 314.139 467.292 313.983 467.28C313.839 467.268 313.707 467.256 313.587 467.244C313.467 467.232 313.221 467.22 312.849 467.208C312.489 467.196 312.213 467.19 312.021 467.19H308.745ZM308.439 465.498C308.199 465.498 307.977 465.474 307.773 465.426C307.569 465.366 307.383 465.288 307.215 465.192C307.095 465.12 306.969 465.03 306.837 464.922C306.705 464.814 306.639 464.712 306.639 464.616C306.639 464.556 306.669 464.514 306.729 464.49C306.789 464.466 306.843 464.466 306.891 464.49C306.975 464.514 307.071 464.544 307.179 464.58C307.299 464.604 307.401 464.628 307.485 464.652C307.617 464.676 307.803 464.706 308.043 464.742C308.283 464.766 308.571 464.778 308.907 464.778H309.753C310.017 464.778 310.227 464.76 310.383 464.724C310.539 464.688 310.659 464.628 310.743 464.544C310.875 464.556 311.013 464.568 311.157 464.58C311.313 464.58 311.469 464.592 311.625 464.616C311.769 464.628 311.919 464.67 312.075 464.742C312.231 464.802 312.309 464.928 312.309 465.12C312.309 465.24 312.267 465.336 312.183 465.408C312.099 465.468 311.985 465.498 311.841 465.498H308.439ZM316.143 476.514H311.715C311.307 476.514 310.911 476.526 310.527 476.55C310.155 476.562 309.843 476.58 309.591 476.604C309.435 476.616 309.291 476.64 309.159 476.676C309.039 476.7 308.919 476.73 308.799 476.766C308.715 476.79 308.619 476.826 308.511 476.874C308.403 476.922 308.319 476.964 308.259 477C308.223 477 308.133 476.976 307.989 476.928C307.845 476.88 307.719 476.832 307.611 476.784C307.467 476.724 307.299 476.652 307.107 476.568C306.915 476.484 306.759 476.406 306.639 476.334C306.543 476.274 306.441 476.214 306.333 476.154C306.237 476.082 306.189 476.004 306.189 475.92C306.189 475.86 306.207 475.818 306.243 475.794C306.291 475.758 306.357 475.746 306.441 475.758C306.573 475.77 306.735 475.788 306.927 475.812C307.119 475.836 307.281 475.854 307.413 475.866C307.593 475.878 307.875 475.896 308.259 475.92C308.655 475.932 309.165 475.938 309.789 475.938H315.837L316.161 475.686C316.305 475.698 316.425 475.71 316.521 475.722C316.629 475.722 316.719 475.728 316.791 475.74C316.887 475.752 316.989 475.776 317.097 475.812C317.205 475.848 317.259 475.902 317.259 475.974C317.259 476.058 317.235 476.16 317.187 476.28C317.139 476.4 317.115 476.55 317.115 476.73V477.81C317.115 477.93 317.109 478.086 317.097 478.278C317.097 478.47 317.091 478.65 317.079 478.818C317.067 478.95 317.055 479.118 317.043 479.322C317.031 479.526 317.013 479.682 316.989 479.79C316.977 479.898 316.959 479.994 316.935 480.078C316.923 480.174 316.905 480.252 316.881 480.312C316.869 480.372 316.845 480.432 316.809 480.492C316.785 480.564 316.761 480.618 316.737 480.654C316.713 480.702 316.683 480.738 316.647 480.762C316.611 480.786 316.575 480.798 316.539 480.798C316.503 480.798 316.467 480.78 316.431 480.744C316.395 480.72 316.365 480.684 316.341 480.636C316.317 480.576 316.293 480.51 316.269 480.438C316.257 480.366 316.245 480.3 316.233 480.24C316.221 480.192 316.209 480.114 316.197 480.006C316.197 479.91 316.191 479.814 316.179 479.718C316.167 479.61 316.155 479.43 316.143 479.178C316.143 478.938 316.143 478.722 316.143 478.53V476.514ZM317.403 470.178C317.547 470.178 317.673 470.166 317.781 470.142C317.901 470.106 318.021 470.046 318.141 469.962C318.213 469.902 318.279 469.842 318.339 469.782C318.411 469.71 318.459 469.656 318.483 469.62C318.615 469.632 318.753 469.644 318.897 469.656C319.041 469.668 319.185 469.686 319.329 469.71C319.557 469.734 319.749 469.794 319.905 469.89C320.061 469.974 320.139 470.118 320.139 470.322C320.139 470.478 320.097 470.592 320.013 470.664C319.929 470.724 319.821 470.754 319.689 470.754H317.169V471.888C317.169 472.056 317.163 472.248 317.151 472.464C317.151 472.668 317.145 472.854 317.133 473.022C317.121 473.214 317.109 473.418 317.097 473.634C317.085 473.838 317.073 473.976 317.061 474.048C317.049 474.132 317.031 474.252 317.007 474.408C316.995 474.564 316.977 474.678 316.953 474.75C316.941 474.834 316.917 474.918 316.881 475.002C316.845 475.086 316.815 475.152 316.791 475.2C316.767 475.248 316.731 475.29 316.683 475.326C316.647 475.35 316.617 475.362 316.593 475.362C316.557 475.362 316.521 475.35 316.485 475.326C316.449 475.29 316.419 475.248 316.395 475.2C316.371 475.14 316.347 475.074 316.323 475.002C316.311 474.93 316.299 474.858 316.287 474.786C316.275 474.726 316.263 474.654 316.251 474.57C316.251 474.474 316.245 474.348 316.233 474.192C316.221 474 316.209 473.76 316.197 473.472C316.197 473.172 316.197 472.938 316.197 472.77V465.768C316.197 465.648 316.179 465.54 316.143 465.444C316.119 465.336 316.083 465.252 316.035 465.192C315.987 465.132 315.933 465.072 315.873 465.012C315.813 464.952 315.747 464.898 315.675 464.85C315.591 464.79 315.495 464.736 315.387 464.688C315.291 464.628 315.207 464.58 315.135 464.544C315.051 464.508 314.961 464.472 314.865 464.436C314.769 464.388 314.685 464.352 314.613 464.328C314.553 464.304 314.481 464.274 314.397 464.238C314.313 464.202 314.271 464.154 314.271 464.094C314.271 464.022 314.319 463.968 314.415 463.932C314.511 463.896 314.619 463.878 314.739 463.878C314.811 463.878 314.967 463.896 315.207 463.932C315.447 463.968 315.663 464.01 315.855 464.058C316.011 464.094 316.167 464.136 316.323 464.184C316.491 464.232 316.659 464.286 316.827 464.346C316.947 464.394 317.061 464.448 317.169 464.508C317.277 464.568 317.331 464.646 317.331 464.742C317.331 464.79 317.319 464.85 317.295 464.922C317.271 464.994 317.247 465.072 317.223 465.156C317.211 465.228 317.199 465.324 317.187 465.444C317.175 465.564 317.169 465.654 317.169 465.714V470.178H317.403ZM308.997 488.342C309.129 488.474 309.261 488.612 309.393 488.756C309.525 488.9 309.651 489.026 309.771 489.134C309.903 489.254 310.041 489.38 310.185 489.512C310.341 489.644 310.485 489.758 310.617 489.854C310.749 489.95 310.893 490.046 311.049 490.142C311.205 490.238 311.349 490.316 311.481 490.376C311.577 490.424 311.691 490.466 311.823 490.502C311.955 490.538 312.063 490.568 312.147 490.592C312.207 490.664 312.285 490.76 312.381 490.88C312.489 491 312.573 491.108 312.633 491.204C312.717 491.312 312.795 491.42 312.867 491.528C312.939 491.624 313.017 491.738 313.101 491.87C313.197 492.002 313.275 492.14 313.335 492.284C313.395 492.428 313.425 492.548 313.425 492.644C313.425 492.764 313.395 492.848 313.335 492.896C313.287 492.944 313.221 492.968 313.137 492.968C313.077 492.968 313.011 492.95 312.939 492.914C312.879 492.878 312.819 492.842 312.759 492.806C312.639 492.71 312.501 492.596 312.345 492.464C312.201 492.32 312.063 492.188 311.931 492.068C311.751 491.9 311.547 491.714 311.319 491.51C311.103 491.306 310.893 491.108 310.689 490.916C310.461 490.712 310.251 490.52 310.059 490.34C309.867 490.148 309.669 489.956 309.465 489.764C309.345 489.644 309.207 489.512 309.051 489.368C308.895 489.212 308.751 489.068 308.619 488.936C308.511 489.128 308.397 489.314 308.277 489.494C308.157 489.662 308.031 489.83 307.899 489.998C307.719 490.226 307.533 490.454 307.341 490.682C307.161 490.91 306.987 491.108 306.819 491.276C306.651 491.468 306.459 491.666 306.243 491.87C306.039 492.074 305.859 492.248 305.703 492.392C305.535 492.548 305.331 492.728 305.091 492.932C304.863 493.124 304.665 493.286 304.497 493.418C304.389 493.502 304.281 493.508 304.173 493.436C304.077 493.352 304.083 493.262 304.191 493.166C304.323 493.034 304.467 492.884 304.623 492.716C304.791 492.536 304.953 492.35 305.109 492.158C305.241 492.014 305.391 491.84 305.559 491.636C305.727 491.42 305.889 491.216 306.045 491.024C306.177 490.856 306.321 490.664 306.477 490.448C306.645 490.22 306.789 490.016 306.909 489.836C307.017 489.68 307.131 489.506 307.251 489.314C307.383 489.11 307.497 488.924 307.593 488.756C307.689 488.588 307.791 488.402 307.899 488.198C308.019 487.994 308.121 487.802 308.205 487.622C308.277 487.478 308.355 487.31 308.439 487.118C308.523 486.926 308.595 486.752 308.655 486.596C308.715 486.464 308.769 486.326 308.817 486.182C308.865 486.038 308.907 485.906 308.943 485.786C308.931 485.726 308.901 485.672 308.853 485.624C308.817 485.576 308.775 485.528 308.727 485.48C308.679 485.432 308.631 485.39 308.583 485.354C308.535 485.318 308.481 485.282 308.421 485.246C308.373 485.21 308.307 485.174 308.223 485.138C308.151 485.09 308.085 485.054 308.025 485.03C307.977 485.006 307.911 484.976 307.827 484.94C307.755 484.892 307.719 484.844 307.719 484.796C307.719 484.736 307.743 484.688 307.791 484.652C307.851 484.616 307.935 484.598 308.043 484.598C308.091 484.598 308.181 484.61 308.313 484.634C308.445 484.658 308.559 484.682 308.655 484.706C308.751 484.73 308.859 484.76 308.979 484.796C309.099 484.832 309.219 484.874 309.339 484.922C309.447 484.958 309.549 485 309.645 485.048C309.753 485.084 309.849 485.126 309.933 485.174C310.017 485.222 310.083 485.27 310.131 485.318C310.179 485.366 310.203 485.42 310.203 485.48C310.191 485.54 310.161 485.654 310.113 485.822C310.065 485.978 310.011 486.128 309.951 486.272C309.891 486.452 309.819 486.644 309.735 486.848C309.651 487.052 309.567 487.238 309.483 487.406C309.423 487.538 309.351 487.688 309.267 487.856C309.183 488.012 309.093 488.174 308.997 488.342ZM317.727 489.962C317.727 490.13 317.721 490.316 317.709 490.52C317.709 490.712 317.703 490.892 317.691 491.06C317.679 491.252 317.667 491.456 317.655 491.672C317.643 491.876 317.631 492.014 317.619 492.086C317.607 492.17 317.589 492.29 317.565 492.446C317.553 492.602 317.535 492.716 317.511 492.788C317.499 492.872 317.475 492.956 317.439 493.04C317.403 493.124 317.373 493.19 317.349 493.238C317.325 493.286 317.289 493.328 317.241 493.364C317.205 493.388 317.175 493.4 317.151 493.4C317.115 493.4 317.079 493.388 317.043 493.364C317.007 493.328 316.977 493.286 316.953 493.238C316.929 493.178 316.905 493.112 316.881 493.04C316.869 492.968 316.857 492.896 316.845 492.824C316.833 492.764 316.821 492.692 316.809 492.608C316.809 492.512 316.803 492.386 316.791 492.23C316.779 492.038 316.767 491.798 316.755 491.51C316.755 491.21 316.755 490.976 316.755 490.808V485.768C316.755 485.648 316.737 485.54 316.701 485.444C316.677 485.336 316.641 485.252 316.593 485.192C316.545 485.132 316.491 485.072 316.431 485.012C316.371 484.952 316.305 484.898 316.233 484.85C316.149 484.79 316.053 484.736 315.945 484.688C315.849 484.628 315.765 484.58 315.693 484.544C315.609 484.508 315.519 484.472 315.423 484.436C315.327 484.388 315.243 484.352 315.171 484.328C315.111 484.304 315.039 484.274 314.955 484.238C314.871 484.202 314.829 484.154 314.829 484.094C314.829 484.022 314.877 483.968 314.973 483.932C315.069 483.896 315.177 483.878 315.297 483.878C315.369 483.878 315.525 483.896 315.765 483.932C316.005 483.968 316.221 484.01 316.413 484.058C316.569 484.094 316.725 484.136 316.881 484.184C317.049 484.232 317.217 484.286 317.385 484.346C317.505 484.394 317.619 484.448 317.727 484.508C317.835 484.568 317.889 484.646 317.889 484.742C317.889 484.79 317.877 484.85 317.853 484.922C317.829 484.994 317.805 485.072 317.781 485.156C317.769 485.228 317.757 485.324 317.745 485.444C317.733 485.564 317.727 485.654 317.727 485.714V489.962ZM316.431 496.712L316.629 496.514V494.57H311.841C311.541 494.57 311.211 494.576 310.851 494.588C310.503 494.6 310.245 494.618 310.077 494.642C309.933 494.654 309.789 494.678 309.645 494.714C309.513 494.738 309.399 494.768 309.303 494.804C309.219 494.84 309.147 494.876 309.087 494.912C309.027 494.948 308.967 494.984 308.907 495.02C308.871 495.02 308.811 495.008 308.727 494.984C308.643 494.948 308.565 494.918 308.493 494.894C308.421 494.87 308.337 494.84 308.241 494.804C308.145 494.756 308.049 494.708 307.953 494.66C307.857 494.612 307.749 494.564 307.629 494.516C307.521 494.456 307.431 494.402 307.359 494.354C307.287 494.306 307.203 494.252 307.107 494.192C307.023 494.12 306.981 494.054 306.981 493.994C306.981 493.934 307.005 493.892 307.053 493.868C307.113 493.844 307.167 493.838 307.215 493.85C307.299 493.862 307.401 493.874 307.521 493.886C307.653 493.898 307.779 493.91 307.899 493.922C308.019 493.934 308.283 493.952 308.691 493.976C309.099 493.988 309.633 493.994 310.293 493.994H316.341L316.683 493.76C316.815 493.772 316.953 493.784 317.097 493.796C317.253 493.796 317.403 493.808 317.547 493.832C317.679 493.844 317.775 493.874 317.835 493.922C317.895 493.958 317.925 494.012 317.925 494.084C317.925 494.156 317.895 494.246 317.835 494.354C317.787 494.462 317.739 494.582 317.691 494.714L317.349 496.532C317.769 496.784 317.925 496.97 317.817 497.09C317.721 497.21 317.601 497.27 317.457 497.27H309.159V499.124C309.159 499.328 309.219 499.472 309.339 499.556C309.459 499.64 309.681 499.682 310.005 499.682H314.379C314.787 499.682 315.099 499.67 315.315 499.646C315.543 499.622 315.717 499.592 315.837 499.556C315.957 499.52 316.071 499.466 316.179 499.394C316.299 499.334 316.389 499.274 316.449 499.214C316.689 499.226 316.923 499.238 317.151 499.25C317.391 499.262 317.619 499.28 317.835 499.304C318.207 499.34 318.489 499.4 318.681 499.484C318.873 499.568 318.969 499.712 318.969 499.916C318.969 500.012 318.933 500.09 318.861 500.15C318.801 500.222 318.687 500.258 318.519 500.258H309.825C309.405 500.258 309.021 500.198 308.673 500.078C308.337 499.958 308.169 499.634 308.169 499.106V497.612C308.169 497.516 308.133 497.432 308.061 497.36C307.989 497.276 307.899 497.21 307.791 497.162C307.707 497.114 307.599 497.072 307.467 497.036C307.335 497 307.227 496.976 307.143 496.964C307.059 496.94 306.969 496.922 306.873 496.91C306.789 496.886 306.747 496.85 306.747 496.802C306.747 496.694 306.819 496.616 306.963 496.568C307.107 496.508 307.275 496.478 307.467 496.478C307.779 496.478 308.127 496.496 308.511 496.532C308.895 496.556 309.141 496.616 309.249 496.712H316.431ZM317.313 510.448C317.457 510.448 317.583 510.436 317.691 510.412C317.811 510.376 317.931 510.316 318.051 510.232C318.123 510.172 318.189 510.112 318.249 510.052C318.321 509.98 318.369 509.926 318.393 509.89C318.525 509.902 318.663 509.914 318.807 509.926C318.951 509.938 319.095 509.956 319.239 509.98C319.467 510.004 319.659 510.064 319.815 510.16C319.971 510.244 320.049 510.388 320.049 510.592C320.049 510.748 320.007 510.862 319.923 510.934C319.839 510.994 319.731 511.024 319.599 511.024H317.097V512.914C317.097 513.106 317.091 513.352 317.079 513.652C317.079 513.952 317.073 514.204 317.061 514.408C317.049 514.624 317.037 514.858 317.025 515.11C317.013 515.362 317.001 515.524 316.989 515.596C316.977 515.68 316.959 515.794 316.935 515.938C316.923 516.07 316.905 516.202 316.881 516.334C316.869 516.442 316.845 516.544 316.809 516.64C316.773 516.724 316.743 516.796 316.719 516.856C316.695 516.904 316.665 516.946 316.629 516.982C316.593 517.006 316.557 517.018 316.521 517.018C316.461 517.018 316.413 516.994 316.377 516.946C316.353 516.898 316.329 516.85 316.305 516.802C316.293 516.754 316.275 516.694 316.251 516.622C316.239 516.55 316.227 516.478 316.215 516.406C316.203 516.322 316.191 516.232 316.179 516.136C316.179 516.028 316.173 515.902 316.161 515.758C316.149 515.554 316.137 515.284 316.125 514.948C316.125 514.612 316.125 514.348 316.125 514.156V505.768C316.125 505.648 316.107 505.54 316.071 505.444C316.047 505.336 316.011 505.252 315.963 505.192C315.915 505.132 315.861 505.072 315.801 505.012C315.741 504.952 315.675 504.898 315.603 504.85C315.519 504.79 315.423 504.736 315.315 504.688C315.219 504.628 315.135 504.58 315.063 504.544C314.979 504.508 314.889 504.472 314.793 504.436C314.697 504.388 314.613 504.352 314.541 504.328C314.481 504.304 314.409 504.274 314.325 504.238C314.241 504.202 314.199 504.154 314.199 504.094C314.199 504.022 314.247 503.968 314.343 503.932C314.439 503.896 314.547 503.878 314.667 503.878C314.739 503.878 314.895 503.896 315.135 503.932C315.375 503.968 315.591 504.01 315.783 504.058C315.939 504.094 316.095 504.136 316.251 504.184C316.419 504.232 316.587 504.286 316.755 504.346C316.875 504.394 316.989 504.448 317.097 504.508C317.205 504.568 317.259 504.646 317.259 504.742C317.259 504.79 317.247 504.85 317.223 504.922C317.199 504.994 317.175 505.072 317.151 505.156C317.139 505.228 317.127 505.324 317.115 505.444C317.103 505.564 317.097 505.654 317.097 505.714V510.448H317.313ZM308.439 516.244C308.523 516.268 308.607 516.31 308.691 516.37C308.775 516.418 308.817 516.478 308.817 516.55C308.817 516.634 308.799 516.724 308.763 516.82C308.739 516.916 308.727 517.078 308.727 517.306V519.052C308.727 519.268 308.805 519.406 308.961 519.466C309.117 519.538 309.345 519.574 309.645 519.574H313.317C313.737 519.574 314.073 519.562 314.325 519.538C314.589 519.514 314.793 519.478 314.937 519.43C315.081 519.382 315.201 519.328 315.297 519.268C315.405 519.208 315.489 519.148 315.549 519.088C315.789 519.1 316.047 519.112 316.323 519.124C316.599 519.136 316.875 519.154 317.151 519.178C317.559 519.214 317.841 519.28 317.997 519.376C318.165 519.472 318.249 519.616 318.249 519.808C318.249 519.928 318.213 520.018 318.141 520.078C318.081 520.138 317.991 520.168 317.871 520.168H309.483C309.027 520.168 308.619 520.108 308.259 519.988C307.899 519.868 307.719 519.55 307.719 519.034V517.342C307.719 517.234 307.689 517.144 307.629 517.072C307.581 516.988 307.527 516.922 307.467 516.874C307.419 516.826 307.341 516.778 307.233 516.73C307.137 516.67 307.047 516.622 306.963 516.586C306.843 516.526 306.723 516.478 306.603 516.442C306.483 516.394 306.381 516.358 306.297 516.334C306.237 516.31 306.165 516.286 306.081 516.262C305.997 516.238 305.955 516.202 305.955 516.154C305.955 516.07 306.003 516.004 306.099 515.956C306.195 515.908 306.321 515.884 306.477 515.884C306.561 515.884 306.711 515.902 306.927 515.938C307.143 515.962 307.323 515.986 307.467 516.01C307.623 516.034 307.797 516.07 307.989 516.118C308.181 516.166 308.331 516.208 308.439 516.244ZM308.169 505.786C307.929 505.786 307.707 505.756 307.503 505.696C307.299 505.636 307.113 505.558 306.945 505.462C306.825 505.39 306.699 505.3 306.567 505.192C306.435 505.072 306.369 504.964 306.369 504.868C306.369 504.808 306.399 504.766 306.459 504.742C306.519 504.718 306.573 504.718 306.621 504.742C306.705 504.766 306.801 504.796 306.909 504.832C307.029 504.856 307.131 504.88 307.215 504.904C307.347 504.928 307.533 504.958 307.773 504.994C308.013 505.018 308.301 505.03 308.637 505.03H309.663C309.927 505.03 310.137 505.012 310.293 504.976C310.449 504.94 310.569 504.88 310.653 504.796C310.785 504.808 310.923 504.82 311.067 504.832C311.223 504.832 311.379 504.844 311.535 504.868C311.679 504.88 311.829 504.922 311.985 504.994C312.141 505.066 312.219 505.198 312.219 505.39C312.219 505.51 312.177 505.606 312.093 505.678C312.009 505.75 311.895 505.786 311.751 505.786H308.169ZM309.555 514.84C309.243 514.84 308.937 514.822 308.637 514.786C308.337 514.75 308.109 514.714 307.953 514.678C307.773 514.63 307.587 514.576 307.395 514.516C307.215 514.444 307.053 514.366 306.909 514.282C306.789 514.21 306.663 514.132 306.531 514.048C306.411 513.952 306.315 513.862 306.243 513.778C306.159 513.682 306.075 513.574 305.991 513.454C305.919 513.334 305.859 513.232 305.811 513.148C305.739 512.992 305.679 512.818 305.631 512.626C305.595 512.434 305.577 512.23 305.577 512.014C305.577 511.798 305.595 511.594 305.631 511.402C305.679 511.21 305.739 511.036 305.811 510.88C305.859 510.784 305.919 510.682 305.991 510.574C306.075 510.454 306.159 510.346 306.243 510.25C306.315 510.166 306.411 510.082 306.531 509.998C306.663 509.902 306.789 509.818 306.909 509.746C307.053 509.662 307.215 509.59 307.395 509.53C307.587 509.458 307.773 509.398 307.953 509.35C308.109 509.314 308.337 509.278 308.637 509.242C308.937 509.206 309.243 509.188 309.555 509.188C309.867 509.188 310.173 509.206 310.473 509.242C310.773 509.278 311.001 509.314 311.157 509.35C311.337 509.398 311.517 509.458 311.697 509.53C311.889 509.59 312.057 509.662 312.201 509.746C312.333 509.818 312.459 509.902 312.579 509.998C312.699 510.082 312.795 510.166 312.867 510.25C312.963 510.346 313.047 510.454 313.119 510.574C313.191 510.682 313.251 510.784 313.299 510.88C313.371 511.036 313.425 511.21 313.461 511.402C313.509 511.594 313.533 511.798 313.533 512.014C313.533 512.23 313.509 512.434 313.461 512.626C313.425 512.818 313.371 512.992 313.299 513.148C313.251 513.232 313.191 513.334 313.119 513.454C313.047 513.574 312.963 513.682 312.867 513.778C312.795 513.862 312.699 513.952 312.579 514.048C312.459 514.132 312.333 514.21 312.201 514.282C312.057 514.366 311.889 514.444 311.697 514.516C311.517 514.576 311.337 514.63 311.157 514.678C311.001 514.714 310.773 514.75 310.473 514.786C310.173 514.822 309.867 514.84 309.555 514.84ZM309.555 514.246C309.831 514.246 310.083 514.234 310.311 514.21C310.551 514.174 310.737 514.138 310.869 514.102C311.001 514.066 311.133 514.018 311.265 513.958C311.409 513.886 311.523 513.826 311.607 513.778C311.691 513.718 311.775 513.652 311.859 513.58C311.955 513.508 312.033 513.43 312.093 513.346C312.177 513.238 312.243 513.13 312.291 513.022C312.351 512.902 312.393 512.8 312.417 512.716C312.441 512.632 312.465 512.524 312.489 512.392C312.513 512.248 312.525 512.116 312.525 511.996C312.525 511.876 312.513 511.75 312.489 511.618C312.465 511.474 312.441 511.36 312.417 511.276C312.393 511.18 312.351 511.078 312.291 510.97C312.243 510.862 312.177 510.754 312.093 510.646C312.033 510.562 311.955 510.484 311.859 510.412C311.775 510.328 311.691 510.262 311.607 510.214C311.523 510.154 311.409 510.094 311.265 510.034C311.133 509.974 311.001 509.926 310.869 509.89C310.737 509.854 310.551 509.824 310.311 509.8C310.083 509.764 309.831 509.746 309.555 509.746C309.291 509.746 309.039 509.764 308.799 509.8C308.571 509.824 308.391 509.854 308.259 509.89C308.139 509.926 308.007 509.974 307.863 510.034C307.731 510.094 307.617 510.154 307.521 510.214C307.437 510.262 307.347 510.328 307.251 510.412C307.167 510.484 307.095 510.562 307.035 510.646C306.951 510.754 306.879 510.862 306.819 510.97C306.771 511.078 306.735 511.18 306.711 511.276C306.687 511.36 306.663 511.474 306.639 511.618C306.615 511.75 306.603 511.876 306.603 511.996C306.603 512.116 306.615 512.248 306.639 512.392C306.663 512.524 306.687 512.632 306.711 512.716C306.735 512.8 306.771 512.902 306.819 513.022C306.879 513.13 306.951 513.238 307.035 513.346C307.095 513.43 307.167 513.508 307.251 513.58C307.347 513.652 307.437 513.718 307.521 513.778C307.617 513.826 307.731 513.886 307.863 513.958C308.007 514.018 308.139 514.066 308.259 514.102C308.391 514.138 308.571 514.174 308.799 514.21C309.039 514.234 309.291 514.246 309.555 514.246ZM308.511 507.892C308.283 507.892 307.995 507.904 307.647 507.928C307.299 507.94 307.077 507.958 306.981 507.982C306.825 508.006 306.681 508.036 306.549 508.072C306.417 508.108 306.321 508.138 306.261 508.162C306.201 508.186 306.135 508.216 306.063 508.252C305.991 508.288 305.925 508.324 305.865 508.36C305.841 508.36 305.769 508.336 305.649 508.288C305.541 508.24 305.433 508.192 305.325 508.144C305.193 508.084 305.061 508.018 304.929 507.946C304.797 507.874 304.665 507.796 304.533 507.712C304.449 507.652 304.359 507.586 304.263 507.514C304.167 507.442 304.119 507.37 304.119 507.298C304.119 507.238 304.143 507.196 304.191 507.172C304.239 507.148 304.299 507.142 304.371 507.154C304.431 507.166 304.539 507.184 304.695 507.208C304.851 507.22 304.983 507.232 305.091 507.244C305.211 507.256 305.451 507.274 305.811 507.298C306.171 507.31 306.513 507.316 306.837 507.316H310.599C310.803 507.316 311.037 507.31 311.301 507.298C311.565 507.286 311.787 507.256 311.967 507.208C312.087 507.184 312.201 507.142 312.309 507.082C312.429 507.022 312.513 506.968 312.561 506.92C312.729 506.932 312.879 506.944 313.011 506.956C313.143 506.956 313.281 506.968 313.425 506.992C313.533 507.004 313.641 507.022 313.749 507.046C313.857 507.058 313.971 507.076 314.091 507.1C314.199 507.124 314.301 507.172 314.397 507.244C314.505 507.316 314.559 507.436 314.559 507.604C314.559 507.724 314.529 507.82 314.469 507.892C314.409 507.964 314.319 508 314.199 508C314.151 508 314.049 507.994 313.893 507.982C313.749 507.97 313.617 507.958 313.497 507.946C313.377 507.934 313.131 507.922 312.759 507.91C312.399 507.898 312.123 507.892 311.931 507.892H308.511ZM317.025 545.678C317.025 545.594 317.019 545.516 317.007 545.444C316.995 545.36 316.965 545.282 316.917 545.21C316.881 545.15 316.833 545.09 316.773 545.03C316.725 544.97 316.671 544.916 316.611 544.868C316.551 544.808 316.479 544.754 316.395 544.706C316.311 544.658 316.227 544.61 316.143 544.562C316.059 544.514 315.969 544.472 315.873 544.436C315.777 544.388 315.693 544.352 315.621 544.328C315.561 544.304 315.489 544.274 315.405 544.238C315.333 544.19 315.297 544.142 315.297 544.094C315.297 544.022 315.345 543.968 315.441 543.932C315.549 543.896 315.663 543.878 315.783 543.878C315.855 543.878 315.999 543.896 316.215 543.932C316.431 543.968 316.617 544.01 316.773 544.058C316.917 544.094 317.091 544.142 317.295 544.202C317.499 544.262 317.655 544.316 317.763 544.364C317.859 544.412 317.943 544.46 318.015 544.508C318.099 544.556 318.141 544.628 318.141 544.724C318.141 544.772 318.129 544.832 318.105 544.904C318.093 544.964 318.075 545.036 318.051 545.12C318.039 545.192 318.027 545.294 318.015 545.426C318.003 545.546 317.997 545.636 317.997 545.696V551.546C317.997 551.762 317.991 552.026 317.979 552.338C317.967 552.638 317.955 552.878 317.943 553.058C317.931 553.37 317.913 553.64 317.889 553.868C317.865 554.096 317.841 554.258 317.817 554.354C317.793 554.486 317.763 554.6 317.727 554.696C317.703 554.792 317.679 554.864 317.655 554.912C317.631 554.96 317.595 555.014 317.547 555.074C317.511 555.122 317.463 555.146 317.403 555.146C317.343 555.146 317.295 555.128 317.259 555.092C317.235 555.044 317.211 554.996 317.187 554.948C317.175 554.9 317.157 554.84 317.133 554.768C317.121 554.696 317.109 554.618 317.097 554.534C317.085 554.402 317.073 554.282 317.061 554.174C317.061 554.054 317.055 553.898 317.043 553.706C317.031 553.466 317.025 553.16 317.025 552.788C317.025 552.404 317.025 552.152 317.025 552.032V550.574H314.649V551.492C314.649 551.684 314.643 551.936 314.631 552.248C314.619 552.56 314.601 552.818 314.577 553.022C314.565 553.25 314.547 553.442 314.523 553.598C314.499 553.754 314.475 553.874 314.451 553.958C314.439 554.042 314.415 554.126 314.379 554.21C314.343 554.294 314.313 554.36 314.289 554.408C314.265 554.456 314.235 554.498 314.199 554.534C314.163 554.57 314.121 554.588 314.073 554.588C314.037 554.588 314.001 554.576 313.965 554.552C313.941 554.516 313.917 554.474 313.893 554.426C313.881 554.39 313.863 554.348 313.839 554.3C313.827 554.252 313.815 554.192 313.803 554.12C313.791 554.012 313.779 553.904 313.767 553.796C313.755 553.676 313.743 553.544 313.731 553.4C313.719 553.232 313.713 553.01 313.713 552.734C313.713 552.446 313.713 552.2 313.713 551.996V546.11C313.713 546.014 313.701 545.924 313.677 545.84C313.665 545.756 313.641 545.69 313.605 545.642C313.569 545.582 313.527 545.528 313.479 545.48C313.443 545.432 313.389 545.384 313.317 545.336C313.257 545.288 313.191 545.246 313.119 545.21C313.047 545.162 312.975 545.12 312.903 545.084C312.855 545.06 312.789 545.03 312.705 544.994C312.633 544.958 312.561 544.928 312.489 544.904C312.429 544.88 312.357 544.85 312.273 544.814C312.201 544.778 312.165 544.736 312.165 544.688C312.165 544.604 312.207 544.55 312.291 544.526C312.387 544.49 312.477 544.472 312.561 544.472C312.621 544.472 312.735 544.484 312.903 544.508C313.071 544.532 313.233 544.562 313.389 544.598C313.557 544.634 313.737 544.682 313.929 544.742C314.133 544.79 314.295 544.838 314.415 544.886C314.487 544.91 314.565 544.952 314.649 545.012C314.733 545.06 314.775 545.12 314.775 545.192C314.775 545.252 314.763 545.33 314.739 545.426C314.715 545.51 314.697 545.582 314.685 545.642C314.673 545.69 314.661 545.768 314.649 545.876C314.649 545.984 314.649 546.068 314.649 546.128V549.944H317.025V545.678ZM307.737 548.09C307.581 548.09 307.389 548.102 307.161 548.126C306.933 548.138 306.759 548.156 306.639 548.18C306.555 548.192 306.453 548.216 306.333 548.252C306.213 548.288 306.123 548.318 306.063 548.342C306.015 548.366 305.955 548.396 305.883 548.432C305.823 548.456 305.763 548.492 305.703 548.54C305.679 548.54 305.619 548.522 305.523 548.486C305.427 548.438 305.331 548.39 305.235 548.342C305.115 548.282 304.989 548.21 304.857 548.126C304.725 548.042 304.605 547.964 304.497 547.892C304.413 547.832 304.329 547.766 304.245 547.694C304.161 547.622 304.119 547.562 304.119 547.514C304.119 547.454 304.149 547.412 304.209 547.388C304.269 547.352 304.323 547.34 304.371 547.352C304.467 547.364 304.575 547.382 304.695 547.406C304.827 547.418 304.941 547.43 305.037 547.442C305.241 547.454 305.475 547.472 305.739 547.496C306.015 547.508 306.321 547.514 306.657 547.514H309.393C309.633 547.514 309.849 547.508 310.041 547.496C310.245 547.484 310.431 547.454 310.599 547.406C310.695 547.382 310.785 547.346 310.869 547.298C310.953 547.238 311.031 547.178 311.103 547.118C311.235 547.13 311.361 547.142 311.481 547.154C311.601 547.154 311.733 547.166 311.877 547.19C312.021 547.202 312.141 547.22 312.237 547.244C312.345 547.256 312.435 547.274 312.507 547.298C312.603 547.322 312.699 547.376 312.795 547.46C312.891 547.532 312.939 547.634 312.939 547.766C312.939 547.922 312.897 548.036 312.813 548.108C312.741 548.168 312.657 548.198 312.561 548.198C312.513 548.198 312.411 548.192 312.255 548.18C312.111 548.168 311.991 548.156 311.895 548.144C311.775 548.132 311.571 548.12 311.283 548.108C310.995 548.096 310.749 548.09 310.545 548.09H307.737ZM312.633 560.384C312.225 560.384 311.763 560.366 311.247 560.33C310.743 560.294 310.335 560.252 310.023 560.204C309.687 560.144 309.369 560.078 309.069 560.006C308.781 559.934 308.517 559.844 308.277 559.736C308.061 559.64 307.869 559.526 307.701 559.394C307.533 559.274 307.383 559.136 307.251 558.98C307.083 558.776 306.969 558.554 306.909 558.314C306.849 558.074 306.819 557.87 306.819 557.702C306.819 557.534 306.849 557.33 306.909 557.09C306.969 556.838 307.083 556.616 307.251 556.424C307.383 556.256 307.533 556.112 307.701 555.992C307.869 555.872 308.061 555.764 308.277 555.668C308.517 555.56 308.781 555.47 309.069 555.398C309.369 555.314 309.687 555.248 310.023 555.2C310.335 555.14 310.743 555.098 311.247 555.074C311.763 555.038 312.225 555.02 312.633 555.02C313.041 555.02 313.497 555.038 314.001 555.074C314.517 555.098 314.931 555.14 315.243 555.2C315.591 555.248 315.909 555.314 316.197 555.398C316.485 555.47 316.749 555.56 316.989 555.668C317.205 555.764 317.397 555.872 317.565 555.992C317.733 556.112 317.883 556.256 318.015 556.424C318.183 556.616 318.297 556.838 318.357 557.09C318.417 557.33 318.447 557.534 318.447 557.702C318.447 557.87 318.417 558.074 318.357 558.314C318.297 558.554 318.183 558.776 318.015 558.98C317.883 559.136 317.733 559.274 317.565 559.394C317.397 559.526 317.205 559.64 316.989 559.736C316.749 559.844 316.485 559.934 316.197 560.006C315.909 560.078 315.591 560.144 315.243 560.204C314.931 560.252 314.517 560.294 314.001 560.33C313.497 560.366 313.041 560.384 312.633 560.384ZM312.633 559.736C313.161 559.736 313.683 559.706 314.199 559.646C314.727 559.586 315.123 559.526 315.387 559.466C315.639 559.406 315.891 559.322 316.143 559.214C316.395 559.118 316.581 559.028 316.701 558.944C316.821 558.86 316.923 558.77 317.007 558.674C317.091 558.578 317.157 558.488 317.205 558.404C317.265 558.296 317.307 558.188 317.331 558.08C317.367 557.972 317.385 557.84 317.385 557.684C317.385 557.54 317.367 557.414 317.331 557.306C317.307 557.186 317.265 557.072 317.205 556.964C317.157 556.868 317.091 556.778 317.007 556.694C316.923 556.598 316.821 556.508 316.701 556.424C316.581 556.34 316.395 556.25 316.143 556.154C315.891 556.046 315.639 555.962 315.387 555.902C315.123 555.842 314.727 555.782 314.199 555.722C313.683 555.662 313.161 555.632 312.633 555.632C312.117 555.632 311.595 555.662 311.067 555.722C310.551 555.782 310.155 555.842 309.879 555.902C309.627 555.962 309.375 556.046 309.123 556.154C308.871 556.25 308.685 556.34 308.565 556.424C308.445 556.508 308.343 556.598 308.259 556.694C308.175 556.778 308.109 556.868 308.061 556.964C308.013 557.072 307.971 557.192 307.935 557.324C307.899 557.444 307.881 557.564 307.881 557.684C307.881 557.84 307.899 557.972 307.935 558.08C307.971 558.188 308.013 558.296 308.061 558.404C308.109 558.488 308.175 558.578 308.259 558.674C308.343 558.77 308.445 558.86 308.565 558.944C308.685 559.028 308.871 559.118 309.123 559.214C309.375 559.322 309.627 559.406 309.879 559.466C310.155 559.526 310.551 559.586 311.067 559.646C311.595 559.706 312.117 559.736 312.633 559.736ZM307.557 546.11C307.341 546.11 307.137 546.086 306.945 546.038C306.765 545.978 306.597 545.906 306.441 545.822C306.333 545.762 306.219 545.672 306.099 545.552C305.979 545.42 305.919 545.312 305.919 545.228C305.919 545.156 305.943 545.114 305.991 545.102C306.039 545.078 306.087 545.072 306.135 545.084C306.195 545.096 306.273 545.12 306.369 545.156C306.477 545.192 306.579 545.222 306.675 545.246C306.771 545.27 306.927 545.3 307.143 545.336C307.371 545.372 307.659 545.39 308.007 545.39H308.763C308.967 545.39 309.141 545.366 309.285 545.318C309.429 545.27 309.537 545.21 309.609 545.138C309.741 545.15 309.891 545.162 310.059 545.174C310.227 545.174 310.359 545.186 310.455 545.21C310.587 545.234 310.719 545.288 310.851 545.372C310.983 545.444 311.049 545.564 311.049 545.732C311.049 545.852 311.007 545.948 310.923 546.02C310.851 546.08 310.749 546.11 310.617 546.11H307.557ZM308.799 554.318C308.523 554.318 308.235 554.294 307.935 554.246C307.635 554.186 307.401 554.132 307.233 554.084C307.041 554.024 306.855 553.952 306.675 553.868C306.507 553.772 306.369 553.682 306.261 553.598C306.117 553.49 305.991 553.37 305.883 553.238C305.787 553.106 305.709 552.986 305.649 552.878C305.577 552.746 305.517 552.578 305.469 552.374C305.421 552.17 305.397 551.972 305.397 551.78C305.397 551.576 305.421 551.372 305.469 551.168C305.517 550.964 305.577 550.802 305.649 550.682C305.709 550.574 305.787 550.454 305.883 550.322C305.991 550.19 306.117 550.07 306.261 549.962C306.369 549.878 306.507 549.794 306.675 549.71C306.855 549.614 307.041 549.536 307.233 549.476C307.401 549.416 307.635 549.362 307.935 549.314C308.235 549.266 308.523 549.242 308.799 549.242C309.075 549.242 309.363 549.266 309.663 549.314C309.975 549.362 310.209 549.416 310.365 549.476C310.569 549.536 310.755 549.614 310.923 549.71C311.091 549.794 311.229 549.878 311.337 549.962C311.481 550.07 311.601 550.19 311.697 550.322C311.805 550.454 311.889 550.574 311.949 550.682C312.021 550.802 312.081 550.964 312.129 551.168C312.177 551.372 312.201 551.576 312.201 551.78C312.201 551.972 312.177 552.17 312.129 552.374C312.081 552.578 312.021 552.746 311.949 552.878C311.889 552.986 311.805 553.106 311.697 553.238C311.601 553.37 311.481 553.49 311.337 553.598C311.229 553.682 311.091 553.772 310.923 553.868C310.755 553.952 310.569 554.024 310.365 554.084C310.209 554.132 309.975 554.186 309.663 554.246C309.363 554.294 309.075 554.318 308.799 554.318ZM308.799 553.724C309.015 553.724 309.219 553.706 309.411 553.67C309.603 553.634 309.789 553.586 309.969 553.526C310.089 553.478 310.215 553.412 310.347 553.328C310.479 553.244 310.587 553.16 310.671 553.076C310.779 552.956 310.857 552.854 310.905 552.77C310.965 552.686 311.013 552.602 311.049 552.518C311.085 552.434 311.115 552.326 311.139 552.194C311.175 552.05 311.193 551.906 311.193 551.762C311.193 551.618 311.175 551.48 311.139 551.348C311.115 551.204 311.085 551.09 311.049 551.006C311.013 550.922 310.965 550.838 310.905 550.754C310.857 550.67 310.779 550.568 310.671 550.448C310.587 550.364 310.479 550.28 310.347 550.196C310.215 550.112 310.089 550.046 309.969 549.998C309.789 549.938 309.603 549.89 309.411 549.854C309.219 549.818 309.015 549.8 308.799 549.8C308.583 549.8 308.379 549.818 308.187 549.854C307.995 549.89 307.809 549.938 307.629 549.998C307.509 550.046 307.383 550.112 307.251 550.196C307.119 550.28 307.011 550.364 306.927 550.448C306.819 550.568 306.735 550.67 306.675 550.754C306.627 550.838 306.585 550.922 306.549 551.006C306.513 551.09 306.477 551.204 306.441 551.348C306.417 551.48 306.405 551.618 306.405 551.762C306.405 551.906 306.417 552.05 306.441 552.194C306.477 552.326 306.513 552.434 306.549 552.518C306.585 552.602 306.627 552.686 306.675 552.77C306.735 552.854 306.819 552.956 306.927 553.076C307.011 553.16 307.119 553.244 307.251 553.328C307.383 553.412 307.509 553.478 307.629 553.526C307.809 553.586 307.995 553.634 308.187 553.67C308.379 553.706 308.583 553.724 308.799 553.724ZM314.379 573.022C314.823 573.022 315.189 573.016 315.477 573.004C315.777 572.992 315.999 572.98 316.143 572.968C316.263 572.944 316.401 572.92 316.557 572.896C316.725 572.86 316.851 572.818 316.935 572.77C316.995 572.746 317.049 572.716 317.097 572.68C317.157 572.644 317.211 572.608 317.259 572.572C317.427 572.584 317.601 572.596 317.781 572.608C317.961 572.608 318.147 572.62 318.339 572.644C318.531 572.656 318.699 572.68 318.843 572.716C318.999 572.74 319.137 572.764 319.257 572.788C319.377 572.812 319.491 572.866 319.599 572.95C319.719 573.022 319.779 573.142 319.779 573.31C319.779 573.43 319.749 573.538 319.689 573.634C319.629 573.73 319.515 573.772 319.347 573.76C319.227 573.748 319.095 573.742 318.951 573.742C318.819 573.73 318.687 573.718 318.555 573.706C318.411 573.694 318.141 573.682 317.745 573.67C317.361 573.646 317.007 573.634 316.683 573.634H309.933C309.261 573.634 308.667 573.658 308.151 573.706C307.635 573.754 307.275 573.808 307.071 573.868C306.951 573.904 306.831 573.946 306.711 573.994C306.603 574.03 306.489 574.078 306.369 574.138C306.321 574.138 306.213 574.108 306.045 574.048C305.889 573.976 305.745 573.91 305.613 573.85C305.469 573.79 305.325 573.724 305.181 573.652C305.037 573.568 304.899 573.49 304.767 573.418C304.659 573.358 304.551 573.292 304.443 573.22C304.347 573.136 304.299 573.058 304.299 572.986C304.299 572.926 304.323 572.884 304.371 572.86C304.431 572.824 304.497 572.812 304.569 572.824C304.677 572.836 304.821 572.854 305.001 572.878C305.181 572.902 305.337 572.92 305.469 572.932C305.685 572.944 306.039 572.962 306.531 572.986C307.023 573.01 307.521 573.022 308.025 573.022H311.463V570.628H307.863C307.851 570.724 307.833 570.82 307.809 570.916C307.785 571 307.761 571.072 307.737 571.132C307.701 571.228 307.653 571.312 307.593 571.384C307.545 571.444 307.491 571.474 307.431 571.474C307.347 571.474 307.281 571.444 307.233 571.384C307.197 571.312 307.167 571.234 307.143 571.15C307.131 571.09 307.113 570.988 307.089 570.844C307.065 570.7 307.047 570.568 307.035 570.448C307.023 570.34 307.011 570.136 306.999 569.836C306.999 569.524 306.999 569.302 306.999 569.17V566.02C306.999 565.924 306.981 565.84 306.945 565.768C306.921 565.684 306.879 565.618 306.819 565.57C306.771 565.522 306.699 565.468 306.603 565.408C306.519 565.348 306.441 565.3 306.369 565.264C306.285 565.228 306.201 565.192 306.117 565.156C306.045 565.12 305.973 565.09 305.901 565.066C305.829 565.042 305.745 565.012 305.649 564.976C305.553 564.928 305.505 564.874 305.505 564.814C305.505 564.742 305.547 564.688 305.631 564.652C305.727 564.616 305.823 564.598 305.919 564.598C306.015 564.598 306.153 564.61 306.333 564.634C306.513 564.658 306.669 564.682 306.801 564.706C306.945 564.73 307.095 564.76 307.251 564.796C307.419 564.832 307.581 564.88 307.737 564.94C307.821 564.964 307.905 565 307.989 565.048C308.073 565.096 308.115 565.156 308.115 565.228C308.115 565.288 308.097 565.378 308.061 565.498C308.025 565.618 308.007 565.75 308.007 565.894V566.758H316.089V565.534C316.089 565.438 316.071 565.348 316.035 565.264C315.999 565.18 315.951 565.114 315.891 565.066C315.831 565.006 315.753 564.946 315.657 564.886C315.561 564.826 315.477 564.778 315.405 564.742C315.333 564.706 315.249 564.67 315.153 564.634C315.069 564.586 314.991 564.55 314.919 564.526C314.847 564.502 314.763 564.472 314.667 564.436C314.583 564.388 314.541 564.334 314.541 564.274C314.541 564.202 314.583 564.148 314.667 564.112C314.763 564.076 314.853 564.058 314.937 564.058C314.997 564.058 315.105 564.07 315.261 564.094C315.429 564.106 315.603 564.13 315.783 564.166C315.927 564.19 316.101 564.232 316.305 564.292C316.509 564.34 316.665 564.382 316.773 564.418C316.857 564.442 316.947 564.478 317.043 564.526C317.151 564.574 317.205 564.64 317.205 564.724C317.205 564.784 317.187 564.88 317.151 565.012C317.115 565.132 317.097 565.27 317.097 565.426V568.846C317.097 569.002 317.085 569.23 317.061 569.53C317.049 569.83 317.031 570.082 317.007 570.286C316.995 570.442 316.971 570.598 316.935 570.754C316.899 570.91 316.863 571.036 316.827 571.132C316.791 571.228 316.743 571.312 316.683 571.384C316.635 571.444 316.581 571.474 316.521 571.474C316.437 571.474 316.371 571.444 316.323 571.384C316.287 571.312 316.257 571.234 316.233 571.15C316.221 571.102 316.203 571.03 316.179 570.934C316.167 570.826 316.155 570.724 316.143 570.628H312.471V573.022H314.379ZM316.089 570.016C316.089 569.848 316.089 569.686 316.089 569.53C316.089 569.374 316.089 569.254 316.089 569.17V567.37H308.007V568.846C308.007 568.966 308.001 569.14 307.989 569.368C307.989 569.596 307.977 569.812 307.953 570.016H316.089ZM316.089 576.118H311.535C311.103 576.118 310.695 576.13 310.311 576.154C309.939 576.178 309.687 576.202 309.555 576.226C309.387 576.25 309.231 576.28 309.087 576.316C308.955 576.34 308.835 576.37 308.727 576.406C308.631 576.442 308.535 576.478 308.439 576.514C308.355 576.55 308.277 576.592 308.205 576.64C308.157 576.64 308.061 576.616 307.917 576.568C307.785 576.508 307.653 576.454 307.521 576.406C307.389 576.346 307.227 576.274 307.035 576.19C306.855 576.094 306.699 576.01 306.567 575.938C306.483 575.878 306.381 575.812 306.261 575.74C306.153 575.668 306.099 575.59 306.099 575.506C306.099 575.446 306.123 575.404 306.171 575.38C306.231 575.344 306.297 575.332 306.369 575.344C306.441 575.356 306.567 575.374 306.747 575.398C306.939 575.41 307.083 575.422 307.179 575.434C307.383 575.446 307.707 575.464 308.151 575.488C308.595 575.5 309.111 575.506 309.699 575.506H315.765L316.125 575.254C316.269 575.266 316.395 575.278 316.503 575.29C316.611 575.29 316.707 575.296 316.791 575.308C316.911 575.32 317.013 575.344 317.097 575.38C317.193 575.416 317.241 575.47 317.241 575.542C317.241 575.626 317.217 575.734 317.169 575.866C317.121 575.986 317.097 576.13 317.097 576.298V577.738C317.097 577.894 317.091 578.074 317.079 578.278C317.079 578.47 317.073 578.65 317.061 578.818C317.049 578.986 317.037 579.148 317.025 579.304C317.025 579.46 317.013 579.598 316.989 579.718C316.977 579.802 316.959 579.898 316.935 580.006C316.923 580.114 316.905 580.198 316.881 580.258C316.857 580.342 316.833 580.408 316.809 580.456C316.785 580.516 316.755 580.576 316.719 580.636C316.695 580.684 316.659 580.72 316.611 580.744C316.575 580.78 316.539 580.798 316.503 580.798C316.455 580.798 316.413 580.78 316.377 580.744C316.341 580.708 316.311 580.666 316.287 580.618C316.263 580.558 316.239 580.492 316.215 580.42C316.203 580.348 316.191 580.288 316.179 580.24C316.167 580.18 316.155 580.108 316.143 580.024C316.143 579.952 316.137 579.856 316.125 579.736C316.113 579.604 316.101 579.4 316.089 579.124C316.089 578.848 316.089 578.614 316.089 578.422V576.118ZM321.114 578.314C321.114 578.026 321.21 577.78 321.402 577.576C321.606 577.372 321.846 577.27 322.122 577.27C322.422 577.27 322.662 577.372 322.842 577.576C323.034 577.78 323.13 578.026 323.13 578.314C323.13 578.602 323.034 578.848 322.842 579.052C322.662 579.256 322.422 579.358 322.122 579.358C321.846 579.358 321.606 579.256 321.402 579.052C321.21 578.848 321.114 578.602 321.114 578.314Z" fill="black"/>
<line x1="243.849" y1="191.72" x2="243.849" y2="549.72" stroke="#090B0B" stroke-width="2" stroke-linecap="round"/>
<line x1="22.2834" y1="-125" x2="22.2835" y2="233" stroke="black" stroke-width="2" stroke-linecap="round"/>
<circle cx="29.7013" cy="81.35" r="29.7013" fill="black"/>
<line x1="399.374" y1="522.818" x2="399.374" y2="772.034" stroke="#090B0B" stroke-width="2" stroke-linecap="round"/>
<circle cx="356.058" cy="644" r="13.0585" fill="#090B0B"/>
<mask id="mask0_332_92" style="mask-type:alpha" maskUnits="userSpaceOnUse" x="0" y="51" width="60" height="61">
<circle cx="29.7013" cy="81.35" r="29.7013" fill="black"/>
</mask>
<g mask="url(#mask0_332_92)">
<line x1="22" y1="-125" x2="22" y2="163" stroke="#E8E9EB" stroke-width="2" stroke-linecap="round"/>
</g>
</svg>
