<svg width="38" height="38" viewBox="0 0 38 38" fill="none" xmlns="http://www.w3.org/2000/svg">
<path fill-rule="evenodd" clip-rule="evenodd" d="M18.0217 1.22547C18.3429 1.19005 18.6693 1.17188 19 1.17188C19.3307 1.17188 19.6571 1.19006 19.9784 1.22547C19.6461 1.27417 19.3197 1.34068 19 1.42399C18.6804 1.34067 18.3539 1.27416 18.0217 1.22547ZM19 0.828125C19.807 0.828125 20.5896 0.932343 21.3352 1.12805C22.9893 1.13073 24.5407 1.57125 25.8797 2.33993C27.4376 2.75731 28.8319 3.57467 29.9459 4.67521C31.3383 5.48062 32.4992 6.64154 33.3047 8.03386C34.4065 9.14219 35.2269 10.5305 35.6499 12.0827C36.4273 13.4298 36.872 14.9931 36.872 16.6602L36.872 16.6652C37.0677 17.4106 37.1719 18.1931 37.1719 19C37.1719 19.8069 37.0677 20.5894 36.872 21.3349C36.8694 22.9892 36.4288 24.5409 35.66 25.8801C35.2366 27.4602 34.4017 28.872 33.2773 29.9936C32.4729 31.3651 31.3223 32.509 29.9456 33.3053C28.8316 34.4058 27.4371 35.2231 25.8791 35.6404C24.5609 36.3971 23.0368 36.8357 21.4115 36.8515C20.6431 37.0604 19.8346 37.1719 19 37.1719C18.1654 37.1719 17.3569 37.0604 16.5885 36.8515C14.9633 36.8357 13.4393 36.3971 12.1211 35.6405C10.5629 35.2232 9.16841 34.4058 8.05432 33.3052C6.67764 32.5089 5.52715 31.3651 4.72281 29.9936C3.59838 28.872 2.76353 27.4602 2.34012 25.8801C1.57133 24.541 1.13074 22.9895 1.12806 21.3352C0.932347 20.5896 0.828125 19.807 0.828125 19C0.828125 18.193 0.932343 17.4104 1.12805 16.6648L1.12805 16.6602C1.12805 14.9931 1.57282 13.4299 2.35018 12.0827C2.77315 10.5305 3.59358 9.14221 4.69535 8.03388C5.50079 6.64163 6.66171 5.48075 8.05398 4.67534C9.16797 3.5747 10.5624 2.75728 12.1205 2.33989C13.4594 1.57125 15.0108 1.13074 16.6648 1.12805C17.4104 0.932343 18.193 0.828125 19 0.828125ZM13.4283 35.8901C14.0297 36.1285 14.6635 36.3027 15.3213 36.4043C15.0137 36.2695 14.7149 36.1183 14.426 35.9517C14.0888 35.9491 13.7559 35.9282 13.4283 35.8901ZM17.944 36.7656C18.2902 36.8069 18.6426 36.8281 19 36.8281C19.3574 36.8281 19.7098 36.8069 20.0561 36.7656C19.697 36.7161 19.3446 36.6458 19 36.556C18.6555 36.6459 18.3031 36.7161 17.944 36.7656ZM18.3314 36.3541C17.7965 36.4553 17.2444 36.5082 16.6801 36.5082C16.6655 36.5082 16.6509 36.5082 16.6363 36.5081C16.1091 36.362 15.6016 36.1681 15.1189 35.9315C15.6949 35.8931 16.2563 35.8016 16.7982 35.6617C17.2834 35.9372 17.7962 36.1697 18.3314 36.3541ZM19.6687 36.3541C20.2036 36.4553 20.7556 36.5082 21.32 36.5082L21.3636 36.5081C21.8909 36.362 22.3984 36.1681 22.8811 35.9315C22.3051 35.8931 21.7438 35.8016 21.2018 35.6617C20.7166 35.9372 20.2039 36.1697 19.6687 36.3541ZM20.7303 35.5264C20.1843 35.8088 19.6051 36.0359 19 36.2002C18.395 36.0359 17.8158 35.8088 17.2698 35.5264C17.8762 35.3345 18.4554 35.0813 19 34.7741C19.5446 35.0813 20.1238 35.3345 20.7303 35.5264ZM21.622 35.4081C22.2211 35.5379 22.8429 35.6069 23.4805 35.6083C24.0075 35.2972 24.4993 34.933 24.9487 34.523C24.3074 34.4947 23.6833 34.4006 23.0829 34.2472C22.6375 34.6815 22.1481 35.0709 21.622 35.4081ZM22.6976 34.1397C22.2276 34.5776 21.7099 34.9649 21.1529 35.2929C20.5182 35.1183 19.9122 34.8746 19.3433 34.5704C19.899 34.2242 20.4149 33.8202 20.8827 33.3669C21.4528 33.6864 22.0605 33.9468 22.6976 34.1397ZM23.3634 33.9616C23.9851 34.1054 24.632 34.1834 25.2963 34.1881C25.749 33.7276 26.1515 33.2175 26.4951 32.6669C25.826 32.6451 25.175 32.5515 24.5496 32.3938C24.2105 32.9588 23.8122 33.4842 23.3634 33.9616ZM24.2046 32.2995C23.8557 32.8666 23.4445 33.3913 22.9805 33.864C22.332 33.6828 21.7135 33.4295 21.1344 33.1132C21.5955 32.6304 22.0043 32.0973 22.3519 31.5231C22.9336 31.8462 23.5541 32.108 24.2046 32.2995ZM24.7277 32.0836C25.3602 32.2357 26.0192 32.3198 26.6965 32.3275C27.0209 31.7517 27.2826 31.1359 27.4723 30.4892C26.792 30.4726 26.1301 30.3819 25.4943 30.225C25.3063 30.8773 25.0478 31.4997 24.7277 32.0836ZM25.162 30.1362C24.9731 30.7897 24.7108 31.412 24.3844 31.9936C23.7304 31.8079 23.1072 31.5488 22.5245 31.2256C22.8479 30.6431 23.1097 30.0217 23.3011 29.3701C23.8857 29.6902 24.5089 29.9486 25.162 30.1362ZM25.5833 29.8928C26.2195 30.0494 26.883 30.137 27.5652 30.1472C27.7237 29.5126 27.8136 28.8509 27.8265 28.1703C27.1467 28.1577 26.4849 28.0711 25.8489 27.9182C25.8316 28.5973 25.7405 29.2581 25.5833 29.8928ZM25.5069 27.829C25.4957 28.5088 25.4076 29.1699 25.251 29.8041C24.5978 29.6158 23.9757 29.3542 23.3942 29.0287C23.5517 28.4041 23.645 27.754 23.6669 27.0858C24.2458 27.3967 24.862 27.6472 25.5069 27.829ZM25.8512 27.5648C26.4852 27.7233 27.1464 27.8133 27.8265 27.8265C27.8132 27.1392 27.7214 26.4712 27.5597 25.831C26.8912 25.8209 26.2401 25.7394 25.6136 25.5936C25.7611 26.2279 25.8429 26.8875 25.8512 27.5648ZM25.2362 25.4973C25.3973 26.1306 25.4899 26.7912 25.5057 27.4708C24.8606 27.2812 24.2461 27.0198 23.6715 26.6959C23.6656 26.0431 23.5916 25.4066 23.4561 24.7931C24.0178 25.0869 24.6137 25.3241 25.2362 25.4973ZM25.5172 25.2163C26.1424 25.3754 26.7943 25.4677 27.4648 25.4852C27.2756 24.8474 27.0163 24.2398 26.6958 23.6713C26.0542 23.6642 25.4284 23.5911 24.8248 23.4587C25.1131 24.0138 25.3463 24.6021 25.5172 25.2163ZM24.3737 23.3475C24.6855 23.9 24.9395 24.4894 25.1275 25.1075C24.5005 24.9168 23.9031 24.6583 23.3438 24.3403C23.1886 23.7766 22.981 23.2346 22.7265 22.72C23.2493 22.9795 23.8003 23.1907 24.3737 23.3475ZM24.6003 23.0519C25.207 23.2075 25.8389 23.3002 26.4886 23.3227C26.1414 22.768 25.7343 22.2546 25.2763 21.7916C24.6897 21.7864 24.1163 21.7261 23.561 21.6156C23.9516 22.0585 24.3001 22.5393 24.6003 23.0519ZM22.9591 21.4745C23.3906 21.9111 23.7769 22.3924 24.1104 22.9109C23.5221 22.723 22.9607 22.4751 22.4333 22.1743C22.1923 21.7602 21.9199 21.3666 21.6192 20.9969C22.0493 21.1893 22.497 21.3495 22.9591 21.4745ZM23.1367 21.1659C23.7056 21.3135 24.2968 21.4058 24.9042 21.4367C24.4573 21.0343 23.969 20.677 23.4465 20.3718C22.9803 20.3691 22.5223 20.3317 22.075 20.2619C22.4516 20.5363 22.8065 20.8386 23.1367 21.1659ZM21.1576 20.0701C21.5855 20.3224 21.9902 20.6098 22.3679 20.9283C21.8822 20.7533 21.4162 20.537 20.9743 20.2835C20.8376 20.1472 20.6965 20.0152 20.5514 19.8877C20.7505 19.9552 20.9526 20.0161 21.1576 20.0701ZM17.2595 18.5263C17.0679 18.5143 16.8747 18.5083 16.6801 18.5083C16.6657 18.5083 16.6514 18.5083 16.6371 18.5084C16.1469 18.3725 15.6738 18.1954 15.2219 17.9811C15.7315 18.0224 16.229 18.1069 16.7105 18.231C16.8897 18.3354 17.0728 18.4339 17.2595 18.5263ZM21.2903 19.7494C21.1108 19.6448 20.9275 19.5462 20.7406 19.4538C20.9223 19.4651 21.1054 19.4711 21.2898 19.4717C21.7876 19.6051 22.268 19.7808 22.7269 19.9948C22.2354 19.9522 21.7554 19.8693 21.2903 19.7494ZM15.6994 18.5601C15.2317 18.6098 14.7745 18.6946 14.3305 18.812C13.7383 18.6489 13.1711 18.4256 12.6357 18.1492C13.2138 18.025 13.813 17.9573 14.427 17.9523C14.8326 18.1861 15.2578 18.3897 15.6994 18.5601ZM15.1166 18.99C15.596 18.9043 16.0888 18.8574 16.5917 18.8524C16.7996 18.9088 17.0103 18.9581 17.2237 19C17.0353 19.037 16.849 19.0797 16.6649 19.128C16.1366 19.1271 15.6192 19.0799 15.1166 18.99ZM13.7388 18.99C13.1797 18.8009 12.6448 18.5592 12.1399 18.271C11.5098 18.4454 10.908 18.6879 10.3429 18.9901C10.9079 19.2923 11.5096 19.5347 12.1396 19.7091C12.6446 19.4209 13.1796 19.1792 13.7388 18.99ZM12.6355 19.8309C13.1709 19.5545 13.7383 19.3312 14.3305 19.1681C14.7875 19.2888 15.2584 19.3752 15.7404 19.4242C15.2964 19.5931 14.869 19.7954 14.4611 20.0281C13.8351 20.0254 13.2244 19.9575 12.6355 19.8309ZM11.7416 19.9499C11.1277 19.7565 10.5416 19.5004 9.99088 19.1889C9.42385 19.5264 8.89785 19.9257 8.42213 20.3774C9.00031 20.6924 9.6176 20.9447 10.2649 21.1251C10.7146 20.6849 11.2093 20.2907 11.7416 19.9499ZM10.6579 21.2249C11.1239 20.79 11.637 20.4049 12.1887 20.0783C12.7505 20.2241 13.3333 20.318 13.9315 20.3546C13.4473 20.6763 12.9953 21.0427 12.5816 21.4481C11.9206 21.4438 11.2769 21.3669 10.6579 21.2249ZM9.9918 21.4039C9.35129 21.2111 8.7403 20.9501 8.16725 20.6294C7.69766 21.1128 7.28294 21.6497 6.93313 22.2303C7.51588 22.5526 8.13896 22.811 8.79288 22.9959C9.13458 22.4218 9.5372 21.8882 9.9918 21.4039ZM9.13977 23.0864C9.48906 22.5143 9.90164 21.985 10.3678 21.5084C10.9751 21.6631 11.6067 21.7573 12.2556 21.7841C11.8209 22.2556 11.4349 22.7728 11.1058 23.3276C10.4295 23.3205 9.77145 23.2374 9.13977 23.0864ZM8.61786 23.3033C7.96603 23.1124 7.34429 22.8511 6.76143 22.5282C6.44271 23.107 6.18705 23.7254 6.0037 24.3742C6.58584 24.6991 7.20855 24.96 7.86233 25.1475C8.04777 24.5006 8.30246 23.8831 8.61786 23.3033ZM8.19472 25.2357C8.38068 24.589 8.63858 23.9727 8.9592 23.3961C9.58753 23.5539 10.2416 23.6469 10.9139 23.6675C10.6063 24.2404 10.3578 24.8498 10.1765 25.4874C9.49445 25.4781 8.83105 25.3914 8.19472 25.2357ZM7.77382 25.4798C7.12127 25.2932 6.49846 25.0362 5.91415 24.7175C5.76199 25.3531 5.6786 26.0155 5.67227 26.6964C6.24803 27.0208 6.86386 27.2825 7.51049 27.4722C7.52573 26.7869 7.61615 26.1201 7.77382 25.4798ZM7.85266 27.5651C7.86144 26.8776 7.9488 26.2091 8.10618 25.568C8.74275 25.7243 9.40543 25.814 10.0864 25.8296C9.93069 26.4715 9.84247 27.1398 9.82973 27.8265C9.14908 27.8136 8.48727 27.7237 7.85266 27.5651ZM7.50937 27.8297C6.86736 27.6489 6.25389 27.4001 5.67726 27.0914C5.70011 27.7508 5.79527 28.3918 5.95507 29.0068C6.51729 29.3253 7.1179 29.5838 7.74824 29.7738C7.6021 29.148 7.52005 28.4975 7.50937 27.8297ZM8.12797 29.879C7.96678 29.2503 7.8731 28.5944 7.85512 27.9197C8.49018 28.0719 9.15092 28.158 9.82967 28.1703C9.84204 28.8493 9.92819 29.5103 10.0804 30.1455C9.4083 30.1291 8.75478 30.0376 8.12797 29.879ZM7.84748 30.1604C7.23312 29.9904 6.64465 29.758 6.0893 29.4705C6.28129 30.0712 6.53585 30.6439 6.84531 31.181C7.37988 31.4848 7.94927 31.7343 8.546 31.9222C8.25536 31.366 8.02008 30.7763 7.84748 30.1604ZM9.01006 32.0543C8.68844 31.4916 8.42696 30.89 8.23438 30.2584C8.85785 30.4019 9.50561 30.4819 10.1705 30.4911C10.3512 31.1332 10.6002 31.7467 10.909 32.3234C10.2556 32.3022 9.62012 32.2101 9.01006 32.0543ZM8.78464 32.3505C8.23773 32.2015 7.71116 32.0033 7.21 31.7608C7.52175 32.2162 7.87508 32.6409 8.26449 33.0295C8.7403 33.3015 9.24387 33.5306 9.7699 33.7113C9.40178 33.2899 9.07159 32.8345 8.78464 32.3505ZM10.4227 33.9076C9.98724 33.47 9.59735 32.9871 9.26078 32.4664C9.85617 32.5946 10.473 32.665 11.1052 32.6714C11.4258 33.212 11.8003 33.7169 12.2214 34.1786C11.6031 34.1497 11.0014 34.0573 10.4227 33.9076ZM10.921 34.3713C11.4529 34.4721 12.001 34.5271 12.5611 34.5318C12.9544 34.9195 13.3825 35.2719 13.8403 35.584C13.2961 35.5438 12.7656 35.4543 12.2533 35.3198C11.7795 35.0447 11.3336 34.7267 10.921 34.3713ZM10.2458 34.2165C10.4892 34.4561 10.7459 34.6822 11.0148 34.8937C10.3932 34.6263 9.80854 34.2896 9.27044 33.8934C9.58731 34.0186 9.91282 34.1267 10.2458 34.2165ZM19.6687 1.62598C20.1942 1.52654 20.7362 1.47367 21.2902 1.47184C21.8309 1.61667 22.351 1.81154 22.8455 2.05119C22.2821 2.09092 21.7328 2.18152 21.2021 2.31844C20.7168 2.04292 20.204 1.81037 19.6687 1.62598ZM16.7098 1.47184C17.2638 1.47367 17.8059 1.52653 18.3314 1.62598C17.7961 1.81037 17.2833 2.04292 16.798 2.31845C16.2673 2.18153 15.7179 2.09092 15.1545 2.05119C15.649 1.81154 16.1691 1.61667 16.7098 1.47184ZM19.0001 1.77979C18.3949 1.94418 17.8156 2.17131 17.2696 2.45377C17.8761 2.64565 18.4553 2.89886 19 3.20614C19.5447 2.89885 20.124 2.64563 20.7305 2.45375C20.1845 2.1713 19.6052 1.94418 19.0001 1.77979ZM14.5529 2.37211C15.1788 2.37578 15.7893 2.44459 16.3779 2.5721C15.8517 2.90928 15.3623 3.29871 14.9169 3.73309C14.323 3.58137 13.7058 3.48763 13.0719 3.45824C13.5252 3.04723 14.0214 2.68268 14.5529 2.37211ZM16.8469 2.68731C16.29 3.01527 15.7722 3.4026 15.3023 3.8406C15.9393 4.03352 16.5471 4.2939 17.1173 4.61341C17.5851 4.16001 18.101 3.756 18.6567 3.4098C18.0878 3.10561 17.4817 2.86191 16.8469 2.68731ZM12.723 3.79238C13.3805 3.79843 14.0208 3.87637 14.6365 4.0187C14.1831 4.50087 13.7814 5.03211 13.4401 5.6036C12.8178 5.44742 12.1703 5.35482 11.5049 5.33309C11.8533 4.77469 12.2624 4.25805 12.723 3.79238ZM15.0193 4.11634C14.5508 4.59364 14.1361 5.12395 13.7851 5.69743C14.4361 5.88828 15.057 6.14937 15.6391 6.47194C15.9887 5.89206 16.4006 5.354 16.8655 4.86704C16.2864 4.55074 15.6679 4.29743 15.0193 4.11634ZM11.3035 5.67247C11.9774 5.6802 12.6332 5.76344 13.2627 5.91413C12.947 6.49291 12.6919 7.10946 12.5058 7.75528C11.8717 7.59874 11.2117 7.50816 10.5334 7.49121C10.7227 6.8517 10.9823 6.24245 11.3035 5.67247ZM13.606 6.00367C13.2841 6.58037 13.0251 7.1969 12.838 7.844C13.4911 8.03168 14.1144 8.28997 14.6989 8.61008C14.8887 7.96418 15.1476 7.34787 15.4672 6.76973C14.884 6.44713 14.2604 6.18862 13.606 6.00367ZM10.4398 7.83313C11.1202 7.84369 11.782 7.93125 12.4168 8.08747C12.2581 8.72828 12.1667 9.39567 12.1507 10.0817C11.5148 9.9289 10.8532 9.84234 10.1735 9.82973C10.1865 9.14209 10.2781 8.47368 10.4398 7.83313ZM12.749 8.17618C12.5909 8.81643 12.5027 9.48421 12.4928 10.171C13.1377 10.3527 13.7537 10.6031 14.3325 10.9139C14.3532 10.2389 14.4468 9.58219 14.6058 8.9515C14.0243 8.62601 13.4022 8.3644 12.749 8.17618ZM10.1735 10.1735C10.8537 10.1867 11.515 10.2767 12.1491 10.4353C12.1588 11.1056 12.2404 11.7585 12.3866 12.3866C11.7585 12.2405 11.1056 12.1589 10.4353 12.1492C10.2767 11.515 10.1867 10.8537 10.1735 10.1735ZM12.4948 10.5293C12.512 11.2019 12.6044 11.8559 12.7639 12.483C13.3864 12.6562 13.9823 12.8934 14.5439 13.1871C14.4098 12.5798 14.3359 11.95 14.3287 11.3042C13.7542 10.9804 13.1399 10.719 12.4948 10.5293ZM10.5293 12.4949C11.2019 12.5121 11.8558 12.6044 12.4829 12.7639C12.6561 13.3864 12.8933 13.9823 13.187 14.5439C12.5798 14.4098 11.95 14.3359 11.3042 14.3287C10.9804 13.7543 10.719 13.1399 10.5293 12.4949ZM12.8727 12.8727C13.0634 13.4996 13.3219 14.0969 13.6398 14.6561C14.2131 14.8139 14.764 15.026 15.2865 15.2865C15.026 14.764 14.814 14.2132 14.6562 13.6399C14.0969 13.322 13.4996 13.0634 12.8727 12.8727ZM11.5113 14.6773C12.1661 14.6999 12.8027 14.7939 13.4136 14.9517C13.7108 15.4556 14.0547 15.9286 14.4395 16.3648C13.8778 16.2531 13.2977 16.1927 12.7042 16.1886C12.2541 15.7308 11.8536 15.2241 11.5113 14.6773ZM13.906 15.0943C14.2358 15.6034 14.6167 16.0763 15.0414 16.5059C15.5034 16.6309 15.9509 16.7911 16.3809 16.9834C16.0874 16.6225 15.8207 16.2389 15.584 15.8355C15.0564 15.5331 14.4947 15.2836 13.906 15.0943ZM13.0728 16.5425C13.6884 16.5723 14.2876 16.665 14.8638 16.8146C15.194 17.1418 15.5489 17.4441 15.9255 17.7184C15.4672 17.6469 14.9977 17.6093 14.5196 17.6083C14.0009 17.3022 13.5163 16.9446 13.0728 16.5425ZM15.6329 17.0523C16.0105 17.3708 16.4153 17.6581 16.8431 17.9103C17.0478 17.9642 17.2498 18.0251 17.4486 18.0925C17.3036 17.9651 17.1626 17.8331 17.0259 17.6969C16.5841 17.4435 16.1184 17.2273 15.6329 17.0523ZM23.6696 19.1681C23.2126 19.2888 22.7416 19.3752 22.2596 19.4243C22.7036 19.5931 23.131 19.7954 23.5389 20.0281C24.165 20.0254 24.7757 19.9575 25.3646 19.8309C24.8292 19.5545 24.2618 19.3312 23.6696 19.1681ZM21.3351 19.128C21.8634 19.1271 22.3808 19.0799 22.8835 18.99C22.4041 18.9043 21.9112 18.8574 21.4083 18.8524C21.2005 18.9088 20.9897 18.9581 20.7763 19C20.9647 19.037 21.151 19.0797 21.3351 19.128ZM25.8604 19.7091C25.3555 19.4209 24.8205 19.1792 24.2613 18.99C24.8204 18.8009 25.3553 18.5592 25.8602 18.2711C26.4903 18.4454 27.0921 18.6879 27.6571 18.9901C27.0921 19.2923 26.4904 19.5347 25.8604 19.7091ZM23.6696 18.812C24.2617 18.6489 24.829 18.4256 25.3643 18.1493C24.7862 18.025 24.1871 17.9573 23.573 17.9523C23.1674 18.1861 22.7423 18.3897 22.3006 18.5601C22.7683 18.6098 23.2255 18.6946 23.6696 18.812ZM28.0091 18.7914C27.4584 18.4799 26.8722 18.2236 26.2582 18.0303C26.7905 17.6895 27.2853 17.2953 27.735 16.8552C28.3823 17.0356 28.9996 17.2879 29.5778 17.6029C29.1021 18.0546 28.5761 18.4538 28.0091 18.7914ZM25.8111 17.9019C26.3628 17.5753 26.8759 17.1903 27.3419 16.7554C26.7292 16.6149 26.0922 16.5381 25.4382 16.5325C25.0268 16.9379 24.5773 17.3048 24.0956 17.6273C24.6843 17.665 25.2578 17.7583 25.8111 17.9019ZM29.8327 17.3509C29.2596 17.0302 28.6486 16.7692 28.0081 16.5764C28.4582 16.0969 28.8575 15.5689 29.197 15.0012C29.8513 15.1854 30.4747 15.443 31.0579 15.7648C30.71 16.3396 30.2983 16.8716 29.8327 17.3509ZM27.6321 16.4719C28.0936 16 28.5026 15.4766 28.8497 14.9111C28.2212 14.7616 27.5667 14.6794 26.8942 14.6724C26.5695 15.2198 26.1894 15.7306 25.7618 16.197C26.4046 16.2247 27.0302 16.3186 27.6321 16.4719ZM31.2302 15.4672C30.647 15.1448 30.025 14.8841 29.3728 14.6939C29.6926 14.1092 29.9504 13.4859 30.1377 12.8328C30.7915 13.0202 31.4142 13.2811 31.9963 13.606C31.8114 14.2604 31.5528 14.884 31.2302 15.4672ZM29.0311 14.6014C29.3562 14.0198 29.6175 13.3977 29.8053 12.7445C29.1707 12.5893 28.5092 12.5026 27.829 12.4929C27.6473 13.1377 27.3969 13.7537 27.0861 14.3325C27.755 14.353 28.4058 14.4451 29.0311 14.6014ZM32.0859 13.2627C31.5016 12.944 30.8788 12.687 30.2262 12.5005C30.3824 11.8663 30.4726 11.2061 30.4891 10.5277C31.1358 10.7173 31.7517 10.9791 32.3275 11.3035C32.3198 11.9774 32.2365 12.6332 32.0859 13.2627ZM29.8939 12.4122C30.0498 11.7773 30.137 11.1154 30.1472 10.4348C29.5126 10.2763 28.8509 10.1864 28.1703 10.1735C28.1577 10.8532 28.0711 11.5149 27.9183 12.1508C28.5977 12.1666 29.2588 12.2563 29.8939 12.4122ZM32.3234 10.909C31.7467 10.6002 31.1331 10.3512 30.491 10.1704C30.4817 9.49566 30.3995 8.83848 30.2519 8.20643C30.8822 8.39642 31.4827 8.65497 32.0449 8.97341C32.2064 9.59465 32.3018 10.2425 32.3234 10.909ZM30.1455 10.0804C30.1289 9.39873 30.0349 8.73618 29.8722 8.10123C29.2438 7.94226 28.5887 7.85067 27.9148 7.8346C28.07 8.47594 28.1578 9.14361 28.1703 9.82968C28.8493 9.84204 29.5102 9.92819 30.1455 10.0804ZM31.9107 8.50972C31.3554 8.22227 30.767 7.9899 30.1527 7.81985C29.9825 7.21269 29.7515 6.63099 29.4665 6.08176C30.065 6.27114 30.6358 6.52257 31.1715 6.8285C31.4734 7.35711 31.7222 7.91994 31.9107 8.50972ZM29.7658 7.72183C29.5759 7.09888 29.3189 6.50516 29.0033 5.94907C28.3892 5.79128 27.7492 5.69791 27.091 5.67659C27.3966 6.24734 27.6436 6.8542 27.8239 7.48911C28.4908 7.49793 29.1405 7.57792 29.7658 7.72183ZM30.8101 6.24893C30.3072 6.00408 29.7787 5.80385 29.2295 5.65338C28.9394 5.16062 28.6046 4.69736 28.2306 4.26917C28.7565 4.44991 29.26 4.67894 29.7357 4.95095C30.1334 5.34783 30.4935 5.78243 30.8101 6.24893ZM28.7542 5.53679C28.4144 5.00746 28.0196 4.51681 27.5778 4.07289C26.9931 3.92161 26.3849 3.82875 25.7598 3.80089C26.1885 4.26814 26.5695 4.77996 26.8948 5.32861C27.5323 5.33507 28.1542 5.40657 28.7542 5.53679ZM28.7299 4.08708C28.4131 3.96187 28.0876 3.8538 27.7547 3.764C27.5114 3.5244 27.2547 3.2983 26.986 3.08689C27.6073 3.35423 28.1919 3.69087 28.7299 4.08708ZM27.0796 3.60917C26.667 3.2537 26.2212 2.93574 25.7475 2.66058C25.2247 2.52337 24.683 2.43289 24.1271 2.39388C24.5894 2.70611 25.0217 3.05937 25.4187 3.44843C25.9861 3.45199 26.5411 3.50705 27.0796 3.60917ZM23.5392 2.02828C23.8886 2.02974 24.2334 2.05074 24.5725 2.09024C23.9494 1.84317 23.2915 1.66499 22.6082 1.56509C22.9283 1.70221 23.239 1.85701 23.5392 2.02828ZM16.3781 35.4081C15.779 35.5379 15.1572 35.6069 14.5195 35.6083C13.9925 35.2972 13.5007 34.9331 13.0513 34.5231C13.6926 34.4948 14.3167 34.4006 14.9172 34.2472C15.3626 34.6815 15.852 35.0709 16.3781 35.4081ZM18.6567 34.5704C18.0878 34.8746 17.4818 35.1183 16.8471 35.2929C16.2902 34.9649 15.7724 34.5776 15.3025 34.1397C15.9395 33.9468 16.5473 33.6864 17.1174 33.3669C17.5851 33.8203 18.101 34.2242 18.6567 34.5704ZM20.5745 33.1862C20.0971 33.639 19.5692 34.039 19 34.3769C18.4309 34.039 17.9029 33.639 17.4256 33.1862C17.9943 32.8377 18.5221 32.4289 19 31.9688C19.478 32.4289 20.0058 32.8377 20.5745 33.1862ZM22.0545 31.3504C21.7058 31.9256 21.2933 32.4578 20.8268 32.9371C20.2535 32.5933 19.7224 32.1864 19.2433 31.7258C19.7076 31.2442 20.1198 30.7119 20.4707 30.1381C20.9518 30.597 21.4827 31.0041 22.0545 31.3504ZM22.994 29.1942C22.8086 29.8478 22.5498 30.4706 22.2271 31.053C21.6554 30.7061 21.1263 30.2962 20.6493 29.8329C20.97 29.2598 21.231 28.6488 21.4238 28.0083C21.9019 28.4571 22.4282 28.8553 22.994 29.1942ZM23.3274 26.8941C23.3189 27.5658 23.2354 28.2195 23.0848 28.8471C22.5209 28.5006 21.999 28.0926 21.5283 27.6323C21.6817 27.0304 21.7755 26.4048 21.8032 25.762C22.2695 26.1895 22.7801 26.5694 23.3274 26.8941ZM23.0483 24.5665C23.2077 25.1838 23.302 25.8272 23.3234 26.4891C22.7764 26.1468 22.2696 25.7462 21.8117 25.2961C21.8075 24.694 21.7454 24.1058 21.6306 23.5366C22.068 23.923 22.5426 24.2683 23.0483 24.5665ZM22.1813 22.4259C22.4761 22.9448 22.7198 23.4965 22.9057 24.0741C22.3938 23.7424 21.9184 23.3591 21.4869 22.9316C21.363 22.4792 21.2053 22.0408 21.0168 21.6193C21.3826 21.9168 21.7719 22.1868 22.1813 22.4259ZM20.7633 20.5587C21.1255 20.9233 21.4561 21.3194 21.7506 21.7425C21.332 21.4501 20.9398 21.1223 20.5785 20.7634C20.4744 20.5839 20.3643 20.4083 20.2486 20.2368C20.4163 20.3496 20.588 20.4569 20.7633 20.5587ZM13.9044 17.6273C13.4227 17.3048 12.9732 16.9379 12.5618 16.5325C11.9079 16.5381 11.2709 16.6149 10.6582 16.7554C11.1242 17.1903 11.6372 17.5753 12.1889 17.9019C12.7422 17.7583 13.3157 17.665 13.9044 17.6273ZM11.7418 18.0302C11.2095 17.6895 10.7148 17.2953 10.2651 16.8552C9.6178 17.0356 9.00045 17.2879 8.42222 17.6029C8.89791 18.0546 9.42389 18.4539 9.99088 18.7914C10.5416 18.4798 11.1278 18.2236 11.7418 18.0302ZM9.65631 18.9901C9.09833 18.6424 8.58042 18.2365 8.11111 17.7808C7.53799 18.1239 7.00704 18.5303 6.52787 18.9902C7.00701 19.45 7.53794 19.8564 8.11102 20.1996C8.58036 19.7438 9.09829 19.3378 9.65631 18.9901ZM7.86206 20.4507C7.29224 20.1023 6.76339 19.6934 6.28446 19.233C5.81653 19.7183 5.40366 20.257 5.0559 20.8391C5.53351 21.3021 6.06328 21.7116 6.63554 22.058C6.98499 21.4773 7.39693 20.9384 7.86206 20.4507ZM6.46381 22.3559C5.89226 22.0106 5.36144 21.6046 4.88025 21.147C4.56714 21.7224 4.31617 22.3366 4.13636 22.9805C4.60847 23.4409 5.13197 23.849 5.69746 24.1951C5.8867 23.5497 6.14499 22.9338 6.46381 22.3559ZM5.60362 24.5401C5.04008 24.2035 4.51567 23.8082 4.03886 23.3626C3.89497 23.9846 3.81682 24.6318 3.81212 25.2965C4.27246 25.749 4.78219 26.1513 5.33248 26.4947C5.35303 25.8225 5.44592 25.1684 5.60362 24.5401ZM5.32883 26.8949C4.78821 26.5744 4.28334 26.1999 3.82164 25.7788C3.85095 26.4067 3.94585 27.0175 4.09966 27.6044C4.53792 28.0368 5.0212 28.4238 5.54182 28.7575C5.40978 28.1566 5.33666 27.5336 5.32883 26.8949ZM5.65989 29.2334C5.17558 28.9488 4.7197 28.621 4.29755 28.2553C4.48281 28.7892 4.71787 29.2999 4.99718 29.7816C5.38562 30.1652 5.80946 30.5131 6.26336 30.8198C6.01548 30.3153 5.81258 29.7848 5.65989 29.2334ZM6.59447 31.4334C6.76815 31.7278 6.9578 32.0117 7.16224 32.2838C6.63842 31.8688 6.1628 31.3957 5.74514 30.8741C6.0171 31.0756 6.3006 31.2624 6.59447 31.4334ZM21.6222 2.57208C22.2108 2.44458 22.8212 2.37578 23.4471 2.37211C23.9786 2.68268 24.4748 3.04723 24.9281 3.45824C24.2942 3.48764 23.6771 3.58137 23.0832 3.73308C22.6378 3.2987 22.1483 2.90926 21.6222 2.57208ZM21.1532 2.68729C20.5184 2.8619 19.9122 3.1056 19.3433 3.4098C19.899 3.75601 20.415 4.16003 20.8828 4.61344C21.4529 4.29391 22.0607 4.03353 22.6978 3.84059C22.2279 3.40259 21.7101 3.01525 21.1532 2.68729ZM19 3.60336C18.4308 3.94125 17.9029 4.34128 17.4255 4.79411C17.9942 5.14262 18.522 5.55139 19 6.01154C19.478 5.55141 20.0058 5.14265 20.5745 4.79414C20.0972 4.3413 19.5692 3.94125 19 3.60336ZM17.1732 5.0432C16.7028 5.52652 16.2872 6.06355 15.9367 6.64422C16.5089 6.98994 17.0402 7.39641 17.5218 7.85468C17.8743 7.2761 18.2891 6.73963 18.7568 6.25455C18.2776 5.79396 17.7465 5.38696 17.1732 5.0432ZM15.7648 6.94202C15.4458 7.52019 15.1898 8.13794 15.006 8.78604C15.5718 9.12496 16.0981 9.52314 16.5763 9.97202C16.7677 9.33624 17.0262 8.72955 17.3437 8.16019C16.8663 7.69747 16.3367 7.2882 15.7648 6.94202ZM14.9152 9.13307C14.7632 9.7668 14.6795 10.4271 14.6724 11.1058C15.2195 11.4303 15.7299 11.81 16.196 12.2374C16.2227 11.5879 16.3169 10.9558 16.4718 10.348C16.0011 9.88767 15.4791 9.47957 14.9152 9.13307ZM14.6773 11.5114C14.7 12.1661 14.7939 12.8027 14.9517 13.4137C15.4574 13.7119 15.932 14.0572 16.3695 14.4436C16.2559 13.8808 16.1939 13.2992 16.1886 12.7042C15.7308 12.2541 15.2241 11.8536 14.6773 11.5114ZM15.0943 13.906C15.2837 14.4947 15.5332 15.0564 15.8356 15.584C16.244 15.8237 16.6323 16.0941 16.9972 16.3921C16.8025 15.961 16.6401 15.5121 16.5131 15.0486C16.0816 14.6211 15.6062 14.2378 15.0943 13.906ZM16.2765 16.2764C16.5642 16.6851 16.8856 17.0682 17.2369 17.4217C17.4122 17.5235 17.5838 17.6308 17.7515 17.7436C17.6459 17.5871 17.5451 17.4272 17.4491 17.2641C17.088 16.9022 16.6956 16.5715 16.2765 16.2764ZM25.4184 21.4481C25.0047 21.0427 24.5527 20.6763 24.0685 20.3546C24.6667 20.318 25.2495 20.2241 25.8113 20.0782C26.3631 20.4049 26.8762 20.79 27.3422 21.2249C26.7232 21.3669 26.0794 21.4438 25.4184 21.4481ZM27.7352 21.1251C27.2855 20.6849 26.7907 20.2907 26.2584 19.9499C26.8724 19.7565 27.4585 19.5003 28.0091 19.1889C28.5762 19.5264 29.1022 19.9257 29.5779 20.3774C28.9997 20.6924 28.3825 20.9447 27.7352 21.1251ZM29.889 20.1996C29.4197 19.7438 28.9017 19.3378 28.3437 18.9901C28.9017 18.6424 29.4196 18.2365 29.8889 17.7807C30.4621 18.1239 30.993 18.5303 31.4722 18.9902C30.9931 19.4501 30.4621 19.8564 29.889 20.1996ZM31.7156 18.7473C31.2367 18.2869 30.7078 17.878 30.1379 17.5295C30.5992 17.0459 31.0082 16.5119 31.3557 15.9367C31.9284 16.2824 32.4586 16.6913 32.9367 17.1537C32.5905 17.7311 32.1802 18.2655 31.7156 18.7473ZM33.1128 16.8463C32.6311 16.3892 32.0999 15.9838 31.528 15.6391C31.8506 15.057 32.1117 14.436 32.3025 13.7851C32.8681 14.1313 33.3916 14.5393 33.8638 14.9998C33.6826 15.6485 33.4292 16.2671 33.1128 16.8463ZM33.9613 14.6177C33.4844 14.172 32.96 13.7767 32.3964 13.4401C32.5526 12.8178 32.6452 12.1703 32.6669 11.5049C33.2174 11.8484 33.7273 12.2508 34.1878 12.7034C34.1817 13.3612 34.1037 14.0018 33.9613 14.6177ZM34.1794 12.2221C33.7175 11.8008 33.2123 11.426 32.6714 11.1052C32.6649 10.4595 32.5916 9.82982 32.4582 9.22266C32.9788 9.55642 33.4621 9.94336 33.9004 10.3758C34.0559 10.9692 34.1512 11.5869 34.1794 12.2221ZM33.7025 9.72488C33.2803 9.35919 32.8244 9.0314 32.3401 8.74681C32.1904 8.20614 31.9924 7.68553 31.7511 7.18991C32.2098 7.50123 32.6377 7.85462 33.0293 8.24451C33.297 8.71277 33.5231 9.20791 33.7025 9.72488ZM32.2932 7.15446C32.015 6.94606 31.7246 6.7531 31.4232 6.57684C31.2447 6.27175 31.0492 5.97788 30.8379 5.69656C31.3778 6.12429 31.8664 6.61382 32.2932 7.15446ZM14.6367 33.9616C14.015 34.1054 13.3681 34.1834 12.7037 34.1881C12.251 33.7276 11.8485 33.2175 11.5049 32.6669C12.174 32.6451 12.825 32.5516 13.4505 32.3938C13.7896 32.9588 14.1879 33.4842 14.6367 33.9616ZM16.8656 33.1133C16.2865 33.4296 15.6681 33.6829 15.0196 33.864C14.5556 33.3913 14.1444 32.8666 13.7955 32.2995C14.446 32.108 15.0664 31.8462 15.6481 31.5231C15.9957 32.0974 16.4046 32.6304 16.8656 33.1133ZM18.7568 31.7258C18.2776 32.1864 17.7466 32.5934 17.1733 32.9371C16.7067 32.4578 16.2942 31.9256 15.9455 31.3505C16.5173 31.0041 17.0483 30.597 17.5294 30.1381C17.8803 30.7119 18.2925 31.2442 18.7568 31.7258ZM20.2195 29.8892C19.8738 30.4664 19.4641 31.0009 19 31.4828C18.536 31.0009 18.1263 30.4664 17.7806 29.8892C18.2407 29.4153 18.6501 28.892 19 28.3279C19.35 28.892 19.7594 29.4153 20.2195 29.8892ZM21.145 27.7352C20.9646 28.3825 20.7124 28.9998 20.3973 29.578C19.941 29.0975 19.5382 28.5657 19.1985 27.9921C19.5092 27.4401 19.7644 26.8527 19.9565 26.2375C20.3003 26.7778 20.6991 27.2796 21.145 27.7352ZM21.4678 25.4384C21.4621 26.0924 21.3853 26.7294 21.2448 27.3421C20.8038 26.8695 20.414 26.3485 20.0844 25.7878C20.2268 25.2333 20.3186 24.6585 20.3547 24.0686C20.6816 24.5607 21.0547 25.0193 21.4678 25.4384ZM21.1786 23.1094C21.3323 23.694 21.4275 24.3022 21.4577 24.9275C21.0468 24.4743 20.6824 23.9782 20.3719 23.4467C20.3691 22.9592 20.3283 22.4808 20.2523 22.0141C20.5325 22.4032 20.8423 22.7694 21.1786 23.1094ZM20.3033 20.9744C20.5506 21.4055 20.7626 21.8596 20.9352 22.3325C20.602 21.9355 20.3031 21.5088 20.0431 21.0568C19.9926 20.8737 19.9365 20.6928 19.8752 20.5144C20.0126 20.6726 20.1555 20.826 20.3033 20.9744ZM12.2382 16.197C11.8106 15.7306 11.4305 15.2198 11.1058 14.6724C10.4333 14.6794 9.77885 14.7616 9.15043 14.9111C9.49751 15.4766 9.90651 16.0001 10.368 16.4719C10.9698 16.3186 11.5955 16.2247 12.2382 16.197ZM9.99203 16.5764C9.54185 16.0969 9.14264 15.5689 8.80307 15.0012C8.14878 15.1854 7.52529 15.4431 6.94208 15.7648C7.29003 16.3397 7.70171 16.8717 8.16734 17.351C8.74043 17.0302 9.35147 16.7692 9.99203 16.5764ZM7.86215 17.5296C7.40085 17.0459 6.99187 16.512 6.64428 15.9367C6.07164 16.2824 5.54144 16.6913 5.06334 17.1537C5.40954 17.7311 5.81986 18.2655 6.28446 18.7473C6.76342 18.2869 7.29229 17.878 7.86215 17.5296ZM6.04109 18.9902C5.57685 18.5094 5.16468 17.978 4.81366 17.405C4.35282 17.8878 3.94617 18.4227 3.60345 19C3.94435 19.5743 4.34852 20.1066 4.80634 20.5873C5.15895 20.0098 5.57362 19.4743 6.04109 18.9902ZM4.62615 20.8958C4.16761 20.4245 3.75931 19.9042 3.40989 19.3433C3.10784 19.9082 2.86544 20.5098 2.6911 21.1397C3.02314 21.7025 3.41584 22.2252 3.86021 22.6989C4.05172 22.0662 4.30975 21.4625 4.62615 20.8958ZM3.75292 23.0836C3.31198 22.6342 2.91693 22.1396 2.57538 21.6074C2.44582 22.2006 2.37589 22.8161 2.3722 23.4472C2.68752 23.9869 3.05847 24.4901 3.4772 24.9489C3.50549 24.3078 3.59959 23.6839 3.75292 23.0836ZM3.46847 25.4391C3.07153 25.0365 2.71154 24.5974 2.39398 24.1273C2.43301 24.6832 2.52352 25.225 2.66077 25.7478C2.94245 26.2328 3.26898 26.6884 3.63468 27.1091C3.53019 26.5679 3.47328 26.0097 3.46847 25.4391ZM3.79138 27.7825C3.88516 28.1259 3.9984 28.4612 4.12984 28.7873C3.71517 28.2337 3.364 27.6298 3.08713 26.9863C3.30651 27.2652 3.54171 27.531 3.79138 27.7825ZM23.3636 4.0187C23.9793 3.87637 24.6196 3.79844 25.277 3.79238C25.7376 4.25805 26.1467 4.77469 26.4951 5.3331C25.8297 5.35482 25.1823 5.44742 24.56 5.6036C24.2187 5.03211 23.8169 4.50087 23.3636 4.0187ZM22.9808 4.11634C22.3322 4.29744 21.7137 4.55076 21.1345 4.86708C21.5995 5.35403 22.0114 5.89209 22.3609 6.47198C22.9431 6.14939 23.564 5.88829 24.215 5.69743C23.8639 5.12395 23.4493 4.59364 22.9808 4.11634ZM20.8269 5.04323C20.2535 5.38699 19.7225 5.79397 19.2433 6.25455C19.711 6.73963 20.1258 7.27611 20.4783 7.85468C20.9598 7.39643 21.4912 6.98997 22.0633 6.64426C21.7128 6.06359 21.2973 5.52655 20.8269 5.04323ZM19 6.49755C18.5328 6.98282 18.1205 7.52144 17.7733 8.10337C18.2364 8.57916 18.6483 9.10505 19 9.67214C19.3518 9.10505 19.7637 8.57916 20.2268 8.10337C19.8796 7.52144 19.4673 6.98282 19 6.49755ZM17.596 8.41482C17.2841 8.9894 17.0342 9.60248 16.8551 10.2451C17.3028 10.7025 17.703 11.2065 18.0477 11.7493C18.2393 11.1388 18.4931 10.5559 18.8016 10.0079C18.4602 9.43145 18.0551 8.8972 17.596 8.41482ZM16.7553 10.6382C16.6134 11.257 16.5364 11.9006 16.5321 12.5615C16.9453 12.9807 17.3185 13.4394 17.6454 13.9315C17.6818 13.3367 17.7748 12.7572 17.9192 12.1984C17.5889 11.6355 17.1979 11.1124 16.7553 10.6382ZM16.5434 13.0737C16.5747 13.6916 16.6695 14.2928 16.8214 14.8708C17.1561 15.2092 17.4646 15.5735 17.7437 15.9604C17.6703 15.5019 17.6309 15.032 17.6282 14.5535C17.318 14.0224 16.9539 13.5267 16.5434 13.0737ZM17.0648 15.6477C17.2437 16.1379 17.4649 16.6078 17.7239 17.053C17.8621 17.1928 17.9959 17.3371 18.1249 17.4856C18.0594 17.295 17.9999 17.1016 17.9468 16.9056C17.6891 16.4603 17.3936 16.0395 17.0648 15.6477ZM26.8942 23.3276C26.5651 22.7728 26.1791 22.2556 25.7444 21.7841C26.3934 21.7573 27.025 21.6632 27.6323 21.5083C28.0985 21.985 28.511 22.5143 28.8603 23.0864C28.2286 23.2374 27.5705 23.3206 26.8942 23.3276ZM29.2072 22.9959C28.8655 22.4218 28.4629 21.8882 28.0083 21.4039C28.6488 21.2111 29.2598 20.9501 29.8328 20.6294C30.3024 21.1128 30.7171 21.6498 31.0669 22.2303C30.4842 22.5526 29.8611 22.811 29.2072 22.9959ZM31.3645 22.058C31.015 21.4773 30.6031 20.9384 30.138 20.4508C30.7078 20.1023 31.2367 19.6934 31.7156 19.233C32.1836 19.7183 32.5964 20.257 32.9442 20.8391C32.4666 21.3021 31.9368 21.7116 31.3645 22.058ZM33.1938 20.5873C32.8411 20.0098 32.4265 19.4743 31.959 18.9902C32.4232 18.5094 32.8354 17.978 33.1864 17.405C33.6473 17.8878 34.0539 18.4227 34.3966 19C34.0557 19.5743 33.6516 20.1066 33.1938 20.5873ZM34.5902 18.6567C34.239 18.093 33.8283 17.5702 33.367 17.0971C33.6866 16.5267 33.947 15.9187 34.1399 15.2814C34.5859 15.7568 34.9799 16.2817 35.3127 16.8468C35.1381 17.4816 34.8944 18.0878 34.5902 18.6567ZM35.4279 16.3778C35.0856 15.8438 34.6895 15.3475 34.2472 14.8967C34.399 14.3023 34.4928 13.6847 34.522 13.0502C34.9411 13.5094 35.3124 14.0129 35.6279 14.5529C35.6242 15.1788 35.5554 15.7893 35.4279 16.3778ZM35.6061 13.8729C35.2886 13.4028 34.9286 12.9637 34.5318 12.5611C34.5281 11.9835 34.4711 11.4187 34.3654 10.8711C34.7269 11.287 35.0502 11.7372 35.3297 12.2159C35.4724 12.75 35.5662 13.304 35.6061 13.8729ZM34.894 10.9699C34.68 10.6998 34.4512 10.442 34.2087 10.1978C34.1189 9.86926 34.0114 9.54809 33.8872 9.23539C34.2851 9.77019 34.6239 10.3516 34.894 10.9699ZM13.2724 32.0836C12.6399 32.2357 11.9809 32.3198 11.3035 32.3275C10.9791 31.7517 10.7174 31.1359 10.5277 30.4892C11.208 30.4726 11.87 30.382 12.5058 30.225C12.6938 30.8773 12.9523 31.4997 13.2724 32.0836ZM15.4756 31.2256C14.8928 31.5488 14.2697 31.808 13.6156 31.9936C13.2893 31.412 13.027 30.7897 12.8381 30.1362C13.4912 29.9486 14.1144 29.6903 14.6989 29.3702C14.8903 30.0217 15.1522 30.6431 15.4756 31.2256ZM17.3508 29.8329C16.8738 30.2962 16.3446 30.7062 15.773 31.053C15.4502 30.4706 15.1914 29.8478 15.006 29.1942C15.5718 28.8553 16.0981 28.4571 16.5762 28.0083C16.7691 28.6488 17.0301 29.2598 17.3508 29.8329ZM18.8016 27.9921C18.4619 28.5657 18.0591 29.0975 17.6028 29.578C17.2877 28.9998 17.0354 28.3825 16.8551 27.7352C17.301 27.2796 17.6997 26.7778 18.0435 26.2375C18.2357 26.8527 18.4909 27.4401 18.8016 27.9921ZM19.7157 25.8368C19.5427 26.4685 19.3014 27.072 19 27.6387C18.6987 27.072 18.4574 26.4685 18.2844 25.8368C18.5718 25.3299 18.8123 24.7928 19 24.2316C19.1878 24.7928 19.4283 25.3299 19.7157 25.8368ZM20.0282 23.539C20.0255 24.1554 19.9597 24.7568 19.8369 25.3372C19.5611 24.7986 19.3391 24.2279 19.1779 23.6322C19.2935 23.1869 19.3766 22.7285 19.4243 22.2597C19.5931 22.7037 19.7955 23.1311 20.0282 23.539ZM19.7229 21.1895C19.8572 21.6861 19.9492 22.2 19.9949 22.7272C19.7808 22.2682 19.6051 21.7877 19.4718 21.2899C19.4711 21.0817 19.4635 20.8751 19.4492 20.6704C19.535 20.8467 19.6263 21.0198 19.7229 21.1895ZM10.9139 14.3325C10.6031 13.7537 10.3527 13.1377 10.171 12.4929C9.49086 12.5026 8.82936 12.5893 8.19477 12.7445C8.38262 13.3977 8.64385 14.0198 8.96896 14.6014C9.5943 14.4451 10.2451 14.353 10.9139 14.3325ZM8.62724 14.6939C8.30754 14.1092 8.04966 13.4859 7.86239 12.8328C7.20859 13.0202 6.58586 13.2811 6.00371 13.6061C6.18866 14.2605 6.44719 14.884 6.76978 15.4672C7.35303 15.1448 7.97511 14.8841 8.62724 14.6939ZM6.472 15.6392C6.14942 15.057 5.88832 14.4361 5.69747 13.7851C5.13197 14.1313 4.60845 14.5393 4.13634 14.9998C4.31749 15.6485 4.57089 16.2671 4.88731 16.8463C5.36892 16.3892 5.90012 15.9839 6.472 15.6392ZM4.63312 17.0971C4.31353 16.5267 4.05311 15.9187 3.86018 15.2814C3.41417 15.7568 3.02021 16.2817 2.68739 16.8469C2.86199 17.4816 3.10569 18.0878 3.40989 18.6567C3.76108 18.093 4.17175 17.5702 4.63312 17.0971ZM3.20623 19C2.89894 18.4553 2.64572 17.876 2.45384 17.2695C2.17291 17.8126 1.9467 18.3886 1.78252 18.9901C1.94746 19.5945 2.17499 20.173 2.45772 20.7182C2.64913 20.1162 2.90101 19.541 3.20623 19ZM2.32204 21.1885C2.04617 20.7035 1.81324 20.1909 1.62843 19.6559C1.52742 20.1854 1.4737 20.7317 1.47185 21.2902C1.6167 21.8309 1.81159 22.3512 2.05127 22.8457C2.09133 22.2774 2.18314 21.7235 2.32204 21.1885ZM2.02838 23.5393C2.02984 23.8888 2.05086 24.2337 2.09038 24.5729C1.84324 23.9497 1.66501 23.2916 1.5651 22.6082C1.70224 22.9283 1.85707 23.2391 2.02838 23.5393ZM24.7374 5.91413C25.3669 5.76345 26.0226 5.68021 26.6965 5.67247C27.0177 6.24245 27.2773 6.8517 27.4666 7.49121C26.7883 7.50816 26.1283 7.59875 25.4943 7.75527C25.3082 7.10946 25.0531 6.4929 24.7374 5.91413ZM24.3941 6.00367C23.7396 6.18862 23.116 6.44715 22.5328 6.76976C22.8524 7.34791 23.1113 7.96422 23.3011 8.61012C23.8857 8.28999 24.5089 8.03169 25.1621 7.84399C24.975 7.19689 24.716 6.58037 24.3941 6.00367ZM22.2352 6.94206C21.6633 7.28823 21.1338 7.69749 20.6564 8.16019C20.9739 8.72955 21.2324 9.33624 21.4238 9.97202C21.9019 9.52316 22.4282 9.12499 22.994 8.78608C22.8102 8.13798 22.5542 7.52023 22.2352 6.94206ZM20.4041 8.41482C19.945 8.8972 19.5399 9.43145 19.1985 10.0079C19.507 10.5559 19.7607 11.1388 19.9524 11.7493C20.2971 11.2065 20.6973 10.7025 21.145 10.2451C20.9659 9.60248 20.716 8.9894 20.4041 8.41482ZM19 10.3613C18.7008 10.924 18.4607 11.523 18.288 12.1499C18.5738 12.6549 18.8131 13.1898 19 13.7487C19.187 13.1898 19.4263 12.6549 19.712 12.1499C19.5393 11.523 19.2993 10.924 19 10.3613ZM18.1662 12.6489C18.0414 13.2336 17.9746 13.8398 17.9719 14.4611C18.2039 14.8678 18.4057 15.2939 18.5742 15.7364C18.6217 15.262 18.7053 14.7983 18.8222 14.3481C18.6616 13.7545 18.4406 13.1858 18.1662 12.6489ZM18.0052 15.2731C18.0498 15.787 18.1384 16.2883 18.2672 16.7732C18.3675 16.9486 18.4622 17.1275 18.5509 17.3098C18.5371 17.1118 18.5295 16.9121 18.5284 16.7108C18.3951 16.2128 18.2193 15.7322 18.0052 15.2731ZM27.8235 25.4874C27.6422 24.8498 27.3937 24.2404 27.0861 23.6675C27.7584 23.6469 28.4125 23.5539 29.0409 23.3961C29.3615 23.9727 29.6194 24.589 29.8054 25.2357C29.169 25.3914 28.5056 25.4781 27.8235 25.4874ZM30.1378 25.1475C29.9523 24.5006 29.6976 23.8831 29.3822 23.3033C30.034 23.1125 30.6558 22.8512 31.2386 22.5282C31.5573 23.107 31.813 23.7255 31.9963 24.3742C31.4142 24.6991 30.7915 24.96 30.1378 25.1475ZM32.3026 24.1952C32.1133 23.5497 31.855 22.9338 31.5362 22.3559C32.1078 22.0106 32.6386 21.6046 33.1198 21.147C33.433 21.7224 33.6839 22.3366 33.8637 22.9805C33.3916 23.441 32.8681 23.849 32.3026 24.1952ZM34.1399 22.6989C33.9484 22.0662 33.6903 21.4625 33.3739 20.8958C33.8325 20.4245 34.2408 19.9042 34.5902 19.3433C34.8923 19.9082 35.1347 20.5098 35.309 21.1397C34.9769 21.7025 34.5842 22.2252 34.1399 22.6989ZM35.5424 20.7182C35.351 20.1162 35.0991 19.541 34.7939 19C35.1011 18.4553 35.3544 17.876 35.5462 17.2695C35.8272 17.8126 36.0534 18.3886 36.2176 18.9901C36.0526 19.5945 35.8251 20.173 35.5424 20.7182ZM36.3717 18.3244C36.1876 17.7916 35.9559 17.2811 35.6816 16.7979C35.8185 16.2672 35.9091 15.7179 35.9488 15.1545C36.1884 15.6489 36.3833 16.1691 36.5281 16.7098C36.5251 17.2614 36.4715 17.8011 36.3717 18.3244ZM36.4393 15.4022C36.3011 15.0784 36.1448 14.7642 35.9717 14.4608C35.9702 14.1016 35.9481 13.7473 35.9064 13.399C36.1589 14.0338 36.3399 14.7049 36.4393 15.4022ZM12.4168 29.8928C11.7805 30.0494 11.117 30.137 10.4348 30.1472C10.2763 29.5126 10.1864 28.8509 10.1735 28.1703C10.8534 28.1577 11.5152 28.0711 12.1512 27.9182C12.1685 28.5973 12.2596 29.2581 12.4168 29.8928ZM14.6058 29.0288C14.0243 29.3542 13.4022 29.6158 12.7491 29.8041C12.5925 29.1699 12.5044 28.5088 12.4931 27.829C13.1381 27.6472 13.7542 27.3967 14.3331 27.0858C14.355 27.754 14.4484 28.4041 14.6058 29.0288ZM16.4718 27.6323C16.0011 28.0926 15.4791 28.5007 14.9152 28.8472C14.7646 28.2196 14.6811 27.5659 14.6726 26.8941C15.2199 26.5694 15.7305 26.1895 16.1968 25.7619C16.2245 26.4047 16.3184 27.0304 16.4718 27.6323ZM17.9157 25.7879C17.5861 26.3485 17.1963 26.8695 16.7553 27.3421C16.6147 26.7294 16.538 26.0924 16.5323 25.4384C16.9454 25.0192 17.3185 24.5605 17.6454 24.0685C17.6815 24.6584 17.7733 25.2333 17.9157 25.7879ZM18.8222 23.6322C18.661 24.2279 18.439 24.7986 18.1632 25.3372C18.0404 24.7568 17.9745 24.1553 17.9719 23.5389C18.2046 23.131 18.407 22.7035 18.5758 22.2595C18.6235 22.7284 18.7065 23.1869 18.8222 23.6322ZM19.128 21.3351C19.1272 21.8435 19.0834 22.3417 19 22.8265C18.9167 22.3416 18.8729 21.8432 18.8721 21.3348C18.9203 21.1508 18.963 20.9646 19 20.7763C19.037 20.9647 19.0797 21.151 19.128 21.3351ZM10.0817 12.1508C9.9289 11.5149 9.84234 10.8532 9.82973 10.1735C9.14917 10.1864 8.48746 10.2762 7.85294 10.4348C7.86313 11.1154 7.95034 11.7773 8.10623 12.4122C8.74131 12.2564 9.40237 12.1666 10.0817 12.1508ZM7.77386 12.5005C7.61768 11.8663 7.52748 11.2061 7.51095 10.5276C6.86423 10.7173 6.24831 10.979 5.67247 11.3035C5.68021 11.9774 5.76346 12.6332 5.91416 13.2628C6.49848 12.9441 7.1213 12.687 7.77386 12.5005ZM5.60363 13.4401C5.44744 12.8178 5.35482 12.1703 5.33309 11.5049C4.78263 11.8484 4.27274 12.2508 3.81227 12.7033C3.81835 13.3611 3.89636 14.0017 4.03883 14.6177C4.51566 14.172 5.04008 13.7767 5.60363 13.4401ZM3.7529 14.8967C3.60108 14.3023 3.50733 13.6846 3.47804 13.0501C3.05897 13.5092 2.68773 14.0128 2.37219 14.5528C2.37586 15.1787 2.44467 15.7892 2.57218 16.3778C2.91445 15.8438 3.31058 15.3475 3.7529 14.8967ZM2.31853 16.7979C2.1816 16.2672 2.09099 15.7178 2.05127 15.1543C1.81164 15.6487 1.61677 16.1689 1.47194 16.7094C1.47495 17.2612 1.52859 17.801 1.62843 18.3244C1.81245 17.7916 2.04419 17.2811 2.31853 16.7979ZM1.42661 18.9901C1.34207 19.313 1.27469 19.6428 1.22548 19.9784C1.19006 19.6572 1.17188 19.3307 1.17188 19C1.17188 18.6654 1.19049 18.3352 1.22673 18.0103C1.27582 18.3431 1.34279 18.67 1.42661 18.9901ZM25.5833 8.08747C26.2181 7.93126 26.8798 7.8437 27.5602 7.83313C27.7219 8.47368 27.8135 9.14209 27.8265 9.82973C27.1468 9.84234 26.4852 9.92889 25.8494 10.0817C25.8334 9.39565 25.742 8.72827 25.5833 8.08747ZM25.2511 8.17618C24.5978 8.36441 23.9757 8.62603 23.3942 8.95155C23.5532 9.58222 23.6468 10.2389 23.6675 10.9139C24.2463 10.6031 24.8624 10.3526 25.5073 10.1709C25.4974 9.48419 25.4092 8.81642 25.2511 8.17618ZM23.0848 9.13312C22.5209 9.47961 21.999 9.88769 21.5283 10.348C21.6832 10.9558 21.7774 11.5878 21.804 12.2373C22.2702 11.81 22.7806 11.4303 23.3276 11.1058C23.3205 10.4271 23.2369 9.76683 23.0848 9.13312ZM21.2448 10.6382C20.8022 11.1124 20.4112 11.6355 20.0809 12.1984C20.2253 12.7572 20.3183 13.3366 20.3547 13.9314C20.6816 13.4393 21.0548 12.9805 21.4679 12.5614C21.4636 11.9006 21.3867 11.257 21.2448 10.6382ZM19.8339 12.6489C19.5595 13.1858 19.3385 13.7545 19.1779 14.3481C19.2948 14.7983 19.3784 15.2619 19.4258 15.7362C19.5944 15.2937 19.7962 14.8676 20.0282 14.461C20.0255 13.8397 19.9587 13.2336 19.8339 12.6489ZM18.872 16.6602L18.872 16.6652C18.9203 16.8492 18.963 17.0354 19 17.2237C19.037 17.0353 19.0797 16.8489 19.1281 16.6648L19.1281 16.6602C19.1281 16.1466 19.0842 15.6433 19 15.1538C18.9159 15.6433 18.872 16.1466 18.872 16.6602ZM28.1703 27.8265C28.1575 27.1398 28.0693 26.4715 27.9136 25.8296C28.5946 25.8141 29.2573 25.7243 29.8939 25.568C30.0513 26.2091 30.1387 26.8776 30.1474 27.5651C29.5128 27.7237 28.851 27.8136 28.1703 27.8265ZM30.4896 27.4722C30.4744 26.7869 30.3839 26.1201 30.2263 25.4798C30.8788 25.2932 31.5016 25.0362 32.0859 24.7175C32.238 25.3532 32.3214 26.0156 32.3277 26.6964C31.752 27.0208 31.1362 27.2825 30.4896 27.4722ZM32.6675 26.4947C32.647 25.8225 32.5541 25.1685 32.3964 24.5402C32.96 24.2036 33.4844 23.8082 33.9612 23.3626C34.1051 23.9846 34.1833 24.6318 34.188 25.2964C33.7276 25.7489 33.2178 26.1513 32.6675 26.4947ZM34.5229 24.9488C34.4946 24.3078 34.4005 23.6838 34.2472 23.0836C34.6881 22.6342 35.0832 22.1396 35.4247 21.6074C35.5543 22.2005 35.6242 22.816 35.6279 23.4471C35.3126 23.9868 34.9416 24.49 34.5229 24.9488ZM35.9488 22.8455C35.9087 22.2773 35.8169 21.7234 35.6781 21.1885C35.9539 20.7035 36.1869 20.1909 36.3717 19.6559C36.4727 20.1853 36.5264 20.7315 36.5282 21.2899C36.3834 21.8307 36.1885 22.351 35.9488 22.8455ZM36.7746 19.9781C36.7254 19.6425 36.658 19.3128 36.5735 18.9901C36.6573 18.6701 36.7242 18.3433 36.7733 18.0107C36.8095 18.3354 36.8281 18.6656 36.8281 19C36.8281 19.3306 36.81 19.6569 36.7746 19.9781ZM12.1489 27.5648C11.5148 27.7233 10.8536 27.8133 10.1735 27.8265C10.1868 27.1392 10.2786 26.4712 10.4403 25.831C11.1088 25.821 11.76 25.7394 12.3865 25.5936C12.239 26.2279 12.1572 26.8875 12.1489 27.5648ZM14.3285 26.6959C13.754 27.0198 13.1395 27.2811 12.4943 27.4708C12.5102 26.7912 12.6028 26.1306 12.7638 25.4973C13.3864 25.3241 13.9823 25.0869 14.5439 24.7932C14.4084 25.4066 14.3344 26.0431 14.3285 26.6959ZM16.1884 25.296C15.7305 25.7461 15.2236 26.1467 14.6766 26.4891C14.698 25.8272 14.7923 25.1838 14.9517 24.5666C15.4574 24.2684 15.932 23.923 16.3695 23.5366C16.2547 24.1057 16.1926 24.694 16.1884 25.296ZM17.6282 23.4465C17.3177 23.978 16.9533 24.4742 16.5424 24.9274C16.5726 24.3021 16.6678 23.6939 16.8215 23.1094C17.1578 22.7694 17.4676 22.4032 17.7478 22.0142C17.6718 22.4807 17.631 22.9591 17.6282 23.4465ZM18.5283 21.2895C18.395 21.7874 18.2193 22.2679 18.0052 22.7269C18.0509 22.1998 18.143 21.686 18.2772 21.1895C18.3738 21.0198 18.4651 20.8467 18.5509 20.6704C18.5366 20.875 18.529 21.0814 18.5283 21.2895ZM9.82967 9.82968C9.84217 9.14361 9.92999 8.47594 10.0852 7.8346C9.41138 7.85068 8.75623 7.94227 8.12791 8.10123C7.96515 8.73618 7.87124 9.39871 7.8546 10.0804C8.48982 9.92818 9.15074 9.84204 9.82967 9.82968ZM7.50907 10.1704C7.51841 9.49564 7.60062 8.83848 7.74818 8.20644C7.11786 8.39644 6.51726 8.65501 5.95506 8.97348C5.79364 9.5947 5.69817 10.2425 5.67658 10.909C6.25332 10.6002 6.86692 10.3512 7.50907 10.1704ZM5.32861 11.1052C5.33515 10.4596 5.4084 9.82987 5.54181 9.22273C5.0212 9.55649 4.53794 9.9434 4.09969 10.3758C3.94419 10.9692 3.84889 11.5869 3.8207 12.222C4.28259 11.8007 4.7877 11.426 5.32861 11.1052ZM3.46833 12.561C3.47197 11.9835 3.52899 11.4186 3.6347 10.8711C3.27313 11.2871 2.94985 11.7372 2.67035 12.216C2.52773 12.75 2.43391 13.3039 2.39398 13.8727C2.71149 13.4027 3.07144 12.9636 3.46833 12.561ZM2.02837 14.4607C1.85527 14.764 1.69899 15.0782 1.56079 15.4019C1.66028 14.7047 1.84123 14.0338 2.09369 13.399C2.05203 13.7473 2.02988 14.1015 2.02837 14.4607ZM25.851 10.4353C26.4851 10.2767 27.1463 10.1867 27.8265 10.1735C27.8133 10.8537 27.7233 11.515 27.5647 12.1492C26.8944 12.1589 26.2416 12.2405 25.6135 12.3866C25.7596 11.7585 25.8413 11.1056 25.851 10.4353ZM25.5053 10.5293C24.8602 10.719 24.2458 10.9803 23.6713 11.3042C23.6641 11.95 23.5902 12.5799 23.4561 13.1871C24.0177 12.8934 24.6136 12.6562 25.2362 12.483C25.3957 11.8559 25.4881 11.2019 25.5053 10.5293ZM23.3227 11.5114C22.7759 11.8536 22.2693 12.2541 21.8115 12.7041C21.8062 13.2992 21.7442 13.8807 21.6306 14.4436C22.068 14.0572 22.5426 13.7119 23.0483 13.4138C23.2061 12.8028 23.3001 12.1661 23.3227 11.5114ZM21.4567 13.0736C21.0462 13.5265 20.6821 14.0223 20.3719 14.5533C20.3692 15.0319 20.3298 15.5018 20.2564 15.9604C20.5355 15.5735 20.844 15.2092 21.1787 14.8708C21.3306 14.2928 21.4254 13.6916 21.4567 13.0736ZM19.9949 15.2728C19.7808 15.7319 19.605 16.2125 19.4717 16.7105C19.4706 16.9118 19.463 17.1117 19.4492 17.3098C19.5379 17.1275 19.6326 16.9486 19.7328 16.7732C19.8617 16.2882 19.9504 15.7868 19.9949 15.2728ZM27.9196 30.1455C28.0718 29.5103 28.158 28.8493 28.1703 28.1703C28.8491 28.158 29.5099 28.0719 30.145 27.9197C30.127 28.5944 30.0333 29.2503 29.8721 29.879C29.2453 30.0376 28.5917 30.1291 27.9196 30.1455ZM30.2519 29.7738C30.398 29.148 30.48 28.4975 30.4907 27.8296C31.1327 27.6489 31.7461 27.4001 32.3227 27.0914C32.2999 27.7508 32.2047 28.3919 32.0449 29.0068C31.4827 29.3253 30.8822 29.5838 30.2519 29.7738ZM32.4582 28.7576C32.5902 28.1567 32.6633 27.5337 32.6712 26.8949C33.2118 26.5743 33.7167 26.1998 34.1785 25.7787C34.1492 26.4067 34.0542 27.0175 33.9004 27.6044C33.4621 28.0369 32.9788 28.4238 32.4582 28.7576ZM34.3654 27.1091C34.4699 26.5679 34.5268 26.0097 34.5316 25.439C34.9286 25.0364 35.2886 24.5973 35.6061 24.1271C35.5671 24.6831 35.4766 25.2249 35.3393 25.7478C35.0576 26.2328 34.7311 26.6884 34.3654 27.1091ZM35.9097 24.5729C35.9492 24.2336 35.9703 23.8887 35.9717 23.5392C36.143 23.2389 36.2979 22.9281 36.435 22.6078C36.3351 23.2914 36.1569 23.9496 35.9097 24.5729ZM3.10612 10.9699C3.32007 10.6998 3.54891 10.442 3.79141 10.1978C3.88113 9.86926 3.98866 9.5481 4.11289 9.23539C3.71497 9.7702 3.37616 10.3516 3.10612 10.9699ZM4.2976 9.72489C4.71973 9.35922 5.17559 9.03145 5.65988 8.74687C5.80959 8.20621 6.00757 7.68561 6.24889 7.19C5.79017 7.50131 5.3623 7.85466 4.97082 8.24452C4.70308 8.71278 4.47699 9.20792 4.2976 9.72489ZM6.08929 8.50978C6.64462 8.2223 7.23307 7.98992 7.84742 7.81985C8.01755 7.21269 8.2486 6.63099 8.53356 6.08176C7.93508 6.27116 7.3642 6.52262 6.82845 6.82858C6.52659 7.35718 6.27778 7.92 6.08929 8.50978ZM8.23431 7.72183C8.85956 7.57792 9.50922 7.49794 10.1761 7.48911C10.3564 6.8542 10.6034 6.24735 10.909 5.67659C10.2508 5.69792 9.61087 5.79129 8.99675 5.94907C8.68118 6.50516 8.42423 7.09888 8.23431 7.72183ZM34.2087 27.7824C34.4584 27.531 34.6936 27.2652 34.913 26.9863C34.6361 27.6297 34.2849 28.2337 33.8703 28.7873C34.0017 28.4612 34.1149 28.1258 34.2087 27.7824ZM32.3401 29.2335C32.8244 28.9488 33.2804 28.621 33.7025 28.2553C33.5173 28.7892 33.2822 29.2998 33.0029 29.7816C32.6144 30.1653 32.1906 30.5131 31.7366 30.8199C31.9845 30.3154 32.1874 29.7849 32.3401 29.2335ZM30.1526 30.1604C30.7669 29.9904 31.3554 29.758 31.9107 29.4705C31.7187 30.0712 31.4641 30.644 31.1547 31.1811C30.6201 31.4848 30.0508 31.7343 29.4541 31.9222C29.7447 31.366 29.98 30.7763 30.1526 30.1604ZM27.8295 30.4911C28.4944 30.4819 29.1422 30.4019 29.7657 30.2584C29.5731 30.89 29.3117 31.4916 28.99 32.0543C28.38 32.2101 27.7445 32.3022 27.091 32.3234C27.3998 31.7467 27.6488 31.1332 27.8295 30.4911ZM17.957 21.0568C18.0075 20.8737 18.0636 20.6928 18.1249 20.5144C17.9874 20.6726 17.8446 20.826 17.6968 20.9744C17.4495 21.4055 17.2375 21.8596 17.0648 22.3325C17.3981 21.9355 17.697 21.5088 17.957 21.0568ZM16.5132 22.9316C16.6371 22.4792 16.7948 22.0408 16.9833 21.6193C16.6174 21.9169 16.2281 22.1868 15.8186 22.4259C15.5238 22.9448 15.2801 23.4965 15.0943 24.0742C15.6063 23.7425 16.0817 23.3592 16.5132 22.9316ZM14.6562 24.3404C14.8113 23.7767 15.019 23.2347 15.2735 22.72C14.7508 22.9795 14.1998 23.1907 13.6264 23.3475C13.3146 23.9 13.0606 24.4894 12.8726 25.1075C13.4996 24.9169 14.0969 24.6583 14.6562 24.3404ZM12.4829 25.2163C12.6538 24.6021 12.887 24.0138 13.1753 23.4587C12.5717 23.5911 11.9458 23.6642 11.3042 23.6713C10.9837 24.2398 10.7244 24.8474 10.5352 25.4852C11.2057 25.4677 11.8576 25.3754 12.4829 25.2163ZM25.5172 12.7639C26.1442 12.6044 26.7981 12.5121 27.4707 12.4949C27.281 13.1399 27.0196 13.7543 26.6958 14.3287C26.05 14.3359 25.4203 14.4098 24.8131 14.5439C25.1068 13.9823 25.344 13.3864 25.5172 12.7639ZM19.8752 17.4856C19.9407 17.295 20.0002 17.1016 20.0533 16.9056C20.311 16.4603 20.6065 16.0395 20.9353 15.6477C20.7564 16.1379 20.5352 16.6078 20.2762 17.053C20.138 17.1928 20.0042 17.3371 19.8752 17.4856ZM21.0028 16.3921C21.1976 15.961 21.36 15.5121 21.4869 15.0486C21.9184 14.6211 22.3938 14.2378 22.9057 13.9061C22.7163 14.4948 22.4668 15.0565 22.1644 15.5841C21.756 15.8237 21.3677 16.0942 21.0028 16.3921ZM22.7135 15.2865C22.9739 14.764 23.186 14.2132 23.3438 13.6399C23.9031 13.322 24.5005 13.0634 25.1274 12.8727C24.9367 13.4996 24.6782 14.0969 24.3603 14.6561C23.7869 14.814 23.236 15.026 22.7135 15.2865ZM13.3998 23.0519C12.7931 23.2075 12.1611 23.3002 11.5113 23.3227C11.8586 22.768 12.2657 22.2546 12.7237 21.7916C13.3103 21.7864 13.8838 21.7261 14.4391 21.6156C14.0485 22.0585 13.7 22.5393 13.3998 23.0519ZM15.5667 22.1744C15.0393 22.4751 14.4779 22.723 13.8897 22.9109C14.2232 22.3924 14.6095 21.9111 15.041 21.4745C15.5031 21.3495 15.9507 21.1893 16.3808 20.997C16.0801 21.3667 15.8076 21.7602 15.5667 22.1744ZM17.4216 20.7634C17.0602 21.1223 16.668 21.4502 16.2493 21.7426C16.5438 21.3196 16.8744 20.9235 17.2366 20.5588C17.412 20.457 17.5837 20.3496 17.7515 20.2368C17.6358 20.4083 17.5257 20.5839 17.4216 20.7634ZM11.1052 5.32861C11.4305 4.77996 11.8115 4.26814 12.2402 3.80089C11.6151 3.82876 11.0069 3.92162 10.4223 4.07289C9.98051 4.51681 9.58568 5.00746 9.24584 5.53679C9.84584 5.40657 10.4677 5.33507 11.1052 5.32861ZM8.77058 5.65338C9.06068 5.16063 9.39551 4.69737 9.76949 4.26918C9.24348 4.44995 8.73994 4.67901 8.26415 4.95108C7.86646 5.34794 7.50642 5.78252 7.18986 6.249C7.69275 6.00412 8.22138 5.80386 8.77058 5.65338ZM6.5768 6.57693C6.27543 6.75317 5.98502 6.94611 5.70684 7.15448C6.13358 6.6139 6.62219 6.12443 7.16198 5.69674C6.95068 5.97803 6.75518 6.27187 6.5768 6.57693ZM24.5865 14.9517C25.1974 14.7939 25.834 14.6999 26.4886 14.6773C26.1464 15.2241 25.7459 15.7308 25.2958 16.1886C24.7023 16.1927 24.1222 16.2531 23.5606 16.3648C23.9454 15.9286 24.2893 15.4556 24.5865 14.9517ZM24.0941 15.0943C23.5053 15.2836 22.9435 15.5332 22.4159 15.8356C22.1792 16.2389 21.9126 16.6226 21.619 16.9835C22.0491 16.7912 22.4966 16.6309 22.9587 16.5059C23.3833 16.0763 23.7642 15.6034 24.0941 15.0943ZM21.7235 16.2765C21.3043 16.5716 20.9121 16.9023 20.551 17.2641C20.455 17.4272 20.3542 17.5871 20.2486 17.7436C20.4162 17.6309 20.5878 17.5235 20.763 17.4218C21.1143 17.0683 21.4358 16.6852 21.7235 16.2765ZM25.7786 34.1786C26.1997 33.7169 26.5742 33.212 26.8948 32.6714C27.527 32.665 28.1439 32.5946 28.7393 32.4664C28.4028 32.9871 28.0129 33.47 27.5774 33.9076C26.9987 34.0573 26.3969 34.1498 25.7786 34.1786ZM28.2302 33.7113C28.5983 33.2899 28.9285 32.8345 29.2155 32.3505C29.7623 32.2016 30.2888 32.0033 30.79 31.7608C30.4782 32.2163 30.1249 32.641 29.7354 33.0296C29.2597 33.3016 28.7562 33.5306 28.2302 33.7113ZM30.8376 32.284C31.0421 32.0118 31.2318 31.7279 31.4055 31.4334C31.6994 31.2625 31.9829 31.0756 32.2549 30.8741C31.8372 31.3957 31.3615 31.869 30.8376 32.284ZM14.8634 21.1659C14.2945 21.3135 13.7032 21.4058 13.0958 21.4367C13.5427 21.0343 14.031 20.677 14.5535 20.3718C15.0198 20.3691 15.4778 20.3317 15.9252 20.2619C15.5485 20.5363 15.1936 20.8386 14.8634 21.1659ZM17.0256 20.2836C16.5837 20.537 16.1178 20.7533 15.6322 20.9283C16.0099 20.6098 16.4147 20.3224 16.8426 20.0701C17.0475 20.0161 17.2496 19.9552 17.4486 19.8877C17.3034 20.0152 17.1624 20.1473 17.0256 20.2836ZM12.5813 3.44843C12.9783 3.05937 13.4106 2.70611 13.8729 2.39388C13.3171 2.43289 12.7754 2.52335 12.2527 2.66054C11.7789 2.9357 11.3331 3.25368 10.9205 3.60917C11.4589 3.50705 12.014 3.45199 12.5813 3.44843ZM10.2454 3.764C9.91237 3.85382 9.58688 3.96192 9.27003 4.08716C9.80809 3.69088 10.3927 3.35418 11.0142 3.08681C10.7454 3.29824 10.4887 3.52438 10.2454 3.764ZM23.1362 16.8146C23.7125 16.665 24.3116 16.5723 24.9272 16.5425C24.4837 16.9446 23.9991 17.3022 23.4804 17.6083C23.0024 17.6093 22.5329 17.6469 22.0746 17.7184C22.4512 17.4441 22.8061 17.1418 23.1362 16.8146ZM22.3672 17.0523C21.8816 17.2273 21.4158 17.4436 20.974 17.697C20.8373 17.8332 20.6964 17.9651 20.5514 18.0925C20.7503 18.025 20.9523 17.9642 21.157 17.9103C21.5849 17.658 21.9896 17.3707 22.3672 17.0523ZM24.1597 35.584C24.6175 35.2719 25.0456 34.9195 25.4389 34.5318C25.999 34.5271 26.5472 34.4721 27.0791 34.3713C26.6665 34.7267 26.2207 35.0447 25.7469 35.3198C25.2345 35.4542 24.704 35.5438 24.1597 35.584ZM26.9855 34.8936C27.2542 34.6822 27.5109 34.4561 27.7543 34.2165C28.0872 34.1267 28.4127 34.0186 28.7295 33.8934C28.1915 34.2896 27.6069 34.6262 26.9855 34.8936ZM16.7099 19.7493C16.2447 19.8692 15.7647 19.9522 15.2731 19.9948C15.732 19.7808 16.2124 19.6051 16.7102 19.4717C16.8946 19.4711 17.0778 19.4651 17.2595 19.4538C17.0726 19.5462 16.8893 19.6448 16.7099 19.7493ZM14.4608 2.02828C14.1115 2.02974 13.7667 2.05073 13.4276 2.09022C14.0507 1.84318 14.7085 1.66501 15.3918 1.56511C15.0717 1.70222 14.761 1.85702 14.4608 2.02828ZM21.2897 18.231C21.7711 18.1069 22.2685 18.0224 22.7781 17.9811C22.3262 18.1954 21.8531 18.3725 21.3629 18.5084L21.32 18.5083C21.1254 18.5083 20.9322 18.5143 20.7406 18.5263C20.9273 18.4339 21.1104 18.3354 21.2897 18.231ZM22.6787 36.4043C22.9863 36.2695 23.2851 36.1183 23.574 35.9517C23.9113 35.9491 24.2442 35.9282 24.5719 35.8901C23.9704 36.1285 23.3365 36.3027 22.6787 36.4043Z" fill="#12263A"/>
</svg>
