<svg width="234" height="369" viewBox="0 0 234 369" fill="none" xmlns="http://www.w3.org/2000/svg">
<path d="M165.811 109.799C165.811 100.707 143.861 102.853 117.335 102.853C90.8091 102.853 69.7524 100.707 69.7524 109.799" stroke="#C9C9C9" stroke-width="4" stroke-linecap="round"/>
<rect x="92.803" y="224.119" width="50.3458" height="12.5865" fill="#6A6A6A"/>
<rect x="77.6992" y="249.292" width="80.5533" height="6.29323" rx="1.25865" fill="#6A6A6A"/>
<path d="M92.803 236.705H143.149L155.735 249.292H80.2166L92.803 236.705Z" fill="#E8E9EB"/>
<path d="M117.884 368.651C126.982 368.651 148.635 264.395 126.241 264.395C120.401 264.395 117.884 264.395 109.527 264.395C87.1333 264.395 108.786 368.651 117.884 368.651Z" fill="#F47D4A"/>
<path d="M102.291 345.549C109.884 346.508 139.655 267.037 120.965 264.676C116.091 264.06 113.99 263.794 107.016 262.913C88.3259 260.552 94.6977 344.59 102.291 345.549Z" fill="#F47D4A"/>
<path d="M132.362 345.549C124.769 346.508 94.9984 267.037 113.688 264.676C118.562 264.06 120.663 263.794 127.637 262.913C146.327 260.552 139.956 344.59 132.362 345.549Z" fill="#F47D4A"/>
<path d="M117.956 304.672C114.491 304.672 106.246 264.395 114.774 264.395C116.997 264.395 117.956 264.395 121.138 264.395C129.666 264.395 121.42 304.672 117.956 304.672Z" fill="#FCB039"/>
<path d="M20.1271 173.164C19.4807 170.947 20.0998 168.555 21.7399 166.931L64.793 124.287C67.4332 121.672 71.7524 121.901 74.1 124.782L97.8044 153.867C99.8956 156.433 99.6416 160.18 97.2231 162.441L41.6561 214.372C38.2297 217.575 32.6305 216.039 31.3175 211.536L20.1271 173.164Z" fill="#C9C9C9"/>
<circle cx="27.2594" cy="237.09" r="9.43984" fill="#6A6A6A"/>
<path d="M14.9545 229.472C14.536 228.635 15.1446 227.65 16.0802 227.65H38.4387C39.3744 227.65 39.9829 228.635 39.5645 229.472L37.0472 234.506C36.834 234.933 36.3982 235.202 35.9214 235.202H18.5975C18.1208 235.202 17.685 234.933 17.4718 234.506L14.9545 229.472Z" fill="#E8E9EB"/>
<path d="M27.4561 149.614C34.1688 149.614 50.1446 227.65 33.6218 227.65C29.3134 227.65 27.456 227.65 21.2904 227.65C4.7677 227.65 20.7434 149.614 27.4561 149.614Z" fill="#FCB039"/>
<mask id="mask0_233_862" style="mask-type:alpha" maskUnits="userSpaceOnUse" x="13" y="149" width="27" height="79">
<path d="M26.6101 149.614C33.2243 149.614 48.9658 227.65 32.6854 227.65C28.4401 227.65 26.61 227.65 20.5348 227.65C4.2543 227.65 19.9958 149.614 26.6101 149.614Z" fill="#FCB039"/>
</mask>
<g mask="url(#mask0_233_862)">
<rect x="-28.1411" y="123.183" width="55.3804" height="133.416" fill="#F47D4A"/>
</g>
<path d="M214.053 173.164C214.699 170.947 214.08 168.555 212.44 166.931L169.387 124.287C166.747 121.672 162.428 121.901 160.08 124.782L136.376 153.867C134.284 156.433 134.538 160.18 136.957 162.441L192.524 214.372C195.95 217.575 201.549 216.039 202.862 211.536L214.053 173.164Z" fill="#C9C9C9"/>
<circle cx="207.499" cy="237.09" r="9.43984" fill="#6A6A6A"/>
<path d="M195.194 229.472C194.775 228.635 195.384 227.65 196.319 227.65H218.678C219.614 227.65 220.222 228.635 219.804 229.472L217.286 234.506C217.073 234.933 216.637 235.202 216.161 235.202H198.837C198.36 235.202 197.924 234.933 197.711 234.506L195.194 229.472Z" fill="#E8E9EB"/>
<path d="M206.724 149.614C213.437 149.614 229.413 227.65 212.89 227.65C208.582 227.65 206.724 227.65 200.559 227.65C184.036 227.65 200.012 149.614 206.724 149.614Z" fill="#FCB039"/>
<mask id="mask1_233_862" style="mask-type:alpha" maskUnits="userSpaceOnUse" x="193" y="149" width="28" height="79">
<path d="M206.921 149.614C200.307 149.614 184.565 227.65 200.846 227.65C205.091 227.65 206.921 227.65 212.996 227.65C229.277 227.65 213.535 149.614 206.921 149.614Z" fill="#FCB039"/>
</mask>
<g mask="url(#mask1_233_862)">
<rect width="55.3804" height="133.416" transform="matrix(-1 0 0 1 261.672 123.183)" fill="#F47D4A"/>
</g>
<rect x="60.1042" y="124.119" width="114.702" height="104.626" rx="6.24329" fill="#E8E9EB"/>
<path d="M66.376 62.132C66.376 54.2335 71.8352 47.389 79.6027 45.9563C90.5267 43.9413 106.109 41.5229 117.976 41.5229C129.843 41.523 145.425 43.9413 156.349 45.9563C164.117 47.389 169.576 54.2335 169.576 62.132V97.3836C169.576 106.727 162.002 114.301 152.658 114.301H83.2935C73.9502 114.301 66.376 106.727 66.376 97.3836V62.132Z" fill="#E6C6E4"/>
<circle cx="80.5341" cy="98.6859" r="14.1581" fill="#D282A6"/>
<circle cx="155.418" cy="98.6859" r="14.1581" fill="#D282A6"/>
<rect x="57.1685" y="44.3446" width="28.8992" height="54.3413" rx="6.24329" fill="#DAAAD7"/>
<rect x="66.376" y="114.63" width="103.2" height="109.488" rx="6.24329" fill="#DAAAD7"/>
<rect x="103.006" y="89.7247" width="28.8992" height="19.6131" rx="6.24329" fill="#DAAAD7"/>
<rect x="149.592" y="44.3446" width="28.8992" height="54.3413" rx="6.24329" fill="#DAAAD7"/>
<ellipse cx="101.9" cy="86.7483" rx="3.07554" ry="2.97633" fill="#090B0B"/>
<ellipse cx="134.052" cy="86.7484" rx="3.07554" ry="2.97633" fill="#090B0B"/>
<ellipse cx="111.551" cy="99.5313" rx="2.55962" ry="2.47706" fill="#090B0B"/>
<ellipse cx="123.36" cy="99.5313" rx="2.55962" ry="2.47706" fill="#090B0B"/>
<path d="M111.748 73.3599C113.492 77.7193 121.339 76.4738 121.214 72.7372C121.09 69.0006 114.364 70.4952 116.73 74.2318C118.624 77.2211 122.501 76.2247 124.204 75.3528" stroke="#D282A6" stroke-linecap="round"/>
<path d="M197.28 73.5096C197.28 114.108 161.775 118.14 117.976 118.14C74.1772 118.14 38.6714 114.108 38.6714 73.5096C38.6714 32.9114 74.1772 -3.62662e-06 117.976 -3.62662e-06C161.775 -3.62662e-06 197.28 32.9114 197.28 73.5096Z" fill="url(#paint0_radial_233_862)"/>
<path d="M196.28 73.5096C196.28 83.5119 194.095 91.1725 190.213 97.0602C186.333 102.947 180.701 107.145 173.662 110.129C159.525 116.121 139.899 117.14 117.976 117.14C96.0531 117.14 76.4268 116.121 62.2894 110.129C55.2506 107.145 49.619 102.947 45.7384 97.0602C41.857 91.1725 39.6714 83.5119 39.6714 73.5096C39.6714 33.5338 74.6567 0.999996 117.976 0.999996C161.295 0.999996 196.28 33.5338 196.28 73.5096Z" stroke="white" stroke-opacity="0.56" stroke-width="2"/>
<path d="M165.811 111.041C154.078 120.981 143.358 117.579 117.012 117.579C90.6662 117.579 78.8637 119.399 69.7524 110.633" stroke="url(#paint1_linear_233_862)" stroke-width="4" stroke-linecap="round"/>
<rect x="76.3848" y="200.119" width="32.4488" height="32" rx="6.24329" fill="#D282A6"/>
<path d="M84.6578 193.586C85.3571 192.687 86.7149 192.687 87.4142 193.586L93.5377 201.451C94.4309 202.598 93.6134 204.27 92.1595 204.27H79.9126C78.4587 204.27 77.6412 202.598 78.5343 201.451L84.6578 193.586Z" fill="#E6C6E4"/>
<path d="M97.804 193.586C98.5033 192.687 99.8612 192.687 100.56 193.586L106.684 201.451C107.577 202.598 106.76 204.27 105.306 204.27H93.0588C91.6049 204.27 90.7874 202.598 91.6806 201.451L97.804 193.586Z" fill="#E6C6E4"/>
<path d="M104.909 138.397C105.807 139.096 105.807 140.454 104.909 141.154L97.044 147.277C95.8968 148.17 94.2242 147.353 94.2242 145.899L94.2242 133.652C94.2242 132.198 95.8968 131.38 97.044 132.274L104.909 138.397Z" fill="#E6C6E4"/>
<path d="M104.909 151.543C105.807 152.243 105.807 153.6 104.909 154.3L97.044 160.423C95.8968 161.316 94.2242 160.499 94.2242 159.045L94.2242 146.798C94.2242 145.344 95.8968 144.527 97.044 145.42L104.909 151.543Z" fill="#E6C6E4"/>
<rect x="98.376" y="130.124" width="32.4488" height="32" rx="6.24329" transform="rotate(90 98.376 130.124)" fill="#D282A6"/>
<path d="M130.974 138.397C130.076 139.096 130.076 140.454 130.974 141.154L138.839 147.277C139.987 148.17 141.659 147.353 141.659 145.899L141.659 133.652C141.659 132.198 139.987 131.38 138.839 132.274L130.974 138.397Z" fill="#E6C6E4"/>
<path d="M130.974 151.543C130.076 152.243 130.076 153.6 130.974 154.3L138.839 160.423C139.987 161.316 141.659 160.499 141.659 159.045L141.659 146.798C141.659 145.344 139.987 144.527 138.839 145.42L130.974 151.543Z" fill="#E6C6E4"/>
<rect width="32.4488" height="32" rx="6.24329" transform="matrix(4.37114e-08 1 1 -4.37114e-08 137.507 130.124)" fill="#D282A6"/>
<rect x="126.826" y="200.119" width="32.4488" height="32" rx="6.24329" fill="#D282A6"/>
<path d="M135.099 193.586C135.799 192.687 137.157 192.687 137.856 193.586L143.979 201.451C144.873 202.598 144.055 204.27 142.601 204.27H130.354C128.9 204.27 128.083 202.598 128.976 201.451L135.099 193.586Z" fill="#E6C6E4"/>
<path d="M148.246 193.586C148.945 192.687 150.303 192.687 151.002 193.586L157.126 201.451C158.019 202.598 157.201 204.27 155.747 204.27H143.5C142.047 204.27 141.229 202.598 142.122 201.451L148.246 193.586Z" fill="#E6C6E4"/>
<path d="M113.731 191.992L120.449 185.273M113.731 185.273L120.449 191.992" stroke="#D282A6" stroke-linecap="round"/>
<defs>
<radialGradient id="paint0_radial_233_862" cx="0" cy="0" r="1" gradientUnits="userSpaceOnUse" gradientTransform="translate(117.976 64.1569) rotate(90) scale(112.346 171.787)">
<stop stop-color="#C4C4C4" stop-opacity="0"/>
<stop offset="0.384989" stop-color="#C4C4C4" stop-opacity="0"/>
<stop offset="0.629412" stop-color="white"/>
</radialGradient>
<linearGradient id="paint1_linear_233_862" x1="165.811" y1="108.7" x2="67.5532" y2="107.709" gradientUnits="userSpaceOnUse">
<stop stop-color="#C9C9C9"/>
<stop offset="0.311203" stop-color="white"/>
<stop offset="0.693587" stop-color="white"/>
<stop offset="1" stop-color="#C9C9C9"/>
</linearGradient>
</defs>
</svg>
