<svg width="41" height="41" viewBox="0 0 41 41" fill="none" xmlns="http://www.w3.org/2000/svg">
<circle cx="20.1131" cy="20.5776" r="19.9329" fill="#1D1135"/>
<circle cx="20.113" cy="20.5775" r="10.4807" fill="#FFC976"/>
<path d="M19.8406 6.58008C19.9884 6.42324 20.2377 6.42324 20.3855 6.58008L21.7238 8.00087C21.9488 8.23966 21.7795 8.63172 21.4514 8.63172H18.7747C18.4466 8.63172 18.2773 8.23966 18.5023 8.00087L19.8406 6.58008Z" fill="#FFC976"/>
<path d="M19.8406 34.575C19.9884 34.7318 20.2377 34.7318 20.3855 34.575L21.7238 33.1542C21.9488 32.9154 21.7795 32.5233 21.4514 32.5233H18.7747C18.4466 32.5233 18.2773 32.9154 18.5023 33.1542L19.8406 34.575Z" fill="#FFC976"/>
<path d="M34.1105 20.3051C34.2673 20.4529 34.2673 20.7022 34.1105 20.8499L32.6897 22.1883C32.4509 22.4133 32.0588 22.244 32.0588 21.9159L32.0588 19.2392C32.0588 18.9111 32.4509 18.7418 32.6897 18.9667L34.1105 20.3051Z" fill="#FFC976"/>
<path d="M6.1156 20.3051C5.95876 20.4529 5.95876 20.7022 6.1156 20.8499L7.5364 22.1883C7.77518 22.4133 8.16724 22.244 8.16724 21.9159L8.16724 19.2392C8.16724 18.9111 7.77518 18.7418 7.5364 18.9667L6.1156 20.3051Z" fill="#FFC976"/>
<path d="M29.8181 10.4872C30.0335 10.4808 30.2098 10.6571 30.2033 10.8724L30.1451 12.8235C30.1353 13.1514 29.7383 13.3089 29.5064 13.0769L27.6136 11.1842C27.3816 10.9522 27.5392 10.5553 27.8671 10.5455L29.8181 10.4872Z" fill="#FFC976"/>
<path d="M10.0227 30.2826C10.0163 30.4979 10.1926 30.6743 10.408 30.6678L12.359 30.6095C12.6869 30.5997 12.8444 30.2028 12.6124 29.9708L10.7197 28.0781C10.4877 27.8461 10.0908 28.0036 10.081 28.3315L10.0227 30.2826Z" fill="#FFC976"/>
<path d="M30.2034 30.2826C30.2098 30.4979 30.0335 30.6743 29.8181 30.6678L27.8671 30.6095C27.5392 30.5997 27.3817 30.2028 27.6136 29.9708L29.5064 28.0781C29.7383 27.8461 30.1353 28.0036 30.1451 28.3315L30.2034 30.2826Z" fill="#FFC976"/>
<path d="M10.408 10.4872C10.1926 10.4808 10.0163 10.6571 10.0227 10.8724L10.081 12.8235C10.0908 13.1514 10.4877 13.3089 10.7197 13.0769L12.6125 11.1842C12.8444 10.9522 12.6869 10.5553 12.359 10.5455L10.408 10.4872Z" fill="#FFC976"/>
</svg>
