<svg width="231" height="392" viewBox="0 0 231 392" fill="none" xmlns="http://www.w3.org/2000/svg">
<path d="M41.16 8.88C40.2 8.88 39.72 9.23999 39.72 9.83999C39.72 10.44 40.2 10.8 41.16 10.8H46.8C46.32 18.96 38.52 48.12 8.16 60.72L9.84 62.52C24.6 58.32 50.28 48.96 58.56 39.36L60.84 36.36C65.04 41.88 81.36 57.48 83.52 59.64C89.64 65.4 100.2 60.84 100.8 51.72C101.28 43.68 71.28 33.72 65.88 30.36C66.96 27.84 67.56 23.76 68.4 20.88C68.76 18.6 68.64 16.68 67.8 14.88C66.36 11.88 62.88 8.88 54.24 8.88H41.16ZM110.64 86.52V84.12L98.88 76.2L87.12 84.12H66V65.76C66 60.6 61.44 57.48 56.64 55.92C53.88 54.96 50.76 54.24 47.28 53.76V84.12H4.56V86.52L11.64 89.64L18.72 86.52H110.64ZM114.12 158.64C110.88 158.64 108.12 160.32 106.68 163.08H103.32V123.96L78.24 121.56H78.12C77.28 121.56 76.92 121.92 76.92 122.64C76.92 123.24 77.28 123.72 78 123.84L84.6 124.56V175.8L84.12 176.16C81.36 178.44 76.44 179.16 62.64 180.12H53.88C53.52 178.56 52.68 177.12 51.36 176.04C49.56 174.48 47.52 173.16 45.36 172.32L43.92 171.84C47.04 171.72 50.04 171.36 52.8 170.52C62.28 167.88 69 161.4 69 154.2C69 144.12 56.88 136.32 42.84 136.32C28.8 136.32 16.68 144.12 16.68 154.2C16.68 161.4 23.52 167.88 32.76 170.52C34.08 170.88 35.28 171.24 36.6 171.36V180.12H11.88V182.52L18.96 185.64L26.04 182.52H57.36C68.52 182.52 76.56 181.44 82.32 179.64L84.6 178.92V187.08C88.08 186.6 91.2 185.88 93.96 184.92C98.64 183.36 103.32 180.24 103.32 175.08V167.04H122.52C122.52 162.36 118.8 158.64 114.12 158.64ZM101.64 190.44H25.08V192.72L35.16 197.28L45.36 192.72H80.64V223.44C81.12 223.44 101.64 221.28 101.64 210V190.44ZM42.84 170.04C34.92 170.04 31.68 161.52 31.68 154.2C31.68 146.4 34.92 138.12 42.84 138.12C50.88 138.12 54 146.4 54 154.2C54 161.52 50.88 170.04 42.84 170.04ZM53.28 120.84C48.48 115.68 42.48 114.72 37.68 115.08C34.92 115.32 32.04 116.04 29.28 117.24C32.4 121.92 37.44 125.88 39.36 127.44C44.52 132 58.08 126.36 53.28 120.84ZM77.16 133.92V131.52L67.8 127.2L58.44 131.52H13.08V133.92L18.96 137.04L24.84 133.92H77.16ZM105.6 243.96L82.92 241.56H82.8C81.96 241.56 81.6 241.92 81.6 242.64C81.6 243.24 81.96 243.72 82.68 243.84L89.28 244.56V272.28H81.6V247.56L58.92 245.16H58.8C57.96 245.16 57.6 245.52 57.6 246.24C57.6 246.84 57.96 247.32 58.68 247.44L65.28 248.16V300.48C63.96 300.72 62.64 300.96 61.32 301.32C50.28 304.32 40.56 311.88 40.56 322.44C40.56 334.92 54.84 343.68 72.48 343.68C90.12 343.68 104.4 334.92 104.4 322.44C104.4 316.68 101.52 311.4 96.72 307.56C94.8 306 92.64 304.68 90.36 303.6C92.88 303.12 95.28 302.4 97.44 301.56C101.64 299.76 105.6 296.88 105.6 291.72V243.96ZM34.56 261.48C19.8 261.48 6.84 270.24 6.84 281.28C6.84 292.08 19.8 300.84 34.56 300.84C49.32 300.84 62.28 292.08 62.28 281.28C62.28 270.24 49.32 261.48 34.56 261.48ZM72.48 340.08C62.4 340.08 58.92 332.16 58.92 322.44C58.92 312.6 62.4 303.36 72.48 303.36C82.44 303.36 86.04 312.6 86.04 322.44C86.04 332.16 82.44 340.08 72.48 340.08ZM34.56 298.92C26.16 298.92 22.68 289.68 22.68 281.28C22.68 272.52 26.16 263.52 34.56 263.52C42.84 263.52 46.32 272.52 46.32 281.28C46.32 289.68 42.84 298.92 34.56 298.92ZM42.24 247.2C37.92 242.04 32.4 241.08 28.08 241.44C25.56 241.68 23.04 242.4 20.52 243.6C23.28 248.28 27.72 252.24 29.64 253.8C34.44 258.24 46.44 252.72 42.24 247.2ZM76.44 300C77.4 299.4 78.24 298.68 79.08 297.96C80.76 296.4 81.6 294.24 81.6 291.72V276.24H89.28V303.12L88.2 302.64C84.96 301.32 81.48 300.48 77.76 300H76.44ZM62.76 259.92V257.52L54.24 253.2L45.84 257.52H4.8V259.92L10.08 263.04L15.36 259.92H62.76Z" fill="black"/>
<path d="M189.368 247.648C189.764 247.648 190.076 247.648 190.304 247.648C190.544 247.636 190.73 247.624 190.862 247.612C190.994 247.6 191.156 247.582 191.348 247.558C191.552 247.534 191.72 247.498 191.852 247.45C191.972 247.414 192.074 247.372 192.158 247.324C192.254 247.276 192.332 247.228 192.392 247.18C192.56 247.192 192.722 247.204 192.878 247.216C193.046 247.216 193.208 247.228 193.364 247.252C193.556 247.264 193.736 247.288 193.904 247.324C194.072 247.348 194.222 247.372 194.354 247.396C194.522 247.432 194.66 247.492 194.768 247.576C194.876 247.66 194.93 247.786 194.93 247.954C194.93 248.086 194.894 248.194 194.822 248.278C194.762 248.374 194.66 248.422 194.516 248.422C194.456 248.422 194.318 248.41 194.102 248.386C193.898 248.374 193.718 248.362 193.562 248.35C193.334 248.326 193.022 248.308 192.626 248.296C192.242 248.284 191.9 248.278 191.6 248.278H185.264C184.832 248.278 184.412 248.284 184.004 248.296C183.608 248.32 183.326 248.344 183.158 248.368C183.002 248.38 182.834 248.404 182.654 248.44C182.474 248.476 182.324 248.512 182.204 248.548C182.108 248.572 182 248.608 181.88 248.656C181.76 248.716 181.652 248.77 181.556 248.818C181.532 248.818 181.478 248.8 181.394 248.764C181.31 248.74 181.238 248.716 181.178 248.692C181.094 248.656 180.998 248.614 180.89 248.566C180.794 248.518 180.68 248.464 180.548 248.404C180.44 248.344 180.32 248.278 180.188 248.206C180.056 248.146 179.942 248.086 179.846 248.026C179.762 247.966 179.672 247.9 179.576 247.828C179.492 247.756 179.45 247.69 179.45 247.63C179.45 247.57 179.474 247.528 179.522 247.504C179.57 247.468 179.63 247.456 179.702 247.468C179.846 247.48 180.026 247.498 180.242 247.522C180.458 247.546 180.662 247.564 180.854 247.576C181.166 247.588 181.532 247.606 181.952 247.63C182.372 247.642 182.81 247.648 183.266 247.648H186.74V243.652C186.74 243.532 186.716 243.43 186.668 243.346C186.62 243.262 186.548 243.178 186.452 243.094C186.392 243.034 186.314 242.98 186.218 242.932C186.134 242.872 186.056 242.824 185.984 242.788C185.9 242.74 185.804 242.692 185.696 242.644C185.588 242.596 185.498 242.56 185.426 242.536C185.366 242.512 185.294 242.482 185.21 242.446C185.138 242.41 185.102 242.368 185.102 242.32C185.102 242.236 185.144 242.176 185.228 242.14C185.324 242.104 185.414 242.086 185.498 242.086C185.558 242.086 185.684 242.098 185.876 242.122C186.08 242.146 186.272 242.176 186.452 242.212C186.584 242.236 186.758 242.278 186.974 242.338C187.19 242.386 187.358 242.434 187.478 242.482C187.574 242.518 187.664 242.56 187.748 242.608C187.832 242.656 187.874 242.722 187.874 242.806C187.874 242.854 187.85 242.956 187.802 243.112C187.766 243.256 187.748 243.448 187.748 243.688V247.648H189.368ZM186.758 237.676C186.59 237.868 186.386 238.066 186.146 238.27C185.918 238.474 185.666 238.69 185.39 238.918C185.102 239.158 184.796 239.392 184.472 239.62C184.148 239.848 183.848 240.046 183.572 240.214C183.308 240.37 183.002 240.55 182.654 240.754C182.306 240.958 182.018 241.12 181.79 241.24C181.55 241.36 181.268 241.498 180.944 241.654C180.62 241.798 180.344 241.918 180.116 242.014C179.96 242.062 179.846 242.038 179.774 241.942C179.714 241.834 179.762 241.75 179.918 241.69C180.158 241.546 180.446 241.372 180.782 241.168C181.13 240.964 181.418 240.784 181.646 240.628C181.886 240.472 182.144 240.292 182.42 240.088C182.696 239.884 182.948 239.698 183.176 239.53C183.404 239.362 183.644 239.17 183.896 238.954C184.16 238.726 184.394 238.522 184.598 238.342C184.79 238.174 184.982 237.988 185.174 237.784C185.378 237.568 185.558 237.382 185.714 237.226C185.858 237.07 186.008 236.896 186.164 236.704C186.32 236.512 186.458 236.338 186.578 236.182C186.698 236.026 186.806 235.876 186.902 235.732C186.998 235.588 187.088 235.438 187.172 235.282C187.16 235.234 187.118 235.174 187.046 235.102C186.974 235.03 186.896 234.97 186.812 234.922C186.74 234.862 186.656 234.808 186.56 234.76C186.464 234.712 186.386 234.67 186.326 234.634C186.254 234.598 186.17 234.556 186.074 234.508C185.978 234.448 185.93 234.394 185.93 234.346C185.93 234.286 185.966 234.238 186.038 234.202C186.11 234.154 186.206 234.136 186.326 234.148C186.446 234.16 186.584 234.184 186.74 234.22C186.896 234.256 187.034 234.292 187.154 234.328C187.286 234.364 187.418 234.406 187.55 234.454C187.694 234.502 187.814 234.55 187.91 234.598C188.018 234.646 188.144 234.712 188.288 234.796C188.432 234.88 188.504 234.964 188.504 235.048C188.492 235.132 188.456 235.24 188.396 235.372C188.336 235.492 188.276 235.6 188.216 235.696C188.144 235.828 188.06 235.972 187.964 236.128C187.868 236.272 187.766 236.422 187.658 236.578C187.574 236.686 187.496 236.782 187.424 236.866C187.364 236.95 187.298 237.04 187.226 237.136C187.37 237.232 187.526 237.34 187.694 237.46C187.862 237.568 188.024 237.67 188.18 237.766C188.384 237.886 188.618 238.018 188.882 238.162C189.146 238.306 189.374 238.426 189.566 238.522C189.77 238.63 190.01 238.738 190.286 238.846C190.574 238.954 190.814 239.038 191.006 239.098C191.186 239.146 191.39 239.194 191.618 239.242C191.846 239.278 192.014 239.302 192.122 239.314C192.302 239.434 192.5 239.578 192.716 239.746C192.932 239.902 193.136 240.058 193.328 240.214C193.544 240.394 193.742 240.592 193.922 240.808C194.102 241.012 194.15 241.198 194.066 241.366C194.006 241.486 193.904 241.54 193.76 241.528C193.616 241.504 193.478 241.468 193.346 241.42C193.19 241.348 192.998 241.252 192.77 241.132C192.542 241 192.308 240.874 192.068 240.754C191.756 240.586 191.456 240.424 191.168 240.268C190.88 240.112 190.562 239.938 190.214 239.746C189.878 239.554 189.56 239.368 189.26 239.188C188.96 239.008 188.636 238.822 188.288 238.63C188.012 238.462 187.748 238.3 187.496 238.144C187.244 237.976 186.998 237.82 186.758 237.676ZM189.368 267.648C189.764 267.648 190.076 267.648 190.304 267.648C190.544 267.636 190.73 267.624 190.862 267.612C190.994 267.6 191.156 267.582 191.348 267.558C191.552 267.534 191.72 267.498 191.852 267.45C191.972 267.414 192.074 267.372 192.158 267.324C192.254 267.276 192.332 267.228 192.392 267.18C192.56 267.192 192.722 267.204 192.878 267.216C193.046 267.216 193.208 267.228 193.364 267.252C193.556 267.264 193.736 267.288 193.904 267.324C194.072 267.348 194.222 267.372 194.354 267.396C194.522 267.432 194.66 267.492 194.768 267.576C194.876 267.66 194.93 267.786 194.93 267.954C194.93 268.086 194.894 268.194 194.822 268.278C194.762 268.374 194.66 268.422 194.516 268.422C194.456 268.422 194.318 268.41 194.102 268.386C193.898 268.374 193.718 268.362 193.562 268.35C193.334 268.326 193.022 268.308 192.626 268.296C192.242 268.284 191.9 268.278 191.6 268.278H185.264C184.832 268.278 184.412 268.284 184.004 268.296C183.608 268.32 183.326 268.344 183.158 268.368C183.002 268.38 182.834 268.404 182.654 268.44C182.474 268.476 182.324 268.512 182.204 268.548C182.108 268.572 182 268.608 181.88 268.656C181.76 268.716 181.652 268.77 181.556 268.818C181.532 268.818 181.478 268.8 181.394 268.764C181.31 268.74 181.238 268.716 181.178 268.692C181.094 268.656 180.998 268.614 180.89 268.566C180.794 268.518 180.68 268.464 180.548 268.404C180.44 268.344 180.32 268.278 180.188 268.206C180.056 268.146 179.942 268.086 179.846 268.026C179.762 267.966 179.672 267.9 179.576 267.828C179.492 267.756 179.45 267.69 179.45 267.63C179.45 267.57 179.474 267.528 179.522 267.504C179.57 267.468 179.63 267.456 179.702 267.468C179.846 267.48 180.026 267.498 180.242 267.522C180.458 267.546 180.662 267.564 180.854 267.576C181.166 267.588 181.532 267.606 181.952 267.63C182.372 267.642 182.81 267.648 183.266 267.648H186.74V263.652C186.74 263.532 186.716 263.43 186.668 263.346C186.62 263.262 186.548 263.178 186.452 263.094C186.392 263.034 186.314 262.98 186.218 262.932C186.134 262.872 186.056 262.824 185.984 262.788C185.9 262.74 185.804 262.692 185.696 262.644C185.588 262.596 185.498 262.56 185.426 262.536C185.366 262.512 185.294 262.482 185.21 262.446C185.138 262.41 185.102 262.368 185.102 262.32C185.102 262.236 185.144 262.176 185.228 262.14C185.324 262.104 185.414 262.086 185.498 262.086C185.558 262.086 185.684 262.098 185.876 262.122C186.08 262.146 186.272 262.176 186.452 262.212C186.584 262.236 186.758 262.278 186.974 262.338C187.19 262.386 187.358 262.434 187.478 262.482C187.574 262.518 187.664 262.56 187.748 262.608C187.832 262.656 187.874 262.722 187.874 262.806C187.874 262.854 187.85 262.956 187.802 263.112C187.766 263.256 187.748 263.448 187.748 263.688V267.648H189.368ZM186.758 257.676C186.59 257.868 186.386 258.066 186.146 258.27C185.918 258.474 185.666 258.69 185.39 258.918C185.102 259.158 184.796 259.392 184.472 259.62C184.148 259.848 183.848 260.046 183.572 260.214C183.308 260.37 183.002 260.55 182.654 260.754C182.306 260.958 182.018 261.12 181.79 261.24C181.55 261.36 181.268 261.498 180.944 261.654C180.62 261.798 180.344 261.918 180.116 262.014C179.96 262.062 179.846 262.038 179.774 261.942C179.714 261.834 179.762 261.75 179.918 261.69C180.158 261.546 180.446 261.372 180.782 261.168C181.13 260.964 181.418 260.784 181.646 260.628C181.886 260.472 182.144 260.292 182.42 260.088C182.696 259.884 182.948 259.698 183.176 259.53C183.404 259.362 183.644 259.17 183.896 258.954C184.16 258.726 184.394 258.522 184.598 258.342C184.79 258.174 184.982 257.988 185.174 257.784C185.378 257.568 185.558 257.382 185.714 257.226C185.858 257.07 186.008 256.896 186.164 256.704C186.32 256.512 186.458 256.338 186.578 256.182C186.698 256.026 186.806 255.876 186.902 255.732C186.998 255.588 187.088 255.438 187.172 255.282C187.16 255.234 187.118 255.174 187.046 255.102C186.974 255.03 186.896 254.97 186.812 254.922C186.74 254.862 186.656 254.808 186.56 254.76C186.464 254.712 186.386 254.67 186.326 254.634C186.254 254.598 186.17 254.556 186.074 254.508C185.978 254.448 185.93 254.394 185.93 254.346C185.93 254.286 185.966 254.238 186.038 254.202C186.11 254.154 186.206 254.136 186.326 254.148C186.446 254.16 186.584 254.184 186.74 254.22C186.896 254.256 187.034 254.292 187.154 254.328C187.286 254.364 187.418 254.406 187.55 254.454C187.694 254.502 187.814 254.55 187.91 254.598C188.018 254.646 188.144 254.712 188.288 254.796C188.432 254.88 188.504 254.964 188.504 255.048C188.492 255.132 188.456 255.24 188.396 255.372C188.336 255.492 188.276 255.6 188.216 255.696C188.144 255.828 188.06 255.972 187.964 256.128C187.868 256.272 187.766 256.422 187.658 256.578C187.574 256.686 187.496 256.782 187.424 256.866C187.364 256.95 187.298 257.04 187.226 257.136C187.37 257.232 187.526 257.34 187.694 257.46C187.862 257.568 188.024 257.67 188.18 257.766C188.384 257.886 188.618 258.018 188.882 258.162C189.146 258.306 189.374 258.426 189.566 258.522C189.77 258.63 190.01 258.738 190.286 258.846C190.574 258.954 190.814 259.038 191.006 259.098C191.186 259.146 191.39 259.194 191.618 259.242C191.846 259.278 192.014 259.302 192.122 259.314C192.302 259.434 192.5 259.578 192.716 259.746C192.932 259.902 193.136 260.058 193.328 260.214C193.544 260.394 193.742 260.592 193.922 260.808C194.102 261.012 194.15 261.198 194.066 261.366C194.006 261.486 193.904 261.54 193.76 261.528C193.616 261.504 193.478 261.468 193.346 261.42C193.19 261.348 192.998 261.252 192.77 261.132C192.542 261 192.308 260.874 192.068 260.754C191.756 260.586 191.456 260.424 191.168 260.268C190.88 260.112 190.562 259.938 190.214 259.746C189.878 259.554 189.56 259.368 189.26 259.188C188.96 259.008 188.636 258.822 188.288 258.63C188.012 258.462 187.748 258.3 187.496 258.144C187.244 257.976 186.998 257.82 186.758 257.676ZM192.482 281.24C192.614 281.24 192.74 281.228 192.86 281.204C192.98 281.168 193.094 281.114 193.202 281.042C193.286 280.982 193.358 280.922 193.418 280.862C193.478 280.802 193.52 280.748 193.544 280.7C193.676 280.712 193.826 280.724 193.994 280.736C194.174 280.748 194.324 280.766 194.444 280.79C194.648 280.814 194.822 280.874 194.966 280.97C195.122 281.054 195.2 281.192 195.2 281.384C195.2 281.54 195.158 281.654 195.074 281.726C195.002 281.786 194.894 281.816 194.75 281.816H192.248V286.01C192.248 286.25 192.242 286.55 192.23 286.91C192.218 287.258 192.206 287.534 192.194 287.738C192.182 288.098 192.164 288.398 192.14 288.638C192.116 288.89 192.092 289.07 192.068 289.178C192.044 289.334 192.014 289.466 191.978 289.574C191.954 289.682 191.93 289.766 191.906 289.826C191.882 289.886 191.846 289.94 191.798 289.988C191.762 290.048 191.714 290.078 191.654 290.078C191.606 290.078 191.564 290.048 191.528 289.988C191.492 289.94 191.462 289.892 191.438 289.844C191.426 289.784 191.408 289.712 191.384 289.628C191.372 289.556 191.36 289.478 191.348 289.394C191.336 289.226 191.324 289.082 191.312 288.962C191.312 288.842 191.306 288.674 191.294 288.458C191.282 288.194 191.276 287.846 191.276 287.414C191.276 286.982 191.276 286.694 191.276 286.55V275.066C191.276 274.946 191.264 274.838 191.24 274.742C191.216 274.646 191.18 274.562 191.132 274.49C191.084 274.43 191.03 274.37 190.97 274.31C190.91 274.238 190.838 274.178 190.754 274.13C190.67 274.07 190.58 274.016 190.484 273.968C190.4 273.92 190.31 273.872 190.214 273.824C190.13 273.788 190.034 273.752 189.926 273.716C189.83 273.668 189.746 273.632 189.674 273.608C189.602 273.584 189.524 273.554 189.44 273.518C189.368 273.482 189.332 273.434 189.332 273.374C189.332 273.302 189.38 273.248 189.476 273.212C189.572 273.176 189.68 273.158 189.8 273.158C189.872 273.158 190.016 273.176 190.232 273.212C190.46 273.236 190.676 273.278 190.88 273.338C191.024 273.374 191.192 273.422 191.384 273.482C191.576 273.53 191.756 273.584 191.924 273.644C192.044 273.692 192.152 273.746 192.248 273.806C192.356 273.866 192.41 273.944 192.41 274.04C192.41 274.088 192.398 274.148 192.374 274.22C192.35 274.28 192.326 274.352 192.302 274.436C192.29 274.508 192.278 274.604 192.266 274.724C192.254 274.844 192.248 274.934 192.248 274.994V281.24H192.482ZM184.724 287.198C184.376 287.198 184.046 287.174 183.734 287.126C183.434 287.066 183.182 287 182.978 286.928C182.798 286.868 182.612 286.784 182.42 286.676C182.228 286.568 182.06 286.454 181.916 286.334C181.712 286.166 181.544 285.998 181.412 285.83C181.28 285.65 181.166 285.476 181.07 285.308C180.938 285.044 180.842 284.78 180.782 284.516C180.734 284.24 180.71 283.976 180.71 283.724C180.71 283.472 180.734 283.214 180.782 282.95C180.842 282.674 180.938 282.404 181.07 282.14C181.166 281.972 181.28 281.798 181.412 281.618C181.544 281.438 181.712 281.27 181.916 281.114C182.06 280.994 182.228 280.88 182.42 280.772C182.612 280.664 182.798 280.58 182.978 280.52C183.182 280.448 183.434 280.388 183.734 280.34C184.046 280.28 184.376 280.25 184.724 280.25C185.072 280.25 185.402 280.28 185.714 280.34C186.026 280.388 186.278 280.448 186.47 280.52C186.65 280.58 186.836 280.664 187.028 280.772C187.22 280.88 187.388 280.994 187.532 281.114C187.736 281.27 187.904 281.438 188.036 281.618C188.18 281.798 188.294 281.972 188.378 282.14C188.51 282.404 188.6 282.674 188.648 282.95C188.708 283.214 188.738 283.472 188.738 283.724C188.738 283.976 188.708 284.24 188.648 284.516C188.6 284.78 188.51 285.044 188.378 285.308C188.294 285.476 188.18 285.65 188.036 285.83C187.904 285.998 187.736 286.166 187.532 286.334C187.388 286.454 187.22 286.568 187.028 286.676C186.836 286.784 186.65 286.868 186.47 286.928C186.278 287 186.026 287.066 185.714 287.126C185.402 287.174 185.072 287.198 184.724 287.198ZM184.724 286.568C185 286.568 185.264 286.544 185.516 286.496C185.78 286.436 185.99 286.37 186.146 286.298C186.278 286.238 186.428 286.148 186.596 286.028C186.776 285.908 186.908 285.8 186.992 285.704C187.112 285.572 187.22 285.428 187.316 285.272C187.412 285.116 187.484 284.966 187.532 284.822C187.592 284.678 187.634 284.498 187.658 284.282C187.694 284.054 187.712 283.862 187.712 283.706C187.712 283.538 187.694 283.346 187.658 283.13C187.634 282.914 187.592 282.734 187.532 282.59C187.484 282.446 187.412 282.296 187.316 282.14C187.22 281.972 187.112 281.828 186.992 281.708C186.908 281.612 186.776 281.504 186.596 281.384C186.428 281.264 186.278 281.174 186.146 281.114C185.99 281.042 185.78 280.982 185.516 280.934C185.264 280.874 185 280.844 184.724 280.844C184.46 280.844 184.196 280.874 183.932 280.934C183.68 280.982 183.47 281.042 183.302 281.114C183.17 281.174 183.02 281.264 182.852 281.384C182.684 281.504 182.552 281.612 182.456 281.708C182.336 281.828 182.228 281.972 182.132 282.14C182.048 282.296 181.976 282.446 181.916 282.59C181.868 282.734 181.826 282.914 181.79 283.13C181.754 283.346 181.736 283.538 181.736 283.706C181.736 283.862 181.754 284.054 181.79 284.282C181.826 284.498 181.868 284.678 181.916 284.822C181.976 284.966 182.048 285.116 182.132 285.272C182.228 285.428 182.336 285.572 182.456 285.704C182.552 285.8 182.684 285.908 182.852 286.028C183.02 286.148 183.17 286.238 183.302 286.298C183.47 286.37 183.68 286.436 183.932 286.496C184.196 286.544 184.46 286.568 184.724 286.568ZM183.338 275.642C183.098 275.642 182.87 275.612 182.654 275.552C182.45 275.48 182.27 275.402 182.114 275.318C181.994 275.246 181.862 275.15 181.718 275.03C181.586 274.91 181.52 274.802 181.52 274.706C181.52 274.646 181.55 274.604 181.61 274.58C181.67 274.556 181.724 274.556 181.772 274.58C181.856 274.604 181.952 274.634 182.06 274.67C182.18 274.694 182.282 274.718 182.366 274.742C182.486 274.766 182.672 274.796 182.924 274.832C183.176 274.856 183.488 274.868 183.86 274.868H184.994C185.258 274.868 185.468 274.85 185.624 274.814C185.78 274.778 185.9 274.718 185.984 274.634C186.14 274.646 186.302 274.658 186.47 274.67C186.638 274.682 186.782 274.7 186.902 274.724C187.046 274.748 187.19 274.796 187.334 274.868C187.478 274.928 187.55 275.054 187.55 275.246C187.55 275.366 187.508 275.462 187.424 275.534C187.34 275.606 187.226 275.642 187.082 275.642H183.338ZM183.662 278.468C183.434 278.468 183.158 278.48 182.834 278.504C182.51 278.516 182.294 278.534 182.186 278.558C182.066 278.582 181.928 278.612 181.772 278.648C181.628 278.684 181.526 278.714 181.466 278.738C181.394 278.762 181.316 278.798 181.232 278.846C181.16 278.882 181.094 278.918 181.034 278.954C181.01 278.954 180.938 278.93 180.818 278.882C180.71 278.834 180.602 278.786 180.494 278.738C180.374 278.678 180.242 278.612 180.098 278.54C179.954 278.456 179.816 278.372 179.684 278.288C179.6 278.228 179.51 278.162 179.414 278.09C179.318 278.018 179.27 277.946 179.27 277.874C179.27 277.814 179.294 277.772 179.342 277.748C179.39 277.724 179.45 277.718 179.522 277.73C179.594 277.742 179.702 277.76 179.846 277.784C180.002 277.796 180.134 277.808 180.242 277.82C180.362 277.832 180.602 277.85 180.962 277.874C181.322 277.886 181.664 277.892 181.988 277.892H185.75C186.002 277.892 186.266 277.886 186.542 277.874C186.818 277.862 187.046 277.832 187.226 277.784C187.346 277.76 187.46 277.718 187.568 277.658C187.688 277.586 187.772 277.526 187.82 277.478C187.952 277.49 188.096 277.502 188.252 277.514C188.408 277.514 188.564 277.526 188.72 277.55C188.828 277.562 188.942 277.58 189.062 277.604C189.182 277.616 189.302 277.634 189.422 277.658C189.53 277.682 189.632 277.73 189.728 277.802C189.836 277.874 189.89 278 189.89 278.18C189.89 278.3 189.86 278.396 189.8 278.468C189.74 278.54 189.65 278.576 189.53 278.576C189.482 278.576 189.38 278.57 189.224 278.558C189.08 278.546 188.948 278.534 188.828 278.522C188.708 278.51 188.462 278.498 188.09 278.486C187.73 278.474 187.454 278.468 187.262 278.468H183.662ZM184.616 296.452C184.676 296.512 184.742 296.578 184.814 296.65C184.886 296.71 184.958 296.77 185.03 296.83C185.162 296.938 185.294 297.046 185.426 297.154C185.57 297.262 185.66 297.346 185.696 297.406C185.696 297.454 185.66 297.61 185.588 297.874C185.516 298.126 185.456 298.324 185.408 298.468C185.348 298.66 185.27 298.888 185.174 299.152C185.078 299.416 184.994 299.638 184.922 299.818C184.886 299.902 184.85 299.992 184.814 300.088C184.778 300.172 184.73 300.268 184.67 300.376C184.814 300.58 184.976 300.802 185.156 301.042C185.336 301.282 185.486 301.474 185.606 301.618C185.738 301.786 185.894 301.966 186.074 302.158C186.254 302.35 186.404 302.512 186.524 302.644C186.68 302.8 186.842 302.956 187.01 303.112C187.19 303.256 187.346 303.376 187.478 303.472C187.598 303.556 187.736 303.646 187.892 303.742C188.06 303.826 188.192 303.88 188.288 303.904C188.42 304.084 188.546 304.276 188.666 304.48C188.798 304.684 188.924 304.894 189.044 305.11C189.176 305.338 189.314 305.626 189.458 305.974C189.614 306.31 189.62 306.556 189.476 306.712C189.392 306.796 189.296 306.82 189.188 306.784C189.08 306.748 188.984 306.688 188.9 306.604C188.78 306.484 188.636 306.328 188.468 306.136C188.3 305.944 188.132 305.752 187.964 305.56C187.808 305.368 187.61 305.128 187.37 304.84C187.142 304.552 186.908 304.276 186.668 304.012C186.476 303.772 186.248 303.502 185.984 303.202C185.732 302.89 185.504 302.614 185.3 302.374C185.168 302.206 185.012 302.014 184.832 301.798C184.652 301.582 184.478 301.36 184.31 301.132C184.298 301.168 184.286 301.204 184.274 301.24C184.262 301.276 184.244 301.312 184.22 301.348C184.088 301.612 183.926 301.906 183.734 302.23C183.554 302.542 183.386 302.818 183.23 303.058C183.086 303.286 182.906 303.556 182.69 303.868C182.474 304.18 182.288 304.432 182.132 304.624C181.952 304.84 181.748 305.08 181.52 305.344C181.304 305.608 181.118 305.824 180.962 305.992C180.782 306.196 180.584 306.406 180.368 306.622C180.164 306.838 179.96 307.03 179.756 307.198C179.648 307.294 179.54 307.306 179.432 307.234C179.336 307.15 179.348 307.048 179.468 306.928C179.612 306.76 179.78 306.556 179.972 306.316C180.176 306.064 180.35 305.836 180.494 305.632C180.65 305.416 180.806 305.194 180.962 304.966C181.13 304.738 181.28 304.522 181.412 304.318C181.544 304.114 181.682 303.892 181.826 303.652C181.982 303.4 182.12 303.178 182.24 302.986C182.372 302.77 182.516 302.512 182.672 302.212C182.84 301.912 182.966 301.666 183.05 301.474C183.158 301.246 183.272 300.994 183.392 300.718C183.524 300.43 183.638 300.166 183.734 299.926C183.818 299.722 183.908 299.488 184.004 299.224C184.1 298.96 184.178 298.732 184.238 298.54C184.298 298.348 184.358 298.15 184.418 297.946C184.478 297.73 184.526 297.538 184.562 297.37C184.55 297.298 184.496 297.172 184.4 296.992C184.316 296.812 184.208 296.632 184.076 296.452H183.572C183.416 296.452 183.2 296.458 182.924 296.47C182.66 296.482 182.474 296.5 182.366 296.524C182.27 296.536 182.168 296.56 182.06 296.596C181.952 296.62 181.856 296.65 181.772 296.686C181.712 296.71 181.64 296.746 181.556 296.794C181.484 296.842 181.418 296.884 181.358 296.92C181.322 296.92 181.25 296.896 181.142 296.848C181.034 296.788 180.926 296.734 180.818 296.686C180.662 296.602 180.512 296.518 180.368 296.434C180.224 296.35 180.104 296.278 180.008 296.218C179.936 296.17 179.852 296.11 179.756 296.038C179.672 295.966 179.63 295.9 179.63 295.84C179.63 295.78 179.654 295.738 179.702 295.714C179.75 295.69 179.81 295.684 179.882 295.696C179.954 295.708 180.062 295.726 180.206 295.75C180.362 295.762 180.494 295.774 180.602 295.786C180.722 295.798 180.962 295.816 181.322 295.84C181.682 295.852 182.024 295.858 182.348 295.858H185.336C185.6 295.858 185.864 295.852 186.128 295.84C186.404 295.828 186.632 295.798 186.812 295.75C186.932 295.726 187.052 295.678 187.172 295.606C187.292 295.534 187.37 295.48 187.406 295.444C187.55 295.456 187.688 295.468 187.82 295.48C187.964 295.48 188.114 295.492 188.27 295.516C188.426 295.528 188.552 295.546 188.648 295.57C188.756 295.582 188.87 295.6 188.99 295.624C189.11 295.648 189.218 295.702 189.314 295.786C189.41 295.858 189.458 295.972 189.458 296.128C189.458 296.248 189.428 296.35 189.368 296.434C189.308 296.518 189.224 296.56 189.116 296.56C189.068 296.56 188.966 296.554 188.81 296.542C188.654 296.53 188.516 296.518 188.396 296.506C188.276 296.494 188.03 296.482 187.658 296.47C187.298 296.458 187.022 296.452 186.83 296.452H184.616ZM192.878 306.01C192.878 306.25 192.872 306.55 192.86 306.91C192.848 307.258 192.836 307.534 192.824 307.738C192.812 308.098 192.794 308.398 192.77 308.638C192.746 308.89 192.722 309.07 192.698 309.178C192.674 309.334 192.644 309.466 192.608 309.574C192.584 309.682 192.56 309.766 192.536 309.826C192.512 309.886 192.476 309.94 192.428 309.988C192.392 310.048 192.344 310.078 192.284 310.078C192.236 310.078 192.194 310.048 192.158 309.988C192.122 309.94 192.092 309.892 192.068 309.844C192.056 309.784 192.038 309.712 192.014 309.628C192.002 309.556 191.99 309.478 191.978 309.394C191.966 309.226 191.954 309.082 191.942 308.962C191.942 308.842 191.936 308.674 191.924 308.458C191.912 308.194 191.906 307.846 191.906 307.414C191.906 306.982 191.906 306.694 191.906 306.55V295.066C191.906 294.946 191.894 294.838 191.87 294.742C191.846 294.646 191.81 294.562 191.762 294.49C191.714 294.43 191.66 294.37 191.6 294.31C191.54 294.238 191.468 294.178 191.384 294.13C191.3 294.07 191.21 294.016 191.114 293.968C191.03 293.92 190.94 293.872 190.844 293.824C190.76 293.788 190.664 293.752 190.556 293.716C190.46 293.668 190.376 293.632 190.304 293.608C190.232 293.584 190.154 293.554 190.07 293.518C189.998 293.482 189.962 293.434 189.962 293.374C189.962 293.302 190.01 293.248 190.106 293.212C190.202 293.176 190.31 293.158 190.43 293.158C190.502 293.158 190.646 293.176 190.862 293.212C191.09 293.236 191.306 293.278 191.51 293.338C191.654 293.374 191.822 293.422 192.014 293.482C192.206 293.53 192.386 293.584 192.554 293.644C192.674 293.692 192.782 293.746 192.878 293.806C192.986 293.866 193.04 293.944 193.04 294.04C193.04 294.088 193.028 294.148 193.004 294.22C192.98 294.28 192.956 294.352 192.932 294.436C192.92 294.508 192.908 294.604 192.896 294.724C192.884 294.844 192.878 294.934 192.878 294.994V306.01ZM192.464 319.548C192.608 319.548 192.734 319.536 192.842 319.512C192.962 319.476 193.082 319.416 193.202 319.332C193.274 319.272 193.34 319.212 193.4 319.152C193.472 319.08 193.52 319.026 193.544 318.99C193.676 319.002 193.814 319.014 193.958 319.026C194.102 319.038 194.246 319.056 194.39 319.08C194.618 319.104 194.81 319.164 194.966 319.26C195.122 319.344 195.2 319.488 195.2 319.692C195.2 319.848 195.158 319.962 195.074 320.034C194.99 320.094 194.882 320.124 194.75 320.124H192.248V321.834C192.248 322.026 192.242 322.272 192.23 322.572C192.23 322.872 192.224 323.124 192.212 323.328C192.2 323.544 192.188 323.778 192.176 324.03C192.164 324.282 192.152 324.444 192.14 324.516C192.128 324.6 192.11 324.714 192.086 324.858C192.074 324.99 192.056 325.122 192.032 325.254C192.02 325.362 191.996 325.464 191.96 325.56C191.924 325.644 191.894 325.716 191.87 325.776C191.846 325.824 191.816 325.866 191.78 325.902C191.744 325.926 191.708 325.938 191.672 325.938C191.612 325.938 191.564 325.914 191.528 325.866C191.504 325.818 191.48 325.77 191.456 325.722C191.444 325.674 191.426 325.614 191.402 325.542C191.39 325.47 191.378 325.398 191.366 325.326C191.354 325.242 191.342 325.152 191.33 325.056C191.33 324.948 191.324 324.822 191.312 324.678C191.3 324.474 191.288 324.204 191.276 323.868C191.276 323.532 191.276 323.268 191.276 323.076V315.048C191.276 314.928 191.258 314.82 191.222 314.724C191.198 314.616 191.162 314.532 191.114 314.472C191.066 314.412 191.012 314.352 190.952 314.292C190.892 314.232 190.826 314.178 190.754 314.13C190.67 314.07 190.574 314.016 190.466 313.968C190.37 313.908 190.286 313.86 190.214 313.824C190.13 313.788 190.04 313.752 189.944 313.716C189.848 313.668 189.764 313.632 189.692 313.608C189.632 313.584 189.56 313.554 189.476 313.518C189.392 313.482 189.35 313.434 189.35 313.374C189.35 313.302 189.398 313.248 189.494 313.212C189.59 313.176 189.698 313.158 189.818 313.158C189.89 313.158 190.046 313.176 190.286 313.212C190.526 313.248 190.742 313.29 190.934 313.338C191.09 313.374 191.246 313.416 191.402 313.464C191.57 313.512 191.738 313.566 191.906 313.626C192.026 313.674 192.14 313.728 192.248 313.788C192.356 313.848 192.41 313.926 192.41 314.022C192.41 314.07 192.398 314.13 192.374 314.202C192.35 314.274 192.326 314.352 192.302 314.436C192.29 314.508 192.278 314.604 192.266 314.724C192.254 314.844 192.248 314.934 192.248 314.994V319.548H192.464ZM181.754 322.608C181.742 322.728 181.73 322.83 181.718 322.914C181.718 322.986 181.712 323.052 181.7 323.112C181.688 323.184 181.67 323.268 181.646 323.364C181.634 323.448 181.616 323.514 181.592 323.562C181.58 323.61 181.55 323.658 181.502 323.706C181.466 323.754 181.424 323.778 181.376 323.778C181.328 323.778 181.286 323.76 181.25 323.724C181.214 323.688 181.184 323.646 181.16 323.598C181.148 323.562 181.13 323.502 181.106 323.418C181.082 323.322 181.058 323.226 181.034 323.13C181.022 323.022 181.01 322.914 180.998 322.806C180.986 322.686 180.974 322.566 180.962 322.446C180.95 322.314 180.938 322.182 180.926 322.05C180.926 321.906 180.92 321.72 180.908 321.492L180.71 316.11C180.698 316.014 180.674 315.936 180.638 315.876C180.602 315.816 180.554 315.762 180.494 315.714C180.458 315.69 180.398 315.66 180.314 315.624C180.242 315.588 180.176 315.564 180.116 315.552C180.068 315.528 179.996 315.51 179.9 315.498C179.816 315.474 179.75 315.456 179.702 315.444C179.654 315.432 179.588 315.42 179.504 315.408C179.42 315.384 179.378 315.33 179.378 315.246C179.378 315.186 179.408 315.132 179.468 315.084C179.54 315.036 179.6 315.006 179.648 314.994C179.708 314.97 179.792 314.952 179.9 314.94C180.008 314.928 180.104 314.922 180.188 314.922C180.284 314.922 180.41 314.928 180.566 314.94C180.722 314.94 180.878 314.952 181.034 314.976C181.13 314.988 181.244 315.006 181.376 315.03C181.52 315.054 181.628 315.078 181.7 315.102C181.736 315.114 181.766 315.132 181.79 315.156C181.814 315.168 181.832 315.192 181.844 315.228H186.722L187.1 314.976C187.196 314.976 187.304 314.982 187.424 314.994C187.556 314.994 187.706 315.006 187.874 315.03C188.042 315.042 188.162 315.072 188.234 315.12C188.306 315.168 188.342 315.222 188.342 315.282C188.342 315.33 188.33 315.39 188.306 315.462C188.282 315.534 188.258 315.6 188.234 315.66C188.222 315.708 188.204 315.774 188.18 315.858C188.156 315.942 188.138 316.014 188.126 316.074L187.694 321.87C187.79 321.918 187.904 321.984 188.036 322.068C188.168 322.152 188.234 322.248 188.234 322.356C188.234 322.44 188.21 322.506 188.162 322.554C188.114 322.59 188.024 322.608 187.892 322.608H181.754ZM181.79 321.33C181.79 321.414 181.79 321.522 181.79 321.654C181.79 321.774 181.784 321.9 181.772 322.032H186.74L187.01 321.798V315.804H181.79V321.33ZM183.68 325.128C183.764 325.152 183.848 325.194 183.932 325.254C184.016 325.302 184.058 325.362 184.058 325.434C184.058 325.518 184.04 325.608 184.004 325.704C183.98 325.8 183.968 325.962 183.968 326.19V328.332C183.968 328.548 184.046 328.686 184.202 328.746C184.358 328.818 184.586 328.854 184.886 328.854H188.468C188.888 328.854 189.224 328.842 189.476 328.818C189.74 328.794 189.944 328.758 190.088 328.71C190.232 328.662 190.352 328.608 190.448 328.548C190.556 328.488 190.64 328.428 190.7 328.368C190.94 328.38 191.198 328.392 191.474 328.404C191.762 328.428 192.038 328.452 192.302 328.476C192.71 328.524 192.992 328.59 193.148 328.674C193.316 328.758 193.4 328.896 193.4 329.088C193.4 329.208 193.364 329.298 193.292 329.358C193.232 329.418 193.142 329.448 193.022 329.448H184.724C184.268 329.448 183.86 329.388 183.5 329.268C183.14 329.148 182.96 328.83 182.96 328.314V326.226C182.96 326.118 182.93 326.028 182.87 325.956C182.822 325.872 182.768 325.806 182.708 325.758C182.66 325.71 182.582 325.662 182.474 325.614C182.378 325.554 182.288 325.506 182.204 325.47C182.084 325.41 181.964 325.362 181.844 325.326C181.724 325.278 181.622 325.242 181.538 325.218C181.478 325.194 181.406 325.17 181.322 325.146C181.238 325.122 181.196 325.086 181.196 325.038C181.196 324.954 181.244 324.888 181.34 324.84C181.436 324.792 181.562 324.768 181.718 324.768C181.802 324.768 181.952 324.786 182.168 324.822C182.384 324.846 182.564 324.87 182.708 324.894C182.864 324.918 183.038 324.954 183.23 325.002C183.422 325.05 183.572 325.092 183.68 325.128ZM198.227 327.162C198.227 327.39 198.209 327.606 198.173 327.81C198.149 328.014 198.101 328.224 198.029 328.44C197.945 328.68 197.855 328.878 197.759 329.034C197.675 329.202 197.573 329.364 197.453 329.52C197.333 329.688 197.195 329.85 197.039 330.006C196.883 330.162 196.739 330.3 196.607 330.42C196.523 330.468 196.451 330.468 196.391 330.42C196.331 330.372 196.331 330.306 196.391 330.222C196.451 330.138 196.517 330.048 196.589 329.952C196.661 329.856 196.727 329.766 196.787 329.682C196.847 329.598 196.913 329.496 196.985 329.376C197.057 329.256 197.117 329.136 197.165 329.016C197.213 328.92 197.261 328.8 197.309 328.656C197.357 328.524 197.381 328.422 197.381 328.35C197.381 328.29 197.351 328.23 197.291 328.17C197.231 328.122 197.165 328.086 197.093 328.062C196.985 328.026 196.883 327.984 196.787 327.936C196.691 327.876 196.607 327.804 196.535 327.72C196.451 327.624 196.385 327.522 196.337 327.414C196.301 327.306 196.283 327.186 196.283 327.054C196.283 326.91 196.307 326.784 196.355 326.676C196.415 326.556 196.487 326.454 196.571 326.37C196.667 326.274 196.775 326.208 196.895 326.172C197.027 326.136 197.135 326.118 197.219 326.118C197.351 326.118 197.477 326.148 197.597 326.208C197.717 326.268 197.813 326.328 197.885 326.388C197.981 326.472 198.059 326.586 198.119 326.73C198.191 326.874 198.227 327.018 198.227 327.162Z" fill="black"/>
<path d="M216.426 283.094C216.594 283.07 216.756 283.052 216.912 283.04C217.08 283.028 217.242 283.016 217.398 283.004C217.71 282.98 218.088 282.95 218.532 282.914C218.976 282.866 219.366 282.824 219.702 282.788C219.942 282.764 220.248 282.728 220.62 282.68C220.992 282.632 221.31 282.584 221.574 282.536C221.718 282.512 221.802 282.56 221.826 282.68C221.85 282.8 221.784 282.89 221.628 282.95C221.364 283.022 221.028 283.094 220.62 283.166C220.212 283.226 219.852 283.286 219.54 283.346C219.108 283.418 218.676 283.484 218.244 283.544C217.812 283.592 217.398 283.646 217.002 283.706C216.666 283.754 216.33 283.796 215.994 283.832C215.658 283.856 215.334 283.886 215.022 283.922C214.686 283.958 214.302 284.006 213.87 284.066C213.45 284.114 213.126 284.15 212.898 284.174C212.778 284.186 212.67 284.216 212.574 284.264C212.478 284.3 212.388 284.354 212.304 284.426C212.256 284.426 212.16 284.396 212.016 284.336C211.872 284.264 211.734 284.192 211.602 284.12C211.482 284.06 211.35 283.988 211.206 283.904C211.074 283.82 210.954 283.742 210.846 283.67C210.738 283.598 210.63 283.52 210.522 283.436C210.414 283.352 210.36 283.274 210.36 283.202C210.36 283.13 210.384 283.076 210.432 283.04C210.492 283.004 210.564 282.998 210.648 283.022C210.78 283.046 210.906 283.07 211.026 283.094C211.158 283.118 211.29 283.142 211.422 283.166C211.626 283.19 211.842 283.214 212.07 283.238C212.31 283.25 212.532 283.256 212.736 283.256C213.096 283.244 213.498 283.232 213.942 283.22C214.386 283.196 214.746 283.178 215.022 283.166C215.082 283.166 215.148 283.166 215.22 283.166C215.292 283.154 215.37 283.148 215.454 283.148V281.69C215.226 281.666 215.004 281.642 214.788 281.618C214.584 281.594 214.416 281.576 214.284 281.564C214.104 281.54 213.912 281.504 213.708 281.456C213.504 281.396 213.354 281.342 213.258 281.294C213.138 281.234 213.024 281.174 212.916 281.114C212.808 281.054 212.712 280.988 212.628 280.916C212.544 280.832 212.466 280.754 212.394 280.682C212.334 280.61 212.274 280.526 212.214 280.43C212.166 280.334 212.118 280.208 212.07 280.052C212.022 279.884 211.998 279.722 211.998 279.566C211.998 279.398 212.022 279.236 212.07 279.08C212.118 278.924 212.166 278.798 212.214 278.702C212.274 278.606 212.334 278.522 212.394 278.45C212.466 278.378 212.544 278.3 212.628 278.216C212.712 278.144 212.808 278.078 212.916 278.018C213.024 277.946 213.138 277.886 213.258 277.838C213.354 277.79 213.504 277.742 213.708 277.694C213.912 277.634 214.104 277.592 214.284 277.568C214.452 277.544 214.692 277.52 215.004 277.496C215.316 277.46 215.622 277.442 215.922 277.442C216.234 277.442 216.546 277.46 216.858 277.496C217.17 277.52 217.404 277.544 217.56 277.568C217.74 277.592 217.932 277.634 218.136 277.694C218.34 277.742 218.49 277.79 218.586 277.838C218.718 277.886 218.832 277.946 218.928 278.018C219.036 278.078 219.132 278.144 219.216 278.216C219.312 278.3 219.39 278.378 219.45 278.45C219.522 278.522 219.582 278.606 219.63 278.702C219.69 278.798 219.738 278.924 219.774 279.08C219.822 279.236 219.846 279.398 219.846 279.566C219.846 279.722 219.822 279.884 219.774 280.052C219.738 280.208 219.69 280.334 219.63 280.43C219.582 280.526 219.522 280.61 219.45 280.682C219.39 280.754 219.312 280.832 219.216 280.916C219.132 280.988 219.036 281.054 218.928 281.114C218.832 281.174 218.718 281.234 218.586 281.294C218.49 281.342 218.34 281.396 218.136 281.456C217.932 281.504 217.74 281.54 217.56 281.564C217.44 281.576 217.278 281.594 217.074 281.618C216.882 281.642 216.666 281.666 216.426 281.69V283.094ZM215.922 281.15C216.198 281.15 216.456 281.138 216.696 281.114C216.948 281.078 217.128 281.054 217.236 281.042C217.38 281.018 217.506 280.988 217.614 280.952C217.734 280.916 217.836 280.88 217.92 280.844C218.028 280.796 218.124 280.748 218.208 280.7C218.304 280.64 218.376 280.586 218.424 280.538C218.496 280.466 218.556 280.394 218.604 280.322C218.652 280.25 218.688 280.178 218.712 280.106C218.736 280.046 218.76 279.962 218.784 279.854C218.808 279.746 218.82 279.65 218.82 279.566C218.82 279.482 218.808 279.386 218.784 279.278C218.76 279.17 218.736 279.086 218.712 279.026C218.688 278.954 218.652 278.882 218.604 278.81C218.556 278.738 218.496 278.666 218.424 278.594C218.376 278.534 218.304 278.48 218.208 278.432C218.124 278.384 218.028 278.336 217.92 278.288C217.836 278.252 217.734 278.216 217.614 278.18C217.506 278.144 217.38 278.114 217.236 278.09C217.128 278.066 216.948 278.042 216.696 278.018C216.456 277.994 216.198 277.982 215.922 277.982C215.658 277.982 215.4 277.994 215.148 278.018C214.896 278.042 214.716 278.066 214.608 278.09C214.464 278.114 214.332 278.144 214.212 278.18C214.104 278.216 214.008 278.252 213.924 278.288C213.816 278.336 213.72 278.384 213.636 278.432C213.552 278.48 213.48 278.534 213.42 278.594C213.348 278.666 213.288 278.738 213.24 278.81C213.192 278.882 213.156 278.954 213.132 279.026C213.108 279.086 213.084 279.17 213.06 279.278C213.036 279.386 213.024 279.482 213.024 279.566C213.024 279.65 213.036 279.746 213.06 279.854C213.084 279.962 213.108 280.046 213.132 280.106C213.156 280.178 213.192 280.25 213.24 280.322C213.288 280.394 213.348 280.466 213.42 280.538C213.48 280.586 213.552 280.64 213.636 280.7C213.72 280.748 213.816 280.796 213.924 280.844C214.008 280.88 214.104 280.916 214.212 280.952C214.332 280.988 214.464 281.018 214.608 281.042C214.716 281.054 214.896 281.078 215.148 281.114C215.4 281.138 215.658 281.15 215.922 281.15ZM214.896 276.47C214.668 276.47 214.38 276.482 214.032 276.506C213.684 276.518 213.462 276.536 213.366 276.56C213.21 276.584 213.066 276.614 212.934 276.65C212.802 276.686 212.706 276.716 212.646 276.74C212.586 276.764 212.52 276.794 212.448 276.83C212.376 276.866 212.31 276.902 212.25 276.938C212.226 276.938 212.16 276.914 212.052 276.866C211.944 276.818 211.836 276.77 211.728 276.722C211.596 276.662 211.464 276.602 211.332 276.542C211.212 276.47 211.086 276.392 210.954 276.308C210.87 276.248 210.78 276.182 210.684 276.11C210.588 276.038 210.54 275.966 210.54 275.894C210.54 275.834 210.564 275.792 210.612 275.768C210.66 275.744 210.72 275.738 210.792 275.75C210.852 275.762 210.948 275.78 211.08 275.804C211.224 275.816 211.35 275.828 211.458 275.84C211.578 275.852 211.818 275.87 212.178 275.894C212.55 275.906 212.898 275.912 213.222 275.912H216.84C217.044 275.912 217.278 275.906 217.542 275.894C217.806 275.882 218.028 275.852 218.208 275.804C218.328 275.78 218.442 275.738 218.55 275.678C218.67 275.618 218.754 275.564 218.802 275.516C218.97 275.528 219.12 275.54 219.252 275.552C219.384 275.552 219.522 275.564 219.666 275.588C219.774 275.6 219.882 275.618 219.99 275.642C220.098 275.654 220.212 275.672 220.332 275.696C220.44 275.72 220.542 275.768 220.638 275.84C220.746 275.912 220.8 276.032 220.8 276.2C220.8 276.32 220.77 276.416 220.71 276.488C220.65 276.548 220.56 276.578 220.44 276.578C220.392 276.578 220.29 276.572 220.134 276.56C219.99 276.548 219.858 276.536 219.738 276.524C219.618 276.512 219.372 276.5 219 276.488C218.64 276.476 218.364 276.47 218.172 276.47H214.896ZM214.59 274.778C214.35 274.778 214.128 274.754 213.924 274.706C213.72 274.646 213.534 274.568 213.366 274.472C213.246 274.4 213.12 274.31 212.988 274.202C212.856 274.094 212.79 273.992 212.79 273.896C212.79 273.836 212.82 273.794 212.88 273.77C212.94 273.746 212.994 273.746 213.042 273.77C213.126 273.794 213.222 273.824 213.33 273.86C213.45 273.884 213.552 273.908 213.636 273.932C213.768 273.956 213.954 273.986 214.194 274.022C214.434 274.046 214.722 274.058 215.058 274.058H215.904C216.168 274.058 216.378 274.04 216.534 274.004C216.69 273.968 216.81 273.908 216.894 273.824C217.026 273.836 217.164 273.848 217.308 273.86C217.464 273.86 217.62 273.872 217.776 273.896C217.92 273.908 218.07 273.95 218.226 274.022C218.382 274.082 218.46 274.208 218.46 274.4C218.46 274.52 218.418 274.616 218.334 274.688C218.25 274.748 218.136 274.778 217.992 274.778H214.59ZM222.294 285.794H217.866C217.458 285.794 217.062 285.806 216.678 285.83C216.306 285.842 215.994 285.86 215.742 285.884C215.586 285.896 215.442 285.92 215.31 285.956C215.19 285.98 215.07 286.01 214.95 286.046C214.866 286.07 214.77 286.106 214.662 286.154C214.554 286.202 214.47 286.244 214.41 286.28C214.374 286.28 214.284 286.256 214.14 286.208C213.996 286.16 213.87 286.112 213.762 286.064C213.618 286.004 213.45 285.932 213.258 285.848C213.066 285.764 212.91 285.686 212.79 285.614C212.694 285.554 212.592 285.494 212.484 285.434C212.388 285.362 212.34 285.284 212.34 285.2C212.34 285.14 212.358 285.098 212.394 285.074C212.442 285.038 212.508 285.026 212.592 285.038C212.724 285.05 212.886 285.068 213.078 285.092C213.27 285.116 213.432 285.134 213.564 285.146C213.744 285.158 214.026 285.176 214.41 285.2C214.806 285.212 215.316 285.218 215.94 285.218H221.988L222.312 284.966C222.456 284.978 222.576 284.99 222.672 285.002C222.78 285.002 222.87 285.008 222.942 285.02C223.038 285.032 223.14 285.056 223.248 285.092C223.356 285.128 223.41 285.182 223.41 285.254C223.41 285.338 223.386 285.44 223.338 285.56C223.29 285.68 223.266 285.83 223.266 286.01V287.09C223.266 287.21 223.26 287.366 223.248 287.558C223.248 287.75 223.242 287.93 223.23 288.098C223.218 288.23 223.206 288.398 223.194 288.602C223.182 288.806 223.164 288.962 223.14 289.07C223.128 289.178 223.11 289.274 223.086 289.358C223.074 289.454 223.056 289.532 223.032 289.592C223.02 289.652 222.996 289.712 222.96 289.772C222.936 289.844 222.912 289.898 222.888 289.934C222.864 289.982 222.834 290.018 222.798 290.042C222.762 290.066 222.726 290.078 222.69 290.078C222.654 290.078 222.618 290.06 222.582 290.024C222.546 290 222.516 289.964 222.492 289.916C222.468 289.856 222.444 289.79 222.42 289.718C222.408 289.646 222.396 289.58 222.384 289.52C222.372 289.472 222.36 289.394 222.348 289.286C222.348 289.19 222.342 289.094 222.33 288.998C222.318 288.89 222.306 288.71 222.294 288.458C222.294 288.218 222.294 288.002 222.294 287.81V285.794ZM223.554 279.458C223.698 279.458 223.824 279.446 223.932 279.422C224.052 279.386 224.172 279.326 224.292 279.242C224.364 279.182 224.43 279.122 224.49 279.062C224.562 278.99 224.61 278.936 224.634 278.9C224.766 278.912 224.904 278.924 225.048 278.936C225.192 278.948 225.336 278.966 225.48 278.99C225.708 279.014 225.9 279.074 226.056 279.17C226.212 279.254 226.29 279.398 226.29 279.602C226.29 279.758 226.248 279.872 226.164 279.944C226.08 280.004 225.972 280.034 225.84 280.034H223.32V281.168C223.32 281.336 223.314 281.528 223.302 281.744C223.302 281.948 223.296 282.134 223.284 282.302C223.272 282.494 223.26 282.698 223.248 282.914C223.236 283.118 223.224 283.256 223.212 283.328C223.2 283.412 223.182 283.532 223.158 283.688C223.146 283.844 223.128 283.958 223.104 284.03C223.092 284.114 223.068 284.198 223.032 284.282C222.996 284.366 222.966 284.432 222.942 284.48C222.918 284.528 222.882 284.57 222.834 284.606C222.798 284.63 222.768 284.642 222.744 284.642C222.708 284.642 222.672 284.63 222.636 284.606C222.6 284.57 222.57 284.528 222.546 284.48C222.522 284.42 222.498 284.354 222.474 284.282C222.462 284.21 222.45 284.138 222.438 284.066C222.426 284.006 222.414 283.934 222.402 283.85C222.402 283.754 222.396 283.628 222.384 283.472C222.372 283.28 222.36 283.04 222.348 282.752C222.348 282.452 222.348 282.218 222.348 282.05V275.048C222.348 274.928 222.33 274.82 222.294 274.724C222.27 274.616 222.234 274.532 222.186 274.472C222.138 274.412 222.084 274.352 222.024 274.292C221.964 274.232 221.898 274.178 221.826 274.13C221.742 274.07 221.646 274.016 221.538 273.968C221.442 273.908 221.358 273.86 221.286 273.824C221.202 273.788 221.112 273.752 221.016 273.716C220.92 273.668 220.836 273.632 220.764 273.608C220.704 273.584 220.632 273.554 220.548 273.518C220.464 273.482 220.422 273.434 220.422 273.374C220.422 273.302 220.47 273.248 220.566 273.212C220.662 273.176 220.77 273.158 220.89 273.158C220.962 273.158 221.118 273.176 221.358 273.212C221.598 273.248 221.814 273.29 222.006 273.338C222.162 273.374 222.318 273.416 222.474 273.464C222.642 273.512 222.81 273.566 222.978 273.626C223.098 273.674 223.212 273.728 223.32 273.788C223.428 273.848 223.482 273.926 223.482 274.022C223.482 274.07 223.47 274.13 223.446 274.202C223.422 274.274 223.398 274.352 223.374 274.436C223.362 274.508 223.35 274.604 223.338 274.724C223.326 274.844 223.32 274.934 223.32 274.994V279.458H223.554ZM215.148 297.622C215.28 297.754 215.412 297.892 215.544 298.036C215.676 298.18 215.802 298.306 215.922 298.414C216.054 298.534 216.192 298.66 216.336 298.792C216.492 298.924 216.636 299.038 216.768 299.134C216.9 299.23 217.044 299.326 217.2 299.422C217.356 299.518 217.5 299.596 217.632 299.656C217.728 299.704 217.842 299.746 217.974 299.782C218.106 299.818 218.214 299.848 218.298 299.872C218.358 299.944 218.436 300.04 218.532 300.16C218.64 300.28 218.724 300.388 218.784 300.484C218.868 300.592 218.946 300.7 219.018 300.808C219.09 300.904 219.168 301.018 219.252 301.15C219.348 301.282 219.426 301.42 219.486 301.564C219.546 301.708 219.576 301.828 219.576 301.924C219.576 302.044 219.546 302.128 219.486 302.176C219.438 302.224 219.372 302.248 219.288 302.248C219.228 302.248 219.162 302.23 219.09 302.194C219.03 302.158 218.97 302.122 218.91 302.086C218.79 301.99 218.652 301.876 218.496 301.744C218.352 301.6 218.214 301.468 218.082 301.348C217.902 301.18 217.698 300.994 217.47 300.79C217.254 300.586 217.044 300.388 216.84 300.196C216.612 299.992 216.402 299.8 216.21 299.62C216.018 299.428 215.82 299.236 215.616 299.044C215.496 298.924 215.358 298.792 215.202 298.648C215.046 298.492 214.902 298.348 214.77 298.216C214.662 298.408 214.548 298.594 214.428 298.774C214.308 298.942 214.182 299.11 214.05 299.278C213.87 299.506 213.684 299.734 213.492 299.962C213.312 300.19 213.138 300.388 212.97 300.556C212.802 300.748 212.61 300.946 212.394 301.15C212.19 301.354 212.01 301.528 211.854 301.672C211.686 301.828 211.482 302.008 211.242 302.212C211.014 302.404 210.816 302.566 210.648 302.698C210.54 302.782 210.432 302.788 210.324 302.716C210.228 302.632 210.234 302.542 210.342 302.446C210.474 302.314 210.618 302.164 210.774 301.996C210.942 301.816 211.104 301.63 211.26 301.438C211.392 301.294 211.542 301.12 211.71 300.916C211.878 300.7 212.04 300.496 212.196 300.304C212.328 300.136 212.472 299.944 212.628 299.728C212.796 299.5 212.94 299.296 213.06 299.116C213.168 298.96 213.282 298.786 213.402 298.594C213.534 298.39 213.648 298.204 213.744 298.036C213.84 297.868 213.942 297.682 214.05 297.478C214.17 297.274 214.272 297.082 214.356 296.902C214.428 296.758 214.506 296.59 214.59 296.398C214.674 296.206 214.746 296.032 214.806 295.876C214.866 295.744 214.92 295.606 214.968 295.462C215.016 295.318 215.058 295.186 215.094 295.066C215.082 295.006 215.052 294.952 215.004 294.904C214.968 294.856 214.926 294.808 214.878 294.76C214.83 294.712 214.782 294.67 214.734 294.634C214.686 294.598 214.632 294.562 214.572 294.526C214.524 294.49 214.458 294.454 214.374 294.418C214.302 294.37 214.236 294.334 214.176 294.31C214.128 294.286 214.062 294.256 213.978 294.22C213.906 294.172 213.87 294.124 213.87 294.076C213.87 294.016 213.894 293.968 213.942 293.932C214.002 293.896 214.086 293.878 214.194 293.878C214.242 293.878 214.332 293.89 214.464 293.914C214.596 293.938 214.71 293.962 214.806 293.986C214.902 294.01 215.01 294.04 215.13 294.076C215.25 294.112 215.37 294.154 215.49 294.202C215.598 294.238 215.7 294.28 215.796 294.328C215.904 294.364 216 294.406 216.084 294.454C216.168 294.502 216.234 294.55 216.282 294.598C216.33 294.646 216.354 294.7 216.354 294.76C216.342 294.82 216.312 294.934 216.264 295.102C216.216 295.258 216.162 295.408 216.102 295.552C216.042 295.732 215.97 295.924 215.886 296.128C215.802 296.332 215.718 296.518 215.634 296.686C215.574 296.818 215.502 296.968 215.418 297.136C215.334 297.292 215.244 297.454 215.148 297.622ZM223.878 299.242C223.878 299.41 223.872 299.596 223.86 299.8C223.86 299.992 223.854 300.172 223.842 300.34C223.83 300.532 223.818 300.736 223.806 300.952C223.794 301.156 223.782 301.294 223.77 301.366C223.758 301.45 223.74 301.57 223.716 301.726C223.704 301.882 223.686 301.996 223.662 302.068C223.65 302.152 223.626 302.236 223.59 302.32C223.554 302.404 223.524 302.47 223.5 302.518C223.476 302.566 223.44 302.608 223.392 302.644C223.356 302.668 223.326 302.68 223.302 302.68C223.266 302.68 223.23 302.668 223.194 302.644C223.158 302.608 223.128 302.566 223.104 302.518C223.08 302.458 223.056 302.392 223.032 302.32C223.02 302.248 223.008 302.176 222.996 302.104C222.984 302.044 222.972 301.972 222.96 301.888C222.96 301.792 222.954 301.666 222.942 301.51C222.93 301.318 222.918 301.078 222.906 300.79C222.906 300.49 222.906 300.256 222.906 300.088V295.048C222.906 294.928 222.888 294.82 222.852 294.724C222.828 294.616 222.792 294.532 222.744 294.472C222.696 294.412 222.642 294.352 222.582 294.292C222.522 294.232 222.456 294.178 222.384 294.13C222.3 294.07 222.204 294.016 222.096 293.968C222 293.908 221.916 293.86 221.844 293.824C221.76 293.788 221.67 293.752 221.574 293.716C221.478 293.668 221.394 293.632 221.322 293.608C221.262 293.584 221.19 293.554 221.106 293.518C221.022 293.482 220.98 293.434 220.98 293.374C220.98 293.302 221.028 293.248 221.124 293.212C221.22 293.176 221.328 293.158 221.448 293.158C221.52 293.158 221.676 293.176 221.916 293.212C222.156 293.248 222.372 293.29 222.564 293.338C222.72 293.374 222.876 293.416 223.032 293.464C223.2 293.512 223.368 293.566 223.536 293.626C223.656 293.674 223.77 293.728 223.878 293.788C223.986 293.848 224.04 293.926 224.04 294.022C224.04 294.07 224.028 294.13 224.004 294.202C223.98 294.274 223.956 294.352 223.932 294.436C223.92 294.508 223.908 294.604 223.896 294.724C223.884 294.844 223.878 294.934 223.878 294.994V299.242ZM222.582 305.992L222.78 305.794V303.85H217.992C217.692 303.85 217.362 303.856 217.002 303.868C216.654 303.88 216.396 303.898 216.228 303.922C216.084 303.934 215.94 303.958 215.796 303.994C215.664 304.018 215.55 304.048 215.454 304.084C215.37 304.12 215.298 304.156 215.238 304.192C215.178 304.228 215.118 304.264 215.058 304.3C215.022 304.3 214.962 304.288 214.878 304.264C214.794 304.228 214.716 304.198 214.644 304.174C214.572 304.15 214.488 304.12 214.392 304.084C214.296 304.036 214.2 303.988 214.104 303.94C214.008 303.892 213.9 303.844 213.78 303.796C213.672 303.736 213.582 303.682 213.51 303.634C213.438 303.586 213.354 303.532 213.258 303.472C213.174 303.4 213.132 303.334 213.132 303.274C213.132 303.214 213.156 303.172 213.204 303.148C213.264 303.124 213.318 303.118 213.366 303.13C213.45 303.142 213.552 303.154 213.672 303.166C213.804 303.178 213.93 303.19 214.05 303.202C214.17 303.214 214.434 303.232 214.842 303.256C215.25 303.268 215.784 303.274 216.444 303.274H222.492L222.834 303.04C222.966 303.052 223.104 303.064 223.248 303.076C223.404 303.076 223.554 303.088 223.698 303.112C223.83 303.124 223.926 303.154 223.986 303.202C224.046 303.238 224.076 303.292 224.076 303.364C224.076 303.436 224.046 303.526 223.986 303.634C223.938 303.742 223.89 303.862 223.842 303.994L223.5 305.812C223.92 306.064 224.076 306.25 223.968 306.37C223.872 306.49 223.752 306.55 223.608 306.55H215.31V308.404C215.31 308.608 215.37 308.752 215.49 308.836C215.61 308.92 215.832 308.962 216.156 308.962H220.53C220.938 308.962 221.25 308.95 221.466 308.926C221.694 308.902 221.868 308.872 221.988 308.836C222.108 308.8 222.222 308.746 222.33 308.674C222.45 308.614 222.54 308.554 222.6 308.494C222.84 308.506 223.074 308.518 223.302 308.53C223.542 308.542 223.77 308.56 223.986 308.584C224.358 308.62 224.64 308.68 224.832 308.764C225.024 308.848 225.12 308.992 225.12 309.196C225.12 309.292 225.084 309.37 225.012 309.43C224.952 309.502 224.838 309.538 224.67 309.538H215.976C215.556 309.538 215.172 309.478 214.824 309.358C214.488 309.238 214.32 308.914 214.32 308.386V306.892C214.32 306.796 214.284 306.712 214.212 306.64C214.14 306.556 214.05 306.49 213.942 306.442C213.858 306.394 213.75 306.352 213.618 306.316C213.486 306.28 213.378 306.256 213.294 306.244C213.21 306.22 213.12 306.202 213.024 306.19C212.94 306.166 212.898 306.13 212.898 306.082C212.898 305.974 212.97 305.896 213.114 305.848C213.258 305.788 213.426 305.758 213.618 305.758C213.93 305.758 214.278 305.776 214.662 305.812C215.046 305.836 215.292 305.896 215.4 305.992H222.582ZM223.464 319.728C223.608 319.728 223.734 319.716 223.842 319.692C223.962 319.656 224.082 319.596 224.202 319.512C224.274 319.452 224.34 319.392 224.4 319.332C224.472 319.26 224.52 319.206 224.544 319.17C224.676 319.182 224.814 319.194 224.958 319.206C225.102 319.218 225.246 319.236 225.39 319.26C225.618 319.284 225.81 319.344 225.966 319.44C226.122 319.524 226.2 319.668 226.2 319.872C226.2 320.028 226.158 320.142 226.074 320.214C225.99 320.274 225.882 320.304 225.75 320.304H223.248V322.194C223.248 322.386 223.242 322.632 223.23 322.932C223.23 323.232 223.224 323.484 223.212 323.688C223.2 323.904 223.188 324.138 223.176 324.39C223.164 324.642 223.152 324.804 223.14 324.876C223.128 324.96 223.11 325.074 223.086 325.218C223.074 325.35 223.056 325.482 223.032 325.614C223.02 325.722 222.996 325.824 222.96 325.92C222.924 326.004 222.894 326.076 222.87 326.136C222.846 326.184 222.816 326.226 222.78 326.262C222.744 326.286 222.708 326.298 222.672 326.298C222.612 326.298 222.564 326.274 222.528 326.226C222.504 326.178 222.48 326.13 222.456 326.082C222.444 326.034 222.426 325.974 222.402 325.902C222.39 325.83 222.378 325.758 222.366 325.686C222.354 325.602 222.342 325.512 222.33 325.416C222.33 325.308 222.324 325.182 222.312 325.038C222.3 324.834 222.288 324.564 222.276 324.228C222.276 323.892 222.276 323.628 222.276 323.436V315.048C222.276 314.928 222.258 314.82 222.222 314.724C222.198 314.616 222.162 314.532 222.114 314.472C222.066 314.412 222.012 314.352 221.952 314.292C221.892 314.232 221.826 314.178 221.754 314.13C221.67 314.07 221.574 314.016 221.466 313.968C221.37 313.908 221.286 313.86 221.214 313.824C221.13 313.788 221.04 313.752 220.944 313.716C220.848 313.668 220.764 313.632 220.692 313.608C220.632 313.584 220.56 313.554 220.476 313.518C220.392 313.482 220.35 313.434 220.35 313.374C220.35 313.302 220.398 313.248 220.494 313.212C220.59 313.176 220.698 313.158 220.818 313.158C220.89 313.158 221.046 313.176 221.286 313.212C221.526 313.248 221.742 313.29 221.934 313.338C222.09 313.374 222.246 313.416 222.402 313.464C222.57 313.512 222.738 313.566 222.906 313.626C223.026 313.674 223.14 313.728 223.248 313.788C223.356 313.848 223.41 313.926 223.41 314.022C223.41 314.07 223.398 314.13 223.374 314.202C223.35 314.274 223.326 314.352 223.302 314.436C223.29 314.508 223.278 314.604 223.266 314.724C223.254 314.844 223.248 314.934 223.248 314.994V319.728H223.464ZM214.59 325.524C214.674 325.548 214.758 325.59 214.842 325.65C214.926 325.698 214.968 325.758 214.968 325.83C214.968 325.914 214.95 326.004 214.914 326.1C214.89 326.196 214.878 326.358 214.878 326.586V328.332C214.878 328.548 214.956 328.686 215.112 328.746C215.268 328.818 215.496 328.854 215.796 328.854H219.468C219.888 328.854 220.224 328.842 220.476 328.818C220.74 328.794 220.944 328.758 221.088 328.71C221.232 328.662 221.352 328.608 221.448 328.548C221.556 328.488 221.64 328.428 221.7 328.368C221.94 328.38 222.198 328.392 222.474 328.404C222.75 328.416 223.026 328.434 223.302 328.458C223.71 328.494 223.992 328.56 224.148 328.656C224.316 328.752 224.4 328.896 224.4 329.088C224.4 329.208 224.364 329.298 224.292 329.358C224.232 329.418 224.142 329.448 224.022 329.448H215.634C215.178 329.448 214.77 329.388 214.41 329.268C214.05 329.148 213.87 328.83 213.87 328.314V326.622C213.87 326.514 213.84 326.424 213.78 326.352C213.732 326.268 213.678 326.202 213.618 326.154C213.57 326.106 213.492 326.058 213.384 326.01C213.288 325.95 213.198 325.902 213.114 325.866C212.994 325.806 212.874 325.758 212.754 325.722C212.634 325.674 212.532 325.638 212.448 325.614C212.388 325.59 212.316 325.566 212.232 325.542C212.148 325.518 212.106 325.482 212.106 325.434C212.106 325.35 212.154 325.284 212.25 325.236C212.346 325.188 212.472 325.164 212.628 325.164C212.712 325.164 212.862 325.182 213.078 325.218C213.294 325.242 213.474 325.266 213.618 325.29C213.774 325.314 213.948 325.35 214.14 325.398C214.332 325.446 214.482 325.488 214.59 325.524ZM214.32 315.066C214.08 315.066 213.858 315.036 213.654 314.976C213.45 314.916 213.264 314.838 213.096 314.742C212.976 314.67 212.85 314.58 212.718 314.472C212.586 314.352 212.52 314.244 212.52 314.148C212.52 314.088 212.55 314.046 212.61 314.022C212.67 313.998 212.724 313.998 212.772 314.022C212.856 314.046 212.952 314.076 213.06 314.112C213.18 314.136 213.282 314.16 213.366 314.184C213.498 314.208 213.684 314.238 213.924 314.274C214.164 314.298 214.452 314.31 214.788 314.31H215.814C216.078 314.31 216.288 314.292 216.444 314.256C216.6 314.22 216.72 314.16 216.804 314.076C216.936 314.088 217.074 314.1 217.218 314.112C217.374 314.112 217.53 314.124 217.686 314.148C217.83 314.16 217.98 314.202 218.136 314.274C218.292 314.346 218.37 314.478 218.37 314.67C218.37 314.79 218.328 314.886 218.244 314.958C218.16 315.03 218.046 315.066 217.902 315.066H214.32ZM215.706 324.12C215.394 324.12 215.088 324.102 214.788 324.066C214.488 324.03 214.26 323.994 214.104 323.958C213.924 323.91 213.738 323.856 213.546 323.796C213.366 323.724 213.204 323.646 213.06 323.562C212.94 323.49 212.814 323.412 212.682 323.328C212.562 323.232 212.466 323.142 212.394 323.058C212.31 322.962 212.226 322.854 212.142 322.734C212.07 322.614 212.01 322.512 211.962 322.428C211.89 322.272 211.83 322.098 211.782 321.906C211.746 321.714 211.728 321.51 211.728 321.294C211.728 321.078 211.746 320.874 211.782 320.682C211.83 320.49 211.89 320.316 211.962 320.16C212.01 320.064 212.07 319.962 212.142 319.854C212.226 319.734 212.31 319.626 212.394 319.53C212.466 319.446 212.562 319.362 212.682 319.278C212.814 319.182 212.94 319.098 213.06 319.026C213.204 318.942 213.366 318.87 213.546 318.81C213.738 318.738 213.924 318.678 214.104 318.63C214.26 318.594 214.488 318.558 214.788 318.522C215.088 318.486 215.394 318.468 215.706 318.468C216.018 318.468 216.324 318.486 216.624 318.522C216.924 318.558 217.152 318.594 217.308 318.63C217.488 318.678 217.668 318.738 217.848 318.81C218.04 318.87 218.208 318.942 218.352 319.026C218.484 319.098 218.61 319.182 218.73 319.278C218.85 319.362 218.946 319.446 219.018 319.53C219.114 319.626 219.198 319.734 219.27 319.854C219.342 319.962 219.402 320.064 219.45 320.16C219.522 320.316 219.576 320.49 219.612 320.682C219.66 320.874 219.684 321.078 219.684 321.294C219.684 321.51 219.66 321.714 219.612 321.906C219.576 322.098 219.522 322.272 219.45 322.428C219.402 322.512 219.342 322.614 219.27 322.734C219.198 322.854 219.114 322.962 219.018 323.058C218.946 323.142 218.85 323.232 218.73 323.328C218.61 323.412 218.484 323.49 218.352 323.562C218.208 323.646 218.04 323.724 217.848 323.796C217.668 323.856 217.488 323.91 217.308 323.958C217.152 323.994 216.924 324.03 216.624 324.066C216.324 324.102 216.018 324.12 215.706 324.12ZM215.706 323.526C215.982 323.526 216.234 323.514 216.462 323.49C216.702 323.454 216.888 323.418 217.02 323.382C217.152 323.346 217.284 323.298 217.416 323.238C217.56 323.166 217.674 323.106 217.758 323.058C217.842 322.998 217.926 322.932 218.01 322.86C218.106 322.788 218.184 322.71 218.244 322.626C218.328 322.518 218.394 322.41 218.442 322.302C218.502 322.182 218.544 322.08 218.568 321.996C218.592 321.912 218.616 321.804 218.64 321.672C218.664 321.528 218.676 321.396 218.676 321.276C218.676 321.156 218.664 321.03 218.64 320.898C218.616 320.754 218.592 320.64 218.568 320.556C218.544 320.46 218.502 320.358 218.442 320.25C218.394 320.142 218.328 320.034 218.244 319.926C218.184 319.842 218.106 319.764 218.01 319.692C217.926 319.608 217.842 319.542 217.758 319.494C217.674 319.434 217.56 319.374 217.416 319.314C217.284 319.254 217.152 319.206 217.02 319.17C216.888 319.134 216.702 319.104 216.462 319.08C216.234 319.044 215.982 319.026 215.706 319.026C215.442 319.026 215.19 319.044 214.95 319.08C214.722 319.104 214.542 319.134 214.41 319.17C214.29 319.206 214.158 319.254 214.014 319.314C213.882 319.374 213.768 319.434 213.672 319.494C213.588 319.542 213.498 319.608 213.402 319.692C213.318 319.764 213.246 319.842 213.186 319.926C213.102 320.034 213.03 320.142 212.97 320.25C212.922 320.358 212.886 320.46 212.862 320.556C212.838 320.64 212.814 320.754 212.79 320.898C212.766 321.03 212.754 321.156 212.754 321.276C212.754 321.396 212.766 321.528 212.79 321.672C212.814 321.804 212.838 321.912 212.862 321.996C212.886 322.08 212.922 322.182 212.97 322.302C213.03 322.41 213.102 322.518 213.186 322.626C213.246 322.71 213.318 322.788 213.402 322.86C213.498 322.932 213.588 322.998 213.672 323.058C213.768 323.106 213.882 323.166 214.014 323.238C214.158 323.298 214.29 323.346 214.41 323.382C214.542 323.418 214.722 323.454 214.95 323.49C215.19 323.514 215.442 323.526 215.706 323.526ZM214.662 317.172C214.434 317.172 214.146 317.184 213.798 317.208C213.45 317.22 213.228 317.238 213.132 317.262C212.976 317.286 212.832 317.316 212.7 317.352C212.568 317.388 212.472 317.418 212.412 317.442C212.352 317.466 212.286 317.496 212.214 317.532C212.142 317.568 212.076 317.604 212.016 317.64C211.992 317.64 211.92 317.616 211.8 317.568C211.692 317.52 211.584 317.472 211.476 317.424C211.344 317.364 211.212 317.298 211.08 317.226C210.948 317.154 210.816 317.076 210.684 316.992C210.6 316.932 210.51 316.866 210.414 316.794C210.318 316.722 210.27 316.65 210.27 316.578C210.27 316.518 210.294 316.476 210.342 316.452C210.39 316.428 210.45 316.422 210.522 316.434C210.582 316.446 210.69 316.464 210.846 316.488C211.002 316.5 211.134 316.512 211.242 316.524C211.362 316.536 211.602 316.554 211.962 316.578C212.322 316.59 212.664 316.596 212.988 316.596H216.75C216.954 316.596 217.188 316.59 217.452 316.578C217.716 316.566 217.938 316.536 218.118 316.488C218.238 316.464 218.352 316.422 218.46 316.362C218.58 316.302 218.664 316.248 218.712 316.2C218.88 316.212 219.03 316.224 219.162 316.236C219.294 316.236 219.432 316.248 219.576 316.272C219.684 316.284 219.792 316.302 219.9 316.326C220.008 316.338 220.122 316.356 220.242 316.38C220.35 316.404 220.452 316.452 220.548 316.524C220.656 316.596 220.71 316.716 220.71 316.884C220.71 317.004 220.68 317.1 220.62 317.172C220.56 317.244 220.47 317.28 220.35 317.28C220.302 317.28 220.2 317.274 220.044 317.262C219.9 317.25 219.768 317.238 219.648 317.226C219.528 317.214 219.282 317.202 218.91 317.19C218.55 317.178 218.274 317.172 218.082 317.172H214.662ZM223.176 354.958C223.176 354.874 223.17 354.796 223.158 354.724C223.146 354.64 223.116 354.562 223.068 354.49C223.032 354.43 222.984 354.37 222.924 354.31C222.876 354.25 222.822 354.196 222.762 354.148C222.702 354.088 222.63 354.034 222.546 353.986C222.462 353.938 222.378 353.89 222.294 353.842C222.21 353.794 222.12 353.752 222.024 353.716C221.928 353.668 221.844 353.632 221.772 353.608C221.712 353.584 221.64 353.554 221.556 353.518C221.484 353.47 221.448 353.422 221.448 353.374C221.448 353.302 221.496 353.248 221.592 353.212C221.7 353.176 221.814 353.158 221.934 353.158C222.006 353.158 222.15 353.176 222.366 353.212C222.582 353.248 222.768 353.29 222.924 353.338C223.068 353.374 223.242 353.422 223.446 353.482C223.65 353.542 223.806 353.596 223.914 353.644C224.01 353.692 224.094 353.74 224.166 353.788C224.25 353.836 224.292 353.908 224.292 354.004C224.292 354.052 224.28 354.112 224.256 354.184C224.244 354.244 224.226 354.316 224.202 354.4C224.19 354.472 224.178 354.574 224.166 354.706C224.154 354.826 224.148 354.916 224.148 354.976V360.826C224.148 361.042 224.142 361.306 224.13 361.618C224.118 361.918 224.106 362.158 224.094 362.338C224.082 362.65 224.064 362.92 224.04 363.148C224.016 363.376 223.992 363.538 223.968 363.634C223.944 363.766 223.914 363.88 223.878 363.976C223.854 364.072 223.83 364.144 223.806 364.192C223.782 364.24 223.746 364.294 223.698 364.354C223.662 364.402 223.614 364.426 223.554 364.426C223.494 364.426 223.446 364.408 223.41 364.372C223.386 364.324 223.362 364.276 223.338 364.228C223.326 364.18 223.308 364.12 223.284 364.048C223.272 363.976 223.26 363.898 223.248 363.814C223.236 363.682 223.224 363.562 223.212 363.454C223.212 363.334 223.206 363.178 223.194 362.986C223.182 362.746 223.176 362.44 223.176 362.068C223.176 361.684 223.176 361.432 223.176 361.312V359.854H220.8V360.772C220.8 360.964 220.794 361.216 220.782 361.528C220.77 361.84 220.752 362.098 220.728 362.302C220.716 362.53 220.698 362.722 220.674 362.878C220.65 363.034 220.626 363.154 220.602 363.238C220.59 363.322 220.566 363.406 220.53 363.49C220.494 363.574 220.464 363.64 220.44 363.688C220.416 363.736 220.386 363.778 220.35 363.814C220.314 363.85 220.272 363.868 220.224 363.868C220.188 363.868 220.152 363.856 220.116 363.832C220.092 363.796 220.068 363.754 220.044 363.706C220.032 363.67 220.014 363.628 219.99 363.58C219.978 363.532 219.966 363.472 219.954 363.4C219.942 363.292 219.93 363.184 219.918 363.076C219.906 362.956 219.894 362.824 219.882 362.68C219.87 362.512 219.864 362.29 219.864 362.014C219.864 361.726 219.864 361.48 219.864 361.276V355.39C219.864 355.294 219.852 355.204 219.828 355.12C219.816 355.036 219.792 354.97 219.756 354.922C219.72 354.862 219.678 354.808 219.63 354.76C219.594 354.712 219.54 354.664 219.468 354.616C219.408 354.568 219.342 354.526 219.27 354.49C219.198 354.442 219.126 354.4 219.054 354.364C219.006 354.34 218.94 354.31 218.856 354.274C218.784 354.238 218.712 354.208 218.64 354.184C218.58 354.16 218.508 354.13 218.424 354.094C218.352 354.058 218.316 354.016 218.316 353.968C218.316 353.884 218.358 353.83 218.442 353.806C218.538 353.77 218.628 353.752 218.712 353.752C218.772 353.752 218.886 353.764 219.054 353.788C219.222 353.812 219.384 353.842 219.54 353.878C219.708 353.914 219.888 353.962 220.08 354.022C220.284 354.07 220.446 354.118 220.566 354.166C220.638 354.19 220.716 354.232 220.8 354.292C220.884 354.34 220.926 354.4 220.926 354.472C220.926 354.532 220.914 354.61 220.89 354.706C220.866 354.79 220.848 354.862 220.836 354.922C220.824 354.97 220.812 355.048 220.8 355.156C220.8 355.264 220.8 355.348 220.8 355.408V359.224H223.176V354.958ZM213.888 357.37C213.732 357.37 213.54 357.382 213.312 357.406C213.084 357.418 212.91 357.436 212.79 357.46C212.706 357.472 212.604 357.496 212.484 357.532C212.364 357.568 212.274 357.598 212.214 357.622C212.166 357.646 212.106 357.676 212.034 357.712C211.974 357.736 211.914 357.772 211.854 357.82C211.83 357.82 211.77 357.802 211.674 357.766C211.578 357.718 211.482 357.67 211.386 357.622C211.266 357.562 211.14 357.49 211.008 357.406C210.876 357.322 210.756 357.244 210.648 357.172C210.564 357.112 210.48 357.046 210.396 356.974C210.312 356.902 210.27 356.842 210.27 356.794C210.27 356.734 210.3 356.692 210.36 356.668C210.42 356.632 210.474 356.62 210.522 356.632C210.618 356.644 210.726 356.662 210.846 356.686C210.978 356.698 211.092 356.71 211.188 356.722C211.392 356.734 211.626 356.752 211.89 356.776C212.166 356.788 212.472 356.794 212.808 356.794H215.544C215.784 356.794 216 356.788 216.192 356.776C216.396 356.764 216.582 356.734 216.75 356.686C216.846 356.662 216.936 356.626 217.02 356.578C217.104 356.518 217.182 356.458 217.254 356.398C217.386 356.41 217.512 356.422 217.632 356.434C217.752 356.434 217.884 356.446 218.028 356.47C218.172 356.482 218.292 356.5 218.388 356.524C218.496 356.536 218.586 356.554 218.658 356.578C218.754 356.602 218.85 356.656 218.946 356.74C219.042 356.812 219.09 356.914 219.09 357.046C219.09 357.202 219.048 357.316 218.964 357.388C218.892 357.448 218.808 357.478 218.712 357.478C218.664 357.478 218.562 357.472 218.406 357.46C218.262 357.448 218.142 357.436 218.046 357.424C217.926 357.412 217.722 357.4 217.434 357.388C217.146 357.376 216.9 357.37 216.696 357.37H213.888ZM218.784 369.664C218.376 369.664 217.914 369.646 217.398 369.61C216.894 369.574 216.486 369.532 216.174 369.484C215.838 369.424 215.52 369.358 215.22 369.286C214.932 369.214 214.668 369.124 214.428 369.016C214.212 368.92 214.02 368.806 213.852 368.674C213.684 368.554 213.534 368.416 213.402 368.26C213.234 368.056 213.12 367.834 213.06 367.594C213 367.354 212.97 367.15 212.97 366.982C212.97 366.814 213 366.61 213.06 366.37C213.12 366.118 213.234 365.896 213.402 365.704C213.534 365.536 213.684 365.392 213.852 365.272C214.02 365.152 214.212 365.044 214.428 364.948C214.668 364.84 214.932 364.75 215.22 364.678C215.52 364.594 215.838 364.528 216.174 364.48C216.486 364.42 216.894 364.378 217.398 364.354C217.914 364.318 218.376 364.3 218.784 364.3C219.192 364.3 219.648 364.318 220.152 364.354C220.668 364.378 221.082 364.42 221.394 364.48C221.742 364.528 222.06 364.594 222.348 364.678C222.636 364.75 222.9 364.84 223.14 364.948C223.356 365.044 223.548 365.152 223.716 365.272C223.884 365.392 224.034 365.536 224.166 365.704C224.334 365.896 224.448 366.118 224.508 366.37C224.568 366.61 224.598 366.814 224.598 366.982C224.598 367.15 224.568 367.354 224.508 367.594C224.448 367.834 224.334 368.056 224.166 368.26C224.034 368.416 223.884 368.554 223.716 368.674C223.548 368.806 223.356 368.92 223.14 369.016C222.9 369.124 222.636 369.214 222.348 369.286C222.06 369.358 221.742 369.424 221.394 369.484C221.082 369.532 220.668 369.574 220.152 369.61C219.648 369.646 219.192 369.664 218.784 369.664ZM218.784 369.016C219.312 369.016 219.834 368.986 220.35 368.926C220.878 368.866 221.274 368.806 221.538 368.746C221.79 368.686 222.042 368.602 222.294 368.494C222.546 368.398 222.732 368.308 222.852 368.224C222.972 368.14 223.074 368.05 223.158 367.954C223.242 367.858 223.308 367.768 223.356 367.684C223.416 367.576 223.458 367.468 223.482 367.36C223.518 367.252 223.536 367.12 223.536 366.964C223.536 366.82 223.518 366.694 223.482 366.586C223.458 366.466 223.416 366.352 223.356 366.244C223.308 366.148 223.242 366.058 223.158 365.974C223.074 365.878 222.972 365.788 222.852 365.704C222.732 365.62 222.546 365.53 222.294 365.434C222.042 365.326 221.79 365.242 221.538 365.182C221.274 365.122 220.878 365.062 220.35 365.002C219.834 364.942 219.312 364.912 218.784 364.912C218.268 364.912 217.746 364.942 217.218 365.002C216.702 365.062 216.306 365.122 216.03 365.182C215.778 365.242 215.526 365.326 215.274 365.434C215.022 365.53 214.836 365.62 214.716 365.704C214.596 365.788 214.494 365.878 214.41 365.974C214.326 366.058 214.26 366.148 214.212 366.244C214.164 366.352 214.122 366.472 214.086 366.604C214.05 366.724 214.032 366.844 214.032 366.964C214.032 367.12 214.05 367.252 214.086 367.36C214.122 367.468 214.164 367.576 214.212 367.684C214.26 367.768 214.326 367.858 214.41 367.954C214.494 368.05 214.596 368.14 214.716 368.224C214.836 368.308 215.022 368.398 215.274 368.494C215.526 368.602 215.778 368.686 216.03 368.746C216.306 368.806 216.702 368.866 217.218 368.926C217.746 368.986 218.268 369.016 218.784 369.016ZM213.708 355.39C213.492 355.39 213.288 355.366 213.096 355.318C212.916 355.258 212.748 355.186 212.592 355.102C212.484 355.042 212.37 354.952 212.25 354.832C212.13 354.7 212.07 354.592 212.07 354.508C212.07 354.436 212.094 354.394 212.142 354.382C212.19 354.358 212.238 354.352 212.286 354.364C212.346 354.376 212.424 354.4 212.52 354.436C212.628 354.472 212.73 354.502 212.826 354.526C212.922 354.55 213.078 354.58 213.294 354.616C213.522 354.652 213.81 354.67 214.158 354.67H214.914C215.118 354.67 215.292 354.646 215.436 354.598C215.58 354.55 215.688 354.49 215.76 354.418C215.892 354.43 216.042 354.442 216.21 354.454C216.378 354.454 216.51 354.466 216.606 354.49C216.738 354.514 216.87 354.568 217.002 354.652C217.134 354.724 217.2 354.844 217.2 355.012C217.2 355.132 217.158 355.228 217.074 355.3C217.002 355.36 216.9 355.39 216.768 355.39H213.708ZM214.95 363.598C214.674 363.598 214.386 363.574 214.086 363.526C213.786 363.466 213.552 363.412 213.384 363.364C213.192 363.304 213.006 363.232 212.826 363.148C212.658 363.052 212.52 362.962 212.412 362.878C212.268 362.77 212.142 362.65 212.034 362.518C211.938 362.386 211.86 362.266 211.8 362.158C211.728 362.026 211.668 361.858 211.62 361.654C211.572 361.45 211.548 361.252 211.548 361.06C211.548 360.856 211.572 360.652 211.62 360.448C211.668 360.244 211.728 360.082 211.8 359.962C211.86 359.854 211.938 359.734 212.034 359.602C212.142 359.47 212.268 359.35 212.412 359.242C212.52 359.158 212.658 359.074 212.826 358.99C213.006 358.894 213.192 358.816 213.384 358.756C213.552 358.696 213.786 358.642 214.086 358.594C214.386 358.546 214.674 358.522 214.95 358.522C215.226 358.522 215.514 358.546 215.814 358.594C216.126 358.642 216.36 358.696 216.516 358.756C216.72 358.816 216.906 358.894 217.074 358.99C217.242 359.074 217.38 359.158 217.488 359.242C217.632 359.35 217.752 359.47 217.848 359.602C217.956 359.734 218.04 359.854 218.1 359.962C218.172 360.082 218.232 360.244 218.28 360.448C218.328 360.652 218.352 360.856 218.352 361.06C218.352 361.252 218.328 361.45 218.28 361.654C218.232 361.858 218.172 362.026 218.1 362.158C218.04 362.266 217.956 362.386 217.848 362.518C217.752 362.65 217.632 362.77 217.488 362.878C217.38 362.962 217.242 363.052 217.074 363.148C216.906 363.232 216.72 363.304 216.516 363.364C216.36 363.412 216.126 363.466 215.814 363.526C215.514 363.574 215.226 363.598 214.95 363.598ZM214.95 363.004C215.166 363.004 215.37 362.986 215.562 362.95C215.754 362.914 215.94 362.866 216.12 362.806C216.24 362.758 216.366 362.692 216.498 362.608C216.63 362.524 216.738 362.44 216.822 362.356C216.93 362.236 217.008 362.134 217.056 362.05C217.116 361.966 217.164 361.882 217.2 361.798C217.236 361.714 217.266 361.606 217.29 361.474C217.326 361.33 217.344 361.186 217.344 361.042C217.344 360.898 217.326 360.76 217.29 360.628C217.266 360.484 217.236 360.37 217.2 360.286C217.164 360.202 217.116 360.118 217.056 360.034C217.008 359.95 216.93 359.848 216.822 359.728C216.738 359.644 216.63 359.56 216.498 359.476C216.366 359.392 216.24 359.326 216.12 359.278C215.94 359.218 215.754 359.17 215.562 359.134C215.37 359.098 215.166 359.08 214.95 359.08C214.734 359.08 214.53 359.098 214.338 359.134C214.146 359.17 213.96 359.218 213.78 359.278C213.66 359.326 213.534 359.392 213.402 359.476C213.27 359.56 213.162 359.644 213.078 359.728C212.97 359.848 212.886 359.95 212.826 360.034C212.778 360.118 212.736 360.202 212.7 360.286C212.664 360.37 212.628 360.484 212.592 360.628C212.568 360.76 212.556 360.898 212.556 361.042C212.556 361.186 212.568 361.33 212.592 361.474C212.628 361.606 212.664 361.714 212.7 361.798C212.736 361.882 212.778 361.966 212.826 362.05C212.886 362.134 212.97 362.236 213.078 362.356C213.162 362.44 213.27 362.524 213.402 362.608C213.534 362.692 213.66 362.758 213.78 362.806C213.96 362.866 214.146 362.914 214.338 362.95C214.53 362.986 214.734 363.004 214.95 363.004ZM220.53 382.302C220.974 382.302 221.34 382.296 221.628 382.284C221.928 382.272 222.15 382.26 222.294 382.248C222.414 382.224 222.552 382.2 222.708 382.176C222.876 382.14 223.002 382.098 223.086 382.05C223.146 382.026 223.2 381.996 223.248 381.96C223.308 381.924 223.362 381.888 223.41 381.852C223.578 381.864 223.752 381.876 223.932 381.888C224.112 381.888 224.298 381.9 224.49 381.924C224.682 381.936 224.85 381.96 224.994 381.996C225.15 382.02 225.288 382.044 225.408 382.068C225.528 382.092 225.642 382.146 225.75 382.23C225.87 382.302 225.93 382.422 225.93 382.59C225.93 382.71 225.9 382.818 225.84 382.914C225.78 383.01 225.666 383.052 225.498 383.04C225.378 383.028 225.246 383.022 225.102 383.022C224.97 383.01 224.838 382.998 224.706 382.986C224.562 382.974 224.292 382.962 223.896 382.95C223.512 382.926 223.158 382.914 222.834 382.914H216.084C215.412 382.914 214.818 382.938 214.302 382.986C213.786 383.034 213.426 383.088 213.222 383.148C213.102 383.184 212.982 383.226 212.862 383.274C212.754 383.31 212.64 383.358 212.52 383.418C212.472 383.418 212.364 383.388 212.196 383.328C212.04 383.256 211.896 383.19 211.764 383.13C211.62 383.07 211.476 383.004 211.332 382.932C211.188 382.848 211.05 382.77 210.918 382.698C210.81 382.638 210.702 382.572 210.594 382.5C210.498 382.416 210.45 382.338 210.45 382.266C210.45 382.206 210.474 382.164 210.522 382.14C210.582 382.104 210.648 382.092 210.72 382.104C210.828 382.116 210.972 382.134 211.152 382.158C211.332 382.182 211.488 382.2 211.62 382.212C211.836 382.224 212.19 382.242 212.682 382.266C213.174 382.29 213.672 382.302 214.176 382.302H217.614V379.908H214.014C214.002 380.004 213.984 380.1 213.96 380.196C213.936 380.28 213.912 380.352 213.888 380.412C213.852 380.508 213.804 380.592 213.744 380.664C213.696 380.724 213.642 380.754 213.582 380.754C213.498 380.754 213.432 380.724 213.384 380.664C213.348 380.592 213.318 380.514 213.294 380.43C213.282 380.37 213.264 380.268 213.24 380.124C213.216 379.98 213.198 379.848 213.186 379.728C213.174 379.62 213.162 379.416 213.15 379.116C213.15 378.804 213.15 378.582 213.15 378.45V375.3C213.15 375.204 213.132 375.12 213.096 375.048C213.072 374.964 213.03 374.898 212.97 374.85C212.922 374.802 212.85 374.748 212.754 374.688C212.67 374.628 212.592 374.58 212.52 374.544C212.436 374.508 212.352 374.472 212.268 374.436C212.196 374.4 212.124 374.37 212.052 374.346C211.98 374.322 211.896 374.292 211.8 374.256C211.704 374.208 211.656 374.154 211.656 374.094C211.656 374.022 211.698 373.968 211.782 373.932C211.878 373.896 211.974 373.878 212.07 373.878C212.166 373.878 212.304 373.89 212.484 373.914C212.664 373.938 212.82 373.962 212.952 373.986C213.096 374.01 213.246 374.04 213.402 374.076C213.57 374.112 213.732 374.16 213.888 374.22C213.972 374.244 214.056 374.28 214.14 374.328C214.224 374.376 214.266 374.436 214.266 374.508C214.266 374.568 214.248 374.658 214.212 374.778C214.176 374.898 214.158 375.03 214.158 375.174V376.038H222.24V374.814C222.24 374.718 222.222 374.628 222.186 374.544C222.15 374.46 222.102 374.394 222.042 374.346C221.982 374.286 221.904 374.226 221.808 374.166C221.712 374.106 221.628 374.058 221.556 374.022C221.484 373.986 221.4 373.95 221.304 373.914C221.22 373.866 221.142 373.83 221.07 373.806C220.998 373.782 220.914 373.752 220.818 373.716C220.734 373.668 220.692 373.614 220.692 373.554C220.692 373.482 220.734 373.428 220.818 373.392C220.914 373.356 221.004 373.338 221.088 373.338C221.148 373.338 221.256 373.35 221.412 373.374C221.58 373.386 221.754 373.41 221.934 373.446C222.078 373.47 222.252 373.512 222.456 373.572C222.66 373.62 222.816 373.662 222.924 373.698C223.008 373.722 223.098 373.758 223.194 373.806C223.302 373.854 223.356 373.92 223.356 374.004C223.356 374.064 223.338 374.16 223.302 374.292C223.266 374.412 223.248 374.55 223.248 374.706V378.126C223.248 378.282 223.236 378.51 223.212 378.81C223.2 379.11 223.182 379.362 223.158 379.566C223.146 379.722 223.122 379.878 223.086 380.034C223.05 380.19 223.014 380.316 222.978 380.412C222.942 380.508 222.894 380.592 222.834 380.664C222.786 380.724 222.732 380.754 222.672 380.754C222.588 380.754 222.522 380.724 222.474 380.664C222.438 380.592 222.408 380.514 222.384 380.43C222.372 380.382 222.354 380.31 222.33 380.214C222.318 380.106 222.306 380.004 222.294 379.908H218.622V382.302H220.53ZM222.24 379.296C222.24 379.128 222.24 378.966 222.24 378.81C222.24 378.654 222.24 378.534 222.24 378.45V376.65H214.158V378.126C214.158 378.246 214.152 378.42 214.14 378.648C214.14 378.876 214.128 379.092 214.104 379.296H222.24ZM222.24 385.398H217.686C217.254 385.398 216.846 385.41 216.462 385.434C216.09 385.458 215.838 385.482 215.706 385.506C215.538 385.53 215.382 385.56 215.238 385.596C215.106 385.62 214.986 385.65 214.878 385.686C214.782 385.722 214.686 385.758 214.59 385.794C214.506 385.83 214.428 385.872 214.356 385.92C214.308 385.92 214.212 385.896 214.068 385.848C213.936 385.788 213.804 385.734 213.672 385.686C213.54 385.626 213.378 385.554 213.186 385.47C213.006 385.374 212.85 385.29 212.718 385.218C212.634 385.158 212.532 385.092 212.412 385.02C212.304 384.948 212.25 384.87 212.25 384.786C212.25 384.726 212.274 384.684 212.322 384.66C212.382 384.624 212.448 384.612 212.52 384.624C212.592 384.636 212.718 384.654 212.898 384.678C213.09 384.69 213.234 384.702 213.33 384.714C213.534 384.726 213.858 384.744 214.302 384.768C214.746 384.78 215.262 384.786 215.85 384.786H221.916L222.276 384.534C222.42 384.546 222.546 384.558 222.654 384.57C222.762 384.57 222.858 384.576 222.942 384.588C223.062 384.6 223.164 384.624 223.248 384.66C223.344 384.696 223.392 384.75 223.392 384.822C223.392 384.906 223.368 385.014 223.32 385.146C223.272 385.266 223.248 385.41 223.248 385.578V387.018C223.248 387.174 223.242 387.354 223.23 387.558C223.23 387.75 223.224 387.93 223.212 388.098C223.2 388.266 223.188 388.428 223.176 388.584C223.176 388.74 223.164 388.878 223.14 388.998C223.128 389.082 223.11 389.178 223.086 389.286C223.074 389.394 223.056 389.478 223.032 389.538C223.008 389.622 222.984 389.688 222.96 389.736C222.936 389.796 222.906 389.856 222.87 389.916C222.846 389.964 222.81 390 222.762 390.024C222.726 390.06 222.69 390.078 222.654 390.078C222.606 390.078 222.564 390.06 222.528 390.024C222.492 389.988 222.462 389.946 222.438 389.898C222.414 389.838 222.39 389.772 222.366 389.7C222.354 389.628 222.342 389.568 222.33 389.52C222.318 389.46 222.306 389.388 222.294 389.304C222.294 389.232 222.288 389.136 222.276 389.016C222.264 388.884 222.252 388.68 222.24 388.404C222.24 388.128 222.24 387.894 222.24 387.702V385.398ZM227.265 387.594C227.265 387.306 227.361 387.06 227.553 386.856C227.757 386.652 227.997 386.55 228.273 386.55C228.573 386.55 228.813 386.652 228.993 386.856C229.185 387.06 229.281 387.306 229.281 387.594C229.281 387.882 229.185 388.128 228.993 388.332C228.813 388.536 228.573 388.638 228.273 388.638C227.997 388.638 227.757 388.536 227.553 388.332C227.361 388.128 227.265 387.882 227.265 387.594Z" fill="black"/>
<line x1="150" y1="1" x2="150" y2="359" stroke="#090B0B" stroke-width="2" stroke-linecap="round"/>
</svg>
