<svg width="48" height="48" viewBox="0 0 48 48" fill="none" xmlns="http://www.w3.org/2000/svg">
<circle cx="24.0002" cy="24" r="24" fill="#090B0B"/>
<path d="M19.5165 20.7189C19.3868 20.7189 19.2753 20.725 19.182 20.7372C19.0888 20.7493 19.0097 20.7655 18.9448 20.7858C18.9043 20.798 18.8658 20.8122 18.8293 20.8284C18.7969 20.8446 18.7665 20.8608 18.7381 20.877C18.7178 20.8689 18.6874 20.8568 18.6468 20.8405C18.6104 20.8243 18.5739 20.8081 18.5374 20.7919C18.4968 20.7716 18.4522 20.7493 18.4036 20.725C18.359 20.6966 18.3225 20.6743 18.2941 20.6581C18.2698 20.6419 18.2414 20.6216 18.209 20.5973C18.1765 20.5689 18.1603 20.5466 18.1603 20.5304C18.1603 20.5101 18.1684 20.4959 18.1846 20.4878C18.2009 20.4757 18.2211 20.4716 18.2455 20.4757C18.2982 20.4797 18.3428 20.4858 18.3793 20.4939C18.4198 20.498 18.4685 20.502 18.5252 20.5061C18.5739 20.5101 18.6489 20.5142 18.7502 20.5182C18.8556 20.5223 18.9651 20.5243 19.0786 20.5243H20.0578V18.8397C20.0578 18.7992 20.0537 18.7627 20.0456 18.7302C20.0375 18.6978 20.0253 18.6694 20.0091 18.6451C19.9929 18.6248 19.9747 18.6046 19.9544 18.5843C19.9341 18.56 19.9098 18.5397 19.8814 18.5235C19.853 18.5032 19.8226 18.485 19.7902 18.4687C19.7618 18.4525 19.7314 18.4363 19.699 18.4201C19.6706 18.4079 19.6381 18.3958 19.6017 18.3836C19.5692 18.3674 19.5408 18.3552 19.5165 18.3471C19.4922 18.339 19.4658 18.3289 19.4375 18.3167C19.4131 18.3045 19.401 18.2883 19.401 18.268C19.401 18.2437 19.4172 18.2255 19.4496 18.2133C19.482 18.2011 19.5185 18.1951 19.5591 18.1951C19.5834 18.1951 19.6321 18.2011 19.705 18.2133C19.7821 18.2214 19.8551 18.2356 19.924 18.2559C19.9726 18.268 20.0294 18.2843 20.0943 18.3045C20.1591 18.3208 20.2199 18.339 20.2767 18.3593C20.3173 18.3755 20.3537 18.3937 20.3862 18.414C20.4227 18.4343 20.4409 18.4606 20.4409 18.4931C20.4409 18.5093 20.4369 18.5296 20.4287 18.5539C20.4206 18.5741 20.4125 18.5985 20.4044 18.6269C20.4004 18.6512 20.3963 18.6836 20.3923 18.7242C20.3882 18.7647 20.3862 18.7951 20.3862 18.8154V22.5373C20.3862 22.6184 20.3841 22.7198 20.3801 22.8414C20.376 22.959 20.372 23.0522 20.3679 23.1211C20.3639 23.2428 20.3578 23.3441 20.3497 23.4252C20.3416 23.5104 20.3335 23.5712 20.3254 23.6077C20.3173 23.6604 20.3071 23.705 20.295 23.7415C20.2868 23.7779 20.2787 23.8063 20.2706 23.8266C20.2625 23.8469 20.2504 23.8651 20.2341 23.8813C20.222 23.9016 20.2058 23.9117 20.1855 23.9117C20.1693 23.9117 20.1551 23.9016 20.1429 23.8813C20.1307 23.8651 20.1206 23.8489 20.1125 23.8327C20.1085 23.8124 20.1024 23.7881 20.0943 23.7597C20.0902 23.7354 20.0862 23.709 20.0821 23.6806C20.078 23.6239 20.074 23.5752 20.0699 23.5347C20.0699 23.4941 20.0679 23.4374 20.0639 23.3644C20.0598 23.2752 20.0578 23.1576 20.0578 23.0117C20.0578 22.8657 20.0578 22.7684 20.0578 22.7198V20.7189H19.5165ZM16.6703 22.4461C16.7636 22.438 16.871 22.4278 16.9927 22.4157C17.1183 22.3995 17.2319 22.3832 17.3332 22.367C17.4184 22.3549 17.5218 22.3386 17.6434 22.3184C17.7691 22.2981 17.8826 22.2799 17.984 22.2636C18.0772 22.2474 18.1928 22.2271 18.3306 22.2028C18.4685 22.1785 18.5901 22.1562 18.6955 22.1359C18.7888 22.1156 18.9023 22.0913 19.0361 22.0629C19.1699 22.0346 19.2793 22.0102 19.3645 21.99C19.4131 21.9737 19.4435 21.9879 19.4557 22.0325C19.4679 22.0771 19.4496 22.1116 19.401 22.1359C19.3361 22.1643 19.2428 22.1967 19.1212 22.2332C19.0036 22.2657 18.8982 22.2961 18.805 22.3245C18.6914 22.3569 18.5739 22.3893 18.4522 22.4218C18.3347 22.4501 18.2232 22.4785 18.1178 22.5069C18.0002 22.5353 17.8806 22.5637 17.7589 22.592C17.6373 22.6204 17.5238 22.6468 17.4184 22.6711C17.2967 22.6995 17.1629 22.7279 17.017 22.7562C16.871 22.7846 16.7575 22.8049 16.6764 22.8171C16.6237 22.8171 16.5528 22.7846 16.4636 22.7198C16.3784 22.6508 16.3359 22.586 16.3359 22.5251V19.4175C16.3359 19.381 16.3277 19.3506 16.3115 19.3262C16.2953 19.2979 16.273 19.2756 16.2446 19.2593C16.2122 19.2391 16.1696 19.2208 16.1169 19.2046C16.0683 19.1843 16.0216 19.1681 15.977 19.156C15.9568 19.1478 15.9304 19.1418 15.898 19.1377C15.8655 19.1296 15.8493 19.1134 15.8493 19.0891C15.8493 19.0607 15.8696 19.0384 15.9101 19.0222C15.9547 19.0019 16.0095 18.9918 16.0743 18.9918C16.1433 18.9918 16.2102 18.9958 16.275 19.0039C16.344 19.008 16.4068 19.014 16.4636 19.0222C16.5203 19.0303 16.5771 19.0424 16.6338 19.0586C16.6906 19.0749 16.723 19.0911 16.7312 19.1073H17.5218C17.6393 19.1073 17.7387 19.1032 17.8198 19.0951C17.9008 19.087 17.9617 19.0749 18.0022 19.0586C18.0346 19.0465 18.065 19.0323 18.0934 19.0161C18.1259 18.9999 18.1542 18.9796 18.1786 18.9553C18.2475 18.9593 18.3124 18.9613 18.3732 18.9613C18.434 18.9613 18.5029 18.9654 18.5799 18.9735C18.6975 18.9816 18.7888 19.0019 18.8536 19.0343C18.9185 19.0627 18.9509 19.1093 18.9509 19.1742C18.9509 19.2229 18.9388 19.2573 18.9144 19.2776C18.8901 19.2979 18.8536 19.308 18.805 19.308H16.6703V22.4461ZM24.1699 21.5703V23.0907H24.7354C24.8692 23.0907 24.9747 23.0907 25.0517 23.0907C25.1328 23.0867 25.1956 23.0826 25.2402 23.0786C25.2848 23.0745 25.3396 23.0684 25.4044 23.0603C25.4733 23.0522 25.5301 23.04 25.5747 23.0238C25.6152 23.0117 25.6497 22.9975 25.6781 22.9813C25.7105 22.965 25.7369 22.9488 25.7572 22.9326C25.8139 22.9367 25.8686 22.9407 25.9214 22.9448C25.9781 22.9448 26.0328 22.9488 26.0856 22.9569C26.1504 22.961 26.2112 22.9691 26.268 22.9813C26.3248 22.9894 26.3754 22.9975 26.42 23.0056C26.4768 23.0177 26.5234 23.038 26.5599 23.0664C26.5964 23.0948 26.6147 23.1374 26.6147 23.1941C26.6147 23.2387 26.6025 23.2752 26.5782 23.3036C26.5579 23.336 26.5234 23.3522 26.4748 23.3522C26.4545 23.3522 26.4079 23.3482 26.3349 23.3401C26.266 23.336 26.2052 23.332 26.1525 23.3279C26.0754 23.3198 25.97 23.3137 25.8362 23.3097C25.7065 23.3056 25.5909 23.3036 25.4896 23.3036H23.3489C23.2029 23.3036 23.061 23.3056 22.9231 23.3097C22.7893 23.3178 22.6941 23.3259 22.6373 23.334C22.5846 23.338 22.5278 23.3462 22.467 23.3583C22.4062 23.3705 22.3555 23.3826 22.315 23.3948C22.2825 23.4029 22.2461 23.4151 22.2055 23.4313C22.165 23.4516 22.1285 23.4698 22.096 23.486C22.0879 23.486 22.0697 23.4799 22.0413 23.4678C22.0129 23.4597 21.9886 23.4516 21.9683 23.4435C21.94 23.4313 21.9075 23.4171 21.871 23.4009C21.8386 23.3847 21.8001 23.3664 21.7555 23.3462C21.719 23.3259 21.6784 23.3036 21.6338 23.2793C21.5892 23.259 21.5507 23.2387 21.5183 23.2184C21.4899 23.1982 21.4595 23.1759 21.4271 23.1515C21.3987 23.1272 21.3845 23.1049 21.3845 23.0846C21.3845 23.0644 21.3926 23.0502 21.4088 23.0421C21.425 23.0299 21.4453 23.0259 21.4696 23.0299C21.5183 23.034 21.5791 23.04 21.6521 23.0482C21.7251 23.0563 21.794 23.0623 21.8589 23.0664C21.9643 23.0705 22.0879 23.0765 22.2298 23.0846C22.3717 23.0887 22.5197 23.0907 22.6738 23.0907H23.8293V21.5703H22.6008C22.5968 21.623 22.5887 21.6757 22.5765 21.7285C22.5643 21.7812 22.5542 21.8237 22.5461 21.8562C22.5339 21.8927 22.5177 21.9251 22.4974 21.9535C22.4812 21.9778 22.463 21.99 22.4427 21.99C22.4143 21.99 22.392 21.9758 22.3758 21.9474C22.3636 21.919 22.3535 21.8906 22.3454 21.8623C22.3373 21.8258 22.3292 21.7812 22.3211 21.7285C22.317 21.6717 22.313 21.621 22.3089 21.5764C22.3048 21.5278 22.3008 21.4426 22.2967 21.321C22.2967 21.1953 22.2967 21.1041 22.2967 21.0473V19.2472C22.2967 19.2147 22.2927 19.1864 22.2846 19.162C22.2765 19.1337 22.2602 19.1073 22.2359 19.083C22.2197 19.0627 22.1954 19.0424 22.1629 19.0222C22.1305 19.0019 22.1021 18.9857 22.0778 18.9735C22.0535 18.9613 22.0251 18.9492 21.9927 18.937C21.9643 18.9208 21.9379 18.9086 21.9136 18.9005C21.8893 18.8924 21.8629 18.8823 21.8345 18.8701C21.8062 18.8539 21.792 18.8357 21.792 18.8154C21.792 18.7911 21.8062 18.7728 21.8345 18.7607C21.867 18.7485 21.8974 18.7424 21.9258 18.7424C21.946 18.7424 21.9825 18.7465 22.0352 18.7546C22.092 18.7586 22.1528 18.7667 22.2177 18.7789C22.2704 18.787 22.3251 18.7992 22.3819 18.8154C22.4427 18.8275 22.4974 18.8417 22.5461 18.858C22.5745 18.8661 22.6028 18.8782 22.6312 18.8944C22.6596 18.9107 22.6738 18.9309 22.6738 18.9553C22.6738 18.9715 22.6677 19.0059 22.6556 19.0586C22.6434 19.1073 22.6373 19.158 22.6373 19.2107V19.8067H25.4227V19.0282C25.4227 18.9958 25.4186 18.9654 25.4105 18.937C25.4024 18.9046 25.3862 18.8762 25.3618 18.8519C25.3456 18.8316 25.3213 18.8113 25.2889 18.7911C25.2564 18.7708 25.2281 18.7546 25.2037 18.7424C25.1794 18.7302 25.147 18.7161 25.1064 18.6998C25.0659 18.6796 25.0334 18.6654 25.0091 18.6573C24.9888 18.6492 24.9645 18.639 24.9361 18.6269C24.9078 18.6106 24.8936 18.5924 24.8936 18.5721C24.8936 18.5478 24.9078 18.5296 24.9361 18.5174C24.9686 18.5052 24.999 18.4991 25.0274 18.4991C25.0476 18.4991 25.0943 18.5052 25.1672 18.5174C25.2402 18.5255 25.3071 18.5356 25.3679 18.5478C25.4247 18.56 25.4754 18.5721 25.52 18.5843C25.5686 18.5964 25.6152 18.6106 25.6598 18.6269C25.6882 18.635 25.7186 18.6492 25.7511 18.6694C25.7835 18.6856 25.7997 18.7059 25.7997 18.7302C25.7997 18.7465 25.7936 18.7809 25.7815 18.8336C25.7693 18.8823 25.7632 18.933 25.7632 18.9857V20.8649C25.7632 20.9257 25.7592 21.0189 25.7511 21.1446C25.747 21.2663 25.7409 21.3717 25.7328 21.4609C25.7288 21.5257 25.7207 21.5906 25.7085 21.6555C25.6963 21.7163 25.6842 21.7649 25.672 21.8014C25.6598 21.8379 25.6436 21.8704 25.6234 21.8987C25.6071 21.9231 25.5889 21.9352 25.5686 21.9352C25.5402 21.9352 25.5179 21.921 25.5017 21.8927C25.4896 21.8643 25.4794 21.8359 25.4713 21.8075C25.4673 21.7751 25.4612 21.7386 25.4531 21.698C25.449 21.6535 25.4429 21.6109 25.4348 21.5703H24.1699ZM25.4227 21.3575C25.4227 21.2886 25.4227 21.2196 25.4227 21.1507C25.4227 21.0818 25.4227 21.0291 25.4227 20.9926V20.0195H22.6373V20.9196C22.6373 20.9642 22.6353 21.0291 22.6312 21.1142C22.6312 21.1953 22.6272 21.2764 22.6191 21.3575H25.4227ZM31.4565 22.5373C31.4565 22.6184 31.4545 22.7198 31.4505 22.8414C31.4464 22.959 31.4423 23.0522 31.4383 23.1211C31.4342 23.2428 31.4282 23.3441 31.42 23.4252C31.4119 23.5104 31.4038 23.5712 31.3957 23.6077C31.3876 23.6604 31.3775 23.705 31.3653 23.7415C31.3572 23.7779 31.3491 23.8063 31.341 23.8266C31.3329 23.8469 31.3207 23.8651 31.3045 23.8813C31.2923 23.9016 31.2761 23.9117 31.2558 23.9117C31.2396 23.9117 31.2254 23.9016 31.2133 23.8813C31.2011 23.8651 31.191 23.8489 31.1829 23.8327C31.1788 23.8124 31.1727 23.7881 31.1646 23.7597C31.1606 23.7354 31.1565 23.709 31.1525 23.6806C31.1484 23.6239 31.1443 23.5752 31.1403 23.5347C31.1403 23.4941 31.1383 23.4374 31.1342 23.3644C31.1302 23.2752 31.1281 23.1576 31.1281 23.0117C31.1281 22.8657 31.1281 22.7684 31.1281 22.7198V18.8397C31.1281 18.7992 31.1241 18.7627 31.116 18.7302C31.1079 18.6978 31.0957 18.6694 31.0795 18.6451C31.0633 18.6248 31.045 18.6046 31.0247 18.5843C31.0045 18.56 30.9801 18.5397 30.9518 18.5235C30.9234 18.5032 30.893 18.485 30.8605 18.4687C30.8322 18.4525 30.8018 18.4363 30.7693 18.4201C30.7409 18.4079 30.7085 18.3958 30.672 18.3836C30.6396 18.3674 30.6112 18.3552 30.5869 18.3471C30.5625 18.339 30.5362 18.3289 30.5078 18.3167C30.4835 18.3045 30.4713 18.2883 30.4713 18.268C30.4713 18.2437 30.4875 18.2255 30.52 18.2133C30.5524 18.2011 30.5889 18.1951 30.6294 18.1951C30.6538 18.1951 30.7024 18.2011 30.7754 18.2133C30.8524 18.2214 30.9254 18.2356 30.9943 18.2559C31.043 18.268 31.0997 18.2843 31.1646 18.3045C31.2295 18.3208 31.2903 18.339 31.3471 18.3593C31.3876 18.3755 31.4241 18.3937 31.4565 18.414C31.493 18.4343 31.5113 18.4606 31.5113 18.4931C31.5113 18.5093 31.5072 18.5296 31.4991 18.5539C31.491 18.5741 31.4829 18.5985 31.4748 18.6269C31.4707 18.6512 31.4667 18.6836 31.4626 18.7242C31.4586 18.7647 31.4565 18.7951 31.4565 18.8154V22.5373ZM30.0213 19.3566C30.0051 19.4215 29.9807 19.5006 29.9483 19.5938C29.9199 19.683 29.8936 19.758 29.8692 19.8188C29.8368 19.904 29.8003 19.9932 29.7598 20.0864C29.7192 20.1797 29.6827 20.2608 29.6503 20.3297C29.6138 20.4067 29.5672 20.4939 29.5104 20.5912C29.4577 20.6845 29.403 20.7716 29.3462 20.8527C29.2814 20.946 29.2064 21.0473 29.1212 21.1568C29.0401 21.2622 28.959 21.3615 28.8779 21.4548C28.8009 21.5399 28.7178 21.6251 28.6286 21.7102C28.5435 21.7954 28.4603 21.8724 28.3793 21.9413C28.282 22.0265 28.1745 22.1156 28.0569 22.2089C27.9434 22.3022 27.8461 22.3792 27.765 22.44C27.6799 22.5049 27.5745 22.5778 27.4488 22.6589C27.3231 22.74 27.2075 22.813 27.1021 22.8779C27.0494 22.9022 27.0069 22.9002 26.9744 22.8718C26.946 22.8434 26.9582 22.8089 27.0109 22.7684C27.1123 22.6914 27.2116 22.6123 27.3089 22.5312C27.4062 22.4501 27.5055 22.365 27.6069 22.2758C27.692 22.2028 27.7812 22.1217 27.8745 22.0325C27.9718 21.9393 28.059 21.8541 28.136 21.7771C28.2171 21.696 28.3022 21.6089 28.3914 21.5156C28.4806 21.4183 28.5556 21.3311 28.6164 21.2541C28.6732 21.1852 28.736 21.1021 28.805 21.0047C28.8779 20.9074 28.9408 20.8203 28.9935 20.7432C29.0381 20.6743 29.0888 20.5892 29.1455 20.4878C29.2064 20.3865 29.255 20.3013 29.2915 20.2324C29.332 20.1594 29.3685 20.0824 29.401 20.0013C29.4375 19.9202 29.4699 19.8411 29.4983 19.7641C29.5266 19.6952 29.553 19.6242 29.5773 19.5513C29.6017 19.4742 29.6219 19.4033 29.6381 19.3384H28.7502C28.6489 19.3384 28.5455 19.3404 28.4401 19.3445C28.3347 19.3485 28.2475 19.3546 28.1786 19.3627C28.134 19.3668 28.0873 19.3749 28.0387 19.3871C27.9941 19.3992 27.9576 19.4094 27.9292 19.4175C27.9049 19.4256 27.8765 19.4357 27.8441 19.4479C27.8157 19.46 27.7893 19.4742 27.765 19.4904C27.7569 19.4904 27.7387 19.4864 27.7103 19.4783C27.686 19.4661 27.6637 19.456 27.6434 19.4479C27.6191 19.4398 27.5907 19.4296 27.5582 19.4175C27.5299 19.4012 27.4995 19.385 27.467 19.3688C27.4265 19.3485 27.39 19.3303 27.3576 19.3141C27.3251 19.2938 27.2927 19.2756 27.2603 19.2593C27.2319 19.2431 27.2035 19.2228 27.1751 19.1985C27.1467 19.1742 27.1325 19.1539 27.1325 19.1377C27.1325 19.1174 27.1406 19.1032 27.1569 19.0951C27.1731 19.083 27.1913 19.0789 27.2116 19.083C27.2562 19.087 27.2947 19.0911 27.3271 19.0951C27.3596 19.0992 27.3961 19.1032 27.4366 19.1073C27.5096 19.1114 27.611 19.1174 27.7407 19.1255C27.8745 19.1337 28.0286 19.1377 28.2029 19.1377H29.5652L29.6868 19.0526C29.7314 19.0566 29.776 19.0607 29.8206 19.0647C29.8692 19.0647 29.9159 19.0688 29.9605 19.0769C30.0051 19.0809 30.0416 19.0891 30.0699 19.1012C30.0983 19.1093 30.1125 19.1296 30.1125 19.162C30.1125 19.1904 30.1024 19.2228 30.0821 19.2593C30.0618 19.2918 30.0416 19.3242 30.0213 19.3566ZM11.9718 30.2914L11.0231 27.6459C11.0069 27.6135 10.9866 27.5831 10.9623 27.5547C10.9379 27.5223 10.9035 27.4959 10.8589 27.4757C10.8224 27.4554 10.7737 27.4432 10.7129 27.4392C10.6562 27.4311 10.6136 27.427 10.5852 27.427V27.2628H11.8198V27.427C11.7752 27.427 11.7143 27.4311 11.6373 27.4392C11.5643 27.4473 11.5177 27.4554 11.4974 27.4635C11.4772 27.4675 11.4569 27.4757 11.4366 27.4878C11.4164 27.5 11.4022 27.5142 11.3941 27.5304C11.3859 27.5466 11.3839 27.5669 11.388 27.5912C11.392 27.6115 11.3961 27.6317 11.4001 27.652L12.1603 29.7866L12.9631 27.652C12.9712 27.6236 12.9753 27.5993 12.9753 27.579C12.9753 27.5588 12.9712 27.5405 12.9631 27.5243C12.959 27.5081 12.9489 27.4959 12.9327 27.4878C12.9165 27.4757 12.8982 27.4675 12.878 27.4635C12.8496 27.4554 12.7969 27.4473 12.7198 27.4392C12.6428 27.4311 12.58 27.427 12.5313 27.427V27.2628H13.6017V27.427C13.553 27.427 13.4983 27.4331 13.4375 27.4452C13.3766 27.4574 13.33 27.4716 13.2976 27.4878C13.257 27.5081 13.2226 27.5344 13.1942 27.5669C13.1699 27.5993 13.1496 27.6297 13.1334 27.6581L12.1117 30.2914H11.9718ZM14.3292 27.8284C14.3292 27.7959 14.3231 27.7635 14.3109 27.7311C14.2988 27.6986 14.2825 27.6723 14.2623 27.652C14.2379 27.6317 14.2075 27.6155 14.171 27.6034C14.1386 27.5871 14.094 27.579 14.0373 27.579H13.8913V27.4209C13.9399 27.4209 14.0068 27.4128 14.092 27.3966C14.1812 27.3804 14.2582 27.3601 14.3231 27.3358C14.3717 27.3155 14.4204 27.2912 14.469 27.2628C14.5177 27.2344 14.5582 27.206 14.5907 27.1777H14.6576V29.738C14.6576 29.7623 14.6596 29.7907 14.6637 29.8231C14.6718 29.8515 14.6778 29.8738 14.6819 29.89C14.69 29.9144 14.7022 29.9367 14.7184 29.9569C14.7346 29.9732 14.7508 29.9873 14.767 29.9995C14.7873 30.0117 14.8096 30.0218 14.8339 30.0299C14.8583 30.038 14.8826 30.0461 14.9069 30.0542C14.9394 30.0583 14.9799 30.0644 15.0286 30.0725C15.0772 30.0765 15.1157 30.0786 15.1441 30.0786V30.2428H13.8426V30.0786C13.871 30.0786 13.9095 30.0765 13.9582 30.0725C14.0109 30.0644 14.0514 30.0583 14.0798 30.0542C14.1042 30.0461 14.1285 30.038 14.1528 30.0299C14.1771 30.0218 14.1994 30.0117 14.2197 29.9995C14.24 29.9873 14.2562 29.9732 14.2684 29.9569C14.2846 29.9367 14.2967 29.9144 14.3048 29.89C14.313 29.8738 14.319 29.8515 14.3231 29.8231C14.3271 29.7907 14.3292 29.7623 14.3292 29.738V27.8284ZM14.7488 26.1681C14.7488 26.2533 14.7184 26.3262 14.6576 26.3871C14.6008 26.4479 14.5319 26.4783 14.4508 26.4783C14.3657 26.4783 14.2927 26.4479 14.2319 26.3871C14.1751 26.3262 14.1467 26.2533 14.1467 26.1681C14.1467 26.087 14.1751 26.0161 14.2319 25.9553C14.2927 25.8944 14.3657 25.864 14.4508 25.864C14.5319 25.864 14.6008 25.8944 14.6576 25.9553C14.7184 26.0161 14.7488 26.087 14.7488 26.1681ZM15.8889 28.698C15.8889 28.8237 15.897 28.9433 15.9132 29.0569C15.9294 29.1663 15.9476 29.2555 15.9679 29.3245C15.9963 29.4218 16.0308 29.511 16.0713 29.592C16.1159 29.6731 16.1605 29.7421 16.2051 29.7988C16.2497 29.8515 16.3044 29.9042 16.3693 29.9569C16.4382 30.0056 16.5051 30.0421 16.57 30.0664C16.6268 30.0867 16.6916 30.1029 16.7646 30.1151C16.8376 30.1272 16.9126 30.1333 16.9896 30.1333C17.0707 30.1333 17.1619 30.113 17.2633 30.0725C17.3646 30.0279 17.4599 29.9711 17.5491 29.9022C17.6059 29.8576 17.6626 29.7988 17.7194 29.7258C17.7802 29.6529 17.8289 29.5839 17.8654 29.5191L17.9688 29.5677C17.9282 29.6569 17.8796 29.7441 17.8228 29.8292C17.7701 29.9103 17.6991 29.9873 17.6099 30.0603C17.4924 30.1576 17.3646 30.2265 17.2268 30.2671C17.093 30.3117 16.9714 30.334 16.8619 30.334C16.7687 30.334 16.6855 30.3259 16.6126 30.3097C16.5396 30.2975 16.4646 30.2772 16.3875 30.2488C16.3105 30.2164 16.2314 30.1759 16.1504 30.1272C16.0733 30.0745 16.0064 30.0157 15.9497 29.9509C15.8889 29.8819 15.8321 29.8089 15.7794 29.7319C15.7307 29.6549 15.6902 29.5718 15.6578 29.4826C15.6172 29.3772 15.5848 29.2535 15.5605 29.1116C15.5361 28.9656 15.524 28.8177 15.524 28.6676C15.524 28.542 15.5382 28.4142 15.5665 28.2845C15.5949 28.1507 15.6294 28.0392 15.6699 27.95C15.7024 27.873 15.7429 27.7959 15.7915 27.7189C15.8402 27.6419 15.897 27.5709 15.9618 27.5061C16.0105 27.4574 16.0693 27.4108 16.1382 27.3662C16.2112 27.3175 16.2821 27.279 16.3511 27.2506C16.4078 27.2304 16.4747 27.2141 16.5517 27.202C16.6288 27.1858 16.7159 27.1777 16.8133 27.1777C16.9795 27.1777 17.1234 27.2121 17.245 27.281C17.3707 27.3459 17.4741 27.4229 17.5552 27.5121C17.6322 27.5932 17.6931 27.6763 17.7377 27.7615C17.7823 27.8426 17.8187 27.9318 17.8471 28.0291C17.8877 28.1588 17.912 28.2804 17.9201 28.394C17.9282 28.5034 17.9323 28.6048 17.9323 28.698H15.8889ZM17.4579 28.5278C17.5106 28.5278 17.543 28.5075 17.5552 28.4669C17.5674 28.4264 17.5734 28.3919 17.5734 28.3636C17.5734 28.3109 17.5694 28.2541 17.5613 28.1933C17.5532 28.1325 17.539 28.0696 17.5187 28.0047C17.5025 27.948 17.4802 27.8892 17.4518 27.8284C17.4275 27.7676 17.3991 27.7149 17.3667 27.6703C17.3018 27.5892 17.2187 27.5162 17.1173 27.4513C17.02 27.3865 16.9106 27.354 16.7889 27.354C16.6592 27.354 16.5436 27.3844 16.4423 27.4452C16.3409 27.5061 16.2598 27.573 16.199 27.6459C16.1585 27.6946 16.12 27.7514 16.0835 27.8162C16.051 27.8811 16.0206 27.95 15.9922 28.023C15.9679 28.0879 15.9476 28.1629 15.9314 28.248C15.9152 28.3291 15.903 28.4224 15.8949 28.5278H17.4579ZM20.23 27.6459C20.2138 27.6135 20.1935 27.5811 20.1692 27.5486C20.1489 27.5162 20.1226 27.4919 20.0901 27.4757C20.0577 27.4554 20.0131 27.4432 19.9563 27.4392C19.8996 27.4311 19.859 27.427 19.8347 27.427V27.2628H20.972V27.427C20.9314 27.427 20.8767 27.4311 20.8078 27.4392C20.7388 27.4473 20.6963 27.4554 20.68 27.4635C20.6598 27.4675 20.6415 27.4757 20.6253 27.4878C20.6091 27.4959 20.5969 27.5101 20.5888 27.5304C20.5848 27.5466 20.5827 27.5669 20.5827 27.5912C20.5868 27.6115 20.5908 27.6317 20.5949 27.652L21.27 29.7502L21.9876 27.652C21.9957 27.6236 21.9997 27.5993 21.9997 27.579C21.9997 27.5588 21.9957 27.5405 21.9876 27.5243C21.9835 27.504 21.9754 27.4898 21.9633 27.4817C21.9551 27.4736 21.941 27.4675 21.9207 27.4635C21.8923 27.4554 21.8416 27.4473 21.7686 27.4392C21.6997 27.4311 21.643 27.427 21.5984 27.427V27.2628H22.5897V27.427C22.541 27.427 22.4883 27.4331 22.4315 27.4452C22.3788 27.4574 22.3383 27.4716 22.3099 27.4878C22.2734 27.504 22.243 27.5304 22.2187 27.5669C22.1984 27.5993 22.1802 27.6297 22.1639 27.6581L21.2335 30.2914H21.0814L20.382 28.1142L19.6097 30.2914H19.4576L18.6062 27.6459C18.59 27.6135 18.5697 27.5811 18.5454 27.5486C18.5251 27.5162 18.4988 27.4919 18.4663 27.4757C18.4339 27.4554 18.3893 27.4432 18.3326 27.4392C18.2758 27.4311 18.2352 27.427 18.2109 27.427V27.2628H19.3482V27.427C19.3076 27.427 19.2529 27.4311 19.184 27.4392C19.115 27.4473 19.0725 27.4554 19.0563 27.4635C19.036 27.4675 19.0177 27.4757 19.0015 27.4878C18.9853 27.4959 18.9731 27.5101 18.965 27.5304C18.961 27.5466 18.959 27.5669 18.959 27.5912C18.963 27.6115 18.9671 27.6317 18.9711 27.652L19.6462 29.7502L20.2969 27.8527L20.23 27.6459ZM25.3996 27.7797C25.428 27.7432 25.4543 27.7068 25.4786 27.6703C25.503 27.6297 25.5293 27.5932 25.5577 27.5608C25.6023 27.5081 25.6509 27.4594 25.7037 27.4148C25.7604 27.3662 25.8151 27.3256 25.8679 27.2932C25.9125 27.2648 25.9773 27.2385 26.0625 27.2141C26.1517 27.1898 26.2368 27.1777 26.3179 27.1777C26.3787 27.1777 26.4517 27.1918 26.5368 27.2202C26.626 27.2486 26.699 27.2871 26.7558 27.3358C26.8085 27.3804 26.851 27.427 26.8835 27.4757C26.92 27.5203 26.9483 27.5669 26.9686 27.6155C26.9848 27.6439 26.997 27.6763 27.0051 27.7128C27.0173 27.7493 27.0274 27.7878 27.0355 27.8284C27.0598 27.7838 27.0882 27.7331 27.1207 27.6763C27.1571 27.6196 27.1936 27.5709 27.2301 27.5304C27.2707 27.4817 27.3193 27.4351 27.3761 27.3905C27.4328 27.3459 27.4876 27.3094 27.5403 27.281C27.5889 27.2567 27.6558 27.2344 27.741 27.2141C27.8302 27.1898 27.9153 27.1777 27.9964 27.1777C28.0572 27.1777 28.1322 27.1898 28.2214 27.2141C28.3106 27.2385 28.3816 27.2729 28.4343 27.3175C28.491 27.3581 28.5356 27.4006 28.5681 27.4452C28.6005 27.4858 28.6269 27.5243 28.6471 27.5608C28.6836 27.6257 28.71 27.7007 28.7262 27.7858C28.7465 27.871 28.7566 27.9622 28.7566 28.0595V29.8171C28.7566 29.8535 28.7627 29.89 28.7748 29.9265C28.7911 29.959 28.8073 29.9833 28.8235 29.9995C28.8559 30.0279 28.9005 30.0482 28.9573 30.0603C29.0141 30.0684 29.0728 30.0725 29.1337 30.0725V30.2428H28.0511V30.0725C28.112 30.0725 28.1707 30.0684 28.2275 30.0603C28.2883 30.0482 28.3329 30.0279 28.3613 29.9995C28.3816 29.9833 28.3978 29.959 28.41 29.9265C28.4221 29.89 28.4282 29.8535 28.4282 29.8171V28.1142C28.4282 28.0453 28.4201 27.9723 28.4039 27.8953C28.3917 27.8142 28.3755 27.7473 28.3552 27.6946C28.3349 27.6459 28.3045 27.5993 28.264 27.5547C28.2275 27.5101 28.191 27.4757 28.1545 27.4513C28.1261 27.4311 28.0836 27.4148 28.0268 27.4027C27.9741 27.3905 27.9194 27.3844 27.8626 27.3844C27.7734 27.3844 27.6903 27.4006 27.6133 27.4331C27.5403 27.4655 27.4795 27.5 27.4308 27.5365C27.3903 27.5648 27.3497 27.6054 27.3092 27.6581C27.2686 27.7068 27.2362 27.7493 27.2119 27.7858C27.1876 27.8223 27.1632 27.8628 27.1389 27.9074C27.1146 27.948 27.0903 27.9906 27.0659 28.0352C27.074 28.0514 27.0781 28.0676 27.0781 28.0838C27.0781 28.1 27.0781 28.1142 27.0781 28.1264V29.8171C27.0781 29.8535 27.0842 29.89 27.0963 29.9265C27.1125 29.959 27.1288 29.9833 27.145 29.9995C27.1774 30.0279 27.222 30.0482 27.2788 30.0603C27.3355 30.0684 27.3943 30.0725 27.4551 30.0725V30.2428H26.3726V30.0725C26.4334 30.0725 26.4922 30.0684 26.549 30.0603C26.6098 30.0482 26.6544 30.0279 26.6828 29.9995C26.7031 29.9833 26.7193 29.959 26.7314 29.9265C26.7436 29.89 26.7497 29.8535 26.7497 29.8171V28.1325C26.7497 28.0595 26.7416 27.9825 26.7254 27.9014C26.7132 27.8203 26.697 27.7534 26.6767 27.7007C26.6645 27.6642 26.6402 27.6216 26.6037 27.573C26.5713 27.5243 26.5348 27.4858 26.4943 27.4574C26.4578 27.4331 26.4111 27.4148 26.3544 27.4027C26.2976 27.3905 26.2409 27.3844 26.1841 27.3844C26.1071 27.3844 26.0341 27.4006 25.9652 27.4331C25.8962 27.4655 25.8374 27.5 25.7888 27.5365C25.7604 27.5608 25.7199 27.5993 25.6672 27.652C25.6185 27.7007 25.578 27.7473 25.5455 27.7919C25.5172 27.8284 25.4908 27.8669 25.4665 27.9074C25.4421 27.948 25.4198 27.9885 25.3996 28.0291V29.8171C25.3996 29.8535 25.4057 29.89 25.4178 29.9265C25.434 29.959 25.4503 29.9833 25.4665 29.9995C25.4989 30.0279 25.5435 30.0482 25.6003 30.0603C25.657 30.0684 25.7158 30.0725 25.7766 30.0725V30.2428H24.6941V30.0725C24.7549 30.0725 24.8137 30.0684 24.8705 30.0603C24.9313 30.0482 24.9759 30.0279 25.0043 29.9995C25.0245 29.9833 25.0408 29.959 25.0529 29.9265C25.0651 29.89 25.0712 29.8535 25.0712 29.8171V27.8588C25.0712 27.8264 25.0651 27.7939 25.0529 27.7615C25.0408 27.725 25.0245 27.6966 25.0043 27.6763C24.9799 27.652 24.9475 27.6338 24.907 27.6216C24.8664 27.6054 24.8137 27.5973 24.7488 27.5973H24.6515V27.4392C24.7002 27.4392 24.763 27.4311 24.8401 27.4148C24.9212 27.3986 25.0002 27.3763 25.0773 27.3479C25.134 27.3277 25.1908 27.3033 25.2475 27.275C25.3043 27.2466 25.355 27.2162 25.3996 27.1837V27.7797ZM29.5223 28.7528C29.5223 28.6595 29.5304 28.5541 29.5466 28.4365C29.5669 28.3149 29.5912 28.2115 29.6196 28.1264C29.6439 28.0493 29.6743 27.9683 29.7108 27.8831C29.7513 27.7939 29.798 27.7149 29.8507 27.6459C29.8912 27.5932 29.9439 27.5365 30.0088 27.4757C30.0777 27.4148 30.1487 27.3642 30.2216 27.3236C30.2865 27.2871 30.3777 27.2547 30.4953 27.2263C30.6129 27.1939 30.7163 27.1777 30.8055 27.1777C30.8987 27.1777 31.0021 27.1939 31.1156 27.2263C31.2332 27.2547 31.3244 27.2871 31.3893 27.3236C31.4623 27.3642 31.5312 27.4148 31.5961 27.4757C31.665 27.5365 31.7197 27.5932 31.7603 27.6459C31.813 27.7149 31.8576 27.7939 31.8941 27.8831C31.9346 27.9683 31.9671 28.0493 31.9914 28.1264C32.0198 28.2115 32.0421 28.3149 32.0583 28.4365C32.0785 28.5541 32.0887 28.6595 32.0887 28.7528C32.0887 28.846 32.0785 28.9535 32.0583 29.0751C32.0421 29.1927 32.0198 29.294 31.9914 29.3792C31.9671 29.4562 31.9346 29.5393 31.8941 29.6285C31.8576 29.7137 31.813 29.7907 31.7603 29.8596C31.7197 29.9123 31.665 29.9691 31.5961 30.0299C31.5312 30.0907 31.4623 30.1414 31.3893 30.182C31.3244 30.2184 31.2332 30.2509 31.1156 30.2793C31.0021 30.3117 30.8987 30.3279 30.8055 30.3279C30.7163 30.3279 30.6129 30.3117 30.4953 30.2793C30.3777 30.2509 30.2865 30.2184 30.2216 30.182C30.1487 30.1414 30.0777 30.0907 30.0088 30.0299C29.9439 29.9691 29.8912 29.9123 29.8507 29.8596C29.798 29.7907 29.7513 29.7137 29.7108 29.6285C29.6743 29.5393 29.6439 29.4562 29.6196 29.3792C29.5912 29.294 29.5669 29.1927 29.5466 29.0751C29.5304 28.9535 29.5223 28.846 29.5223 28.7528ZM29.875 28.7528C29.875 28.8217 29.879 28.9089 29.8872 29.0143C29.8993 29.1156 29.9135 29.2008 29.9297 29.2697C29.9419 29.3224 29.9642 29.3954 29.9966 29.4887C30.0291 29.5819 30.0615 29.6569 30.0939 29.7137C30.1264 29.7623 30.1649 29.8171 30.2095 29.8779C30.2581 29.9346 30.3108 29.9833 30.3676 30.0238C30.4163 30.0563 30.4811 30.0867 30.5622 30.1151C30.6474 30.1434 30.7284 30.1576 30.8055 30.1576C30.8825 30.1576 30.9616 30.1434 31.0427 30.1151C31.1278 30.0867 31.1947 30.0563 31.2433 30.0238C31.3001 29.9833 31.3528 29.9346 31.4015 29.8779C31.4501 29.8171 31.4886 29.7623 31.517 29.7137C31.5495 29.6569 31.5819 29.5819 31.6143 29.4887C31.6468 29.3954 31.6691 29.3224 31.6812 29.2697C31.6974 29.2008 31.7096 29.1156 31.7177 29.0143C31.7299 28.9089 31.736 28.8217 31.736 28.7528C31.736 28.6839 31.7299 28.5987 31.7177 28.4974C31.7096 28.3919 31.6974 28.3048 31.6812 28.2358C31.6691 28.1831 31.6468 28.1102 31.6143 28.0169C31.5819 27.9196 31.5495 27.8446 31.517 27.7919C31.4886 27.7432 31.4501 27.6905 31.4015 27.6338C31.3528 27.573 31.3001 27.5223 31.2433 27.4817C31.1947 27.4493 31.1278 27.4189 31.0427 27.3905C30.9616 27.3621 30.8825 27.3479 30.8055 27.3479C30.7284 27.3479 30.6474 27.3621 30.5622 27.3905C30.4811 27.4189 30.4163 27.4493 30.3676 27.4817C30.3108 27.5223 30.2581 27.573 30.2095 27.6338C30.1649 27.6905 30.1264 27.7432 30.0939 27.7919C30.0615 27.8446 30.0291 27.9196 29.9966 28.0169C29.9642 28.1102 29.9419 28.1831 29.9297 28.2358C29.9135 28.3048 29.8993 28.3919 29.8872 28.4974C29.879 28.5987 29.875 28.6839 29.875 28.7528ZM33.2334 28.0169C33.2618 27.9723 33.2862 27.9277 33.3064 27.8831C33.3307 27.8345 33.3571 27.7899 33.3855 27.7493C33.4301 27.6763 33.4767 27.6074 33.5254 27.5426C33.5781 27.4777 33.6247 27.427 33.6652 27.3905C33.6977 27.3581 33.7362 27.3277 33.7808 27.2993C33.8254 27.2709 33.868 27.2486 33.9085 27.2324C33.9409 27.2162 33.9835 27.204 34.0362 27.1959C34.0889 27.1837 34.1315 27.1777 34.1639 27.1777C34.2045 27.1777 34.2531 27.1878 34.3099 27.2081C34.3707 27.2243 34.4234 27.2527 34.468 27.2932C34.5004 27.3216 34.5268 27.3581 34.5471 27.4027C34.5714 27.4432 34.5836 27.4858 34.5836 27.5304C34.5836 27.5588 34.5775 27.5912 34.5653 27.6277C34.5531 27.6601 34.5369 27.6885 34.5167 27.7128C34.4964 27.7372 34.47 27.7554 34.4376 27.7676C34.4092 27.7797 34.3829 27.7858 34.3585 27.7858C34.3261 27.7858 34.2937 27.7757 34.2612 27.7554C34.2288 27.7311 34.1984 27.7047 34.17 27.6763C34.1538 27.6561 34.1355 27.6358 34.1153 27.6155C34.0991 27.5953 34.0808 27.577 34.0605 27.5608C34.0443 27.5486 34.024 27.5385 33.9997 27.5304C33.9754 27.5182 33.9511 27.5121 33.9267 27.5121C33.9024 27.5121 33.8761 27.5182 33.8477 27.5304C33.8234 27.5385 33.8031 27.5466 33.7869 27.5547C33.7666 27.5669 33.7402 27.5851 33.7078 27.6094C33.6754 27.6338 33.647 27.6601 33.6227 27.6885C33.5943 27.7169 33.5578 27.7635 33.5132 27.8284C33.4727 27.8892 33.4321 27.9541 33.3916 28.023C33.3632 28.0757 33.3348 28.1284 33.3064 28.1811C33.2821 28.2338 33.2578 28.2886 33.2334 28.3453V29.738C33.2334 29.7623 33.2355 29.7907 33.2395 29.8231C33.2476 29.8515 33.2537 29.8738 33.2578 29.89C33.2659 29.9144 33.278 29.9367 33.2943 29.9569C33.3105 29.9732 33.3267 29.9873 33.3429 29.9995C33.3632 30.0117 33.3855 30.0218 33.4098 30.0299C33.4341 30.038 33.4585 30.0461 33.4828 30.0542C33.5152 30.0583 33.5558 30.0644 33.6044 30.0725C33.6531 30.0765 33.6916 30.0786 33.72 30.0786V30.2428H32.4185V30.0786C32.4469 30.0786 32.4854 30.0765 32.5341 30.0725C32.5868 30.0644 32.6273 30.0583 32.6557 30.0542C32.68 30.0461 32.7043 30.038 32.7287 30.0299C32.753 30.0218 32.7753 30.0117 32.7956 29.9995C32.8158 29.9873 32.8321 29.9732 32.8442 29.9569C32.8604 29.9367 32.8726 29.9144 32.8807 29.89C32.8888 29.8738 32.8949 29.8515 32.899 29.8231C32.903 29.7907 32.905 29.7623 32.905 29.738V27.8284C32.905 27.7959 32.899 27.7635 32.8868 27.7311C32.8746 27.6986 32.8584 27.6723 32.8381 27.652C32.8138 27.6317 32.7834 27.6155 32.7469 27.6034C32.7145 27.5871 32.6699 27.579 32.6131 27.579H32.4672V27.4209C32.5158 27.4209 32.5827 27.4128 32.6679 27.3966C32.7571 27.3804 32.8341 27.3601 32.899 27.3358C32.9476 27.3155 32.9963 27.2912 33.0449 27.2628C33.0936 27.2344 33.1341 27.206 33.1665 27.1777H33.2334V28.0169ZM35.2145 28.698C35.2145 28.8237 35.2226 28.9433 35.2388 29.0569C35.255 29.1663 35.2733 29.2555 35.2935 29.3245C35.3219 29.4218 35.3564 29.511 35.3969 29.592C35.4415 29.6731 35.4861 29.7421 35.5307 29.7988C35.5753 29.8515 35.63 29.9042 35.6949 29.9569C35.7638 30.0056 35.8307 30.0421 35.8956 30.0664C35.9524 30.0867 36.0172 30.1029 36.0902 30.1151C36.1632 30.1272 36.2382 30.1333 36.3152 30.1333C36.3963 30.1333 36.4875 30.113 36.5889 30.0725C36.6903 30.0279 36.7855 29.9711 36.8747 29.9022C36.9315 29.8576 36.9883 29.7988 37.045 29.7258C37.1058 29.6529 37.1545 29.5839 37.191 29.5191L37.2944 29.5677C37.2538 29.6569 37.2052 29.7441 37.1484 29.8292C37.0957 29.9103 37.0247 29.9873 36.9356 30.0603C36.818 30.1576 36.6903 30.2265 36.5524 30.2671C36.4186 30.3117 36.297 30.334 36.1875 30.334C36.0943 30.334 36.0112 30.3259 35.9382 30.3097C35.8652 30.2975 35.7902 30.2772 35.7132 30.2488C35.6361 30.2164 35.5571 30.1759 35.476 30.1272C35.3989 30.0745 35.332 30.0157 35.2753 29.9509C35.2145 29.8819 35.1577 29.8089 35.105 29.7319C35.0563 29.6549 35.0158 29.5718 34.9834 29.4826C34.9428 29.3772 34.9104 29.2535 34.8861 29.1116C34.8617 28.9656 34.8496 28.8177 34.8496 28.6676C34.8496 28.542 34.8638 28.4142 34.8921 28.2845C34.9205 28.1507 34.955 28.0392 34.9955 27.95C35.028 27.873 35.0685 27.7959 35.1172 27.7189C35.1658 27.6419 35.2226 27.5709 35.2874 27.5061C35.3361 27.4574 35.3949 27.4108 35.4638 27.3662C35.5368 27.3175 35.6077 27.279 35.6767 27.2506C35.7334 27.2304 35.8003 27.2141 35.8774 27.202C35.9544 27.1858 36.0416 27.1777 36.1389 27.1777C36.3051 27.1777 36.449 27.2121 36.5707 27.281C36.6963 27.3459 36.7997 27.4229 36.8808 27.5121C36.9579 27.5932 37.0187 27.6763 37.0633 27.7615C37.1079 27.8426 37.1444 27.9318 37.1727 28.0291C37.2133 28.1588 37.2376 28.2804 37.2457 28.394C37.2538 28.5034 37.2579 28.6048 37.2579 28.698H35.2145ZM36.7835 28.5278C36.8362 28.5278 36.8687 28.5075 36.8808 28.4669C36.893 28.4264 36.8991 28.3919 36.8991 28.3636C36.8991 28.3109 36.895 28.2541 36.8869 28.1933C36.8788 28.1325 36.8646 28.0696 36.8443 28.0047C36.8281 27.948 36.8058 27.8892 36.7774 27.8284C36.7531 27.7676 36.7247 27.7149 36.6923 27.6703C36.6274 27.5892 36.5443 27.5162 36.4429 27.4513C36.3456 27.3865 36.2362 27.354 36.1145 27.354C35.9848 27.354 35.8692 27.3844 35.7679 27.4452C35.6665 27.5061 35.5854 27.573 35.5246 27.6459C35.4841 27.6946 35.4456 27.7514 35.4091 27.8162C35.3766 27.8811 35.3462 27.95 35.3179 28.023C35.2935 28.0879 35.2733 28.1629 35.257 28.248C35.2408 28.3291 35.2287 28.4224 35.2205 28.5278H36.7835Z" fill="#E8E9EB"/>
</svg>
