<svg width="128" height="128" viewBox="0 0 128 128" fill="none" xmlns="http://www.w3.org/2000/svg">
<circle cx="64.0002" cy="64" r="64" fill="#090B0B"/>
<path d="M52.0436 54.2504C51.6976 54.2504 51.4003 54.2667 51.1517 54.2991C50.903 54.3315 50.6922 54.3748 50.5192 54.4288C50.4111 54.4613 50.3083 54.4991 50.211 54.5424C50.1245 54.5856 50.0435 54.6289 49.9678 54.6721C49.9137 54.6505 49.8326 54.618 49.7245 54.5748C49.6272 54.5315 49.5299 54.4883 49.4326 54.4451C49.3245 54.391 49.2056 54.3315 49.0758 54.2667C48.9569 54.191 48.8596 54.1315 48.7839 54.0883C48.719 54.045 48.6433 53.991 48.5569 53.9261C48.4704 53.8504 48.4271 53.7909 48.4271 53.7477C48.4271 53.6936 48.4487 53.6558 48.492 53.6342C48.5352 53.6017 48.5893 53.5909 48.6542 53.6017C48.7947 53.6126 48.9136 53.6288 49.0109 53.6504C49.1191 53.6612 49.2488 53.672 49.4002 53.6828C49.5299 53.6936 49.7299 53.7045 50.0002 53.7153C50.2813 53.7261 50.5732 53.7315 50.876 53.7315H53.487V49.2392C53.487 49.1311 53.4762 49.0338 53.4545 48.9473C53.4329 48.8608 53.4005 48.7851 53.3572 48.7203C53.314 48.6662 53.2653 48.6122 53.2113 48.5581C53.1572 48.4932 53.0924 48.4392 53.0167 48.3959C52.941 48.3419 52.8599 48.2932 52.7734 48.25C52.6977 48.2067 52.6166 48.1635 52.5301 48.1202C52.4545 48.0878 52.368 48.0554 52.2707 48.0229C52.1842 47.9797 52.1085 47.9472 52.0436 47.9256C51.9788 47.904 51.9085 47.877 51.8328 47.8445C51.7679 47.8121 51.7355 47.7688 51.7355 47.7148C51.7355 47.6499 51.7787 47.6013 51.8652 47.5688C51.9517 47.5364 52.049 47.5202 52.1571 47.5202C52.222 47.5202 52.3518 47.5364 52.5464 47.5688C52.7518 47.5904 52.9464 47.6283 53.1302 47.6823C53.2599 47.7148 53.4113 47.758 53.5843 47.8121C53.7573 47.8553 53.9194 47.904 54.0708 47.958C54.1789 48.0013 54.2762 48.0499 54.3627 48.104C54.46 48.1581 54.5087 48.2283 54.5087 48.3148C54.5087 48.3581 54.4979 48.4121 54.4763 48.477C54.4546 48.5311 54.433 48.5959 54.4114 48.6716C54.4006 48.7365 54.3898 48.823 54.3789 48.9311C54.3681 49.0392 54.3627 49.1203 54.3627 49.1744V59.0995C54.3627 59.3157 54.3573 59.586 54.3465 59.9104C54.3357 60.2239 54.3249 60.4726 54.3141 60.6564C54.3033 60.9807 54.287 61.251 54.2654 61.4672C54.2438 61.6943 54.2222 61.8565 54.2006 61.9538C54.1789 62.0943 54.1519 62.2132 54.1195 62.3105C54.0978 62.4079 54.0762 62.4835 54.0546 62.5376C54.033 62.5917 54.0005 62.6403 53.9573 62.6836C53.9249 62.7376 53.8816 62.7646 53.8275 62.7646C53.7843 62.7646 53.7465 62.7376 53.714 62.6836C53.6816 62.6403 53.6546 62.5971 53.6329 62.5538C53.6221 62.4998 53.6059 62.4349 53.5843 62.3592C53.5735 62.2943 53.5627 62.2241 53.5519 62.1484C53.541 61.997 53.5302 61.8673 53.5194 61.7592C53.5194 61.651 53.514 61.4997 53.5032 61.3051C53.4924 61.0672 53.487 60.7537 53.487 60.3644C53.487 59.9752 53.487 59.7157 53.487 59.586V54.2504H52.0436ZM44.4538 58.8562C44.7025 58.8346 44.989 58.8076 45.3134 58.7751C45.6485 58.7319 45.9512 58.6886 46.2215 58.6454C46.4486 58.613 46.7243 58.5697 47.0486 58.5157C47.3838 58.4616 47.6865 58.4129 47.9568 58.3697C48.2055 58.3264 48.5136 58.2724 48.8812 58.2075C49.2488 58.1426 49.5732 58.0832 49.8543 58.0291C50.1029 57.9751 50.4057 57.9102 50.7624 57.8345C51.1192 57.7588 51.4111 57.694 51.6382 57.6399C51.7679 57.5967 51.849 57.6345 51.8814 57.7534C51.9139 57.8724 51.8652 57.9643 51.7355 58.0291C51.5625 58.1048 51.3138 58.1913 50.9895 58.2886C50.6759 58.3751 50.3948 58.4562 50.1462 58.5319C49.8434 58.6184 49.5299 58.7049 49.2056 58.7913C48.892 58.867 48.5947 58.9427 48.3136 59.0184C48.0001 59.0941 47.6811 59.1698 47.3568 59.2454C47.0324 59.3211 46.7297 59.3914 46.4486 59.4563C46.1242 59.5319 45.7674 59.6076 45.3782 59.6833C44.989 59.759 44.6863 59.8131 44.47 59.8455C44.3295 59.8455 44.1403 59.759 43.9024 59.586C43.6754 59.4022 43.5619 59.2292 43.5619 59.067V50.7799C43.5619 50.6826 43.5402 50.6015 43.497 50.5366C43.4537 50.4609 43.3943 50.4015 43.3186 50.3582C43.2321 50.3042 43.1186 50.2555 42.978 50.2123C42.8483 50.1582 42.724 50.115 42.605 50.0825C42.551 50.0609 42.4807 50.0447 42.3942 50.0339C42.3077 50.0123 42.2645 49.969 42.2645 49.9041C42.2645 49.8285 42.3185 49.769 42.4266 49.7258C42.5456 49.6717 42.6915 49.6447 42.8645 49.6447C43.0483 49.6447 43.2267 49.6555 43.3997 49.6771C43.5835 49.6879 43.7511 49.7041 43.9024 49.7258C44.0538 49.7474 44.2052 49.7798 44.3565 49.8231C44.5079 49.8663 44.5944 49.9096 44.616 49.9528H46.7243C47.0378 49.9528 47.3027 49.942 47.5189 49.9204C47.7352 49.8987 47.8973 49.8663 48.0055 49.8231C48.092 49.7906 48.173 49.7528 48.2487 49.7095C48.3352 49.6663 48.4109 49.6122 48.4758 49.5474C48.6596 49.5582 48.8326 49.5636 48.9947 49.5636C49.1569 49.5636 49.3407 49.5744 49.5461 49.596C49.8597 49.6176 50.1029 49.6717 50.2759 49.7582C50.4489 49.8339 50.5354 49.9582 50.5354 50.1312C50.5354 50.2609 50.503 50.3528 50.4381 50.4069C50.3732 50.4609 50.2759 50.488 50.1462 50.488H44.4538V58.8562ZM64.4526 56.5209V60.5753H65.9608C66.3176 60.5753 66.5987 60.5753 66.8041 60.5753C67.0203 60.5645 67.1879 60.5537 67.3068 60.5428C67.4258 60.532 67.5717 60.5158 67.7447 60.4942C67.9285 60.4726 68.0799 60.4401 68.1988 60.3969C68.3069 60.3644 68.3988 60.3266 68.4745 60.2834C68.561 60.2401 68.6313 60.1969 68.6853 60.1536C68.8367 60.1644 68.9827 60.1752 69.1232 60.1861C69.2746 60.1861 69.4205 60.1969 69.5611 60.2185C69.7341 60.2293 69.8962 60.2509 70.0476 60.2834C70.199 60.305 70.3341 60.3266 70.453 60.3482C70.6044 60.3807 70.7287 60.4347 70.826 60.5104C70.9233 60.5861 70.972 60.6996 70.972 60.851C70.972 60.9699 70.9396 61.0672 70.8747 61.1429C70.8206 61.2294 70.7287 61.2726 70.599 61.2726C70.5449 61.2726 70.4206 61.2618 70.226 61.2402C70.0422 61.2294 69.88 61.2186 69.7395 61.2078C69.534 61.1861 69.2529 61.1699 68.8962 61.1591C68.5502 61.1483 68.2421 61.1429 67.9718 61.1429H62.2632C61.874 61.1429 61.4956 61.1483 61.128 61.1591C60.7712 61.1807 60.5171 61.2024 60.3657 61.224C60.2252 61.2348 60.0738 61.2564 59.9117 61.2888C59.7495 61.3213 59.6143 61.3537 59.5062 61.3862C59.4197 61.4078 59.3224 61.4402 59.2143 61.4835C59.1062 61.5375 59.0089 61.5862 58.9224 61.6294C58.9008 61.6294 58.8521 61.6132 58.7764 61.5808C58.7007 61.5591 58.6359 61.5375 58.5818 61.5159C58.5061 61.4835 58.4196 61.4456 58.3223 61.4024C58.2358 61.3591 58.1331 61.3105 58.0142 61.2564C57.9169 61.2024 57.8088 61.1429 57.6899 61.078C57.5709 61.024 57.4682 60.9699 57.3817 60.9158C57.306 60.8618 57.2249 60.8023 57.1385 60.7375C57.0628 60.6726 57.0249 60.6131 57.0249 60.5591C57.0249 60.505 57.0466 60.4672 57.0898 60.4455C57.1331 60.4131 57.1871 60.4023 57.252 60.4131C57.3817 60.4239 57.5439 60.4401 57.7385 60.4618C57.9331 60.4834 58.1169 60.4996 58.2899 60.5104C58.571 60.5212 58.9008 60.5374 59.2792 60.5591C59.6576 60.5699 60.0522 60.5753 60.463 60.5753H63.5444V56.5209H60.2684C60.2576 56.6614 60.236 56.802 60.2036 56.9426C60.1711 57.0831 60.1441 57.1966 60.1225 57.2831C60.09 57.3804 60.0468 57.4669 59.9927 57.5426C59.9495 57.6075 59.9008 57.6399 59.8468 57.6399C59.7711 57.6399 59.7116 57.6021 59.6684 57.5264C59.636 57.4507 59.6089 57.375 59.5873 57.2993C59.5657 57.202 59.5441 57.0831 59.5224 56.9426C59.5116 56.7912 59.5008 56.656 59.49 56.5371C59.4792 56.4074 59.4684 56.1803 59.4576 55.856C59.4576 55.5208 59.4576 55.2776 59.4576 55.1262V50.3258C59.4576 50.2393 59.4467 50.1636 59.4251 50.0988C59.4035 50.0231 59.3603 49.9528 59.2954 49.8879C59.2521 49.8339 59.1873 49.7798 59.1008 49.7258C59.0143 49.6717 58.9386 49.6284 58.8737 49.596C58.8089 49.5636 58.7332 49.5311 58.6467 49.4987C58.571 49.4555 58.5007 49.423 58.4359 49.4014C58.371 49.3798 58.3007 49.3528 58.225 49.3203C58.1493 49.2771 58.1115 49.2284 58.1115 49.1744C58.1115 49.1095 58.1493 49.0608 58.225 49.0284C58.3115 48.996 58.3926 48.9797 58.4683 48.9797C58.5224 48.9797 58.6197 48.9906 58.7602 49.0122C58.9116 49.023 59.0737 49.0446 59.2467 49.0771C59.3873 49.0987 59.5332 49.1311 59.6846 49.1744C59.8468 49.2068 59.9927 49.2446 60.1225 49.2879C60.1982 49.3095 60.2738 49.3419 60.3495 49.3852C60.4252 49.4284 60.463 49.4825 60.463 49.5474C60.463 49.5906 60.4468 49.6825 60.4144 49.8231C60.382 49.9528 60.3657 50.0879 60.3657 50.2285V51.8178H67.7934V49.742C67.7934 49.6555 67.7826 49.5744 67.7609 49.4987C67.7393 49.4122 67.6961 49.3365 67.6312 49.2717C67.5879 49.2176 67.5231 49.1635 67.4366 49.1095C67.3501 49.0554 67.2744 49.0122 67.2095 48.9797C67.1447 48.9473 67.0582 48.9095 66.9501 48.8662C66.8419 48.8122 66.7554 48.7743 66.6906 48.7527C66.6365 48.7311 66.5716 48.7041 66.496 48.6716C66.4203 48.6284 66.3824 48.5797 66.3824 48.5257C66.3824 48.4608 66.4203 48.4121 66.496 48.3797C66.5825 48.3473 66.6635 48.331 66.7392 48.331C66.7933 48.331 66.9176 48.3473 67.1122 48.3797C67.3068 48.4013 67.4852 48.4284 67.6474 48.4608C67.7988 48.4932 67.9339 48.5257 68.0528 48.5581C68.1826 48.5905 68.3069 48.6284 68.4258 48.6716C68.5015 48.6932 68.5826 48.7311 68.6691 48.7851C68.7556 48.8284 68.7989 48.8824 68.7989 48.9473C68.7989 48.9906 68.7826 49.0825 68.7502 49.223C68.7178 49.3528 68.7015 49.4879 68.7015 49.6284V54.6397C68.7015 54.8018 68.6907 55.0505 68.6691 55.3857C68.6583 55.71 68.6421 55.9911 68.6205 56.229C68.6096 56.402 68.588 56.575 68.5556 56.7479C68.5232 56.9101 68.4907 57.0399 68.4583 57.1372C68.4258 57.2345 68.3826 57.321 68.3285 57.3966C68.2853 57.4615 68.2366 57.4939 68.1826 57.4939C68.1069 57.4939 68.0474 57.4561 68.0042 57.3804C67.9718 57.3047 67.9447 57.2291 67.9231 57.1534C67.9123 57.0669 67.8961 56.9696 67.8745 56.8615C67.8636 56.7425 67.8474 56.629 67.8258 56.5209H64.4526ZM67.7934 55.9533C67.7934 55.7695 67.7934 55.5857 67.7934 55.4019C67.7934 55.2181 67.7934 55.0775 67.7934 54.9802V52.3854H60.3657V54.7856C60.3657 54.9045 60.3603 55.0775 60.3495 55.3046C60.3495 55.5208 60.3387 55.737 60.3171 55.9533H67.7934ZM83.8837 59.0995C83.8837 59.3157 83.8783 59.586 83.8675 59.9104C83.8566 60.2239 83.8458 60.4726 83.835 60.6564C83.8242 60.9807 83.808 61.251 83.7864 61.4672C83.7647 61.6943 83.7431 61.8565 83.7215 61.9538C83.6999 62.0943 83.6728 62.2132 83.6404 62.3105C83.6188 62.4079 83.5972 62.4835 83.5755 62.5376C83.5539 62.5917 83.5215 62.6403 83.4782 62.6836C83.4458 62.7376 83.4026 62.7646 83.3485 62.7646C83.3053 62.7646 83.2674 62.7376 83.235 62.6836C83.2025 62.6403 83.1755 62.5971 83.1539 62.5538C83.1431 62.4998 83.1269 62.4349 83.1052 62.3592C83.0944 62.2943 83.0836 62.2241 83.0728 62.1484C83.062 61.997 83.0512 61.8673 83.0404 61.7592C83.0404 61.651 83.035 61.4997 83.0241 61.3051C83.0133 61.0672 83.0079 60.7537 83.0079 60.3644C83.0079 59.9752 83.0079 59.7157 83.0079 59.586V49.2392C83.0079 49.1311 82.9971 49.0338 82.9755 48.9473C82.9539 48.8608 82.9214 48.7851 82.8782 48.7203C82.8349 48.6662 82.7863 48.6122 82.7322 48.5581C82.6782 48.4932 82.6133 48.4392 82.5376 48.3959C82.4619 48.3419 82.3809 48.2932 82.2944 48.25C82.2187 48.2067 82.1376 48.1635 82.0511 48.1202C81.9754 48.0878 81.8889 48.0554 81.7916 48.0229C81.7051 47.9797 81.6294 47.9472 81.5646 47.9256C81.4997 47.904 81.4294 47.877 81.3537 47.8445C81.2889 47.8121 81.2564 47.7688 81.2564 47.7148C81.2564 47.6499 81.2997 47.6013 81.3862 47.5688C81.4727 47.5364 81.57 47.5202 81.6781 47.5202C81.743 47.5202 81.8727 47.5364 82.0673 47.5688C82.2727 47.5904 82.4673 47.6283 82.6511 47.6823C82.7809 47.7148 82.9322 47.758 83.1052 47.8121C83.2782 47.8553 83.4404 47.904 83.5918 47.958C83.6999 48.0013 83.7972 48.0499 83.8837 48.104C83.981 48.1581 84.0296 48.2283 84.0296 48.3148C84.0296 48.3581 84.0188 48.4121 83.9972 48.477C83.9756 48.5311 83.954 48.5959 83.9323 48.6716C83.9215 48.7365 83.9107 48.823 83.8999 48.9311C83.8891 49.0392 83.8837 49.1203 83.8837 49.1744V59.0995ZM80.0563 50.6177C80.0131 50.7907 79.9482 51.0015 79.8617 51.2502C79.7861 51.4881 79.7158 51.6881 79.6509 51.8502C79.5644 52.0773 79.4671 52.3152 79.359 52.5638C79.2509 52.8125 79.1536 53.0287 79.0671 53.2125C78.9698 53.4179 78.8454 53.6504 78.6941 53.9099C78.5535 54.1585 78.4076 54.391 78.2562 54.6072C78.0832 54.8559 77.8832 55.1262 77.6562 55.4181C77.4399 55.6992 77.2237 55.9641 77.0074 56.2128C76.802 56.4398 76.5804 56.6669 76.3425 56.8939C76.1155 57.1209 75.8938 57.3264 75.6776 57.5102C75.4181 57.7372 75.1316 57.9751 74.8181 58.2237C74.5154 58.4724 74.2559 58.6778 74.0396 58.84C73.8126 59.013 73.5315 59.2076 73.1963 59.4238C72.8612 59.6401 72.553 59.8347 72.2719 60.0077C72.1314 60.0725 72.0179 60.0671 71.9314 59.9914C71.8557 59.9158 71.8881 59.8239 72.0287 59.7157C72.299 59.5103 72.5638 59.2995 72.8233 59.0833C73.0828 58.867 73.3477 58.64 73.618 58.4021C73.845 58.2075 74.0829 57.9913 74.3316 57.7534C74.591 57.5048 74.8235 57.2777 75.0289 57.0723C75.2451 56.8561 75.4722 56.6236 75.71 56.3749C75.9479 56.1155 76.1479 55.883 76.3101 55.6776C76.4615 55.4938 76.629 55.2721 76.8128 55.0127C77.0074 54.7532 77.175 54.5207 77.3156 54.3153C77.4345 54.1315 77.5697 53.9045 77.721 53.6342C77.8832 53.3639 78.0129 53.1368 78.1102 52.953C78.2184 52.7584 78.3157 52.553 78.4022 52.3368C78.4995 52.1205 78.586 51.9097 78.6616 51.7043C78.7373 51.5205 78.8076 51.3313 78.8725 51.1367C78.9373 50.9313 78.9914 50.7421 79.0346 50.5691H76.6669C76.3966 50.5691 76.1209 50.5745 75.8398 50.5853C75.5587 50.5961 75.3262 50.6123 75.1424 50.6339C75.0235 50.6447 74.8992 50.6664 74.7694 50.6988C74.6505 50.7312 74.5532 50.7583 74.4775 50.7799C74.4126 50.8015 74.337 50.8285 74.2505 50.861C74.1748 50.8934 74.1045 50.9313 74.0396 50.9745C74.018 50.9745 73.9694 50.9637 73.8937 50.9421C73.8288 50.9096 73.7694 50.8826 73.7153 50.861C73.6504 50.8394 73.5747 50.8123 73.4882 50.7799C73.4126 50.7366 73.3315 50.6934 73.245 50.6502C73.1369 50.5961 73.0396 50.5474 72.9531 50.5042C72.8666 50.4501 72.7801 50.4015 72.6936 50.3582C72.6179 50.315 72.5422 50.2609 72.4665 50.1961C72.3909 50.1312 72.353 50.0771 72.353 50.0339C72.353 49.9798 72.3746 49.942 72.4179 49.9204C72.4611 49.8879 72.5098 49.8771 72.5638 49.8879C72.6828 49.8987 72.7855 49.9096 72.872 49.9204C72.9585 49.9312 73.0558 49.942 73.1639 49.9528C73.3585 49.9636 73.6288 49.9798 73.9748 50.0015C74.3316 50.0231 74.7424 50.0339 75.2073 50.0339H78.84L79.1644 49.8068C79.2833 49.8177 79.4022 49.8285 79.5212 49.8393C79.6509 49.8393 79.7752 49.8501 79.8942 49.8717C80.0131 49.8825 80.1104 49.9041 80.1861 49.9366C80.2618 49.9582 80.2996 50.0123 80.2996 50.0988C80.2996 50.1744 80.2726 50.2609 80.2185 50.3582C80.1645 50.4447 80.1104 50.5312 80.0563 50.6177ZM31.9244 79.1105L29.3945 72.0558C29.3512 71.9693 29.2972 71.8883 29.2323 71.8126C29.1674 71.7261 29.0755 71.6558 28.9566 71.6017C28.8593 71.5477 28.7295 71.5152 28.5674 71.5044C28.416 71.4828 28.3025 71.472 28.2268 71.472V71.0341H31.519V71.472C31.4 71.472 31.2379 71.4828 31.0324 71.5044C30.8378 71.5261 30.7135 71.5477 30.6594 71.5693C30.6054 71.5801 30.5513 71.6017 30.4973 71.6342C30.4432 71.6666 30.4054 71.7045 30.3837 71.7477C30.3621 71.7909 30.3567 71.845 30.3675 71.9099C30.3783 71.9639 30.3891 72.018 30.4 72.072L32.4271 77.7644L34.5679 72.072C34.5895 71.9964 34.6003 71.9315 34.6003 71.8774C34.6003 71.8234 34.5895 71.7747 34.5679 71.7315C34.557 71.6882 34.53 71.6558 34.4868 71.6342C34.4435 71.6017 34.3949 71.5801 34.3408 71.5693C34.2651 71.5477 34.1246 71.5261 33.9192 71.5044C33.7137 71.4828 33.5461 71.472 33.4164 71.472V71.0341H36.2707V71.472C36.141 71.472 35.995 71.4882 35.8328 71.5207C35.6706 71.5531 35.5463 71.5909 35.4598 71.6342C35.3517 71.6882 35.2598 71.7585 35.1841 71.845C35.1192 71.9315 35.0652 72.0126 35.0219 72.0883L32.2974 79.1105H31.9244ZM38.2107 72.5424C38.2107 72.4559 38.1945 72.3694 38.1621 72.2829C38.1296 72.1964 38.0864 72.1261 38.0323 72.072C37.9675 72.018 37.8864 71.9747 37.7891 71.9423C37.7026 71.8991 37.5836 71.8774 37.4323 71.8774H37.0431V71.4558C37.1728 71.4558 37.3512 71.4342 37.5782 71.3909C37.8161 71.3477 38.0215 71.2936 38.1945 71.2287C38.3242 71.1747 38.454 71.1098 38.5837 71.0341C38.7135 70.9584 38.8216 70.8828 38.9081 70.8071H39.0865V77.6347C39.0865 77.6995 39.0919 77.7752 39.1027 77.8617C39.1243 77.9374 39.1405 77.9969 39.1513 78.0401C39.173 78.105 39.2054 78.1644 39.2486 78.2185C39.2919 78.2617 39.3351 78.2996 39.3784 78.332C39.4324 78.3644 39.4919 78.3915 39.5568 78.4131C39.6216 78.4347 39.6865 78.4563 39.7514 78.478C39.8379 78.4888 39.946 78.505 40.0757 78.5266C40.2055 78.5374 40.3082 78.5428 40.3839 78.5428V78.9807H36.9133V78.5428C36.989 78.5428 37.0917 78.5374 37.2214 78.5266C37.362 78.505 37.4701 78.4888 37.5458 78.478C37.6107 78.4563 37.6755 78.4347 37.7404 78.4131C37.8053 78.3915 37.8647 78.3644 37.9188 78.332C37.9729 78.2996 38.0161 78.2617 38.0485 78.2185C38.0918 78.1644 38.1242 78.105 38.1458 78.0401C38.1675 77.9969 38.1837 77.9374 38.1945 77.8617C38.2053 77.7752 38.2107 77.6995 38.2107 77.6347V72.5424ZM39.3297 68.115C39.3297 68.342 39.2486 68.5366 39.0865 68.6988C38.9351 68.861 38.7513 68.9421 38.5351 68.9421C38.308 68.9421 38.1134 68.861 37.9512 68.6988C37.7999 68.5366 37.7242 68.342 37.7242 68.115C37.7242 67.8987 37.7999 67.7095 37.9512 67.5474C38.1134 67.3852 38.308 67.3041 38.5351 67.3041C38.7513 67.3041 38.9351 67.3852 39.0865 67.5474C39.2486 67.7095 39.3297 67.8987 39.3297 68.115ZM42.3699 74.8615C42.3699 75.1966 42.3915 75.5156 42.4347 75.8183C42.478 76.1102 42.5266 76.3481 42.5807 76.5319C42.6564 76.7913 42.7483 77.0292 42.8564 77.2454C42.9753 77.4617 43.0943 77.6455 43.2132 77.7968C43.3321 77.9374 43.4781 78.0779 43.6511 78.2185C43.8349 78.3482 44.0132 78.4455 44.1862 78.5104C44.3376 78.5645 44.5106 78.6077 44.7052 78.6401C44.8998 78.6726 45.0998 78.6888 45.3052 78.6888C45.5215 78.6888 45.7647 78.6347 46.035 78.5266C46.3053 78.4077 46.5594 78.2563 46.7973 78.0725C46.9486 77.9536 47.1 77.7968 47.2513 77.6022C47.4135 77.4076 47.5433 77.2238 47.6406 77.0508L47.9163 77.1806C47.8081 77.4184 47.6784 77.6509 47.527 77.8779C47.3865 78.0942 47.1973 78.2996 46.9594 78.4942C46.6459 78.7537 46.3053 78.9375 45.9377 79.0456C45.5809 79.1645 45.2566 79.224 44.9647 79.224C44.716 79.224 44.4944 79.2024 44.2998 79.1591C44.1051 79.1267 43.9051 79.0726 43.6997 78.9969C43.4943 78.9104 43.2835 78.8023 43.0672 78.6726C42.8618 78.532 42.6834 78.3753 42.532 78.2023C42.3699 78.0185 42.2185 77.8239 42.078 77.6184C41.9482 77.413 41.8401 77.1914 41.7536 76.9535C41.6455 76.6724 41.559 76.3427 41.4941 75.9643C41.4293 75.575 41.3968 75.1804 41.3968 74.7804C41.3968 74.4452 41.4347 74.1046 41.5103 73.7587C41.586 73.4019 41.6779 73.1046 41.786 72.8667C41.8725 72.6613 41.9807 72.4559 42.1104 72.2504C42.2401 72.045 42.3915 71.8558 42.5645 71.6828C42.6942 71.5531 42.851 71.4288 43.0348 71.3098C43.2294 71.1801 43.4186 71.0774 43.6024 71.0017C43.7538 70.9476 43.9322 70.9044 44.1376 70.872C44.343 70.8287 44.5755 70.8071 44.8349 70.8071C45.2782 70.8071 45.662 70.899 45.9864 71.0828C46.3215 71.2558 46.5972 71.4612 46.8135 71.699C47.0189 71.9153 47.1811 72.1369 47.3 72.364C47.4189 72.5802 47.5162 72.8181 47.5919 73.0775C47.7 73.4235 47.7649 73.7479 47.7865 74.0506C47.8081 74.3425 47.819 74.6128 47.819 74.8615H42.3699ZM46.554 74.4074C46.6945 74.4074 46.781 74.3533 46.8135 74.2452C46.8459 74.1371 46.8621 74.0452 46.8621 73.9695C46.8621 73.8289 46.8513 73.6776 46.8297 73.5154C46.8081 73.3532 46.7702 73.1857 46.7162 73.0127C46.6729 72.8613 46.6135 72.7045 46.5378 72.5424C46.4729 72.3802 46.3972 72.2396 46.3107 72.1207C46.1377 71.9045 45.9161 71.7099 45.6458 71.5369C45.3863 71.3639 45.0944 71.2774 44.7701 71.2774C44.4241 71.2774 44.116 71.3585 43.8457 71.5207C43.5754 71.6828 43.3591 71.8612 43.197 72.0558C43.0888 72.1856 42.9861 72.3369 42.8888 72.5099C42.8023 72.6829 42.7213 72.8667 42.6456 73.0613C42.5807 73.2343 42.5266 73.4343 42.4834 73.6614C42.4401 73.8776 42.4077 74.1263 42.3861 74.4074H46.554ZM53.9463 72.0558C53.903 71.9693 53.849 71.8828 53.7841 71.7964C53.73 71.7099 53.6598 71.645 53.5733 71.6017C53.4868 71.5477 53.3678 71.5152 53.2165 71.5044C53.0651 71.4828 52.957 71.472 52.8921 71.472V71.0341H55.9248V71.472C55.8167 71.472 55.6707 71.4828 55.4869 71.5044C55.3031 71.5261 55.1896 71.5477 55.1464 71.5693C55.0923 71.5801 55.0437 71.6017 55.0004 71.6342C54.9572 71.6558 54.9247 71.6936 54.9031 71.7477C54.8923 71.7909 54.8869 71.845 54.8869 71.9099C54.8977 71.9639 54.9085 72.018 54.9193 72.072L56.7195 77.6671L58.6331 72.072C58.6548 71.9964 58.6656 71.9315 58.6656 71.8774C58.6656 71.8234 58.6548 71.7747 58.6331 71.7315C58.6223 71.6774 58.6007 71.6396 58.5683 71.618C58.5466 71.5963 58.5088 71.5801 58.4547 71.5693C58.3791 71.5477 58.2439 71.5261 58.0493 71.5044C57.8655 71.4828 57.7141 71.472 57.5952 71.472V71.0341H60.2387V71.472C60.1089 71.472 59.9684 71.4882 59.817 71.5207C59.6765 71.5531 59.5683 71.5909 59.4927 71.6342C59.3954 71.6774 59.3143 71.7477 59.2494 71.845C59.1953 71.9315 59.1467 72.0126 59.1034 72.0883L56.6222 79.1105H56.2167L54.3517 73.3046L52.2921 79.1105H51.8866L49.6162 72.0558C49.5729 71.9693 49.5189 71.8828 49.454 71.7964C49.4 71.7099 49.3297 71.645 49.2432 71.6017C49.1567 71.5477 49.0378 71.5152 48.8864 71.5044C48.735 71.4828 48.6269 71.472 48.5621 71.472V71.0341H51.5947V71.472C51.4866 71.472 51.3407 71.4828 51.1569 71.5044C50.9731 71.5261 50.8595 71.5477 50.8163 71.5693C50.7622 71.5801 50.7136 71.6017 50.6703 71.6342C50.6271 71.6558 50.5946 71.6936 50.573 71.7477C50.5622 71.7909 50.5568 71.845 50.5568 71.9099C50.5676 71.9639 50.5784 72.018 50.5892 72.072L52.3894 77.6671L54.1247 72.6072L53.9463 72.0558ZM67.7318 72.4126C67.8075 72.3153 67.8777 72.218 67.9426 72.1207C68.0075 72.0126 68.0778 71.9153 68.1534 71.8288C68.2724 71.6882 68.4021 71.5585 68.5427 71.4396C68.694 71.3098 68.84 71.2017 68.9805 71.1152C69.0995 71.0395 69.2725 70.9693 69.4995 70.9044C69.7374 70.8395 69.9644 70.8071 70.1806 70.8071C70.3428 70.8071 70.5374 70.8449 70.7645 70.9206C71.0023 70.9963 71.1969 71.099 71.3483 71.2287C71.4888 71.3477 71.6024 71.472 71.6889 71.6017C71.7862 71.7207 71.8619 71.845 71.9159 71.9747C71.9592 72.0504 71.9916 72.1369 72.0132 72.2342C72.0457 72.3315 72.0727 72.4342 72.0943 72.5424C72.1592 72.4234 72.2349 72.2883 72.3213 72.1369C72.4187 71.9856 72.516 71.8558 72.6133 71.7477C72.7214 71.618 72.8511 71.4936 73.0025 71.3747C73.1538 71.2558 73.2998 71.1585 73.4404 71.0828C73.5701 71.0179 73.7485 70.9584 73.9755 70.9044C74.2134 70.8395 74.4404 70.8071 74.6567 70.8071C74.8188 70.8071 75.0189 70.8395 75.2567 70.9044C75.4946 70.9693 75.6838 71.0612 75.8243 71.1801C75.9757 71.2882 76.0946 71.4017 76.1811 71.5207C76.2676 71.6288 76.3379 71.7315 76.3919 71.8288C76.4893 72.0018 76.5595 72.2018 76.6028 72.4288C76.6568 72.6559 76.6839 72.8991 76.6839 73.1586V77.8455C76.6839 77.9428 76.7001 78.0401 76.7325 78.1374C76.7758 78.2239 76.819 78.2888 76.8623 78.332C76.9487 78.4077 77.0677 78.4618 77.219 78.4942C77.3704 78.5158 77.5272 78.5266 77.6893 78.5266V78.9807H74.8026V78.5266C74.9648 78.5266 75.1216 78.5158 75.2729 78.4942C75.4351 78.4618 75.554 78.4077 75.6297 78.332C75.6838 78.2888 75.727 78.2239 75.7595 78.1374C75.7919 78.0401 75.8081 77.9428 75.8081 77.8455V73.3046C75.8081 73.1208 75.7865 72.9262 75.7432 72.7208C75.7108 72.5045 75.6676 72.3261 75.6135 72.1856C75.5594 72.0558 75.4784 71.9315 75.3702 71.8126C75.2729 71.6936 75.1756 71.6017 75.0783 71.5369C75.0026 71.4828 74.8891 71.4396 74.7378 71.4071C74.5972 71.3747 74.4512 71.3585 74.2999 71.3585C74.062 71.3585 73.8404 71.4017 73.635 71.4882C73.4404 71.5747 73.2782 71.6666 73.1484 71.7639C73.0403 71.8396 72.9322 71.9477 72.8241 72.0883C72.716 72.218 72.6295 72.3315 72.5646 72.4288C72.4997 72.5261 72.4349 72.6343 72.37 72.7532C72.3051 72.8613 72.2403 72.9748 72.1754 73.0938C72.197 73.137 72.2078 73.1802 72.2078 73.2235C72.2078 73.2667 72.2078 73.3046 72.2078 73.337V77.8455C72.2078 77.9428 72.224 78.0401 72.2565 78.1374C72.2997 78.2239 72.343 78.2888 72.3862 78.332C72.4727 78.4077 72.5916 78.4618 72.743 78.4942C72.8944 78.5158 73.0511 78.5266 73.2133 78.5266V78.9807H70.3266V78.5266C70.4888 78.5266 70.6455 78.5158 70.7969 78.4942C70.9591 78.4618 71.078 78.4077 71.1537 78.332C71.2077 78.2888 71.251 78.2239 71.2834 78.1374C71.3159 78.0401 71.3321 77.9428 71.3321 77.8455V73.3532C71.3321 73.1586 71.3105 72.9532 71.2672 72.737C71.2348 72.5207 71.1915 72.3423 71.1375 72.2018C71.105 72.1045 71.0402 71.991 70.9429 71.8612C70.8564 71.7315 70.7591 71.6288 70.6509 71.5531C70.5536 71.4882 70.4293 71.4396 70.2779 71.4071C70.1266 71.3747 69.9752 71.3585 69.8239 71.3585C69.6184 71.3585 69.4238 71.4017 69.24 71.4882C69.0562 71.5747 68.8995 71.6666 68.7697 71.7639C68.694 71.8288 68.5859 71.9315 68.4454 72.072C68.3156 72.2018 68.2075 72.3261 68.121 72.4451C68.0453 72.5424 67.9751 72.6451 67.9102 72.7532C67.8453 72.8613 67.7858 72.9694 67.7318 73.0775V77.8455C67.7318 77.9428 67.748 78.0401 67.7804 78.1374C67.8237 78.2239 67.8669 78.2888 67.9102 78.332C67.9967 78.4077 68.1156 78.4618 68.267 78.4942C68.4183 78.5158 68.5751 78.5266 68.7373 78.5266V78.9807H65.8506V78.5266C66.0127 78.5266 66.1695 78.5158 66.3209 78.4942C66.483 78.4618 66.602 78.4077 66.6777 78.332C66.7317 78.2888 66.775 78.2239 66.8074 78.1374C66.8398 78.0401 66.856 77.9428 66.856 77.8455V72.6234C66.856 72.537 66.8398 72.4505 66.8074 72.364C66.775 72.2667 66.7317 72.191 66.6777 72.1369C66.6128 72.072 66.5263 72.0234 66.4182 71.991C66.3101 71.9477 66.1695 71.9261 65.9965 71.9261H65.737V71.5044C65.8668 71.5044 66.0344 71.4828 66.2398 71.4396C66.456 71.3963 66.6668 71.3369 66.8723 71.2612C67.0236 71.2071 67.175 71.1422 67.3264 71.0666C67.4777 70.9909 67.6129 70.9098 67.7318 70.8233V72.4126ZM78.7256 75.0074C78.7256 74.7588 78.7472 74.4776 78.7905 74.1641C78.8445 73.8398 78.9094 73.5641 78.9851 73.337C79.05 73.1316 79.1311 72.9154 79.2284 72.6883C79.3365 72.4505 79.4608 72.2396 79.6014 72.0558C79.7095 71.9153 79.85 71.7639 80.023 71.6017C80.2068 71.4396 80.396 71.3044 80.5906 71.1963C80.7636 71.099 81.0069 71.0125 81.3204 70.9368C81.634 70.8503 81.9097 70.8071 82.1475 70.8071C82.3962 70.8071 82.6719 70.8503 82.9746 70.9368C83.2881 71.0125 83.5314 71.099 83.7044 71.1963C83.899 71.3044 84.0828 71.4396 84.2558 71.6017C84.4396 71.7639 84.5856 71.9153 84.6937 72.0558C84.8342 72.2396 84.9531 72.4505 85.0505 72.6883C85.1586 72.9154 85.2451 73.1316 85.3099 73.337C85.3856 73.5641 85.4451 73.8398 85.4883 74.1641C85.5424 74.4776 85.5694 74.7588 85.5694 75.0074C85.5694 75.2561 85.5424 75.5426 85.4883 75.8669C85.4451 76.1805 85.3856 76.4508 85.3099 76.6778C85.2451 76.8832 85.1586 77.1049 85.0505 77.3427C84.9531 77.5698 84.8342 77.7752 84.6937 77.959C84.5856 78.0996 84.4396 78.2509 84.2558 78.4131C84.0828 78.5753 83.899 78.7104 83.7044 78.8185C83.5314 78.9158 83.2881 79.0023 82.9746 79.078C82.6719 79.1645 82.3962 79.2078 82.1475 79.2078C81.9097 79.2078 81.634 79.1645 81.3204 79.078C81.0069 79.0023 80.7636 78.9158 80.5906 78.8185C80.396 78.7104 80.2068 78.5753 80.023 78.4131C79.85 78.2509 79.7095 78.0996 79.6014 77.959C79.4608 77.7752 79.3365 77.5698 79.2284 77.3427C79.1311 77.1049 79.05 76.8832 78.9851 76.6778C78.9094 76.4508 78.8445 76.1805 78.7905 75.8669C78.7472 75.5426 78.7256 75.2561 78.7256 75.0074ZM79.6662 75.0074C79.6662 75.1912 79.677 75.4237 79.6987 75.7048C79.7311 75.9751 79.7689 76.2021 79.8122 76.3859C79.8446 76.5265 79.9041 76.7211 79.9906 76.9697C80.0771 77.2184 80.1636 77.4184 80.2501 77.5698C80.3366 77.6995 80.4393 77.8455 80.5582 78.0077C80.6879 78.159 80.8285 78.2888 80.9799 78.3969C81.1096 78.4834 81.2826 78.5645 81.4988 78.6401C81.7259 78.7158 81.9421 78.7537 82.1475 78.7537C82.3529 78.7537 82.5638 78.7158 82.78 78.6401C83.007 78.5645 83.1854 78.4834 83.3152 78.3969C83.4665 78.2888 83.6071 78.159 83.7368 78.0077C83.8666 77.8455 83.9693 77.6995 84.045 77.5698C84.1315 77.4184 84.218 77.2184 84.3044 76.9697C84.3909 76.7211 84.4504 76.5265 84.4828 76.3859C84.5261 76.2021 84.5585 75.9751 84.5801 75.7048C84.6126 75.4237 84.6288 75.1912 84.6288 75.0074C84.6288 74.8236 84.6126 74.5966 84.5801 74.3263C84.5585 74.0452 84.5261 73.8127 84.4828 73.6289C84.4504 73.4884 84.3909 73.2938 84.3044 73.0451C84.218 72.7856 84.1315 72.5856 84.045 72.4451C83.9693 72.3153 83.8666 72.1748 83.7368 72.0234C83.6071 71.8612 83.4665 71.7261 83.3152 71.618C83.1854 71.5315 83.007 71.4504 82.78 71.3747C82.5638 71.299 82.3529 71.2612 82.1475 71.2612C81.9421 71.2612 81.7259 71.299 81.4988 71.3747C81.2826 71.4504 81.1096 71.5315 80.9799 71.618C80.8285 71.7261 80.6879 71.8612 80.5582 72.0234C80.4393 72.1748 80.3366 72.3153 80.2501 72.4451C80.1636 72.5856 80.0771 72.7856 79.9906 73.0451C79.9041 73.2938 79.8446 73.4884 79.8122 73.6289C79.7689 73.8127 79.7311 74.0452 79.6987 74.3263C79.677 74.5966 79.6662 74.8236 79.6662 75.0074ZM88.6221 73.0451C88.6978 72.9262 88.7627 72.8072 88.8167 72.6883C88.8816 72.5586 88.9519 72.4396 89.0275 72.3315C89.1465 72.1369 89.2708 71.9531 89.4005 71.7801C89.5411 71.6071 89.6654 71.472 89.7736 71.3747C89.86 71.2882 89.9628 71.2071 90.0817 71.1314C90.2006 71.0558 90.3141 70.9963 90.4223 70.953C90.5087 70.9098 90.6223 70.8774 90.7628 70.8557C90.9034 70.8233 91.0169 70.8071 91.1034 70.8071C91.2115 70.8071 91.3412 70.8341 91.4926 70.8882C91.6548 70.9314 91.7953 71.0071 91.9143 71.1152C92.0008 71.1909 92.071 71.2882 92.1251 71.4071C92.19 71.5152 92.2224 71.6288 92.2224 71.7477C92.2224 71.8234 92.2062 71.9099 92.1737 72.0072C92.1413 72.0937 92.0981 72.1694 92.044 72.2342C91.9899 72.2991 91.9197 72.3477 91.8332 72.3802C91.7575 72.4126 91.6872 72.4288 91.6223 72.4288C91.5359 72.4288 91.4494 72.4018 91.3629 72.3477C91.2764 72.2829 91.1953 72.2126 91.1196 72.1369C91.0764 72.0829 91.0277 72.0288 90.9736 71.9747C90.9304 71.9207 90.8817 71.872 90.8277 71.8288C90.7844 71.7964 90.7304 71.7693 90.6655 71.7477C90.6006 71.7153 90.5358 71.699 90.4709 71.699C90.406 71.699 90.3358 71.7153 90.2601 71.7477C90.1952 71.7693 90.1411 71.7909 90.0979 71.8126C90.0438 71.845 89.9736 71.8937 89.8871 71.9585C89.8006 72.0234 89.7249 72.0937 89.66 72.1694C89.5843 72.245 89.487 72.3694 89.3681 72.5424C89.26 72.7045 89.1519 72.8775 89.0438 73.0613C88.9681 73.2019 88.8924 73.3424 88.8167 73.483C88.7518 73.6235 88.687 73.7695 88.6221 73.9208V77.6347C88.6221 77.6995 88.6275 77.7752 88.6383 77.8617C88.6599 77.9374 88.6762 77.9969 88.687 78.0401C88.7086 78.105 88.741 78.1644 88.7843 78.2185C88.8275 78.2617 88.8708 78.2996 88.914 78.332C88.9681 78.3644 89.0275 78.3915 89.0924 78.4131C89.1573 78.4347 89.2222 78.4563 89.287 78.478C89.3735 78.4888 89.4816 78.505 89.6114 78.5266C89.7411 78.5374 89.8438 78.5428 89.9195 78.5428V78.9807H86.449V78.5428C86.5246 78.5428 86.6274 78.5374 86.7571 78.5266C86.8976 78.505 87.0058 78.4888 87.0814 78.478C87.1463 78.4563 87.2112 78.4347 87.2761 78.4131C87.3409 78.3915 87.4004 78.3644 87.4544 78.332C87.5085 78.2996 87.5518 78.2617 87.5842 78.2185C87.6274 78.1644 87.6599 78.105 87.6815 78.0401C87.7031 77.9969 87.7193 77.9374 87.7301 77.8617C87.741 77.7752 87.7464 77.6995 87.7464 77.6347V72.5424C87.7464 72.4559 87.7301 72.3694 87.6977 72.2829C87.6653 72.1964 87.622 72.1261 87.568 72.072C87.5031 72.018 87.422 71.9747 87.3247 71.9423C87.2382 71.8991 87.1193 71.8774 86.9679 71.8774H86.5787V71.4558C86.7084 71.4558 86.8868 71.4342 87.1139 71.3909C87.3517 71.3477 87.5572 71.2936 87.7301 71.2287C87.8599 71.1747 87.9896 71.1098 88.1194 71.0341C88.2491 70.9584 88.3572 70.8828 88.4437 70.8071H88.6221V73.0451ZM93.9048 74.8615C93.9048 75.1966 93.9265 75.5156 93.9697 75.8183C94.013 76.1102 94.0616 76.3481 94.1157 76.5319C94.1914 76.7913 94.2832 77.0292 94.3914 77.2454C94.5103 77.4617 94.6292 77.6455 94.7482 77.7968C94.8671 77.9374 95.013 78.0779 95.186 78.2185C95.3698 78.3482 95.5482 78.4455 95.7212 78.5104C95.8726 78.5645 96.0456 78.6077 96.2402 78.6401C96.4348 78.6726 96.6348 78.6888 96.8402 78.6888C97.0564 78.6888 97.2997 78.6347 97.57 78.5266C97.8403 78.4077 98.0944 78.2563 98.3322 78.0725C98.4836 77.9536 98.635 77.7968 98.7863 77.6022C98.9485 77.4076 99.0782 77.2238 99.1755 77.0508L99.4512 77.1806C99.3431 77.4184 99.2134 77.6509 99.062 77.8779C98.9215 78.0942 98.7323 78.2996 98.4944 78.4942C98.1809 78.7537 97.8403 78.9375 97.4727 79.0456C97.1159 79.1645 96.7916 79.224 96.4996 79.224C96.251 79.224 96.0293 79.2024 95.8347 79.1591C95.6401 79.1267 95.4401 79.0726 95.2347 78.9969C95.0293 78.9104 94.8184 78.8023 94.6022 78.6726C94.3968 78.532 94.2184 78.3753 94.067 78.2023C93.9048 78.0185 93.7535 77.8239 93.6129 77.6184C93.4832 77.413 93.3751 77.1914 93.2886 76.9535C93.1805 76.6724 93.094 76.3427 93.0291 75.9643C92.9642 75.575 92.9318 75.1804 92.9318 74.7804C92.9318 74.4452 92.9696 74.1046 93.0453 73.7587C93.121 73.4019 93.2129 73.1046 93.321 72.8667C93.4075 72.6613 93.5156 72.4559 93.6454 72.2504C93.7751 72.045 93.9265 71.8558 94.0995 71.6828C94.2292 71.5531 94.386 71.4288 94.5698 71.3098C94.7644 71.1801 94.9536 71.0774 95.1374 71.0017C95.2887 70.9476 95.4671 70.9044 95.6726 70.872C95.878 70.8287 96.1104 70.8071 96.3699 70.8071C96.8132 70.8071 97.197 70.899 97.5213 71.0828C97.8565 71.2558 98.1322 71.4612 98.3484 71.699C98.5539 71.9153 98.716 72.1369 98.835 72.364C98.9539 72.5802 99.0512 72.8181 99.1269 73.0775C99.235 73.4235 99.2999 73.7479 99.3215 74.0506C99.3431 74.3425 99.3539 74.6128 99.3539 74.8615H93.9048ZM98.089 74.4074C98.2295 74.4074 98.316 74.3533 98.3484 74.2452C98.3809 74.1371 98.3971 74.0452 98.3971 73.9695C98.3971 73.8289 98.3863 73.6776 98.3647 73.5154C98.343 73.3532 98.3052 73.1857 98.2511 73.0127C98.2079 72.8613 98.1484 72.7045 98.0727 72.5424C98.0079 72.3802 97.9322 72.2396 97.8457 72.1207C97.6727 71.9045 97.4511 71.7099 97.1808 71.5369C96.9213 71.3639 96.6294 71.2774 96.305 71.2774C95.9591 71.2774 95.6509 71.3585 95.3806 71.5207C95.1103 71.6828 94.8941 71.8612 94.7319 72.0558C94.6238 72.1856 94.5211 72.3369 94.4238 72.5099C94.3373 72.6829 94.2562 72.8667 94.1805 73.0613C94.1157 73.2343 94.0616 73.4343 94.0184 73.6614C93.9751 73.8776 93.9427 74.1263 93.9211 74.4074H98.089Z" fill="#E8E9EB"/>
</svg>
