<svg width="64" height="64" viewBox="0 0 64 64" fill="none" xmlns="http://www.w3.org/2000/svg">
<circle cx="32.0002" cy="32" r="32" fill="#090B0B"/>
<path d="M26.0219 26.6252C25.8489 26.6252 25.7003 26.6333 25.576 26.6495C25.4516 26.6658 25.3462 26.6874 25.2597 26.7144C25.2057 26.7306 25.1543 26.7496 25.1056 26.7712C25.0624 26.7928 25.0219 26.8144 24.984 26.836C24.957 26.8252 24.9164 26.809 24.8624 26.7874C24.8137 26.7658 24.7651 26.7441 24.7164 26.7225C24.6624 26.6955 24.6029 26.6658 24.538 26.6333C24.4786 26.5955 24.4299 26.5658 24.3921 26.5441C24.3596 26.5225 24.3218 26.4955 24.2785 26.463C24.2353 26.4252 24.2137 26.3955 24.2137 26.3738C24.2137 26.3468 24.2245 26.3279 24.2461 26.3171C24.2677 26.3009 24.2948 26.2955 24.3272 26.3009C24.3975 26.3063 24.4569 26.3144 24.5056 26.3252C24.5597 26.3306 24.6245 26.336 24.7002 26.3414C24.7651 26.3468 24.8651 26.3522 25.0002 26.3576C25.1408 26.363 25.2867 26.3657 25.4381 26.3657H26.7436V24.1196C26.7436 24.0656 26.7382 24.0169 26.7274 23.9737C26.7166 23.9304 26.7004 23.8926 26.6787 23.8601C26.6571 23.8331 26.6328 23.8061 26.6058 23.779C26.5787 23.7466 26.5463 23.7196 26.5085 23.698C26.4706 23.6709 26.4301 23.6466 26.3868 23.625C26.349 23.6034 26.3084 23.5817 26.2652 23.5601C26.2274 23.5439 26.1841 23.5277 26.1355 23.5115C26.0922 23.4898 26.0544 23.4736 26.0219 23.4628C25.9895 23.452 25.9544 23.4385 25.9165 23.4223C25.8841 23.406 25.8679 23.3844 25.8679 23.3574C25.8679 23.325 25.8895 23.3006 25.9327 23.2844C25.976 23.2682 26.0246 23.2601 26.0787 23.2601C26.1111 23.2601 26.176 23.2682 26.2733 23.2844C26.376 23.2952 26.4733 23.3141 26.5652 23.3412C26.6301 23.3574 26.7058 23.379 26.7923 23.406C26.8788 23.4277 26.9598 23.452 27.0355 23.479C27.0896 23.5006 27.1382 23.525 27.1815 23.552C27.2301 23.579 27.2545 23.6142 27.2545 23.6574C27.2545 23.679 27.2491 23.7061 27.2382 23.7385C27.2274 23.7655 27.2166 23.798 27.2058 23.8358C27.2004 23.8682 27.195 23.9115 27.1896 23.9655C27.1842 24.0196 27.1815 24.0602 27.1815 24.0872V29.0497C27.1815 29.1579 27.1788 29.293 27.1734 29.4552C27.168 29.6119 27.1626 29.7363 27.1572 29.8282C27.1518 29.9904 27.1436 30.1255 27.1328 30.2336C27.122 30.3471 27.1112 30.4282 27.1004 30.4769C27.0896 30.5472 27.0761 30.6066 27.0599 30.6553C27.049 30.7039 27.0382 30.7418 27.0274 30.7688C27.0166 30.7958 27.0004 30.8202 26.9788 30.8418C26.9625 30.8688 26.9409 30.8823 26.9139 30.8823C26.8923 30.8823 26.8734 30.8688 26.8571 30.8418C26.8409 30.8202 26.8274 30.7985 26.8166 30.7769C26.8112 30.7499 26.8031 30.7174 26.7923 30.6796C26.7869 30.6472 26.7815 30.612 26.776 30.5742C26.7706 30.4985 26.7652 30.4336 26.7598 30.3796C26.7598 30.3255 26.7571 30.2498 26.7517 30.1525C26.7463 30.0336 26.7436 29.8768 26.7436 29.6822C26.7436 29.4876 26.7436 29.3579 26.7436 29.293V26.6252H26.0219ZM22.227 28.9281C22.3514 28.9173 22.4946 28.9038 22.6568 28.8876C22.8244 28.8659 22.9757 28.8443 23.1109 28.8227C23.2244 28.8065 23.3623 28.7849 23.5244 28.7578C23.692 28.7308 23.8434 28.7065 23.9785 28.6848C24.1029 28.6632 24.2569 28.6362 24.4407 28.6038C24.6245 28.5713 24.7867 28.5416 24.9273 28.5146C25.0516 28.4875 25.2029 28.4551 25.3813 28.4173C25.5597 28.3794 25.7057 28.347 25.8192 28.32C25.8841 28.2983 25.9246 28.3172 25.9408 28.3767C25.9571 28.4362 25.9327 28.4821 25.8679 28.5146C25.7814 28.5524 25.657 28.5956 25.4949 28.6443C25.3381 28.6875 25.1975 28.7281 25.0732 28.7659C24.9218 28.8092 24.7651 28.8524 24.6029 28.8957C24.4461 28.9335 24.2975 28.9714 24.1569 29.0092C24.0001 29.047 23.8407 29.0849 23.6785 29.1227C23.5163 29.1606 23.365 29.1957 23.2244 29.2281C23.0622 29.266 22.8838 29.3038 22.6892 29.3417C22.4946 29.3795 22.3433 29.4065 22.2351 29.4227C22.1649 29.4227 22.0703 29.3795 21.9513 29.293C21.8378 29.2011 21.7811 29.1146 21.7811 29.0335V24.8899C21.7811 24.8413 21.7702 24.8008 21.7486 24.7683C21.727 24.7305 21.6973 24.7007 21.6594 24.6791C21.6162 24.6521 21.5594 24.6278 21.4891 24.6061C21.4243 24.5791 21.3621 24.5575 21.3026 24.5413C21.2756 24.5305 21.2405 24.5223 21.1972 24.5169C21.154 24.5061 21.1324 24.4845 21.1324 24.4521C21.1324 24.4142 21.1594 24.3845 21.2134 24.3629C21.2729 24.3358 21.3459 24.3223 21.4324 24.3223C21.5243 24.3223 21.6135 24.3277 21.7 24.3386C21.7919 24.344 21.8757 24.3521 21.9513 24.3629C22.027 24.3737 22.1027 24.3899 22.1784 24.4115C22.2541 24.4332 22.2973 24.4548 22.3081 24.4764H23.3623C23.519 24.4764 23.6515 24.471 23.7596 24.4602C23.8677 24.4494 23.9488 24.4332 24.0029 24.4115C24.0461 24.3953 24.0866 24.3764 24.1245 24.3548C24.1677 24.3331 24.2056 24.3061 24.238 24.2737C24.3299 24.2791 24.4164 24.2818 24.4975 24.2818C24.5786 24.2818 24.6705 24.2872 24.7732 24.298C24.93 24.3088 25.0516 24.3358 25.1381 24.3791C25.2246 24.4169 25.2678 24.4791 25.2678 24.5656C25.2678 24.6305 25.2516 24.6764 25.2192 24.7034C25.1867 24.7305 25.1381 24.744 25.0732 24.744H22.227V28.9281ZM32.2264 27.7604V29.7876H32.9805C33.1589 29.7876 33.2995 29.7876 33.4022 29.7876C33.5103 29.7822 33.5941 29.7768 33.6535 29.7714C33.713 29.766 33.786 29.7579 33.8725 29.7471C33.9644 29.7363 34.0401 29.7201 34.0995 29.6984C34.1536 29.6822 34.1995 29.6633 34.2374 29.6417C34.2806 29.6201 34.3158 29.5984 34.3428 29.5768C34.4185 29.5822 34.4914 29.5876 34.5617 29.593C34.6374 29.593 34.7104 29.5984 34.7807 29.6092C34.8672 29.6147 34.9482 29.6255 35.0239 29.6417C35.0996 29.6525 35.1672 29.6633 35.2266 29.6741C35.3023 29.6903 35.3645 29.7174 35.4131 29.7552C35.4618 29.793 35.4861 29.8498 35.4861 29.9255C35.4861 29.985 35.4699 30.0336 35.4375 30.0714C35.4104 30.1147 35.3645 30.1363 35.2996 30.1363C35.2726 30.1363 35.2104 30.1309 35.1131 30.1201C35.0212 30.1147 34.9401 30.1093 34.8699 30.1039C34.7671 30.0931 34.6266 30.085 34.4482 30.0796C34.2752 30.0741 34.1211 30.0714 33.986 30.0714H31.1317C30.9371 30.0714 30.7479 30.0741 30.5641 30.0796C30.3857 30.0904 30.2587 30.1012 30.183 30.112C30.1127 30.1174 30.037 30.1282 29.9559 30.1444C29.8749 30.1606 29.8073 30.1769 29.7532 30.1931C29.71 30.2039 29.6613 30.2201 29.6073 30.2417C29.5532 30.2688 29.5046 30.2931 29.4613 30.3147C29.4505 30.3147 29.4262 30.3066 29.3883 30.2904C29.3505 30.2796 29.3181 30.2688 29.291 30.2579C29.2532 30.2417 29.2099 30.2228 29.1613 30.2012C29.118 30.1796 29.0667 30.1552 29.0072 30.1282C28.9586 30.1012 28.9045 30.0714 28.845 30.039C28.7856 30.012 28.7342 29.985 28.691 29.9579C28.6531 29.9309 28.6126 29.9012 28.5694 29.8687C28.5315 29.8363 28.5126 29.8066 28.5126 29.7795C28.5126 29.7525 28.5234 29.7336 28.545 29.7228C28.5666 29.7065 28.5937 29.7011 28.6261 29.7065C28.691 29.712 28.7721 29.7201 28.8694 29.7309C28.9667 29.7417 29.0586 29.7498 29.1451 29.7552C29.2856 29.7606 29.4505 29.7687 29.6397 29.7795C29.8289 29.7849 30.0262 29.7876 30.2316 29.7876H31.7723V27.7604H30.1343C30.1289 27.8307 30.1181 27.901 30.1019 27.9713C30.0857 28.0416 30.0722 28.0983 30.0614 28.1416C30.0451 28.1902 30.0235 28.2335 29.9965 28.2713C29.9749 28.3037 29.9505 28.32 29.9235 28.32C29.8857 28.32 29.8559 28.301 29.8343 28.2632C29.8181 28.2253 29.8046 28.1875 29.7938 28.1497C29.783 28.101 29.7721 28.0416 29.7613 27.9713C29.7559 27.8956 29.7505 27.828 29.7451 27.7686C29.7397 27.7037 29.7343 27.5902 29.7289 27.428C29.7289 27.2604 29.7289 27.1388 29.7289 27.0631V24.6629C29.7289 24.6197 29.7235 24.5818 29.7127 24.5494C29.7019 24.5115 29.6803 24.4764 29.6478 24.444C29.6262 24.4169 29.5938 24.3899 29.5505 24.3629C29.5073 24.3358 29.4694 24.3142 29.437 24.298C29.4046 24.2818 29.3667 24.2656 29.3235 24.2494C29.2856 24.2277 29.2505 24.2115 29.2181 24.2007C29.1856 24.1899 29.1505 24.1764 29.1126 24.1602C29.0748 24.1385 29.0559 24.1142 29.0559 24.0872C29.0559 24.0547 29.0748 24.0304 29.1126 24.0142C29.1559 23.998 29.1964 23.9899 29.2343 23.9899C29.2613 23.9899 29.31 23.9953 29.3802 24.0061C29.4559 24.0115 29.537 24.0223 29.6235 24.0385C29.6938 24.0493 29.7667 24.0656 29.8424 24.0872C29.9235 24.1034 29.9965 24.1223 30.0614 24.1439C30.0992 24.1548 30.137 24.171 30.1749 24.1926C30.2127 24.2142 30.2316 24.2412 30.2316 24.2737C30.2316 24.2953 30.2235 24.3413 30.2073 24.4115C30.1911 24.4764 30.183 24.544 30.183 24.6142V25.4089H33.8968V24.371C33.8968 24.3277 33.8914 24.2872 33.8806 24.2494C33.8698 24.2061 33.8482 24.1683 33.8157 24.1358C33.7941 24.1088 33.7617 24.0818 33.7184 24.0547C33.6752 24.0277 33.6373 24.0061 33.6049 23.9899C33.5725 23.9737 33.5292 23.9547 33.4751 23.9331C33.4211 23.9061 33.3778 23.8872 33.3454 23.8764C33.3184 23.8655 33.2859 23.852 33.2481 23.8358C33.2103 23.8142 33.1913 23.7899 33.1913 23.7628C33.1913 23.7304 33.2103 23.7061 33.2481 23.6899C33.2914 23.6736 33.3319 23.6655 33.3697 23.6655C33.3968 23.6655 33.4589 23.6736 33.5562 23.6899C33.6535 23.7007 33.7427 23.7142 33.8238 23.7304C33.8995 23.7466 33.9671 23.7628 34.0265 23.779C34.0914 23.7953 34.1536 23.8142 34.213 23.8358C34.2509 23.8466 34.2914 23.8655 34.3347 23.8926C34.3779 23.9142 34.3995 23.9412 34.3995 23.9737C34.3995 23.9953 34.3914 24.0412 34.3752 24.1115C34.359 24.1764 34.3509 24.2439 34.3509 24.3142V26.8198C34.3509 26.9009 34.3455 27.0253 34.3347 27.1928C34.3293 27.355 34.3212 27.4956 34.3104 27.6145C34.3049 27.701 34.2941 27.7875 34.2779 27.874C34.2617 27.9551 34.2455 28.0199 34.2293 28.0686C34.213 28.1172 34.1914 28.1605 34.1644 28.1983C34.1428 28.2308 34.1184 28.247 34.0914 28.247C34.0536 28.247 34.0238 28.2281 34.0022 28.1902C33.986 28.1524 33.9725 28.1145 33.9617 28.0767C33.9563 28.0334 33.9482 27.9848 33.9373 27.9307C33.9319 27.8713 33.9238 27.8145 33.913 27.7604H32.2264ZM33.8968 27.4766C33.8968 27.3847 33.8968 27.2928 33.8968 27.2009C33.8968 27.109 33.8968 27.0388 33.8968 26.9901V25.6927H30.183V26.8928C30.183 26.9523 30.1803 27.0388 30.1749 27.1523C30.1749 27.2604 30.1695 27.3685 30.1587 27.4766H33.8968ZM41.942 29.0497C41.942 29.1579 41.9393 29.293 41.9339 29.4552C41.9284 29.6119 41.923 29.7363 41.9176 29.8282C41.9122 29.9904 41.9041 30.1255 41.8933 30.2336C41.8825 30.3471 41.8717 30.4282 41.8609 30.4769C41.8501 30.5472 41.8365 30.6066 41.8203 30.6553C41.8095 30.7039 41.7987 30.7418 41.7879 30.7688C41.7771 30.7958 41.7609 30.8202 41.7392 30.8418C41.723 30.8688 41.7014 30.8823 41.6744 30.8823C41.6527 30.8823 41.6338 30.8688 41.6176 30.8418C41.6014 30.8202 41.5879 30.7985 41.5771 30.7769C41.5717 30.7499 41.5636 30.7174 41.5527 30.6796C41.5473 30.6472 41.5419 30.612 41.5365 30.5742C41.5311 30.4985 41.5257 30.4336 41.5203 30.3796C41.5203 30.3255 41.5176 30.2498 41.5122 30.1525C41.5068 30.0336 41.5041 29.8768 41.5041 29.6822C41.5041 29.4876 41.5041 29.3579 41.5041 29.293V24.1196C41.5041 24.0656 41.4987 24.0169 41.4879 23.9737C41.4771 23.9304 41.4608 23.8926 41.4392 23.8601C41.4176 23.8331 41.3933 23.8061 41.3662 23.779C41.3392 23.7466 41.3068 23.7196 41.2689 23.698C41.2311 23.6709 41.1905 23.6466 41.1473 23.625C41.1095 23.6034 41.0689 23.5817 41.0257 23.5601C40.9878 23.5439 40.9446 23.5277 40.8959 23.5115C40.8527 23.4898 40.8148 23.4736 40.7824 23.4628C40.75 23.452 40.7148 23.4385 40.677 23.4223C40.6446 23.406 40.6283 23.3844 40.6283 23.3574C40.6283 23.325 40.65 23.3006 40.6932 23.2844C40.7365 23.2682 40.7851 23.2601 40.8392 23.2601C40.8716 23.2601 40.9365 23.2682 41.0338 23.2844C41.1365 23.2952 41.2338 23.3141 41.3257 23.3412C41.3906 23.3574 41.4662 23.379 41.5527 23.406C41.6392 23.4277 41.7203 23.452 41.796 23.479C41.8501 23.5006 41.8987 23.525 41.942 23.552C41.9906 23.579 42.0149 23.6142 42.0149 23.6574C42.0149 23.679 42.0095 23.7061 41.9987 23.7385C41.9879 23.7655 41.9771 23.798 41.9663 23.8358C41.9609 23.8682 41.9555 23.9115 41.9501 23.9655C41.9447 24.0196 41.942 24.0602 41.942 24.0872V29.0497ZM40.0283 24.8089C40.0067 24.8954 39.9742 25.0008 39.931 25.1251C39.8931 25.244 39.858 25.344 39.8256 25.4251C39.7823 25.5386 39.7337 25.6576 39.6796 25.7819C39.6256 25.9062 39.5769 26.0144 39.5337 26.1063C39.485 26.209 39.4228 26.3252 39.3472 26.4549C39.2769 26.5793 39.2039 26.6955 39.1282 26.8036C39.0417 26.9279 38.9417 27.0631 38.8282 27.2091C38.7201 27.3496 38.612 27.482 38.5038 27.6064C38.4011 27.7199 38.2903 27.8334 38.1714 27.9469C38.0579 28.0605 37.947 28.1632 37.8389 28.2551C37.7092 28.3686 37.5659 28.4875 37.4092 28.6119C37.2578 28.7362 37.1281 28.8389 37.0199 28.92C36.9064 29.0065 36.7659 29.1038 36.5983 29.2119C36.4307 29.32 36.2766 29.4173 36.1361 29.5038C36.0658 29.5363 36.0091 29.5336 35.9658 29.4957C35.928 29.4579 35.9442 29.4119 36.0145 29.3579C36.1496 29.2552 36.282 29.1497 36.4118 29.0416C36.5415 28.9335 36.674 28.82 36.8091 28.7011C36.9226 28.6038 37.0416 28.4956 37.1659 28.3767C37.2956 28.2524 37.4119 28.1389 37.5146 28.0361C37.6227 27.928 37.7362 27.8118 37.8551 27.6875C37.9741 27.5577 38.0741 27.4415 38.1552 27.3388C38.2309 27.2469 38.3146 27.1361 38.4065 27.0063C38.5038 26.8766 38.5876 26.7604 38.6579 26.6577C38.7174 26.5658 38.785 26.4522 38.8606 26.3171C38.9417 26.1819 39.0066 26.0684 39.0552 25.9765C39.1093 25.8792 39.158 25.7765 39.2012 25.6684C39.2499 25.5603 39.2931 25.4549 39.3309 25.3521C39.3688 25.2602 39.4039 25.1656 39.4364 25.0683C39.4688 24.9656 39.4958 24.871 39.5174 24.7845H38.3336C38.1984 24.7845 38.0606 24.7872 37.92 24.7926C37.7795 24.798 37.6632 24.8062 37.5713 24.817C37.5119 24.8224 37.4497 24.8332 37.3848 24.8494C37.3254 24.8656 37.2767 24.8791 37.2389 24.8899C37.2064 24.9008 37.1686 24.9143 37.1254 24.9305C37.0875 24.9467 37.0524 24.9656 37.0199 24.9873C37.0091 24.9873 36.9848 24.9818 36.947 24.971C36.9145 24.9548 36.8848 24.9413 36.8578 24.9305C36.8253 24.9197 36.7875 24.9062 36.7442 24.8899C36.7064 24.8683 36.6659 24.8467 36.6226 24.8251C36.5686 24.798 36.5199 24.7737 36.4767 24.7521C36.4334 24.7251 36.3902 24.7007 36.3469 24.6791C36.3091 24.6575 36.2712 24.6305 36.2334 24.598C36.1956 24.5656 36.1766 24.5386 36.1766 24.5169C36.1766 24.4899 36.1874 24.471 36.2091 24.4602C36.2307 24.444 36.255 24.4386 36.282 24.444C36.3415 24.4494 36.3929 24.4548 36.4361 24.4602C36.4794 24.4656 36.528 24.471 36.5821 24.4764C36.6794 24.4818 36.8145 24.4899 36.9875 24.5007C37.1659 24.5115 37.3713 24.5169 37.6038 24.5169H39.4201L39.5823 24.4034C39.6418 24.4088 39.7012 24.4142 39.7607 24.4196C39.8256 24.4196 39.8877 24.425 39.9472 24.4359C40.0067 24.4413 40.0553 24.4521 40.0932 24.4683C40.131 24.4791 40.1499 24.5061 40.1499 24.5494C40.1499 24.5872 40.1364 24.6305 40.1094 24.6791C40.0824 24.7224 40.0553 24.7656 40.0283 24.8089ZM15.9623 39.0552L14.6974 35.5279C14.6757 35.4847 14.6487 35.4441 14.6163 35.4063C14.5838 35.363 14.5379 35.3279 14.4784 35.3009C14.4298 35.2738 14.3649 35.2576 14.2838 35.2522C14.2081 35.2414 14.1514 35.236 14.1135 35.236V35.0171H15.7596V35.236C15.7001 35.236 15.6191 35.2414 15.5163 35.2522C15.419 35.263 15.3569 35.2738 15.3298 35.2847C15.3028 35.2901 15.2758 35.3009 15.2488 35.3171C15.2217 35.3333 15.2028 35.3522 15.192 35.3738C15.1812 35.3955 15.1785 35.4225 15.1839 35.4549C15.1893 35.482 15.1947 35.509 15.2001 35.536L16.2137 38.3822L17.284 35.536C17.2949 35.4982 17.3003 35.4657 17.3003 35.4387C17.3003 35.4117 17.2949 35.3874 17.284 35.3657C17.2786 35.3441 17.2651 35.3279 17.2435 35.3171C17.2219 35.3009 17.1976 35.2901 17.1705 35.2847C17.1327 35.2738 17.0624 35.263 16.9597 35.2522C16.857 35.2414 16.7732 35.236 16.7083 35.236V35.0171H18.1355V35.236C18.0706 35.236 17.9976 35.2441 17.9165 35.2603C17.8354 35.2765 17.7733 35.2955 17.73 35.3171C17.676 35.3441 17.63 35.3793 17.5922 35.4225C17.5597 35.4657 17.5327 35.5063 17.5111 35.5441L16.1488 39.0552H15.9623ZM19.1055 35.7712C19.1055 35.7279 19.0974 35.6847 19.0812 35.6414C19.0649 35.5982 19.0433 35.5631 19.0163 35.536C18.9838 35.509 18.9433 35.4874 18.8947 35.4712C18.8514 35.4495 18.7919 35.4387 18.7163 35.4387H18.5216V35.2279C18.5865 35.2279 18.6757 35.2171 18.7892 35.1955C18.9082 35.1738 19.0109 35.1468 19.0974 35.1144C19.1622 35.0873 19.2271 35.0549 19.292 35.0171C19.3569 34.9792 19.4109 34.9414 19.4542 34.9035H19.5434V38.3173C19.5434 38.3498 19.5461 38.3876 19.5515 38.4309C19.5623 38.4687 19.5704 38.4984 19.5758 38.52C19.5866 38.5525 19.6028 38.5822 19.6244 38.6092C19.6461 38.6309 19.6677 38.6498 19.6893 38.666C19.7163 38.6822 19.7461 38.6957 19.7785 38.7065C19.8109 38.7174 19.8434 38.7282 19.8758 38.739C19.9191 38.7444 19.9731 38.7525 20.038 38.7633C20.1029 38.7687 20.1542 38.7714 20.1921 38.7714V38.9904H18.4568V38.7714C18.4946 38.7714 18.546 38.7687 18.6108 38.7633C18.6811 38.7525 18.7352 38.7444 18.773 38.739C18.8055 38.7282 18.8379 38.7174 18.8703 38.7065C18.9028 38.6957 18.9325 38.6822 18.9595 38.666C18.9866 38.6498 19.0082 38.6309 19.0244 38.6092C19.046 38.5822 19.0622 38.5525 19.073 38.52C19.0839 38.4984 19.092 38.4687 19.0974 38.4309C19.1028 38.3876 19.1055 38.3498 19.1055 38.3173V35.7712ZM19.665 33.5575C19.665 33.671 19.6244 33.7683 19.5434 33.8494C19.4677 33.9305 19.3758 33.971 19.2677 33.971C19.1541 33.971 19.0568 33.9305 18.9757 33.8494C18.9001 33.7683 18.8622 33.671 18.8622 33.5575C18.8622 33.4494 18.9001 33.3548 18.9757 33.2737C19.0568 33.1926 19.1541 33.152 19.2677 33.152C19.3758 33.152 19.4677 33.1926 19.5434 33.2737C19.6244 33.3548 19.665 33.4494 19.665 33.5575ZM21.1851 36.9307C21.1851 37.0983 21.1959 37.2578 21.2175 37.4091C21.2391 37.5551 21.2634 37.674 21.2905 37.7659C21.3283 37.8957 21.3743 38.0146 21.4283 38.1227C21.4878 38.2308 21.5472 38.3227 21.6067 38.3984C21.6662 38.4687 21.7392 38.539 21.8257 38.6092C21.9176 38.6741 22.0067 38.7228 22.0932 38.7552C22.1689 38.7822 22.2554 38.8039 22.3527 38.8201C22.45 38.8363 22.55 38.8444 22.6527 38.8444C22.7609 38.8444 22.8825 38.8174 23.0176 38.7633C23.1528 38.7038 23.2798 38.6282 23.3987 38.5363C23.4744 38.4768 23.5501 38.3984 23.6258 38.3011C23.7069 38.2038 23.7718 38.1119 23.8204 38.0254L23.9583 38.0903C23.9042 38.2092 23.8393 38.3254 23.7636 38.439C23.6934 38.5471 23.5988 38.6498 23.4798 38.7471C23.3231 38.8768 23.1528 38.9687 22.969 39.0228C22.7906 39.0823 22.6284 39.112 22.4825 39.112C22.3581 39.112 22.2473 39.1012 22.15 39.0796C22.0527 39.0633 21.9527 39.0363 21.85 38.9985C21.7473 38.9552 21.6419 38.9012 21.5337 38.8363C21.431 38.766 21.3418 38.6876 21.2661 38.6011C21.1851 38.5092 21.1094 38.4119 21.0391 38.3092C20.9742 38.2065 20.9202 38.0957 20.8769 37.9768C20.8229 37.8362 20.7796 37.6713 20.7472 37.4821C20.7148 37.2875 20.6985 37.0902 20.6985 36.8902C20.6985 36.7226 20.7175 36.5523 20.7553 36.3793C20.7931 36.2009 20.8391 36.0523 20.8931 35.9334C20.9364 35.8306 20.9904 35.7279 21.0553 35.6252C21.1202 35.5225 21.1959 35.4279 21.2824 35.3414C21.3472 35.2765 21.4256 35.2144 21.5175 35.1549C21.6148 35.09 21.7094 35.0387 21.8013 35.0008C21.877 34.9738 21.9662 34.9522 22.0689 34.936C22.1716 34.9144 22.2879 34.9035 22.4176 34.9035C22.6392 34.9035 22.8311 34.9495 22.9933 35.0414C23.1609 35.1279 23.2987 35.2306 23.4069 35.3495C23.5096 35.4576 23.5907 35.5685 23.6501 35.682C23.7096 35.7901 23.7582 35.909 23.7961 36.0388C23.8501 36.2118 23.8826 36.3739 23.8934 36.5253C23.9042 36.6713 23.9096 36.8064 23.9096 36.9307H21.1851ZM23.2771 36.7037C23.3474 36.7037 23.3906 36.6767 23.4069 36.6226C23.4231 36.5685 23.4312 36.5226 23.4312 36.4847C23.4312 36.4145 23.4258 36.3388 23.415 36.2577C23.4042 36.1766 23.3852 36.0928 23.3582 36.0063C23.3366 35.9307 23.3069 35.8523 23.269 35.7712C23.2366 35.6901 23.1987 35.6198 23.1555 35.5604C23.069 35.4522 22.9582 35.3549 22.823 35.2684C22.6933 35.1819 22.5473 35.1387 22.3852 35.1387C22.2122 35.1387 22.0581 35.1792 21.923 35.2603C21.7878 35.3414 21.6797 35.4306 21.5986 35.5279C21.5445 35.5928 21.4932 35.6685 21.4445 35.755C21.4013 35.8415 21.3607 35.9334 21.3229 36.0307C21.2905 36.1172 21.2634 36.2172 21.2418 36.3307C21.2202 36.4388 21.204 36.5631 21.1932 36.7037H23.2771ZM26.9733 35.5279C26.9516 35.4847 26.9246 35.4414 26.8922 35.3982C26.8651 35.3549 26.83 35.3225 26.7868 35.3009C26.7435 35.2738 26.684 35.2576 26.6084 35.2522C26.5327 35.2414 26.4786 35.236 26.4462 35.236V35.0171H27.9625V35.236C27.9085 35.236 27.8355 35.2414 27.7436 35.2522C27.6517 35.263 27.5949 35.2738 27.5733 35.2847C27.5463 35.2901 27.5219 35.3009 27.5003 35.3171C27.4787 35.3279 27.4625 35.3468 27.4517 35.3738C27.4463 35.3955 27.4436 35.4225 27.4436 35.4549C27.449 35.482 27.4544 35.509 27.4598 35.536L28.3599 38.3335L29.3167 35.536C29.3275 35.4982 29.3329 35.4657 29.3329 35.4387C29.3329 35.4117 29.3275 35.3874 29.3167 35.3657C29.3113 35.3387 29.3005 35.3198 29.2843 35.309C29.2734 35.2982 29.2545 35.2901 29.2275 35.2847C29.1896 35.2738 29.1221 35.263 29.0248 35.2522C28.9329 35.2414 28.8572 35.236 28.7977 35.236V35.0171H30.1195V35.236C30.0546 35.236 29.9843 35.2441 29.9086 35.2603C29.8384 35.2765 29.7843 35.2955 29.7465 35.3171C29.6978 35.3387 29.6573 35.3738 29.6248 35.4225C29.5978 35.4657 29.5735 35.5063 29.5518 35.5441L28.3112 39.0552H28.1085L27.176 36.1523L26.1462 39.0552H25.9434L24.8082 35.5279C24.7866 35.4847 24.7596 35.4414 24.7271 35.3982C24.7001 35.3549 24.665 35.3225 24.6217 35.3009C24.5785 35.2738 24.519 35.2576 24.4433 35.2522C24.3676 35.2414 24.3136 35.236 24.2811 35.236V35.0171H25.7975V35.236C25.7434 35.236 25.6704 35.2414 25.5785 35.2522C25.4866 35.263 25.4299 35.2738 25.4083 35.2847C25.3812 35.2901 25.3569 35.3009 25.3353 35.3171C25.3137 35.3279 25.2974 35.3468 25.2866 35.3738C25.2812 35.3955 25.2785 35.4225 25.2785 35.4549C25.2839 35.482 25.2893 35.509 25.2947 35.536L26.1948 38.3335L27.0625 35.8036L26.9733 35.5279ZM33.866 35.7063C33.9039 35.6577 33.939 35.609 33.9714 35.5604C34.0039 35.5063 34.039 35.4576 34.0768 35.4144C34.1363 35.3441 34.2012 35.2792 34.2715 35.2198C34.3471 35.1549 34.4201 35.1009 34.4904 35.0576C34.5499 35.0198 34.6363 34.9846 34.7499 34.9522C34.8688 34.9198 34.9823 34.9035 35.0904 34.9035C35.1715 34.9035 35.2688 34.9225 35.3824 34.9603C35.5013 34.9981 35.5986 35.0495 35.6743 35.1144C35.7445 35.1738 35.8013 35.236 35.8446 35.3009C35.8932 35.3603 35.931 35.4225 35.9581 35.4874C35.9797 35.5252 35.9959 35.5685 36.0067 35.6171C36.0229 35.6658 36.0365 35.7171 36.0473 35.7712C36.0797 35.7117 36.1175 35.6441 36.1608 35.5685C36.2094 35.4928 36.2581 35.4279 36.3068 35.3738C36.3608 35.309 36.4257 35.2468 36.5014 35.1873C36.577 35.1279 36.65 35.0792 36.7203 35.0414C36.7852 35.009 36.8744 34.9792 36.9879 34.9522C37.1068 34.9198 37.2203 34.9035 37.3285 34.9035C37.4095 34.9035 37.5096 34.9198 37.6285 34.9522C37.7474 34.9846 37.842 35.0306 37.9123 35.09C37.988 35.1441 38.0474 35.2009 38.0907 35.2603C38.1339 35.3144 38.1691 35.3657 38.1961 35.4144C38.2447 35.5009 38.2799 35.6009 38.3015 35.7144C38.3285 35.8279 38.3421 35.9496 38.3421 36.0793V38.4227C38.3421 38.4714 38.3502 38.52 38.3664 38.5687C38.388 38.6119 38.4096 38.6444 38.4312 38.666C38.4745 38.7038 38.534 38.7309 38.6096 38.7471C38.6853 38.7579 38.7637 38.7633 38.8448 38.7633V38.9904H37.4014V38.7633C37.4825 38.7633 37.5609 38.7579 37.6366 38.7471C37.7177 38.7309 37.7771 38.7038 37.815 38.666C37.842 38.6444 37.8636 38.6119 37.8799 38.5687C37.8961 38.52 37.9042 38.4714 37.9042 38.4227V36.1523C37.9042 36.0604 37.8934 35.9631 37.8717 35.8604C37.8555 35.7523 37.8339 35.6631 37.8069 35.5928C37.7798 35.5279 37.7393 35.4657 37.6852 35.4063C37.6366 35.3468 37.5879 35.3009 37.5393 35.2684C37.5014 35.2414 37.4447 35.2198 37.369 35.2036C37.2987 35.1873 37.2257 35.1792 37.1501 35.1792C37.0311 35.1792 36.9203 35.2009 36.8176 35.2441C36.7203 35.2874 36.6392 35.3333 36.5743 35.382C36.5203 35.4198 36.4662 35.4739 36.4122 35.5441C36.3581 35.609 36.3149 35.6658 36.2824 35.7144C36.25 35.7631 36.2176 35.8171 36.1851 35.8766C36.1527 35.9307 36.1203 35.9874 36.0878 36.0469C36.0986 36.0685 36.104 36.0901 36.104 36.1117C36.104 36.1334 36.104 36.1523 36.104 36.1685V38.4227C36.104 38.4714 36.1121 38.52 36.1284 38.5687C36.15 38.6119 36.1716 38.6444 36.1932 38.666C36.2365 38.7038 36.2959 38.7309 36.3716 38.7471C36.4473 38.7579 36.5257 38.7633 36.6068 38.7633V38.9904H35.1634V38.7633C35.2445 38.7633 35.3229 38.7579 35.3986 38.7471C35.4797 38.7309 35.5391 38.7038 35.577 38.666C35.604 38.6444 35.6256 38.6119 35.6418 38.5687C35.6581 38.52 35.6662 38.4714 35.6662 38.4227V36.1766C35.6662 36.0793 35.6554 35.9766 35.6337 35.8685C35.6175 35.7604 35.5959 35.6712 35.5689 35.6009C35.5526 35.5522 35.5202 35.4955 35.4716 35.4306C35.4283 35.3657 35.3797 35.3144 35.3256 35.2765C35.2769 35.2441 35.2148 35.2198 35.1391 35.2036C35.0634 35.1873 34.9877 35.1792 34.912 35.1792C34.8093 35.1792 34.712 35.2009 34.6201 35.2441C34.5282 35.2874 34.4498 35.3333 34.385 35.382C34.3471 35.4144 34.2931 35.4657 34.2228 35.536C34.1579 35.6009 34.1039 35.6631 34.0606 35.7225C34.0228 35.7712 33.9876 35.8225 33.9552 35.8766C33.9228 35.9307 33.893 35.9847 33.866 36.0388V38.4227C33.866 38.4714 33.8741 38.52 33.8903 38.5687C33.912 38.6119 33.9336 38.6444 33.9552 38.666C33.9985 38.7038 34.0579 38.7309 34.1336 38.7471C34.2093 38.7579 34.2877 38.7633 34.3688 38.7633V38.9904H32.9254V38.7633C33.0065 38.7633 33.0849 38.7579 33.1606 38.7471C33.2416 38.7309 33.3011 38.7038 33.3389 38.666C33.366 38.6444 33.3876 38.6119 33.4038 38.5687C33.42 38.52 33.4281 38.4714 33.4281 38.4227V35.8117C33.4281 35.7685 33.42 35.7252 33.4038 35.682C33.3876 35.6333 33.366 35.5955 33.3389 35.5685C33.3065 35.536 33.2633 35.5117 33.2092 35.4955C33.1551 35.4739 33.0849 35.463 32.9984 35.463H32.8686V35.2522C32.9335 35.2522 33.0173 35.2414 33.12 35.2198C33.2281 35.1982 33.3335 35.1684 33.4363 35.1306C33.5119 35.1036 33.5876 35.0711 33.6633 35.0333C33.739 34.9954 33.8066 34.9549 33.866 34.9117V35.7063ZM39.3629 37.0037C39.3629 36.8794 39.3737 36.7388 39.3954 36.5821C39.4224 36.4199 39.4548 36.282 39.4927 36.1685C39.5251 36.0658 39.5657 35.9577 39.6143 35.8442C39.6684 35.7252 39.7305 35.6198 39.8008 35.5279C39.8549 35.4576 39.9251 35.382 40.0116 35.3009C40.1035 35.2198 40.1981 35.1522 40.2954 35.0982C40.3819 35.0495 40.5036 35.0063 40.6603 34.9684C40.8171 34.9252 40.955 34.9035 41.0739 34.9035C41.1982 34.9035 41.3361 34.9252 41.4874 34.9684C41.6442 35.0063 41.7658 35.0495 41.8523 35.0982C41.9496 35.1522 42.0415 35.2198 42.128 35.3009C42.2199 35.382 42.2929 35.4576 42.347 35.5279C42.4172 35.6198 42.4767 35.7252 42.5253 35.8442C42.5794 35.9577 42.6227 36.0658 42.6551 36.1685C42.6929 36.282 42.7227 36.4199 42.7443 36.5821C42.7713 36.7388 42.7848 36.8794 42.7848 37.0037C42.7848 37.128 42.7713 37.2713 42.7443 37.4335C42.7227 37.5902 42.6929 37.7254 42.6551 37.8389C42.6227 37.9416 42.5794 38.0524 42.5253 38.1714C42.4767 38.2849 42.4172 38.3876 42.347 38.4795C42.2929 38.5498 42.2199 38.6255 42.128 38.7065C42.0415 38.7876 41.9496 38.8552 41.8523 38.9093C41.7658 38.9579 41.6442 39.0012 41.4874 39.039C41.3361 39.0823 41.1982 39.1039 41.0739 39.1039C40.955 39.1039 40.8171 39.0823 40.6603 39.039C40.5036 39.0012 40.3819 38.9579 40.2954 38.9093C40.1981 38.8552 40.1035 38.7876 40.0116 38.7065C39.9251 38.6255 39.8549 38.5498 39.8008 38.4795C39.7305 38.3876 39.6684 38.2849 39.6143 38.1714C39.5657 38.0524 39.5251 37.9416 39.4927 37.8389C39.4548 37.7254 39.4224 37.5902 39.3954 37.4335C39.3737 37.2713 39.3629 37.128 39.3629 37.0037ZM39.8332 37.0037C39.8332 37.0956 39.8386 37.2118 39.8495 37.3524C39.8657 37.4875 39.8846 37.6011 39.9062 37.693C39.9224 37.7632 39.9522 37.8605 39.9954 37.9849C40.0387 38.1092 40.0819 38.2092 40.1252 38.2849C40.1684 38.3498 40.2198 38.4227 40.2792 38.5038C40.3441 38.5795 40.4144 38.6444 40.49 38.6984C40.5549 38.7417 40.6414 38.7822 40.7495 38.8201C40.8631 38.8579 40.9712 38.8768 41.0739 38.8768C41.1766 38.8768 41.282 38.8579 41.3901 38.8201C41.5036 38.7822 41.5928 38.7417 41.6577 38.6984C41.7334 38.6444 41.8037 38.5795 41.8685 38.5038C41.9334 38.4227 41.9848 38.3498 42.0226 38.2849C42.0659 38.2092 42.1091 38.1092 42.1523 37.9849C42.1956 37.8605 42.2253 37.7632 42.2415 37.693C42.2632 37.6011 42.2794 37.4875 42.2902 37.3524C42.3064 37.2118 42.3145 37.0956 42.3145 37.0037C42.3145 36.9118 42.3064 36.7983 42.2902 36.6631C42.2794 36.5226 42.2632 36.4064 42.2415 36.3145C42.2253 36.2442 42.1956 36.1469 42.1523 36.0226C42.1091 35.8928 42.0659 35.7928 42.0226 35.7225C41.9848 35.6577 41.9334 35.5874 41.8685 35.5117C41.8037 35.4306 41.7334 35.363 41.6577 35.309C41.5928 35.2657 41.5036 35.2252 41.3901 35.1873C41.282 35.1495 41.1766 35.1306 41.0739 35.1306C40.9712 35.1306 40.8631 35.1495 40.7495 35.1873C40.6414 35.2252 40.5549 35.2657 40.49 35.309C40.4144 35.363 40.3441 35.4306 40.2792 35.5117C40.2198 35.5874 40.1684 35.6577 40.1252 35.7225C40.0819 35.7928 40.0387 35.8928 39.9954 36.0226C39.9522 36.1469 39.9224 36.2442 39.9062 36.3145C39.8846 36.4064 39.8657 36.5226 39.8495 36.6631C39.8386 36.7983 39.8332 36.9118 39.8332 37.0037ZM44.3112 36.0226C44.349 35.9631 44.3815 35.9036 44.4085 35.8442C44.4409 35.7793 44.4761 35.7198 44.5139 35.6658C44.5734 35.5685 44.6355 35.4766 44.7004 35.3901C44.7707 35.3036 44.8328 35.236 44.8869 35.1873C44.9301 35.1441 44.9815 35.1036 45.041 35.0657C45.1004 35.0279 45.1572 34.9981 45.2112 34.9765C45.2545 34.9549 45.3113 34.9387 45.3815 34.9279C45.4518 34.9117 45.5086 34.9035 45.5518 34.9035C45.6059 34.9035 45.6707 34.9171 45.7464 34.9441C45.8275 34.9657 45.8978 35.0035 45.9573 35.0576C46.0005 35.0954 46.0356 35.1441 46.0627 35.2036C46.0951 35.2576 46.1113 35.3144 46.1113 35.3738C46.1113 35.4117 46.1032 35.4549 46.087 35.5036C46.0708 35.5468 46.0492 35.5847 46.0221 35.6171C45.9951 35.6495 45.96 35.6739 45.9167 35.6901C45.8789 35.7063 45.8437 35.7144 45.8113 35.7144C45.7681 35.7144 45.7248 35.7009 45.6816 35.6739C45.6383 35.6414 45.5978 35.6063 45.5599 35.5685C45.5383 35.5414 45.514 35.5144 45.4869 35.4874C45.4653 35.4603 45.441 35.436 45.414 35.4144C45.3923 35.3982 45.3653 35.3847 45.3329 35.3738C45.3004 35.3576 45.268 35.3495 45.2356 35.3495C45.2031 35.3495 45.168 35.3576 45.1302 35.3738C45.0977 35.3847 45.0707 35.3955 45.0491 35.4063C45.022 35.4225 44.9869 35.4468 44.9437 35.4793C44.9004 35.5117 44.8626 35.5468 44.8301 35.5847C44.7923 35.6225 44.7436 35.6847 44.6842 35.7712C44.6301 35.8523 44.5761 35.9388 44.522 36.0307C44.4842 36.1009 44.4463 36.1712 44.4085 36.2415C44.376 36.3118 44.3436 36.3847 44.3112 36.4604V38.3173C44.3112 38.3498 44.3139 38.3876 44.3193 38.4309C44.3301 38.4687 44.3382 38.4984 44.3436 38.52C44.3544 38.5525 44.3706 38.5822 44.3923 38.6092C44.4139 38.6309 44.4355 38.6498 44.4571 38.666C44.4842 38.6822 44.5139 38.6957 44.5463 38.7065C44.5788 38.7174 44.6112 38.7282 44.6436 38.739C44.6869 38.7444 44.7409 38.7525 44.8058 38.7633C44.8707 38.7687 44.922 38.7714 44.9599 38.7714V38.9904H43.2246V38.7714C43.2624 38.7714 43.3138 38.7687 43.3787 38.7633C43.4489 38.7525 43.503 38.7444 43.5408 38.739C43.5733 38.7282 43.6057 38.7174 43.6381 38.7065C43.6706 38.6957 43.7003 38.6822 43.7273 38.666C43.7544 38.6498 43.776 38.6309 43.7922 38.6092C43.8138 38.5822 43.8301 38.5525 43.8409 38.52C43.8517 38.4984 43.8598 38.4687 43.8652 38.4309C43.8706 38.3876 43.8733 38.3498 43.8733 38.3173V35.7712C43.8733 35.7279 43.8652 35.6847 43.849 35.6414C43.8328 35.5982 43.8111 35.5631 43.7841 35.536C43.7517 35.509 43.7111 35.4874 43.6625 35.4712C43.6192 35.4495 43.5598 35.4387 43.4841 35.4387H43.2895V35.2279C43.3543 35.2279 43.4435 35.2171 43.5571 35.1955C43.676 35.1738 43.7787 35.1468 43.8652 35.1144C43.9301 35.0873 43.9949 35.0549 44.0598 35.0171C44.1247 34.9792 44.1787 34.9414 44.222 34.9035H44.3112V36.0226ZM46.9525 36.9307C46.9525 37.0983 46.9634 37.2578 46.985 37.4091C47.0066 37.5551 47.0309 37.674 47.058 37.7659C47.0958 37.8957 47.1417 38.0146 47.1958 38.1227C47.2553 38.2308 47.3147 38.3227 47.3742 38.3984C47.4337 38.4687 47.5066 38.539 47.5931 38.6092C47.685 38.6741 47.7742 38.7228 47.8607 38.7552C47.9364 38.7822 48.0229 38.8039 48.1202 38.8201C48.2175 38.8363 48.3175 38.8444 48.4202 38.8444C48.5283 38.8444 48.65 38.8174 48.7851 38.7633C48.9203 38.7038 49.0473 38.6282 49.1662 38.5363C49.2419 38.4768 49.3176 38.3984 49.3933 38.3011C49.4744 38.2038 49.5392 38.1119 49.5879 38.0254L49.7257 38.0903C49.6717 38.2092 49.6068 38.3254 49.5311 38.439C49.4609 38.5471 49.3662 38.6498 49.2473 38.7471C49.0906 38.8768 48.9203 38.9687 48.7365 39.0228C48.5581 39.0823 48.3959 39.112 48.2499 39.112C48.1256 39.112 48.0148 39.1012 47.9175 39.0796C47.8202 39.0633 47.7202 39.0363 47.6175 38.9985C47.5147 38.9552 47.4093 38.9012 47.3012 38.8363C47.1985 38.766 47.1093 38.6876 47.0336 38.6011C46.9525 38.5092 46.8769 38.4119 46.8066 38.3092C46.7417 38.2065 46.6877 38.0957 46.6444 37.9768C46.5904 37.8362 46.5471 37.6713 46.5147 37.4821C46.4822 37.2875 46.466 37.0902 46.466 36.8902C46.466 36.7226 46.4849 36.5523 46.5228 36.3793C46.5606 36.2009 46.6066 36.0523 46.6606 35.9334C46.7039 35.8306 46.7579 35.7279 46.8228 35.6252C46.8877 35.5225 46.9634 35.4279 47.0498 35.3414C47.1147 35.2765 47.1931 35.2144 47.285 35.1549C47.3823 35.09 47.4769 35.0387 47.5688 35.0008C47.6445 34.9738 47.7337 34.9522 47.8364 34.936C47.9391 34.9144 48.0553 34.9035 48.1851 34.9035C48.4067 34.9035 48.5986 34.9495 48.7608 35.0414C48.9284 35.1279 49.0662 35.2306 49.1743 35.3495C49.2771 35.4576 49.3581 35.5685 49.4176 35.682C49.4771 35.7901 49.5257 35.909 49.5636 36.0388C49.6176 36.2118 49.6501 36.3739 49.6609 36.5253C49.6717 36.6713 49.6771 36.8064 49.6771 36.9307H46.9525ZM49.0446 36.7037C49.1149 36.7037 49.1581 36.6767 49.1743 36.6226C49.1906 36.5685 49.1987 36.5226 49.1987 36.4847C49.1987 36.4145 49.1933 36.3388 49.1825 36.2577C49.1716 36.1766 49.1527 36.0928 49.1257 36.0063C49.1041 35.9307 49.0743 35.8523 49.0365 35.7712C49.0041 35.6901 48.9662 35.6198 48.923 35.5604C48.8365 35.4522 48.7257 35.3549 48.5905 35.2684C48.4608 35.1819 48.3148 35.1387 48.1526 35.1387C47.9797 35.1387 47.8256 35.1792 47.6904 35.2603C47.5553 35.3414 47.4472 35.4306 47.3661 35.5279C47.312 35.5928 47.2607 35.6685 47.212 35.755C47.1688 35.8415 47.1282 35.9334 47.0904 36.0307C47.058 36.1172 47.0309 36.2172 47.0093 36.3307C46.9877 36.4388 46.9715 36.5631 46.9607 36.7037H49.0446Z" fill="#E8E9EB"/>
</svg>
